<?xml version="1.0" encoding="utf-8"?>
<!-- Generator: Adobe Illustrator 19.2.0, SVG Export Plug-In . SVG Version: 6.00 Build 0)  -->
<svg version="1.1" id="Capa_1" xmlns="http://www.w3.org/2000/svg" xmlns:xlink="http://www.w3.org/1999/xlink" x="0px" y="0px"
	 width="263.5px" height="252px" viewBox="0 0 263.5 252" style="enable-background:new 0 0 263.5 252;" xml:space="preserve">
<g>
	<ellipse style="fill:#0078B3;" cx="131" cy="244.2" rx="122.5" ry="4.4"/>
	<g>
		<g>
			<path style="fill:#FF6189;" d="M147.8,197.7c0.1,0.1,0.1,0.2,0.2,0.3c0.2,0.6-0.1,1.2-0.6,1.3l-21.6,4.5
				c-0.5,0.1-1.2-0.3-1.3-0.9c-0.2-0.6,0.1-1.2,0.6-1.3l21.6-4.5C147.1,197,147.6,197.3,147.8,197.7z"/>
		</g>
		<g>
			<path style="fill:#841654;" d="M155.3,204.4c-0.4,0.9-1.5,1.3-2.4,0.9l-11.6-5.4c-0.9-0.4-1.3-1.5-0.9-2.4l0,0
				c0.4-0.9,1.5-1.3,2.4-0.9l11.6,5.4C155.4,202.4,155.7,203.5,155.3,204.4L155.3,204.4z"/>
		</g>
		<g>
			<path style="fill:#A2418E;" d="M142,112.1l-7.1-1.2l-29.6-2.1c0,0-2.6,10.6,2.6,14.3c4.1,2.9,18.4,3,18.4,3l31.1,12l-9.6,42.5
				l6.9,1.4c0,0,2.6-6,6.2-12.9c3-5.8,6.8-12,8.8-19c1.8-6.3,3.4-11.8,4.3-17c0.4-2.4,0.1-4.3-0.7-5.8
				C171.4,123.9,142,112.1,142,112.1z"/>
			<g>
				<path style="fill:#FFB497;" d="M153.7,182l-1.6,6.1l3,7.1c0,0,1.1,1.3,1.8,2.4c0.4,0.7,0.7,1.3,0.4,1.6
					c-0.2,0.3-0.7,0.3-1.2,0.2c-1.3-0.2-3.1-1-3.1-1l-4.1-3.9c0,0-0.4-0.2-0.8-0.5c-0.8-0.5-2-1.3-2.1-2c-0.1-0.5,0.3-1.4,0.8-2.3
					c0.6-1.1,1-1.6,1-1.6l2.2-7.4L153.7,182z"/>
			</g>
			<g>
				<path style="fill:#E4FBFB;" d="M144.1,193.4h0.4l2.7-4.3c0,0,0.1-0.1,0.6,0.6c0.5,0.7,0.1,1.6,0.1,1.6s0,0,0.1,0.4
					s0.5,1.3,1.8,1.5s1.9-0.6,1.9-0.6V192c0,0-0.1-0.2,0.5-1.2s1.4-1.2,1.4-1.2l0.4,1.7c0,0,0.3,0.2,0.3,0.4s2.4,4.8,2.6,5
					c0,0.1,1,1,1,1s1.3,0.8,2.2,1.8c0.9,0.9,0.5,2.3,0.5,2.3s0,0,0,0.3s-0.8,2-0.8,2s-0.2,0.4-2.5,0.2c-0.6-0.1-6.4-3.1-6.4-3.1
					c-2.6-1.3-5.2-2.7-6-3.3c-1.5-1-1.8-1.7-1.8-1.7L144.1,193.4z"/>
				<path style="fill:#00AECF;" d="M154.8,196.9c0,0.3,0.2,0.6,0.5,0.6s0.5-0.3,0.6-0.6c0-0.3-0.2-0.6-0.5-0.6
					C155.1,196.3,154.8,196.5,154.8,196.9z"/>
				<path style="fill:#00AECF;" d="M153.8,195.5c0,0.3,0.2,0.6,0.5,0.6s0.5-0.3,0.6-0.6c0-0.3-0.2-0.6-0.5-0.6
					C154.1,194.8,153.8,195.1,153.8,195.5z"/>
				<path style="fill:#00AECF;" d="M152.8,193.9c0,0.3,0.2,0.6,0.5,0.6s0.5-0.3,0.6-0.6c0-0.3-0.2-0.6-0.5-0.6
					C153.1,193.3,152.8,193.6,152.8,193.9z"/>
				<g>
					<path style="fill:#00BAE6;" d="M156.7,195.9l-1.2,1.1c-0.1,0.1-0.1,0.1-0.2,0.1c-0.1,0-0.2,0-0.2-0.1c-0.1-0.1-0.1-0.4,0.1-0.5
						l1.2-1.1c0.1-0.1,0.3-0.1,0.4,0C156.8,195.6,156.8,195.8,156.7,195.9z"/>
					<path style="fill:#00BAE6;" d="M155.6,194.5l-1.2,1.1c-0.1,0.1-0.1,0.1-0.2,0.1c-0.1,0-0.2,0-0.2-0.1c-0.1-0.1-0.1-0.4,0.1-0.5
						l1.2-1.1c0.1-0.1,0.3-0.1,0.4,0C155.8,194.2,155.8,194.4,155.6,194.5z"/>
					<path style="fill:#00BAE6;" d="M154.7,193l-1.2,1.1c-0.1,0.1-0.1,0.1-0.2,0.1c-0.1,0-0.2,0-0.2-0.1c-0.1-0.1-0.1-0.4,0.1-0.5
						l1.2-1.1c0.1-0.1,0.3-0.1,0.4,0C154.8,192.6,154.8,192.8,154.7,193z"/>
				</g>
				<g>
					<path style="fill:#00BAE6;" d="M152.9,199.5c5.2,2.9,7.2,2.5,7.3,2.4v-0.6l-0.1,0.1c0,0-2.1,0.4-7.1-2.4
						c-4.5-2.5-7.2-4.2-8.2-5.1c-0.2-0.2-0.5-0.6-0.5-0.7c0,0-0.5,0-0.4,0.2c0,0.2,0.3,0.5,0.5,0.7
						C145.4,195.1,148,196.7,152.9,199.5z"/>
				</g>
			</g>
			<polygon style="fill:#FF96EA;" points="155.9,179.9 154.8,183.1 146.5,182 147.4,178.1 			"/>
		</g>
		<g>
			<g>
				<path style="fill:#841654;" d="M209.2,108.8c0,1.8-1.5,3.3-3.3,3.3h-5.1c-1.8,0-3.3-1.5-3.3-3.3l0,0c0-1.8,1.5-3.3,3.3-3.3h5.1
					C207.8,105.5,209.2,107,209.2,108.8L209.2,108.8z"/>
			</g>
			<g>
				<circle style="fill:#841654;" cx="212" cy="195.6" r="6.4"/>
			</g>
			<g>
				<g>
					<path style="fill:#FFA668;" d="M123.3,199.5c-0.5,0-1-0.2-1.4-0.6c-0.7-0.8-0.7-2,0.1-2.7l63.9-59.8L51.3,196.8
						c-1,0.4-2.1,0-2.6-1c-0.4-1,0-2.1,1-2.6L195,128c0.9-0.4,1.9-0.1,2.4,0.7c0.5,0.8,0.4,1.8-0.3,2.5L124.7,199
						C124.3,199.3,123.8,199.5,123.3,199.5z"/>
				</g>
			</g>
			<g>
				<path style="fill:#FFA668;" d="M258,174.2c-6.6-15-20.1-26-36.1-29.4c-27.6-5.9-54.9,11.7-60.8,39.3c-0.4,2-0.7,4-0.9,6.3
					l-0.1,0.8l5.4-0.9l0.1-0.5c0.2-1.5,0.4-3.1,0.7-4.6c5.3-24.7,29.7-40.5,54.4-35.2c14.1,3,25.7,12.3,31.9,25.4l0.2,0.4l5.4-0.9
					L258,174.2z"/>
			</g>
			<g>
				<path style="fill:#FFA668;" d="M92.3,175.6c1.6-0.7,3.3-1.3,5-2c-5.6-12.2-15.8-22-28.6-26.7c-14.7-5.5-30.3-3.8-43,3.4
					c0.4,1.8,0.8,3.7,1.2,5.5c11.6-7.1,26.2-9,39.9-3.8C78.3,156.2,87.3,164.6,92.3,175.6z"/>
			</g>
			<g>
				<circle style="fill:#FF6189;" cx="212" cy="195.6" r="3.7"/>
			</g>
			<g>
				<g>
					<g>
						<path style="fill:#CFF0F3;" d="M51.8,239.9C27,239.9,6.9,219.8,6.9,195s20.1-44.9,44.9-44.9s44.9,20.1,44.9,44.9
							C96.7,219.7,76.6,239.9,51.8,239.9z M51.8,153.7c-22.8,0-41.3,18.5-41.3,41.3s18.5,41.3,41.3,41.3s41.3-18.5,41.3-41.3
							S74.6,153.7,51.8,153.7z"/>
					</g>
				</g>
				<g>
					<g>
						<path style="fill:#841654;" d="M51.8,243.2c-26.6,0-48.2-21.6-48.2-48.2s21.6-48.2,48.2-48.2S100,168.4,100,195
							C100.1,221.5,78.4,243.2,51.8,243.2z M51.8,150.6c-24.5,0-44.3,19.9-44.3,44.3s19.9,44.3,44.3,44.3
							c24.5,0,44.3-19.9,44.3-44.3S76.3,150.6,51.8,150.6z"/>
					</g>
				</g>
			</g>
			<g>
				<circle style="fill:#841654;" cx="50.5" cy="195.1" r="4"/>
			</g>
			<g>
				<circle style="fill:#841654;" cx="124" cy="198.8" r="12.2"/>
			</g>
			<g>
				<path style="fill:#CFF0F3;" d="M124,216.1c-2.1,0-66-12.3-73.3-13.7l0,0c-3.9,0-7.2-3.3-7.2-7.3c0-4.1,3.3-7.4,7.4-7.4
					c0.3,0,0.7,0,1,0.1c7.3-0.6,71.4-5.8,72.2-5.8c9.4,0,17,7.6,17,17C141,208.5,133.4,216.1,124,216.1z M50.8,189
					c-3.3,0-6.1,2.7-6.1,6.1c0,3.3,2.7,6.1,6.1,6.1c19.8,3.8,71.3,13.7,73.2,13.7c8.7,0,15.7-7.1,15.7-15.7
					c0-8.7-7.1-15.7-15.7-15.7c-1,0-46.9,3.7-71.5,5.7v0.1l-0.7-0.1C51.4,189.1,51.1,189,50.8,189z"/>
			</g>
			<g>
				<path style="fill:#FFA668;" d="M124,202.2c-0.9,0-1.7-0.6-1.9-1.5l-18.2-77.8c-0.2-1,0.4-2.1,1.4-2.3c1.1-0.2,2.1,0.4,2.3,1.4
					l18.2,77.8c0.2,1-0.4,2.1-1.4,2.3C124.3,202.2,124.1,202.2,124,202.2z"/>
			</g>
			<g>
				<path style="fill:#841654;" d="M122.5,123c0,2.7-2.2,4.9-4.9,4.9h-23c-2.7,0-4.9-2.2-4.9-4.9l0,0c0-2.7,2.2-4.9,4.9-4.9h22.9
					C120.3,118,122.5,120.2,122.5,123L122.5,123z"/>
			</g>
			<g>
				<path style="fill:#FFA668;" d="M212,197c-0.9,0-1.7-0.6-1.9-1.5l-20.9-84.2c-0.3-1,0.4-2.1,1.4-2.3c1-0.3,2.1,0.4,2.3,1.4
					l20.9,84.2c0.3,1-0.4,2.1-1.4,2.3C212.3,197,212.1,197,212,197z"/>
			</g>
			<g>
				<g>
					<g>
						<path style="fill:#CFF0F3;" d="M211.7,240c-24.8,0-44.9-20.1-44.9-44.9s20.1-44.9,44.9-44.9s44.9,20.1,44.9,44.9
							C256.6,219.8,236.4,240,211.7,240z M211.7,153.8c-22.8,0-41.3,18.5-41.3,41.3s18.5,41.3,41.3,41.3s41.3-18.5,41.3-41.3
							S234.4,153.8,211.7,153.8z"/>
					</g>
				</g>
				<g>
					<g>
						<path style="fill:#841654;" d="M211.7,243.3c-26.6,0-48.2-21.6-48.2-48.2s21.6-48.2,48.2-48.2s48.2,21.6,48.2,48.2
							C259.9,221.6,238.2,243.3,211.7,243.3z M211.7,150.7c-24.5,0-44.3,19.9-44.3,44.3s19.9,44.3,44.3,44.3S256,219.4,256,195
							S236.1,150.7,211.7,150.7z"/>
					</g>
				</g>
			</g>
			<g>
				<g>
					<path style="fill:#FFA668;" d="M206.5,108.8c0,1.2-0.9,2.1-2.1,2.1h-26.8c-1.2,0-2.1-0.9-2.1-2.1l0,0c0-1.2,0.9-2.1,2.1-2.1
						h26.8C205.6,106.7,206.5,107.6,206.5,108.8L206.5,108.8z"/>
				</g>
			</g>
			<g>
				<path style="fill:#841654;" d="M181.4,108.8c0,1.8-1.5,3.3-3.3,3.3H173c-1.8,0-3.3-1.5-3.3-3.3l0,0c0-1.8,1.5-3.3,3.3-3.3h5.1
					C179.9,105.5,181.4,107,181.4,108.8L181.4,108.8z"/>
			</g>
			<g>
				<path style="fill:#FF6189;" d="M107.7,222.9c-0.1-0.1-0.2-0.1-0.3-0.2c-0.5-0.5-0.6-1.2-0.1-1.7l18.2-18.7
					c0.5-0.5,1.3-0.5,1.8,0s0.6,1.2,0.1,1.7l-18.2,18.7C108.8,223,108.2,223.1,107.7,222.9z"/>
			</g>
			<g>
				<path style="fill:#841654;" d="M117.5,230.9c-0.5,0.8-1.6,1.1-2.5,0.6l-10.9-6.7c-0.8-0.5-1.1-1.6-0.6-2.5l0,0
					c0.5-0.8,1.6-1.1,2.5-0.6l10.9,6.7C117.7,228.9,118,230,117.5,230.9L117.5,230.9z"/>
			</g>
			<g>
				<circle style="fill:#CFF0F3;" cx="124" cy="198.8" r="6.7"/>
			</g>
		</g>
		<g>
			<path style="fill:#BB4FA2;" d="M157.3,162.3c-0.9-4.1-21.1-46.9-21.1-46.9l-16.2-1.1l-16.1-0.7c0,0-0.9,7,2.2,12.3
				c2.4,4.2,11,8.9,11,8.9s19.2,23.8,22.9,31c-4,8.6-24.5,40.6-24.5,40.6l7,4.5c0,0,11.2-11.7,21.7-23c4.4-4.6,8.9-12,11.2-16.5
				C158.7,168.1,157.5,163,157.3,162.3z"/>
			<g>
				<path style="fill:#FFB497;" d="M122,209.4l-3.1,4.6l1.7,7.4c0,0,1,1.4,1.6,2.6c0.3,0.7,0.5,1.4,0.1,1.6c-0.3,0.2-0.9,0.2-1.6,0
					c-1.5-0.4-3.5-1.5-3.5-1.5l-3.9-4.5c0,0-0.4-0.2-0.9-0.6c-0.9-0.6-2-1.6-2-2.3c0-0.5,0.8-1.3,1.6-2.1c1.1-1,1.6-1.4,1.6-1.4
					l4.1-6.2L122,209.4z"/>
			</g>
			<g>
				<path style="fill:#E4FBFB;" d="M107.8,217.6h0.4l4.4-3.7c0,0,0.1-0.1,0.6,0.7c0.5,0.7-0.3,1.6-0.3,1.6s0,0,0,0.4
					s0.3,1.3,1.8,1.8c1.5,0.4,2.4-0.2,2.4-0.2l0.1-0.5c0,0-0.1-0.2,0.9-1.1c1-0.9,2-0.9,2-0.9v1.7c0,0,0.3,0.3,0.2,0.4
					c0,0.1,1.7,5,1.8,5.3c-0.1,0.1,0.9,1.1,0.9,1.1s1.3,1,2.1,2.1c0.8,1-0.1,2.3-0.1,2.3s0,0-0.1,0.3s-1.5,1.7-1.5,1.7
					s-0.4,0.4-3-0.3c-0.7-0.2-6.9-4.1-6.8-4.1c-2.8-1.7-5.6-3.6-6.4-4.2c-1.6-1.2-1.7-1.9-1.7-1.9L107.8,217.6z"/>
				<path style="fill:#00AECF;" d="M119.9,222.9c-0.1,0.3,0.1,0.6,0.5,0.6s0.7-0.2,0.8-0.5c0.1-0.3-0.1-0.6-0.5-0.6
					C120.3,222.3,120,222.5,119.9,222.9z"/>
				<path style="fill:#00AECF;" d="M119,221.3c-0.1,0.3,0.1,0.6,0.5,0.6s0.7-0.2,0.8-0.5c0.1-0.3-0.1-0.6-0.5-0.6
					C119.5,220.8,119.1,221,119,221.3z"/>
				<path style="fill:#00AECF;" d="M118.2,219.6c-0.1,0.3,0.1,0.6,0.5,0.6s0.7-0.2,0.8-0.5c0.1-0.3-0.1-0.6-0.5-0.6
					C118.7,219.1,118.3,219.3,118.2,219.6z"/>
				<g>
					<path style="fill:#00BAE6;" d="M122.3,222.3l-1.7,0.9c-0.1,0-0.2,0.1-0.2,0.1c-0.1,0-0.2-0.1-0.2-0.1c-0.1-0.2,0-0.4,0.2-0.5
						l1.7-0.9c0.2-0.1,0.4-0.1,0.5,0.1C122.6,222,122.5,222.2,122.3,222.3z"/>
					<path style="fill:#00BAE6;" d="M121.5,220.7l-1.7,0.9c-0.1,0-0.2,0.1-0.2,0.1c-0.1,0-0.2-0.1-0.2-0.1c-0.1-0.2,0-0.4,0.2-0.5
						l1.7-0.9c0.2-0.1,0.4-0.1,0.5,0.1C121.8,220.4,121.7,220.6,121.5,220.7z"/>
					<path style="fill:#00BAE6;" d="M120.7,219.1L119,220c-0.1,0-0.2,0.1-0.2,0.1c-0.1,0-0.2-0.1-0.2-0.1c-0.1-0.2,0-0.4,0.2-0.5
						l1.7-0.9c0.2-0.1,0.4-0.1,0.5,0.1C121,218.8,120.9,219,120.7,219.1z"/>
				</g>
				<g>
					<path style="fill:#00BAE6;" d="M116.9,225.1c5.5,3.7,8.1,3.7,8.2,3.7l0.2-0.5h-0.1c0,0-2.6,0-7.9-3.6c-4.7-3.2-7.6-5.4-8.5-6.4
						c-0.2-0.2-0.4-0.6-0.4-0.7c0,0-0.6,0-0.6,0.1s0.2,0.5,0.4,0.8C109,219.4,111.6,221.5,116.9,225.1z"/>
				</g>
			</g>
			<polygon style="fill:#FF96EA;" points="124.7,208.6 122.5,210.9 114.2,207.4 116.2,204.5 			"/>
		</g>
		<path style="fill:#FFB497;" d="M206.6,104.4c-0.5-0.7-1.3-1.5-1.9-2.1c-0.5-0.5-1.1-0.8-1.7-1c-1.6-0.7-3.8-0.7-5.4-0.2
			c-1.1,0.3-5.3,1.9-6,1.8c-10.1-2.1-22.4-11.2-26.5-15.1c-6.9-6.5-13.4-23.3-13.4-23.3s-8.5,11-7.6,10.5c1,5.1,8.2,13.6,17,21.2
			c9.7,8.3,26.7,10.4,27.7,10.4c0.5,0,1.2-0.2,1.7-0.1c0.4,0.1,9.3,0.6,9.5,0.6c0.4,0.1,0.8,0.9,0.8,1.2c0.2,0.8-0.8,2.6,0.4,2.8
			c1.2,0.1,1.1-1.7,1.3-2.5c0,0.8-0.4,2,0.7,2.1c0.9,0,1.1-1.5,1.2-2.2c0.1,0.8,0.4,2,1.3,1.1c0.6-0.6,0.4-1.8,0.3-2.6
			c0.1,0.5,0.4,0.9,0.9,0.7C207.2,106.6,207.3,105.5,206.6,104.4L206.6,104.4z"/>
		<path style="fill:#003456;" d="M163.2,19.3c-2.2-1.2-2.4-3.6-3.3-5.6c-1-2.4-4.1-3.7-6.4-4.6c-1-0.4-1.8-0.1-2.7-0.7
			c-0.7-0.5-2.7-0.9-3.3-1.4c-2.8-2.2-7.4-1.5-9-0.3s-4.1,3.3-4.3,5.2c-0.2,2.1-1.7,2.4-2.4,4.2c-1,2.4-1,5.3-0.4,8
			c0.7,3.1,2.1,6.1,4,8.4c0.6,0.7,1.2,1.3,2,1.8c1.8,1.3,4.5,1.6,6.5,0.4c4.4-2.5,7.2-7.1,11.6-9.6c0-0.2,0.1-0.4,0.2-0.5
			c0.3-0.4,0.7-0.5,1.2-0.6c1.6-0.2,3.5-0.2,5-0.2c-0.8-1.6-2.1-2.9-1.9-5C160.6,19.4,162.2,19.3,163.2,19.3z"/>
		<path style="fill:#FFFFFF;" d="M146.5,48.6c-2.8-2.6-6.8-3.9-10.4-4.9c-2-0.6-4.2-1-6.4-1.1c-2.3-0.1-4.6,0.1-6.4,0.9
			c-9.3,4-11.4,12.8-13.4,22.5c-0.6,3.1-9.8,45.4-10.3,47.7c-1.2,5.8,4.6,8.2,17.8,10.9c5.2,1.1,9.8,1.4,13.5,1.1
			c5.7-0.5,9.4-2.6,10.1-6.1c0.5-2.4,7.9-49.3,7.9-49.3l0,0C149.4,62.9,149.4,55.5,146.5,48.6z"/>
		<path style="fill:#FFEEC0;" d="M152.2,59.5c-0.7-4.1-1.9-6.3-4.6-9.7c-0.3-0.4-0.7-0.8-1.1-1.2c2.8,6.9,2.8,14.2,2.4,21.7
			c0.1,0,4.7-1,4.7-1.2C153.7,69.2,152.7,62.2,152.2,59.5z"/>
		<path style="fill:#FFEEC0;" d="M142.5,47.2c-0.5-0.9-2.5-2.5-2.5-2.5l-8.1-3.1l-2.2,0.8l0,0c-4.7-0.2-8.5,1.6-12.3,4.7
			c-2,1.6-4.3,5-5.2,8.6c-2.1,7.7-12.7,56.4-13.2,58.7c-1.2,5.8,4.6,8.1,17.7,10.8c4.2,0.9,8.3,0.9,11.5,0.8c-1.8-0.2-4-0.1-6-0.6
			c-2.6-0.5-5.3-1.1-7.6-2.5c-1.6-1-4.1-4.5-4.3-6.7c1-0.2,2.7,0.7,3.7,0.7c2.4,0,5.5,1.3,7.8,0.1c1-0.6,1.4-1.9,1.5-3
			c0.4-2.7,1.5-5.9,1.4-8.5c-1,2.5-1,5.5-2.4,7.8c-0.9,1.5-1.5,1.5-3,1.2c-1.9-0.4-4.4-0.4-6-1.5c-3.1-2.1-2-7-1.5-10.4
			c0.3-2.5,0.9-4.9,1.5-7.4c0.5-2,0.7-4.2,1.5-6.1c2-4.2,4-5.7,6.2-9.8c1.3-2.4,9.2-7.4,9.7-10.2c-2.1,0.5-15.2,2-15.2,2
			s-1.6-1.8-1.7-3.7c-0.1-1.4,0-2.7-0.4-4c-0.1-0.3-0.1-0.7-0.1-1c-0.8-2.6,1-5.5,2.3-7.9c2.2-4.2,5.6-7.5,9.6-9.6
			c1.5-0.8,3-1.3,4.6-1.7c0.7,1.5,2.8,4.7,7.8,6.6C144.6,52.4,143,48.1,142.5,47.2z"/>
		<path style="fill:#FFB497;" d="M131.6,42.8l5.2-18.5l5.7,11.3c0,0.1-0.1,0.5-0.2,0.6c-0.1,0.5-0.3,1-0.4,1.5
			c-0.5,1.7-0.9,3.3-1.4,5c-0.2,0.7-0.4,1.4-0.6,2.1c-0.1,0.2-0.1,0.4-0.2,0.7c-0.2,0.6,0.1,1.1,0.4,1.6c0.1,0.3,0.4,0.9,0.1,1.1
			c-0.2,0.2-0.8,0-1.1-0.1c-0.7-0.2-6.8-3.9-7.5-4.5C131.5,43.3,131.4,43.2,131.6,42.8z"/>
		<path style="fill:#FFBFA1;" d="M138.6,19.2c0.8,0.7,0.6,1,0.6,1c2.5-4.9,6.7-7.9,10.5-7c2.9,0.6,4.6,1.9,5.5,3.7
			c1.4,2.8,0.8,6.7-0.4,11c-0.9,3.3-3.1,6.5-4.4,8.7c-1.5,2.4-2.4,3.5-4.9,2.9c-1.6-0.3-3.2-1.3-4.5-2.8c-2.4-2.6-4.1-6.5-3.6-10.7
			c0,0,0,0-0.1,0c-0.5-0.1-0.8-0.3-1.1-0.6c-0.7-0.7-0.9-1.7-0.7-2.8c0.2-0.9,0.3-2.2,1-3.1C137.3,18.4,138.2,18.8,138.6,19.2z"/>
		<path style="fill:#FFEEC0;" d="M113.5,100.2c-0.1,0.4,0.2,0.8,0.5,0.9l11.2,2.3c0.4,0.1,0.8-0.2,0.8-0.6l0,0
			c0.1-0.4-0.2-0.8-0.5-0.9l-11.2-2.3C113.9,99.5,113.5,99.8,113.5,100.2L113.5,100.2z"/>
		<g>
			<path style="fill:#FFBFA1;" d="M178.4,107.5c-0.4-0.7-1.2-1.7-1.7-2.3c-0.5-0.5-1-0.9-1.6-1.2c-1.6-0.8-3.8-1.1-5.6-0.8
				c-1.2,0.2-5.7,1.4-6.5,1.1c-10.3-3.3-22-9.8-25.7-14.3c-4.7-5.9-6.4-12.7-6.9-17.2c-0.2-1.5-0.2-3.3-0.1-4.7
				c-2.2,0.9-9.2,1.2-13.7,3c0.5,5.3,2.6,13.2,9.6,21.8c0.9,1.1,1.8,2.2,2.8,3.2c3.8,4.1,9,7.1,15.6,9.1c3.8,1.1,7.8,1.8,11.8,2.2
				c1.1,0.1,2.2,0.2,3.2,0.3c0.5,0,1.2-0.1,1.7,0.1c0.4,0.1,0.6,0.4,1,0.7c1.3,1.2,3,2,4.8,1.9c1-0.1,1.8-0.4,2.8-0.6
				c0.2,0,1.1-0.4,1.2-0.4c0.4,0.1,0.7,0.9,0.7,1.3c0.1,0.8-1.2,2.6,0.1,2.8c1.3,0.3,1.4-1.6,1.6-2.4c0,0.8-0.6,2,0.5,2.2
				c0.9,0.1,1.4-1.4,1.5-2.1c0.1,0.8,0.2,2.1,1.2,1.3c0.7-0.5,0.7-1.8,0.7-2.6c0.1,0.5,0.3,1,0.8,0.8
				C178.8,109.8,179,108.7,178.4,107.5C178.4,107.6,178.4,107.6,178.4,107.5z"/>
			<path style="fill:#FFEEC0;" d="M130.7,67.6l-16.3,2.7l-0.2-6.6c0-0.3-0.3-0.5-0.6-0.5c-0.3,0-0.6,0.3-0.5,0.6l0.2,4.4l-0.8-1.3
				c-0.2-0.3-0.5-0.3-0.8-0.2c-0.3,0.2-0.4,0.5-0.2,0.8l1.9,3.2l0.6,1.2l16.9-2.8L130.7,67.6z"/>
		</g>
		<g>
			<path style="fill:#E1DAEF;" d="M151.6,8.3l-3.2-1.5c-1.3-0.6-5.8,0.1-7.8,2.9c-2.4,3.5-3.6,6.9-3.7,7.1c-0.2-0.1-0.5-0.2-0.6-0.2
				c-1.6-0.4-3.3,1.2-3.9,3.6c-0.6,2.4,0.2,4.6,1.8,5c0.2,0.1,1.2,0.5,1.6,0.6c1.6,0.4,3.3-1.2,3.9-3.6c0.3-1.5,0.2-2.9-0.4-3.8
				c0.4-1.2,1.5-4.1,3.4-6.5c3.5-4.6,9.1-3.2,9.1-3.2L151.6,8.3z"/>
			<g>
				<path style="fill:#FFFFFF;" d="M148.5,6.8l3.2,1.5c0,0-5.6-1.4-9.1,3.2c-2.4,3.2-3.6,7.1-3.6,7.1l-1.9-1.7c0,0,1.2-3.5,3.7-7.1
					C142.7,6.9,147.1,6.2,148.5,6.8z"/>
				
					<ellipse transform="matrix(0.2325 -0.9726 0.9726 0.2325 83.6018 147.7351)" style="fill:#FFFFFF;" cx="135.4" cy="20.9" rx="4.4" ry="2.9"/>
				
					<ellipse transform="matrix(0.2325 -0.9726 0.9726 0.2325 83.4657 146.5757)" style="fill:#2BC6EB;" cx="134.6" cy="20.4" rx="2.4" ry="1.4"/>
			</g>
		</g>
	</g>
</g>
</svg>
