<svg id="Layer_1" data-name="Layer 1" xmlns="http://www.w3.org/2000/svg" viewBox="0 0 1876 559.68"><defs><style>.cls-1{fill:#58595b;}.cls-2,.cls-22{fill:#fff;}.cls-2{opacity:0.5;}.cls-3{fill:#7f7f7f;}.cls-4{fill:#3a3a3a;}.cls-5{fill:#dee2e3;}.cls-6{fill:#333;}.cls-7{fill:#999;}.cls-8{fill:#959595;}.cls-9{fill:#ecf0f1;}.cls-10{fill:#2e2e2e;}.cls-11{fill:#e0e0e0;}.cls-12{fill:#1f1f1f;}.cls-13{fill:gray;}.cls-14{fill:#b3b3b3;}.cls-15{fill:#cfcfcf;}.cls-16{fill:#9c9c9c;}.cls-17{fill:#e6e6e6;}.cls-18{fill:#696969;}.cls-19{fill:#4a4a4a;}.cls-20{fill:#878787;}.cls-21{fill:#f2f2f2;}.cls-23{fill:#808184;}.cls-24{fill:#c1272d;}.cls-25{fill:#fbb03b;}.cls-26{opacity:0.3;}.cls-27{fill:#ebebeb;}.cls-28{fill:#ededed;}.cls-29{fill:#f5f5f5;}.cls-30{fill:#e3e3e3;}.cls-31{fill:#d1d1d1;}.cls-32{opacity:0.8;}.cls-33{fill:#bfbfbf;}.cls-34{fill:#17171b;}.cls-35{fill:#5a964d;}.cls-36{fill:#a62d2e;}.cls-37{fill:#725988;}.cls-38{fill:#be7537;}.cls-39{fill:#d1a746;}.cls-40{fill:#436795;}.cls-41,.cls-44{fill:#1fad03;}.cls-42{fill:#7fd832;}.cls-43,.cls-44{font-size:42.45px;font-family:Gilroy;font-weight:700;}.cls-43{fill:#d17326;}.cls-45{letter-spacing:-2px;}</style></defs><title>bus</title><g id="_Grupo_" data-name="&lt;Grupo&gt;"><rect id="_Rectángulo_" data-name="&lt;Rectángulo&gt;" class="cls-1" x="424.3" y="351.09" width="263.8" height="137.22"/><rect id="_Rectángulo_2" data-name="&lt;Rectángulo&gt;" class="cls-1" x="1311.2" y="351.09" width="263.8" height="137.22"/><g id="_Grupo_2" data-name="&lt;Grupo&gt;"><g id="_Grupo_3" data-name="&lt;Grupo&gt;"><path id="_Trazado_" data-name="&lt;Trazado&gt;" d="M121.47,657.23l-9.6,1.45c-5.44.82-10.72-3.87-11.79-10.49L86.94,561c-0.93-6.64,2.74-12.68,8.18-13.5l9.6-1.45c5.43-.81,11.73,3.66,13.74,10.09a308.78,308.78,0,0,1,13.16,87.42C131.61,650.28,126.91,656.41,121.47,657.23Z" transform="translate(-57 -350)"/><path id="_Trazado_2" data-name="&lt;Trazado&gt;" d="M190,639.41q0,4.86,0,9.71a10,10,0,0,1-9.62,10.1h-70a10,10,0,0,1-9.62-10.1v-9.71c0-5.5,4.26-11.06,9.54-12.09a195,195,0,0,1,70.15,0C185.78,628.35,190,633.91,190,639.41Z" transform="translate(-57 -350)"/></g><g id="_Grupo_4" data-name="&lt;Grupo&gt;"><path id="_Trazado_3" data-name="&lt;Trazado&gt;" d="M281.6,723.53L272,725c-5.44.82-10.72-3.87-11.79-10.49l-13.13-87.22c-0.93-6.64,2.74-12.68,8.18-13.5l9.6-1.45c5.43-.81,11.73,3.66,13.74,10.09a308.78,308.78,0,0,1,13.16,87.42C291.74,716.58,287,722.7,281.6,723.53Z" transform="translate(-57 -350)"/><path id="_Trazado_4" data-name="&lt;Trazado&gt;" d="M350.17,705.7v9.71a10,10,0,0,1-9.62,10.1h-70a10,10,0,0,1-9.62-10.1V705.7c0-5.5,4.26-11.06,9.54-12.09a195,195,0,0,1,70.15,0C345.91,694.65,350.17,700.21,350.17,705.7Z" transform="translate(-57 -350)"/></g><g id="_Grupo_5" data-name="&lt;Grupo&gt;"><path id="_Trazado_5" data-name="&lt;Trazado&gt;" d="M513.1,633.25l-9.6,1.45c-5.44.82-10.72-3.87-11.79-10.49L478.57,537c-0.93-6.64,2.74-12.68,8.18-13.5l9.6-1.45c5.43-.81,11.73,3.66,13.74,10.09a308.78,308.78,0,0,1,13.16,87.42C523.24,626.3,518.54,632.43,513.1,633.25Z" transform="translate(-57 -350)"/><path id="_Trazado_6" data-name="&lt;Trazado&gt;" d="M581.67,615.43v9.71a10,10,0,0,1-9.62,10.1h-70a10,10,0,0,1-9.62-10.1v-9.71c0-5.5,4.26-11.06,9.54-12.09a195,195,0,0,1,70.15,0C577.41,604.37,581.66,609.93,581.67,615.43Z" transform="translate(-57 -350)"/></g><g id="_Grupo_6" data-name="&lt;Grupo&gt;"><path id="_Trazado_7" data-name="&lt;Trazado&gt;" d="M672.3,633.25l-9.6,1.45c-5.44.82-10.72-3.87-11.79-10.49L637.77,537c-0.93-6.64,2.74-12.68,8.18-13.5l9.6-1.45c5.43-.81,11.73,3.66,13.74,10.09a308.78,308.78,0,0,1,13.16,87.42C682.44,626.3,677.74,632.43,672.3,633.25Z" transform="translate(-57 -350)"/><path id="_Trazado_8" data-name="&lt;Trazado&gt;" d="M740.87,615.43q0,4.86,0,9.71a10,10,0,0,1-9.62,10.1h-70a10,10,0,0,1-9.62-10.1v-9.71c0-5.5,4.26-11.06,9.54-12.09a195,195,0,0,1,70.15,0C736.61,604.37,740.86,609.93,740.87,615.43Z" transform="translate(-57 -350)"/></g><g id="_Grupo_7" data-name="&lt;Grupo&gt;"><path id="_Trazado_9" data-name="&lt;Trazado&gt;" d="M831.5,633.25l-9.6,1.45c-5.44.82-10.72-3.87-11.79-10.49L797,537c-0.93-6.64,2.74-12.68,8.18-13.5l9.6-1.45c5.43-.81,11.73,3.66,13.74,10.09a308.78,308.78,0,0,1,13.16,87.42C841.64,626.3,836.93,632.43,831.5,633.25Z" transform="translate(-57 -350)"/><path id="_Trazado_10" data-name="&lt;Trazado&gt;" d="M900.07,615.43v9.71a10,10,0,0,1-9.62,10.1h-70a10,10,0,0,1-9.62-10.1v-9.71c0-5.5,4.26-11.06,9.54-12.09a195,195,0,0,1,70.15,0C895.81,604.37,900.06,609.93,900.07,615.43Z" transform="translate(-57 -350)"/></g><g id="_Grupo_8" data-name="&lt;Grupo&gt;"><path id="_Trazado_11" data-name="&lt;Trazado&gt;" d="M990.7,633.25l-9.6,1.45c-5.44.82-10.72-3.87-11.79-10.49L956.17,537c-0.93-6.64,2.74-12.68,8.18-13.5L974,522c5.43-.81,11.73,3.66,13.74,10.09a308.78,308.78,0,0,1,13.16,87.42C1000.83,626.3,996.13,632.43,990.7,633.25Z" transform="translate(-57 -350)"/><path id="_Trazado_12" data-name="&lt;Trazado&gt;" d="M1059.27,615.43v9.71a10,10,0,0,1-9.62,10.1h-70a10,10,0,0,1-9.62-10.1q0-4.86,0-9.71c0-5.5,4.26-11.06,9.54-12.09a195,195,0,0,1,70.15,0C1055,604.37,1059.26,609.93,1059.27,615.43Z" transform="translate(-57 -350)"/></g><g id="_Grupo_9" data-name="&lt;Grupo&gt;"><path id="_Trazado_13" data-name="&lt;Trazado&gt;" d="M1149.9,633.25l-9.6,1.45c-5.44.82-10.72-3.87-11.79-10.49L1115.37,537c-0.93-6.64,2.74-12.68,8.18-13.5l9.6-1.45c5.43-.81,11.73,3.66,13.74,10.09a308.78,308.78,0,0,1,13.16,87.42C1160,626.3,1155.33,632.43,1149.9,633.25Z" transform="translate(-57 -350)"/><path id="_Trazado_14" data-name="&lt;Trazado&gt;" d="M1218.46,615.43v9.71a10,10,0,0,1-9.62,10.1h-70a10,10,0,0,1-9.62-10.1v-9.71c0-5.5,4.26-11.06,9.54-12.09a195,195,0,0,1,70.15,0C1214.21,604.37,1218.46,609.93,1218.46,615.43Z" transform="translate(-57 -350)"/></g><g id="_Grupo_10" data-name="&lt;Grupo&gt;"><path id="_Trazado_15" data-name="&lt;Trazado&gt;" d="M1309.1,633.25l-9.6,1.45c-5.44.82-10.72-3.87-11.79-10.49L1274.57,537c-0.93-6.64,2.74-12.68,8.18-13.5l9.6-1.45c5.43-.81,11.73,3.66,13.74,10.09a308.78,308.78,0,0,1,13.16,87.42C1319.23,626.3,1314.53,632.43,1309.1,633.25Z" transform="translate(-57 -350)"/><path id="_Trazado_16" data-name="&lt;Trazado&gt;" d="M1377.66,615.43v9.71a10,10,0,0,1-9.62,10.1h-70a10,10,0,0,1-9.62-10.1v-9.71c0-5.5,4.26-11.06,9.54-12.09a195,195,0,0,1,70.15,0C1373.41,604.37,1377.66,609.93,1377.66,615.43Z" transform="translate(-57 -350)"/></g><g id="_Grupo_11" data-name="&lt;Grupo&gt;"><path id="_Trazado_17" data-name="&lt;Trazado&gt;" d="M1468.3,633.25l-9.6,1.45c-5.44.82-10.72-3.87-11.79-10.49L1433.77,537c-0.93-6.64,2.74-12.68,8.18-13.5l9.6-1.45c5.43-.81,11.73,3.66,13.74,10.09a308.78,308.78,0,0,1,13.16,87.42C1478.43,626.3,1473.73,632.43,1468.3,633.25Z" transform="translate(-57 -350)"/><path id="_Trazado_18" data-name="&lt;Trazado&gt;" d="M1536.86,615.43v9.71a10,10,0,0,1-9.62,10.1h-70a10,10,0,0,1-9.62-10.1v-9.71c0-5.5,4.26-11.06,9.54-12.09a195,195,0,0,1,70.15,0C1532.61,604.37,1536.86,609.93,1536.86,615.43Z" transform="translate(-57 -350)"/></g><g id="_Grupo_12" data-name="&lt;Grupo&gt;"><path id="_Trazado_19" data-name="&lt;Trazado&gt;" d="M1766.69,714.83l-9.6,1.45c-5.44.82-10.72-3.87-11.79-10.49l-13.13-87.22c-0.93-6.64,2.74-12.68,8.18-13.5l9.6-1.45c5.43-.81,11.73,3.66,13.74,10.09a308.78,308.78,0,0,1,13.16,87.42C1776.82,707.89,1772.12,714,1766.69,714.83Z" transform="translate(-57 -350)"/><path id="_Trazado_20" data-name="&lt;Trazado&gt;" d="M1835.26,697v9.71a10,10,0,0,1-9.62,10.1h-70a10,10,0,0,1-9.62-10.1V697c0-5.5,4.26-11.06,9.54-12.09a195,195,0,0,1,70.15,0C1831,686,1835.25,691.52,1835.26,697Z" transform="translate(-57 -350)"/></g></g><rect id="_Rectángulo_3" data-name="&lt;Rectángulo&gt;" class="cls-2" x="42.33" y="65.43" width="141.71" height="171.87" rx="6.33" ry="6.33"/><rect id="_Rectángulo_4" data-name="&lt;Rectángulo&gt;" class="cls-3" x="42.33" y="148.44" width="141.71" height="5.84"/><path id="_Trazado_compuesto_" data-name="&lt;Trazado compuesto&gt;" class="cls-4" d="M241,575a12,12,0,0,1-12.29,12H111.66C104.85,587,99,581.78,99,575V427.74C99,421,104.85,416,111.66,416H228.71c6.81,0,12.29,5,12.29,11.74V575Zm115,88H273V461h83V663Zm115,0H388V461h83V663Zm293-90a14.35,14.35,0,0,1-14.33,14H512.93A14,14,0,0,1,499,573V431.35c0-7.7,6.23-14.35,13.93-14.35H749.67A14.64,14.64,0,0,1,764,431.35V573Zm280,0c0,7.7-7,14-14.65,14H792.62A13.74,13.74,0,0,1,779,573V431.35c0-7.7,5.92-14.35,13.62-14.35h236.73c7.7,0,14.65,6.65,14.65,14.35V573Zm279,0a14,14,0,0,1-14,14H1072.3a14.33,14.33,0,0,1-14.3-14V431.35A14.61,14.61,0,0,1,1072.3,417H1309c7.7,0,14,6.65,14,14.35V573Zm280,0a13.88,13.88,0,0,1-13.79,14H1352.48c-7.7,0-13.48-6.32-13.48-14V431.35c0-7.7,5.78-14.35,13.48-14.35h236.73c7.7,0,13.79,6.65,13.79,14.35V573Zm110,90h-84V461h84V663Zm114,0h-83V461h83V663Zm22,8V458c0-8,18,0,18,0,13.42,26,17.57,213,17.57,213H1849Zm53.29,100h-9.73s-0.28-6.32-.48-16c-0.58-27.16,9.5-24.36,9.5-24.36s0-.53,0-1.43c0-4.37-.13-18.95-0.48-39.69-0.87-51.66-3.27-141.5-9.83-206.62C1881.53,386.23,1855.6,367,1855.6,367H83.44C63.66,367,65,379.43,65,379.43v202.1l0.35,9.16,0.71,27.91,0.72,38.47L67,673.18v63.61l0.24,0-1.5,1.81-0.61.74-0.3.37-5.24,5.79s-0.47,25,.17,42.48,10.37,20.43,10.37,20.43l7,1.28,2.92,0.54,34.09,6.26,0.37,0.07,2.91,0.3L255.63,842H509.75a191.37,191.37,0,0,1-1.51-25.38c0-60.7,48.35-109.8,108-109.8s108,49,108,109.74A225.77,225.77,0,0,1,722.92,842h662.37a191.37,191.37,0,0,1-1.51-25.38c0-60.7,48.35-109.8,108-109.8s108,49,108,109.74a225.77,225.77,0,0,1-1.28,25.44h271.73a39.17,39.17,0,0,0,8.16-.71C1895.29,837.78,1906,825,1906,825v-42.8C1906,774.4,1902.29,771,1902.29,771Z" transform="translate(-57 -350)"/><path id="_Trazado_21" data-name="&lt;Trazado&gt;" class="cls-5" d="M1906,782.18V825s-10.71,12.8-27.65,16.31a39.17,39.17,0,0,1-8.16.71H1598.46a225.77,225.77,0,0,0,1.28-25.44c0-60.7-48.35-109.74-108-109.74s-108,49.1-108,109.8a191.37,191.37,0,0,0,1.51,25.38H722.92a225.77,225.77,0,0,0,1.28-25.44c0-60.7-48.35-109.74-108-109.74s-108,49.1-108,109.8A191.37,191.37,0,0,0,509.75,842H255.63L117.45,816.9l-2.91-.3-0.37-.07-34.09-6.26-2.92-.54-7-1.28S60.4,805.53,59.76,788s-0.17-42.48-.17-42.48l5.24-5.79,0.3-.37,0.61-.74,1.5-1.81-0.24,0V626.64c317.11-18.21,698.51-18.83,1108.85-18.83,256.24,0,499.34,24.09,725.24,31.65,0.35,20.74.45,85.32,0.48,89.69,0,0.9,0,1.43,0,1.43s-10.08-2.8-9.5,24.36c0.2,9.73.48,16,.48,16h9.73S1906,774.4,1906,782.18Z" transform="translate(-57 -350)"/><g id="_Grupo_13" data-name="&lt;Grupo&gt;"><path id="_Trazado_22" data-name="&lt;Trazado&gt;" class="cls-6" d="M1838.5,416.72c-3.49,0-5.5,2.83-5.5,6.32v9.89c0,3.49,2,6.32,5.5,6.32s5.5-2.83,5.5-6.32V423C1844,419.55,1842,416.72,1838.5,416.72Z" transform="translate(-57 -350)"/><g id="_Grupo_14" data-name="&lt;Grupo&gt;"><path id="_Trazado_23" data-name="&lt;Trazado&gt;" class="cls-6" d="M1932,529h-4V446.72a7.15,7.15,0,0,0-4.42-6.83l-85.38-10.94,0.46-4.13,85.65,11,0.17,0.06a10.58,10.58,0,0,1,3.82,2.28,11.41,11.41,0,0,1,3.7,8.56V529Z" transform="translate(-57 -350)"/></g><path id="_Trazado_24" data-name="&lt;Trazado&gt;" class="cls-6" d="M1933,506.54v27.9c0,14.9-11.25,23.56-11.25,23.56H1920V483h1.75S1933,491.64,1933,506.54Z" transform="translate(-57 -350)"/></g><rect id="_Rectángulo_5" data-name="&lt;Rectángulo&gt;" class="cls-6" x="42.33" y="154.28" width="141.71" height="5.84"/><rect id="_Rectángulo_6" data-name="&lt;Rectángulo&gt;" class="cls-3" x="125.76" y="456.93" width="88.85" height="5.84" transform="matrix(0, -1, 1, 0, -346.67, 280.03)"/><rect id="_Rectángulo_7" data-name="&lt;Rectángulo&gt;" class="cls-3" x="168.15" y="103.37" width="4.62" height="13.38"/><rect id="_Rectángulo_8" data-name="&lt;Rectángulo&gt;" class="cls-3" x="52.49" y="103.37" width="4.62" height="13.38"/><polygon id="_Trazado_25" data-name="&lt;Trazado&gt;" class="cls-6" points="61 237 61 467.14 57 466.6 57 237 61 237"/><rect id="_Trazado_26" data-name="&lt;Trazado&gt;" class="cls-6" x="39" y="17" width="3" height="60"/><path id="_Trazado_27" data-name="&lt;Trazado&gt;" class="cls-2" d="M1849,570V671h35.53s-4.35-186.86-17.77-213.15c0,0-17.77-8.36-17.77,0V570Z" transform="translate(-57 -350)"/><g id="_Grupo_15" data-name="&lt;Grupo&gt;"><path id="_Trazado_compuesto_2" data-name="&lt;Trazado compuesto&gt;" class="cls-6" d="M1888.42,676H1847V457.8a5.48,5.48,0,0,1,2.48-5c2.49-1.51,6.42-1.23,12.16.84a62.35,62.35,0,0,1,7.13,3.13l0.72,0.39,0.36,0.75c3.14,6.36,5.94,21.22,8.58,45.44,2.06,18.91,4,43.33,5.67,72.58,2.9,49.76,4.23,96.94,4.25,97.41ZM1852,671h31.13c-0.32-11-1.66-51.73-4.16-94.7-4.67-80.07-9.79-107.07-13.38-115.32a59.16,59.16,0,0,0-5.81-2.5c-4.88-1.76-7.12-1.63-7.71-1.27a1,1,0,0,0-.07.6V671Z" transform="translate(-57 -350)"/></g><rect id="_Rectángulo_9" data-name="&lt;Rectángulo&gt;" class="cls-6" x="243.95" y="444.71" width="252.12" height="2.92" transform="translate(683.03 542.33) rotate(180)"/><rect id="_Rectángulo_10" data-name="&lt;Rectángulo&gt;" class="cls-6" x="1605.58" y="444.71" width="270.36" height="2.92" transform="translate(3424.52 542.33) rotate(180)"/><rect id="_Rectángulo_11" data-name="&lt;Rectángulo&gt;" class="cls-6" x="97.03" y="396.24" width="1770.24" height="5.84" transform="translate(1907.3 448.32) rotate(180)"/><rect id="_Rectángulo_12" data-name="&lt;Rectángulo&gt;" class="cls-7" x="198.63" y="487.86" width="255.32" height="4.64"/><rect id="_Rectángulo_13" data-name="&lt;Rectángulo&gt;" class="cls-7" x="664.57" y="487.86" width="664.57" height="4.64"/><rect id="_Rectángulo_14" data-name="&lt;Rectángulo&gt;" class="cls-7" x="1541.46" y="487.86" width="280.12" height="4.64"/><g id="_Grupo_16" data-name="&lt;Grupo&gt;"><path id="_Trazado_28" data-name="&lt;Trazado&gt;" class="cls-7" d="M505.57,828c0,0.34,0,1.27.06,2.19s0,2,.06,2.41c0.18,3.12.43,6.47,0.75,10.26h5.86c-0.33-3.95-.59-7.4-0.78-10.59,0-.34,0-1.27-0.06-2.19s0-2-.06-2.37c-0.1-2.19-.17-4.44-0.21-6.72,0-1.35,0-2.72,0-4.1,0-59,47.13-107,105.06-107s105.06,48,105.06,107c0,1.5,0,3,0,4.45v0.25c0,1,0,2-.07,3.05v0.25c0,0.69,0,1.4-.07,2.09l0,0.48c0,0.92-.07,1.88-0.12,2.78l-0.06,1.23c0,0.93-.09,2.16-0.17,3.11l-0.09,1.34c-0.08,1.21-.16,2.54-0.24,3.54,0,0.46-.08,1.08-0.12,1.75s-0.07,1.13-.11,1.65H726c0-.43.06-0.86,0.08-1.28,0-.63.08-1.22,0.11-1.64,0.09-1,.17-2.4.25-3.65l0.08-1.27c0.08-1,.14-2.3.18-3.26l0.06-1.19c0.05-.93.09-1.92,0.12-2.88l0-.44c0-.7.06-1.45,0.07-2.19v-0.22c0-1,.06-2.07.07-3.13v-0.27c0-1.49,0-3,0-4.54,0-62.23-49.75-112.85-110.9-112.85s-110.9,50.62-110.9,112.84c0,1.41,0,2.81,0,4.19C505.4,823.41,505.48,825.71,505.57,828Z" transform="translate(-57 -350)"/></g><g id="_Grupo_17" data-name="&lt;Grupo&gt;"><path id="_Trazado_29" data-name="&lt;Trazado&gt;" class="cls-7" d="M1381.11,828c0,0.34,0,1.27.06,2.19s0,2,.06,2.41c0.18,3.09.43,6.41,0.74,10.15h5.86c-0.33-3.9-.58-7.32-0.77-10.48,0-.34,0-1.27-0.06-2.19s0-2-.06-2.37c-0.1-2.19-.17-4.44-0.21-6.72,0-1.35,0-2.72,0-4.1,0-59,47.13-107,105.06-107s105.06,48,105.06,107c0,1.5,0,3,0,4.45v0.25c0,1,0,2-.07,3.05v0.25c0,0.69,0,1.4-.07,2.09l0,0.48c0,0.92-.07,1.88-0.12,2.78l-0.06,1.23c0,0.93-.09,2.16-0.17,3.11l-0.09,1.34c-0.08,1.21-.16,2.54-0.24,3.54,0,0.46-.08,1.08-0.12,1.75,0,0.51-.07,1-0.1,1.54h5.85c0-.39.05-0.79,0.08-1.17,0-.63.08-1.22,0.11-1.64,0.09-1,.17-2.4.25-3.65l0.08-1.27c0.08-1,.14-2.3.18-3.26l0.06-1.19c0.05-.93.09-1.92,0.12-2.88l0-.44c0-.7.06-1.45,0.07-2.19v-0.22c0-1,.06-2.07.07-3.13v-0.27c0-1.49,0-3,0-4.54,0-62.23-49.75-112.85-110.9-112.85s-110.9,50.62-110.9,112.84c0,1.41,0,2.81,0,4.19C1380.94,823.41,1381,825.71,1381.11,828Z" transform="translate(-57 -350)"/></g><g id="_Grupo_18" data-name="&lt;Grupo&gt;"><path id="_Trazado_30" data-name="&lt;Trazado&gt;" class="cls-6" d="M1896.94,675h-5.84c0-2,.62-161.33-28.61-275.17l4.77-3.67C1896.7,510.77,1897,673,1896.94,675Z" transform="translate(-57 -350)"/></g><g id="_Grupo_19" data-name="&lt;Grupo&gt;"><rect id="_Trazado_31" data-name="&lt;Trazado&gt;" class="cls-2" x="442" y="67" width="265" height="170" rx="9.76" ry="9.76"/><g id="_Grupo_20" data-name="&lt;Grupo&gt;"><g id="_Grupo_21" data-name="&lt;Grupo&gt;"><path id="_Trazado_32" data-name="&lt;Trazado&gt;" class="cls-8" d="M761.92,510.74h-5.84v-76.8a10.7,10.7,0,0,0-10.68-10.68H517.2a10.7,10.7,0,0,0-10.68,10.68v76.8h-5.84v-76.8a16.54,16.54,0,0,1,16.52-16.52H745.4a16.54,16.54,0,0,1,16.52,16.52v76.8Z" transform="translate(-57 -350)"/></g><rect id="_Rectángulo_15" data-name="&lt;Rectángulo&gt;" class="cls-6" x="441.99" y="155.97" width="264.61" height="5.84"/><g id="_Grupo_22" data-name="&lt;Grupo&gt;"><path id="_Trazado_compuesto_3" data-name="&lt;Trazado compuesto&gt;" class="cls-6" d="M750,590.53H512.6A16.54,16.54,0,0,1,496.08,574V431a16.54,16.54,0,0,1,16.52-16.52H750A16.54,16.54,0,0,1,766.52,431V574A16.54,16.54,0,0,1,750,590.53ZM512.6,420.29A10.7,10.7,0,0,0,501.91,431V574A10.7,10.7,0,0,0,512.6,584.7H750A10.7,10.7,0,0,0,760.68,574V431A10.7,10.7,0,0,0,750,420.29H512.6Z" transform="translate(-57 -350)"/></g><rect id="_Rectángulo_16" data-name="&lt;Rectángulo&gt;" class="cls-3" x="573.33" y="70.48" width="2.92" height="86.14"/><rect id="_Rectángulo_17" data-name="&lt;Rectángulo&gt;" class="cls-3" x="444.94" y="146.82" width="258.73" height="9.8"/><rect id="_Rectángulo_18" data-name="&lt;Rectángulo&gt;" class="cls-3" x="452.53" y="103.37" width="3.89" height="20.43"/><rect id="_Rectángulo_19" data-name="&lt;Rectángulo&gt;" class="cls-3" x="691.52" y="103.37" width="3.89" height="20.43"/></g></g><g id="_Grupo_23" data-name="&lt;Grupo&gt;"><rect id="_Trazado_33" data-name="&lt;Trazado&gt;" class="cls-2" x="722" y="67" width="265" height="170" rx="10.85" ry="10.85"/><g id="_Grupo_24" data-name="&lt;Grupo&gt;"><g id="_Grupo_25" data-name="&lt;Grupo&gt;"><path id="_Trazado_34" data-name="&lt;Trazado&gt;" class="cls-8" d="M1041.61,510.74h-5.84v-76.8a10.7,10.7,0,0,0-10.68-10.68H796.89a10.7,10.7,0,0,0-10.68,10.68v76.8h-5.84v-76.8a16.54,16.54,0,0,1,16.52-16.52h228.2a16.54,16.54,0,0,1,16.52,16.52v76.8Z" transform="translate(-57 -350)"/></g><rect id="_Rectángulo_20" data-name="&lt;Rectángulo&gt;" class="cls-6" x="721.68" y="155.97" width="264.61" height="5.84"/><g id="_Grupo_26" data-name="&lt;Grupo&gt;"><path id="_Trazado_compuesto_4" data-name="&lt;Trazado compuesto&gt;" class="cls-6" d="M1029.69,590.53H792.28A16.54,16.54,0,0,1,775.76,574V431a16.54,16.54,0,0,1,16.52-16.52h237.4A16.54,16.54,0,0,1,1046.21,431V574A16.54,16.54,0,0,1,1029.69,590.53ZM792.28,420.29A10.7,10.7,0,0,0,781.6,431V574a10.7,10.7,0,0,0,10.68,10.68h237.4A10.7,10.7,0,0,0,1040.37,574V431a10.7,10.7,0,0,0-10.68-10.68H792.28Z" transform="translate(-57 -350)"/></g><rect id="_Rectángulo_21" data-name="&lt;Rectángulo&gt;" class="cls-3" x="853.01" y="70.48" width="2.92" height="86.14"/><rect id="_Rectángulo_22" data-name="&lt;Rectángulo&gt;" class="cls-3" x="724.63" y="146.82" width="258.73" height="9.8"/><rect id="_Rectángulo_23" data-name="&lt;Rectángulo&gt;" class="cls-3" x="732.22" y="103.37" width="3.89" height="20.43"/><rect id="_Rectángulo_24" data-name="&lt;Rectángulo&gt;" class="cls-3" x="971.21" y="103.37" width="3.89" height="20.43"/></g></g><g id="_Grupo_27" data-name="&lt;Grupo&gt;"><rect id="_Trazado_35" data-name="&lt;Trazado&gt;" class="cls-2" x="1001" y="67" width="265" height="170" rx="14.28" ry="14.28"/><g id="_Grupo_28" data-name="&lt;Grupo&gt;"><g id="_Grupo_29" data-name="&lt;Grupo&gt;"><path id="_Trazado_36" data-name="&lt;Trazado&gt;" class="cls-8" d="M1321.29,510.74h-5.84v-76.8a10.7,10.7,0,0,0-10.68-10.68h-228.2a10.7,10.7,0,0,0-10.68,10.68v76.8h-5.84v-76.8a16.54,16.54,0,0,1,16.52-16.52h228.2a16.54,16.54,0,0,1,16.52,16.52v76.8Z" transform="translate(-57 -350)"/></g><rect id="_Rectángulo_25" data-name="&lt;Rectángulo&gt;" class="cls-6" x="1001.37" y="155.97" width="264.61" height="5.84"/><g id="_Grupo_30" data-name="&lt;Grupo&gt;"><path id="_Trazado_compuesto_5" data-name="&lt;Trazado compuesto&gt;" class="cls-6" d="M1309.37,590.53H1072A16.54,16.54,0,0,1,1055.45,574V431A16.54,16.54,0,0,1,1072,414.45h237.4A16.54,16.54,0,0,1,1325.89,431V574A16.54,16.54,0,0,1,1309.37,590.53ZM1072,420.29A10.7,10.7,0,0,0,1061.29,431V574A10.7,10.7,0,0,0,1072,584.7h237.4A10.7,10.7,0,0,0,1320.06,574V431a10.7,10.7,0,0,0-10.68-10.68H1072Z" transform="translate(-57 -350)"/></g><rect id="_Rectángulo_26" data-name="&lt;Rectángulo&gt;" class="cls-3" x="1132.7" y="70.48" width="2.92" height="86.14"/><rect id="_Rectángulo_27" data-name="&lt;Rectángulo&gt;" class="cls-3" x="1004.31" y="146.82" width="258.73" height="9.8"/><rect id="_Rectángulo_28" data-name="&lt;Rectángulo&gt;" class="cls-3" x="1011.91" y="103.37" width="3.89" height="20.43"/><rect id="_Rectángulo_29" data-name="&lt;Rectángulo&gt;" class="cls-3" x="1250.9" y="103.37" width="3.89" height="20.43"/></g></g><g id="_Grupo_31" data-name="&lt;Grupo&gt;"><rect id="_Rectángulo_30" data-name="&lt;Rectángulo&gt;" class="cls-2" x="1281.54" y="67.41" width="264.61" height="169.5" rx="84.75" ry="84.75"/><g id="_Grupo_32" data-name="&lt;Grupo&gt;"><g id="_Grupo_33" data-name="&lt;Grupo&gt;"><path id="_Trazado_37" data-name="&lt;Trazado&gt;" class="cls-8" d="M1601,510.74h-5.84v-76.8a10.7,10.7,0,0,0-10.68-10.68h-228.2a10.7,10.7,0,0,0-10.68,10.68v76.8h-5.84v-76.8a16.54,16.54,0,0,1,16.52-16.52h228.2A16.54,16.54,0,0,1,1601,433.93v76.8Z" transform="translate(-57 -350)"/></g><rect id="_Rectángulo_31" data-name="&lt;Rectángulo&gt;" class="cls-6" x="1281.05" y="155.97" width="264.61" height="5.84"/><g id="_Grupo_34" data-name="&lt;Grupo&gt;"><path id="_Trazado_compuesto_6" data-name="&lt;Trazado compuesto&gt;" class="cls-6" d="M1589.06,590.53h-237.4A16.54,16.54,0,0,1,1335.14,574V431a16.54,16.54,0,0,1,16.52-16.52h237.4A16.54,16.54,0,0,1,1605.58,431V574A16.54,16.54,0,0,1,1589.06,590.53Zm-237.4-170.24A10.7,10.7,0,0,0,1341,431V574a10.7,10.7,0,0,0,10.68,10.68h237.4A10.7,10.7,0,0,0,1599.74,574V431a10.7,10.7,0,0,0-10.68-10.68h-237.4Z" transform="translate(-57 -350)"/></g><rect id="_Rectángulo_32" data-name="&lt;Rectángulo&gt;" class="cls-3" x="1412.38" y="70.48" width="2.92" height="86.14"/><rect id="_Rectángulo_33" data-name="&lt;Rectángulo&gt;" class="cls-3" x="1284" y="146.82" width="258.73" height="9.8"/><rect id="_Rectángulo_34" data-name="&lt;Rectángulo&gt;" class="cls-3" x="1291.59" y="103.37" width="3.89" height="20.43"/><rect id="_Rectángulo_35" data-name="&lt;Rectángulo&gt;" class="cls-3" x="1530.58" y="103.37" width="3.89" height="20.43"/></g></g><path id="_Trazado_38" data-name="&lt;Trazado&gt;" class="cls-9" d="M611,368.46V368H431v0.46c0-10.06,5.56-18.46,10.75-18.46h158.9C605.85,350,611,358.39,611,368.46Z" transform="translate(-57 -350)"/><path id="_Trazado_39" data-name="&lt;Trazado&gt;" class="cls-9" d="M1525,368.46V368H1345v0.46c0-10.06,6-18.46,11.21-18.46h158.9C1520.3,350,1525,358.39,1525,368.46Z" transform="translate(-57 -350)"/><g id="_Grupo_35" data-name="&lt;Grupo&gt;"><path id="_Trazado_compuesto_7" data-name="&lt;Trazado compuesto&gt;" class="cls-10" d="M228.71,590.21H111.65A15.26,15.26,0,0,1,96.41,575V427.75a15.26,15.26,0,0,1,15.24-15.24H228.71A15.26,15.26,0,0,1,244,427.75V575A15.26,15.26,0,0,1,228.71,590.21ZM111.65,418.34a9.42,9.42,0,0,0-9.41,9.4V575a9.42,9.42,0,0,0,9.41,9.4H228.71a9.42,9.42,0,0,0,9.41-9.4V427.75a9.42,9.42,0,0,0-9.41-9.4H111.65Z" transform="translate(-57 -350)"/></g><g id="_Grupo_36" data-name="&lt;Grupo&gt;"><g id="_Grupo_37" data-name="&lt;Grupo&gt;"><rect id="_Rectángulo_36" data-name="&lt;Rectángulo&gt;" class="cls-6" x="199.76" y="97.63" width="6.94" height="390.23"/><rect id="_Rectángulo_37" data-name="&lt;Rectángulo&gt;" class="cls-6" x="308.16" y="97.66" width="6.94" height="390.2"/><rect id="_Rectángulo_38" data-name="&lt;Rectángulo&gt;" class="cls-11" x="206.7" y="324.66" width="101.46" height="163.19"/><path id="_Trazado_compuesto_8" data-name="&lt;Trazado compuesto&gt;" class="cls-8" d="M264,448V675H365V448H264Zm92,215H273V461h83V663Z" transform="translate(-57 -350)"/><rect id="_Rectángulo_39" data-name="&lt;Rectángulo&gt;" class="cls-2" x="215.45" y="110.81" width="83.59" height="202.32"/></g><g id="_Grupo_38" data-name="&lt;Grupo&gt;"><rect id="_Rectángulo_40" data-name="&lt;Rectángulo&gt;" class="cls-6" x="315.1" y="97.63" width="6.94" height="390.23"/><rect id="_Rectángulo_41" data-name="&lt;Rectángulo&gt;" class="cls-6" x="423.51" y="97.66" width="6.94" height="390.2"/><rect id="_Rectángulo_42" data-name="&lt;Rectángulo&gt;" class="cls-11" x="322.05" y="324.66" width="101.46" height="163.19"/><path id="_Trazado_compuesto_9" data-name="&lt;Trazado compuesto&gt;" class="cls-8" d="M379,448V675H481V448H379Zm93,215H388V461h84V663Z" transform="translate(-57 -350)"/><rect id="_Rectángulo_43" data-name="&lt;Rectángulo&gt;" class="cls-2" x="330.8" y="110.81" width="83.59" height="202.32"/></g></g><g id="_Grupo_39" data-name="&lt;Grupo&gt;"><g id="_Grupo_40" data-name="&lt;Grupo&gt;"><rect id="_Rectángulo_44" data-name="&lt;Rectángulo&gt;" class="cls-6" x="1556.13" y="97.63" width="6.94" height="390.23"/><rect id="_Rectángulo_45" data-name="&lt;Rectángulo&gt;" class="cls-6" x="1664.54" y="97.66" width="6.94" height="390.2"/><rect id="_Rectángulo_46" data-name="&lt;Rectángulo&gt;" class="cls-11" x="1563.08" y="324.66" width="101.46" height="163.19"/><path id="_Trazado_compuesto_10" data-name="&lt;Trazado compuesto&gt;" class="cls-8" d="M1620,448V675h102V448H1620Zm93,215h-84V461h84V663Z" transform="translate(-57 -350)"/><rect id="_Rectángulo_47" data-name="&lt;Rectángulo&gt;" class="cls-2" x="1571.83" y="110.81" width="83.59" height="202.32"/></g><g id="_Grupo_41" data-name="&lt;Grupo&gt;"><rect id="_Rectángulo_48" data-name="&lt;Rectángulo&gt;" class="cls-6" x="1671.48" y="97.63" width="6.94" height="390.23"/><rect id="_Rectángulo_49" data-name="&lt;Rectángulo&gt;" class="cls-6" x="1779.89" y="97.66" width="6.94" height="390.2"/><rect id="_Rectángulo_50" data-name="&lt;Rectángulo&gt;" class="cls-11" x="1678.43" y="324.66" width="101.46" height="163.19"/><path id="_Trazado_compuesto_11" data-name="&lt;Trazado compuesto&gt;" class="cls-8" d="M1735,448V675h102V448H1735Zm93,215h-84V461h84V663Z" transform="translate(-57 -350)"/><rect id="_Rectángulo_51" data-name="&lt;Rectángulo&gt;" class="cls-2" x="1687.17" y="110.81" width="83.59" height="202.32"/></g></g><g id="_Grupo_42" data-name="&lt;Grupo&gt;"><circle id="_Trazado_40" data-name="&lt;Trazado&gt;" class="cls-10" cx="562.14" cy="467.85" r="88.85"/><circle id="_Trazado_41" data-name="&lt;Trazado&gt;" class="cls-12" cx="562.14" cy="467.85" r="77.69"/><circle id="_Trazado_42" data-name="&lt;Trazado&gt;" class="cls-13" cx="562.14" cy="467.85" r="52.21"/><g id="_Grupo_43" data-name="&lt;Grupo&gt;"><path id="_Trazado_43" data-name="&lt;Trazado&gt;" class="cls-14" d="M666,817.85a46.84,46.84,0,1,1-1.82-13A46.88,46.88,0,0,1,666,817.85Z" transform="translate(-57 -350)"/><path id="_Trazado_44" data-name="&lt;Trazado&gt;" class="cls-15" d="M664.2,804.87c-9,9.22-25.85,15.41-45.09,15.41s-36-6.17-45-15.37A46.9,46.9,0,0,1,664.2,804.87Z" transform="translate(-57 -350)"/></g><circle id="_Trazado_45" data-name="&lt;Trazado&gt;" class="cls-16" cx="562.14" cy="467.85" r="22.66"/><circle id="_Trazado_46" data-name="&lt;Trazado&gt;" class="cls-17" cx="562.14" cy="467.85" r="21.24"/><g id="_Grupo_44" data-name="&lt;Grupo&gt;"><polygon id="_Trazado_47" data-name="&lt;Trazado&gt;" class="cls-10" points="563.8 380.94 558.25 380.94 557.28 377.19 562.83 377.19 563.8 380.94"/><polygon id="_Trazado_48" data-name="&lt;Trazado&gt;" class="cls-10" points="556.17 381.08 550.64 381.56 549.34 377.91 554.87 377.43 556.17 381.08"/><polygon id="_Trazado_49" data-name="&lt;Trazado&gt;" class="cls-10" points="548.58 381.88 543.11 382.84 541.5 379.32 546.97 378.35 548.58 381.88"/><polygon id="_Trazado_50" data-name="&lt;Trazado&gt;" class="cls-10" points="541.09 383.33 535.72 384.77 533.81 381.4 539.17 379.96 541.09 383.33"/><polygon id="_Trazado_51" data-name="&lt;Trazado&gt;" class="cls-10" points="533.75 385.44 528.53 387.33 526.33 384.14 531.55 382.25 533.75 385.44"/><polygon id="_Trazado_52" data-name="&lt;Trazado&gt;" class="cls-10" points="526.62 388.17 521.59 390.52 519.12 387.53 524.15 385.19 526.62 388.17"/><polygon id="_Trazado_53" data-name="&lt;Trazado&gt;" class="cls-10" points="519.76 391.52 514.95 394.3 512.23 391.54 517.04 388.76 519.76 391.52"/><polygon id="_Trazado_54" data-name="&lt;Trazado&gt;" class="cls-10" points="513.21 395.45 508.66 398.64 505.72 396.12 510.26 392.94 513.21 395.45"/><polygon id="_Trazado_55" data-name="&lt;Trazado&gt;" class="cls-10" points="507.04 399.94 502.78 403.51 499.63 401.26 503.88 397.69 507.04 399.94"/><polygon id="_Trazado_56" data-name="&lt;Trazado&gt;" class="cls-10" points="501.27 404.95 497.35 408.87 494.01 406.91 497.93 402.99 501.27 404.95"/><polygon id="_Trazado_57" data-name="&lt;Trazado&gt;" class="cls-10" points="495.97 410.44 492.4 414.69 488.9 413.03 492.47 408.77 495.97 410.44"/><polygon id="_Trazado_58" data-name="&lt;Trazado&gt;" class="cls-10" points="491.17 416.37 487.98 420.92 484.35 419.57 487.54 415.02 491.17 416.37"/><polygon id="_Trazado_59" data-name="&lt;Trazado&gt;" class="cls-10" points="486.9 422.7 484.12 427.51 480.39 426.48 483.16 421.67 486.9 422.7"/><polygon id="_Trazado_60" data-name="&lt;Trazado&gt;" class="cls-10" points="483.2 429.38 480.85 434.41 477.04 433.71 479.39 428.68 483.2 429.38"/><polygon id="_Trazado_61" data-name="&lt;Trazado&gt;" class="cls-10" points="480.09 436.35 478.19 441.57 474.33 441.2 476.23 435.99 480.09 436.35"/><polygon id="_Trazado_62" data-name="&lt;Trazado&gt;" class="cls-10" points="477.61 443.57 476.17 448.94 472.29 448.9 473.73 443.54 477.61 443.57"/><polygon id="_Trazado_63" data-name="&lt;Trazado&gt;" class="cls-10" points="475.76 450.98 474.79 456.45 470.93 456.76 471.9 451.29 475.76 450.98"/><polygon id="_Trazado_64" data-name="&lt;Trazado&gt;" class="cls-10" points="474.56 458.52 474.08 464.05 470.26 464.69 470.74 459.16 474.56 458.52"/><polygon id="_Trazado_65" data-name="&lt;Trazado&gt;" class="cls-10" points="474.03 466.14 474.03 471.69 470.28 472.66 470.28 467.11 474.03 466.14"/><polygon id="_Trazado_66" data-name="&lt;Trazado&gt;" class="cls-10" points="474.16 473.77 474.65 479.3 471 480.6 470.51 475.07 474.16 473.77"/><polygon id="_Trazado_67" data-name="&lt;Trazado&gt;" class="cls-10" points="474.96 481.36 475.93 486.83 472.4 488.44 471.44 482.97 474.96 481.36"/><polygon id="_Trazado_68" data-name="&lt;Trazado&gt;" class="cls-10" points="476.42 488.86 477.86 494.22 474.49 496.13 473.05 490.77 476.42 488.86"/><polygon id="_Trazado_69" data-name="&lt;Trazado&gt;" class="cls-10" points="478.52 496.19 480.42 501.41 477.23 503.61 475.33 498.39 478.52 496.19"/><polygon id="_Trazado_70" data-name="&lt;Trazado&gt;" class="cls-10" points="481.26 503.32 483.61 508.35 480.62 510.82 478.27 505.79 481.26 503.32"/><polygon id="_Trazado_71" data-name="&lt;Trazado&gt;" class="cls-10" points="484.61 510.18 487.38 514.99 484.62 517.71 481.85 512.9 484.61 510.18"/><polygon id="_Trazado_72" data-name="&lt;Trazado&gt;" class="cls-10" points="488.54 516.73 491.72 521.28 489.21 524.23 486.02 519.68 488.54 516.73"/><polygon id="_Trazado_73" data-name="&lt;Trazado&gt;" class="cls-10" points="493.02 522.9 496.59 527.16 494.35 530.31 490.78 526.06 493.02 522.9"/><polygon id="_Trazado_74" data-name="&lt;Trazado&gt;" class="cls-10" points="498.03 528.67 501.96 532.59 500 535.93 496.07 532.01 498.03 528.67"/><polygon id="_Trazado_75" data-name="&lt;Trazado&gt;" class="cls-10" points="503.53 533.97 507.78 537.54 506.12 541.04 501.86 537.47 503.53 533.97"/><polygon id="_Trazado_76" data-name="&lt;Trazado&gt;" class="cls-10" points="509.46 538.77 514.01 541.96 512.65 545.59 508.11 542.4 509.46 538.77"/><polygon id="_Trazado_77" data-name="&lt;Trazado&gt;" class="cls-10" points="515.79 543.04 520.6 545.82 519.57 549.55 514.76 546.78 515.79 543.04"/><polygon id="_Trazado_78" data-name="&lt;Trazado&gt;" class="cls-10" points="522.47 546.75 527.5 549.09 526.8 552.9 521.76 550.55 522.47 546.75"/><polygon id="_Trazado_79" data-name="&lt;Trazado&gt;" class="cls-10" points="529.44 549.85 534.66 551.75 534.29 555.61 529.07 553.71 529.44 549.85"/><polygon id="_Trazado_80" data-name="&lt;Trazado&gt;" class="cls-10" points="536.66 552.34 542.02 553.77 541.99 557.65 536.63 556.21 536.66 552.34"/><polygon id="_Trazado_81" data-name="&lt;Trazado&gt;" class="cls-10" points="544.07 554.18 549.53 555.15 549.84 559.01 544.38 558.04 544.07 554.18"/><polygon id="_Trazado_82" data-name="&lt;Trazado&gt;" class="cls-10" points="551.61 555.38 557.14 555.86 557.78 559.68 552.25 559.2 551.61 555.38"/><polygon id="_Trazado_83" data-name="&lt;Trazado&gt;" class="cls-10" points="559.22 555.91 564.77 555.91 565.75 559.66 560.2 559.66 559.22 555.91"/><polygon id="_Trazado_84" data-name="&lt;Trazado&gt;" class="cls-10" points="566.86 555.78 572.39 555.29 573.68 558.94 568.15 559.43 566.86 555.78"/><polygon id="_Trazado_85" data-name="&lt;Trazado&gt;" class="cls-10" points="574.45 554.98 579.92 554.01 581.53 557.54 576.06 558.5 574.45 554.98"/><polygon id="_Trazado_86" data-name="&lt;Trazado&gt;" class="cls-10" points="581.94 553.52 587.31 552.09 589.22 555.45 583.86 556.89 581.94 553.52"/><polygon id="_Trazado_87" data-name="&lt;Trazado&gt;" class="cls-10" points="589.28 551.42 594.5 549.52 596.7 552.71 591.48 554.61 589.28 551.42"/><polygon id="_Trazado_88" data-name="&lt;Trazado&gt;" class="cls-10" points="596.41 548.68 601.44 546.34 603.91 549.32 598.88 551.67 596.41 548.68"/><polygon id="_Trazado_89" data-name="&lt;Trazado&gt;" class="cls-10" points="603.27 545.34 608.08 542.56 610.8 545.32 605.99 548.1 603.27 545.34"/><polygon id="_Trazado_90" data-name="&lt;Trazado&gt;" class="cls-10" points="609.82 541.4 614.36 538.22 617.31 540.73 612.76 543.91 609.82 541.4"/><polygon id="_Trazado_91" data-name="&lt;Trazado&gt;" class="cls-10" points="615.99 536.92 620.25 533.35 623.4 535.59 619.15 539.16 615.99 536.92"/><polygon id="_Trazado_92" data-name="&lt;Trazado&gt;" class="cls-10" points="621.75 531.91 625.68 527.98 629.02 529.94 625.09 533.87 621.75 531.91"/><polygon id="_Trazado_93" data-name="&lt;Trazado&gt;" class="cls-10" points="627.06 526.41 630.63 522.16 634.12 523.83 630.55 528.08 627.06 526.41"/><polygon id="_Trazado_94" data-name="&lt;Trazado&gt;" class="cls-10" points="631.86 520.48 635.05 515.93 638.68 517.29 635.49 521.83 631.86 520.48"/><polygon id="_Trazado_95" data-name="&lt;Trazado&gt;" class="cls-10" points="636.13 514.15 638.91 509.34 642.64 510.38 639.87 515.18 636.13 514.15"/><polygon id="_Trazado_96" data-name="&lt;Trazado&gt;" class="cls-10" points="639.83 507.48 642.18 502.44 645.99 503.14 643.64 508.18 639.83 507.48"/><polygon id="_Trazado_97" data-name="&lt;Trazado&gt;" class="cls-10" points="642.94 500.5 644.84 495.28 648.69 495.65 646.79 500.87 642.94 500.5"/><polygon id="_Trazado_98" data-name="&lt;Trazado&gt;" class="cls-10" points="645.42 493.28 646.86 487.92 650.73 487.95 649.3 493.31 645.42 493.28"/><polygon id="_Trazado_99" data-name="&lt;Trazado&gt;" class="cls-10" points="647.27 485.88 648.23 480.41 652.1 480.1 651.13 485.57 647.27 485.88"/><polygon id="_Trazado_100" data-name="&lt;Trazado&gt;" class="cls-10" points="648.46 478.33 648.95 472.8 652.77 472.16 652.28 477.69 648.46 478.33"/><polygon id="_Trazado_101" data-name="&lt;Trazado&gt;" class="cls-10" points="649 470.72 649 465.17 652.75 464.19 652.75 469.74 649 470.72"/><polygon id="_Trazado_102" data-name="&lt;Trazado&gt;" class="cls-10" points="648.86 463.08 648.38 457.55 652.03 456.26 652.51 461.79 648.86 463.08"/><polygon id="_Trazado_103" data-name="&lt;Trazado&gt;" class="cls-10" points="648.07 455.49 647.1 450.02 650.63 448.41 651.59 453.88 648.07 455.49"/><polygon id="_Trazado_104" data-name="&lt;Trazado&gt;" class="cls-10" points="646.61 448 645.17 442.63 648.54 440.72 649.98 446.09 646.61 448"/><polygon id="_Trazado_105" data-name="&lt;Trazado&gt;" class="cls-10" points="644.5 440.66 642.61 435.44 645.8 433.24 647.7 438.46 644.5 440.66"/><polygon id="_Trazado_106" data-name="&lt;Trazado&gt;" class="cls-10" points="641.77 433.53 639.42 428.5 642.41 426.03 644.75 431.06 641.77 433.53"/><polygon id="_Trazado_107" data-name="&lt;Trazado&gt;" class="cls-10" points="638.42 426.67 635.65 421.86 638.41 419.14 641.18 423.95 638.42 426.67"/><polygon id="_Trazado_108" data-name="&lt;Trazado&gt;" class="cls-10" points="634.49 420.13 631.3 415.58 633.82 412.63 637 417.18 634.49 420.13"/><polygon id="_Trazado_109" data-name="&lt;Trazado&gt;" class="cls-10" points="630 413.95 626.43 409.7 628.68 406.54 632.25 410.79 630 413.95"/><polygon id="_Trazado_110" data-name="&lt;Trazado&gt;" class="cls-10" points="624.99 408.19 621.07 404.26 623.03 400.92 626.96 404.85 624.99 408.19"/><polygon id="_Trazado_111" data-name="&lt;Trazado&gt;" class="cls-10" points="619.5 402.88 615.25 399.31 616.91 395.82 621.17 399.39 619.5 402.88"/><polygon id="_Trazado_112" data-name="&lt;Trazado&gt;" class="cls-10" points="613.57 398.08 609.02 394.89 610.37 391.26 614.92 394.45 613.57 398.08"/><polygon id="_Trazado_113" data-name="&lt;Trazado&gt;" class="cls-10" points="607.24 393.81 602.43 391.03 603.46 387.3 608.27 390.08 607.24 393.81"/><polygon id="_Trazado_114" data-name="&lt;Trazado&gt;" class="cls-10" points="600.56 390.11 595.53 387.76 596.23 383.95 601.26 386.3 600.56 390.11"/><polygon id="_Trazado_115" data-name="&lt;Trazado&gt;" class="cls-10" points="593.59 387 588.37 385.11 588.74 381.25 593.96 383.15 593.59 387"/><polygon id="_Trazado_116" data-name="&lt;Trazado&gt;" class="cls-10" points="586.37 384.52 581.01 383.08 581.03 379.21 586.4 380.64 586.37 384.52"/><polygon id="_Trazado_117" data-name="&lt;Trazado&gt;" class="cls-10" points="578.96 382.67 573.49 381.71 573.18 377.85 578.65 378.81 578.96 382.67"/><polygon id="_Trazado_118" data-name="&lt;Trazado&gt;" class="cls-10" points="571.42 381.48 565.89 380.99 565.25 377.17 570.78 377.66 571.42 381.48"/></g><g id="_Grupo_45" data-name="&lt;Grupo&gt;"><g id="_Grupo_46" data-name="&lt;Grupo&gt;"><polygon id="_Trazado_119" data-name="&lt;Trazado&gt;" class="cls-13" points="559.73 430 557.39 426 559.73 422 564.41 422 566.75 426 564.41 430 559.73 430"/><polygon id="_Trazado_120" data-name="&lt;Trazado&gt;" class="cls-18" points="560.02 430 557.98 426.5 560.02 423 564.11 423 566.16 426.5 564.11 430 560.02 430"/><g id="_Grupo_47" data-name="&lt;Grupo&gt;"><path id="_Trazado_121" data-name="&lt;Trazado&gt;" class="cls-19" d="M621.75,776.63a2.68,2.68,0,1,1-5.37,0,2.79,2.79,0,0,1,.05-0.54,2.68,2.68,0,0,1,5.3.29A2.53,2.53,0,0,1,621.75,776.63Z" transform="translate(-57 -350)"/><path id="_Trazado_122" data-name="&lt;Trazado&gt;" class="cls-20" d="M621.74,776.38a9.28,9.28,0,0,1-2.19.25,8.61,8.61,0,0,1-3.11-.54A2.68,2.68,0,0,1,621.74,776.38Z" transform="translate(-57 -350)"/></g></g><g id="_Grupo_48" data-name="&lt;Grupo&gt;"><polygon id="_Trazado_123" data-name="&lt;Trazado&gt;" class="cls-13" points="528.55 451.64 523.89 451.65 521.57 447.61 523.91 443.56 528.57 443.55 530.89 447.58 528.55 451.64"/><polygon id="_Trazado_124" data-name="&lt;Trazado&gt;" class="cls-18" points="528.21 451.1 524.19 451.14 522.2 447.63 524.25 444.09 528.27 444.06 530.26 447.56 528.21 451.1"/><g id="_Grupo_49" data-name="&lt;Grupo&gt;"><path id="_Trazado_125" data-name="&lt;Trazado&gt;" class="cls-19" d="M584.57,795.27a2.68,2.68,0,0,1-2.68,4.65,2.78,2.78,0,0,1-.44-0.32,2.68,2.68,0,0,1,2.9-4.45Z" transform="translate(-57 -350)"/><path id="_Trazado_126" data-name="&lt;Trazado&gt;" class="cls-20" d="M584.35,795.16a9.28,9.28,0,0,1-.88,2,8.61,8.61,0,0,1-2,2.42A2.68,2.68,0,0,1,584.35,795.16Z" transform="translate(-57 -350)"/></g></g><g id="_Grupo_50" data-name="&lt;Grupo&gt;"><polygon id="_Trazado_127" data-name="&lt;Trazado&gt;" class="cls-13" points="531.13 489.13 528.81 493.17 524.15 493.16 521.81 489.11 524.13 485.07 528.79 485.08 531.13 489.13"/><polygon id="_Trazado_128" data-name="&lt;Trazado&gt;" class="cls-18" points="530.5 489.15 528.51 492.66 524.48 492.63 522.44 489.09 524.42 485.58 528.45 485.62 530.5 489.15"/><g id="_Grupo_51" data-name="&lt;Grupo&gt;"><path id="_Trazado_129" data-name="&lt;Trazado&gt;" class="cls-19" d="M582.13,836.8a2.68,2.68,0,1,1,2.68,4.65,2.78,2.78,0,0,1-.5.22,2.68,2.68,0,0,1-2.4-4.74Z" transform="translate(-57 -350)"/><path id="_Trazado_130" data-name="&lt;Trazado&gt;" class="cls-20" d="M581.91,836.93a9.28,9.28,0,0,1,1.31,1.77,8.61,8.61,0,0,1,1.09,3A2.68,2.68,0,0,1,581.91,836.93Z" transform="translate(-57 -350)"/></g></g><g id="_Grupo_52" data-name="&lt;Grupo&gt;"><polygon id="_Trazado_131" data-name="&lt;Trazado&gt;" class="cls-13" points="564.89 506 567.23 510 564.89 514 560.21 514 557.87 510 560.21 506 564.89 506"/><polygon id="_Trazado_132" data-name="&lt;Trazado&gt;" class="cls-18" points="564.59 506 566.64 509.5 564.59 513 560.5 513 558.46 509.5 560.5 506 564.59 506"/><g id="_Grupo_53" data-name="&lt;Grupo&gt;"><path id="_Trazado_133" data-name="&lt;Trazado&gt;" class="cls-19" d="M616.86,859.67a2.68,2.68,0,0,1,5.37,0,2.79,2.79,0,0,1-.05.54,2.68,2.68,0,0,1-5.3-.29A2.52,2.52,0,0,1,616.86,859.67Z" transform="translate(-57 -350)"/><path id="_Trazado_134" data-name="&lt;Trazado&gt;" class="cls-20" d="M616.88,859.93a9.28,9.28,0,0,1,2.19-.25,8.61,8.61,0,0,1,3.11.54A2.68,2.68,0,0,1,616.88,859.93Z" transform="translate(-57 -350)"/></g></g><g id="_Grupo_54" data-name="&lt;Grupo&gt;"><polygon id="_Trazado_135" data-name="&lt;Trazado&gt;" class="cls-13" points="596.07 484.66 600.72 484.65 603.04 488.69 600.7 492.74 596.04 492.76 593.73 488.72 596.07 484.66"/><polygon id="_Trazado_136" data-name="&lt;Trazado&gt;" class="cls-18" points="596.4 485.2 600.43 485.16 602.41 488.67 600.37 492.21 596.34 492.24 594.36 488.74 596.4 485.2"/><g id="_Grupo_55" data-name="&lt;Grupo&gt;"><path id="_Trazado_137" data-name="&lt;Trazado&gt;" class="cls-19" d="M654,841a2.68,2.68,0,1,1,2.68-4.65,2.8,2.8,0,0,1,.44.32,2.68,2.68,0,0,1-2.9,4.45Z" transform="translate(-57 -350)"/><path id="_Trazado_138" data-name="&lt;Trazado&gt;" class="cls-20" d="M654.27,841.15a9.28,9.28,0,0,1,.88-2,8.61,8.61,0,0,1,2-2.42A2.68,2.68,0,0,1,654.27,841.15Z" transform="translate(-57 -350)"/></g></g><g id="_Grupo_56" data-name="&lt;Grupo&gt;"><polygon id="_Trazado_139" data-name="&lt;Trazado&gt;" class="cls-13" points="593.49 447.17 595.8 443.13 600.46 443.15 602.8 447.2 600.48 451.24 595.83 451.23 593.49 447.17"/><polygon id="_Trazado_140" data-name="&lt;Trazado&gt;" class="cls-18" points="594.12 447.15 596.1 443.65 600.13 443.68 602.17 447.22 600.19 450.73 596.16 450.69 594.12 447.15"/><g id="_Grupo_57" data-name="&lt;Grupo&gt;"><path id="_Trazado_141" data-name="&lt;Trazado&gt;" class="cls-19" d="M656.49,799.51a2.68,2.68,0,0,1-2.68-4.65,2.8,2.8,0,0,1,.5-0.22,2.68,2.68,0,0,1,2.4,4.74Z" transform="translate(-57 -350)"/><path id="_Trazado_142" data-name="&lt;Trazado&gt;" class="cls-20" d="M656.7,799.37a9.28,9.28,0,0,1-1.31-1.77,8.62,8.62,0,0,1-1.09-3A2.68,2.68,0,0,1,656.7,799.37Z" transform="translate(-57 -350)"/></g></g></g><g id="_Grupo_58" data-name="&lt;Grupo&gt;"><ellipse id="_Trazado_143" data-name="&lt;Trazado&gt;" class="cls-10" cx="562.67" cy="442.32" rx="3.01" ry="2.11"/><ellipse id="_Trazado_144" data-name="&lt;Trazado&gt;" class="cls-10" cx="606.99" cy="795.54" rx="3.01" ry="2.11" transform="translate(-373.45 60.07) rotate(-30)"/><ellipse id="_Trazado_145" data-name="&lt;Trazado&gt;" class="cls-10" cx="597.62" cy="804.68" rx="3.01" ry="2.11" transform="translate(-455.06 569.91) rotate(-60)"/><ellipse id="_Trazado_146" data-name="&lt;Trazado&gt;" class="cls-10" cx="537.07" cy="467.27" rx="2.11" ry="3.01"/><ellipse id="_Trazado_147" data-name="&lt;Trazado&gt;" class="cls-10" cx="597.3" cy="829.95" rx="2.11" ry="3.01" transform="translate(-391.95 59.83) rotate(-30)"/><ellipse id="_Trazado_148" data-name="&lt;Trazado&gt;" class="cls-10" cx="606.43" cy="839.32" rx="2.11" ry="3.01" transform="translate(-480.66 594.84) rotate(-60)"/><ellipse id="_Trazado_149" data-name="&lt;Trazado&gt;" class="cls-10" cx="562.02" cy="492.87" rx="3.01" ry="2.11"/><ellipse id="_Trazado_150" data-name="&lt;Trazado&gt;" class="cls-10" cx="631.7" cy="839.64" rx="3.01" ry="2.11" transform="translate(-392.18 78.33) rotate(-30)"/><ellipse id="_Trazado_151" data-name="&lt;Trazado&gt;" class="cls-10" cx="641.07" cy="830.51" rx="3.01" ry="2.11" transform="translate(-455.71 620.44) rotate(-60)"/><ellipse id="_Trazado_152" data-name="&lt;Trazado&gt;" class="cls-10" cx="587.62" cy="467.92" rx="2.11" ry="3.01"/><ellipse id="_Trazado_153" data-name="&lt;Trazado&gt;" class="cls-10" cx="641.4" cy="805.24" rx="2.11" ry="3.01" transform="translate(-373.68 78.57) rotate(-30)"/><ellipse id="_Trazado_154" data-name="&lt;Trazado&gt;" class="cls-10" cx="632.26" cy="795.87" rx="2.11" ry="3.01" transform="translate(-430.11 595.5) rotate(-60)"/></g><g id="_Grupo_59" data-name="&lt;Grupo&gt;"><path id="_Trazado_155" data-name="&lt;Trazado&gt;" class="cls-21" d="M635.05,817.85a15.91,15.91,0,1,1-31.83,0c0-.21,0-0.42,0-0.63a15.91,15.91,0,0,1,31.8,0C635,817.43,635.05,817.64,635.05,817.85Z" transform="translate(-57 -350)"/><path id="_Trazado_156" data-name="&lt;Trazado&gt;" class="cls-22" d="M635,817.22c-3.89,2.27-9.57,3.71-15.9,3.71s-12-1.43-15.9-3.71A15.91,15.91,0,0,1,635,817.22Z" transform="translate(-57 -350)"/></g></g><g id="_Grupo_60" data-name="&lt;Grupo&gt;"><circle id="_Trazado_157" data-name="&lt;Trazado&gt;" class="cls-10" cx="1435.44" cy="467.85" r="88.85"/><circle id="_Trazado_158" data-name="&lt;Trazado&gt;" class="cls-12" cx="1435.44" cy="467.85" r="77.69"/><circle id="_Trazado_159" data-name="&lt;Trazado&gt;" class="cls-13" cx="1435.44" cy="467.85" r="52.21"/><g id="_Grupo_61" data-name="&lt;Grupo&gt;"><path id="_Trazado_160" data-name="&lt;Trazado&gt;" class="cls-14" d="M1539.32,817.85a46.83,46.83,0,1,1-1.82-13A46.88,46.88,0,0,1,1539.32,817.85Z" transform="translate(-57 -350)"/><path id="_Trazado_161" data-name="&lt;Trazado&gt;" class="cls-15" d="M1537.5,804.87c-9,9.22-25.85,15.41-45.09,15.41s-36-6.17-45-15.37A46.9,46.9,0,0,1,1537.5,804.87Z" transform="translate(-57 -350)"/></g><circle id="_Trazado_162" data-name="&lt;Trazado&gt;" class="cls-16" cx="1435.44" cy="467.85" r="22.66"/><circle id="_Trazado_163" data-name="&lt;Trazado&gt;" class="cls-17" cx="1435.44" cy="467.85" r="21.24"/><g id="_Grupo_62" data-name="&lt;Grupo&gt;"><polygon id="_Trazado_164" data-name="&lt;Trazado&gt;" class="cls-10" points="1437.11 380.94 1431.56 380.94 1430.58 377.19 1436.13 377.19 1437.11 380.94"/><polygon id="_Trazado_165" data-name="&lt;Trazado&gt;" class="cls-10" points="1429.47 381.08 1423.94 381.56 1422.65 377.91 1428.18 377.43 1429.47 381.08"/><polygon id="_Trazado_166" data-name="&lt;Trazado&gt;" class="cls-10" points="1421.88 381.88 1416.41 382.84 1414.8 379.32 1420.27 378.35 1421.88 381.88"/><polygon id="_Trazado_167" data-name="&lt;Trazado&gt;" class="cls-10" points="1414.39 383.33 1409.02 384.77 1407.11 381.4 1412.48 379.96 1414.39 383.33"/><polygon id="_Trazado_168" data-name="&lt;Trazado&gt;" class="cls-10" points="1407.05 385.44 1401.83 387.33 1399.63 384.14 1404.85 382.25 1407.05 385.44"/><polygon id="_Trazado_169" data-name="&lt;Trazado&gt;" class="cls-10" points="1399.92 388.17 1394.89 390.52 1392.42 387.53 1397.45 385.19 1399.92 388.17"/><polygon id="_Trazado_170" data-name="&lt;Trazado&gt;" class="cls-10" points="1393.06 391.52 1388.25 394.3 1385.53 391.54 1390.34 388.76 1393.06 391.52"/><polygon id="_Trazado_171" data-name="&lt;Trazado&gt;" class="cls-10" points="1386.52 395.45 1381.97 398.64 1379.02 396.12 1383.57 392.94 1386.52 395.45"/><polygon id="_Trazado_172" data-name="&lt;Trazado&gt;" class="cls-10" points="1380.34 399.94 1376.09 403.51 1372.93 401.26 1377.18 397.69 1380.34 399.94"/><polygon id="_Trazado_173" data-name="&lt;Trazado&gt;" class="cls-10" points="1374.58 404.95 1370.65 408.87 1367.31 406.91 1371.24 402.99 1374.58 404.95"/><polygon id="_Trazado_174" data-name="&lt;Trazado&gt;" class="cls-10" points="1369.27 410.44 1365.7 414.69 1362.21 413.03 1365.78 408.77 1369.27 410.44"/><polygon id="_Trazado_175" data-name="&lt;Trazado&gt;" class="cls-10" points="1364.47 416.37 1361.28 420.92 1357.65 419.57 1360.84 415.02 1364.47 416.37"/><polygon id="_Trazado_176" data-name="&lt;Trazado&gt;" class="cls-10" points="1360.2 422.7 1357.42 427.51 1353.69 426.48 1356.46 421.67 1360.2 422.7"/><polygon id="_Trazado_177" data-name="&lt;Trazado&gt;" class="cls-10" points="1356.5 429.38 1354.15 434.41 1350.34 433.71 1352.69 428.68 1356.5 429.38"/><polygon id="_Trazado_178" data-name="&lt;Trazado&gt;" class="cls-10" points="1353.39 436.35 1351.49 441.57 1347.64 441.2 1349.54 435.99 1353.39 436.35"/><polygon id="_Trazado_179" data-name="&lt;Trazado&gt;" class="cls-10" points="1350.91 443.57 1349.47 448.94 1345.6 448.9 1347.03 443.54 1350.91 443.57"/><polygon id="_Trazado_180" data-name="&lt;Trazado&gt;" class="cls-10" points="1349.06 450.98 1348.1 456.45 1344.23 456.76 1345.2 451.29 1349.06 450.98"/><polygon id="_Trazado_181" data-name="&lt;Trazado&gt;" class="cls-10" points="1347.87 458.52 1347.38 464.05 1343.56 464.69 1344.05 459.16 1347.87 458.52"/><polygon id="_Trazado_182" data-name="&lt;Trazado&gt;" class="cls-10" points="1347.33 466.14 1347.33 471.69 1343.58 472.66 1343.58 467.11 1347.33 466.14"/><polygon id="_Trazado_183" data-name="&lt;Trazado&gt;" class="cls-10" points="1347.47 473.77 1347.95 479.3 1344.3 480.6 1343.82 475.07 1347.47 473.77"/><polygon id="_Trazado_184" data-name="&lt;Trazado&gt;" class="cls-10" points="1348.26 481.36 1349.23 486.83 1345.7 488.44 1344.74 482.97 1348.26 481.36"/><polygon id="_Trazado_185" data-name="&lt;Trazado&gt;" class="cls-10" points="1349.72 488.86 1351.16 494.22 1347.79 496.13 1346.35 490.77 1349.72 488.86"/><polygon id="_Trazado_186" data-name="&lt;Trazado&gt;" class="cls-10" points="1351.83 496.19 1353.72 501.41 1350.54 503.61 1348.64 498.39 1351.83 496.19"/><polygon id="_Trazado_187" data-name="&lt;Trazado&gt;" class="cls-10" points="1354.56 503.32 1356.91 508.35 1353.92 510.82 1351.58 505.79 1354.56 503.32"/><polygon id="_Trazado_188" data-name="&lt;Trazado&gt;" class="cls-10" points="1357.91 510.18 1360.68 514.99 1357.92 517.71 1355.15 512.9 1357.91 510.18"/><polygon id="_Trazado_189" data-name="&lt;Trazado&gt;" class="cls-10" points="1361.84 516.73 1365.03 521.28 1362.51 524.23 1359.33 519.68 1361.84 516.73"/><polygon id="_Trazado_190" data-name="&lt;Trazado&gt;" class="cls-10" points="1366.33 522.9 1369.9 527.16 1367.65 530.31 1364.08 526.06 1366.33 522.9"/><polygon id="_Trazado_191" data-name="&lt;Trazado&gt;" class="cls-10" points="1371.34 528.67 1375.26 532.59 1373.3 535.93 1369.37 532.01 1371.34 528.67"/><polygon id="_Trazado_192" data-name="&lt;Trazado&gt;" class="cls-10" points="1376.83 533.97 1381.08 537.54 1379.42 541.04 1375.16 537.47 1376.83 533.97"/><polygon id="_Trazado_193" data-name="&lt;Trazado&gt;" class="cls-10" points="1382.76 538.77 1387.31 541.96 1385.96 545.59 1381.41 542.4 1382.76 538.77"/><polygon id="_Trazado_194" data-name="&lt;Trazado&gt;" class="cls-10" points="1389.09 543.04 1393.9 545.82 1392.87 549.55 1388.06 546.78 1389.09 543.04"/><polygon id="_Trazado_195" data-name="&lt;Trazado&gt;" class="cls-10" points="1395.77 546.75 1400.8 549.09 1400.1 552.9 1395.07 550.55 1395.77 546.75"/><polygon id="_Trazado_196" data-name="&lt;Trazado&gt;" class="cls-10" points="1402.74 549.85 1407.96 551.75 1407.59 555.61 1402.38 553.71 1402.74 549.85"/><polygon id="_Trazado_197" data-name="&lt;Trazado&gt;" class="cls-10" points="1409.96 552.34 1415.32 553.77 1415.3 557.65 1409.93 556.21 1409.96 552.34"/><polygon id="_Trazado_198" data-name="&lt;Trazado&gt;" class="cls-10" points="1417.37 554.18 1422.84 555.15 1423.14 559.01 1417.68 558.04 1417.37 554.18"/><polygon id="_Trazado_199" data-name="&lt;Trazado&gt;" class="cls-10" points="1424.91 555.38 1430.44 555.86 1431.08 559.68 1425.55 559.2 1424.91 555.38"/><polygon id="_Trazado_200" data-name="&lt;Trazado&gt;" class="cls-10" points="1432.53 555.91 1438.08 555.91 1439.05 559.66 1433.5 559.66 1432.53 555.91"/><polygon id="_Trazado_201" data-name="&lt;Trazado&gt;" class="cls-10" points="1440.16 555.78 1445.69 555.29 1446.99 558.94 1441.46 559.43 1440.16 555.78"/><polygon id="_Trazado_202" data-name="&lt;Trazado&gt;" class="cls-10" points="1447.75 554.98 1453.22 554.01 1454.83 557.54 1449.36 558.5 1447.75 554.98"/><polygon id="_Trazado_203" data-name="&lt;Trazado&gt;" class="cls-10" points="1455.24 553.52 1460.61 552.09 1462.52 555.45 1457.16 556.89 1455.24 553.52"/><polygon id="_Trazado_204" data-name="&lt;Trazado&gt;" class="cls-10" points="1462.58 551.42 1467.8 549.52 1470 552.71 1464.78 554.61 1462.58 551.42"/><polygon id="_Trazado_205" data-name="&lt;Trazado&gt;" class="cls-10" points="1469.71 548.68 1474.74 546.34 1477.21 549.32 1472.18 551.67 1469.71 548.68"/><polygon id="_Trazado_206" data-name="&lt;Trazado&gt;" class="cls-10" points="1476.57 545.34 1481.38 542.56 1484.1 545.32 1479.29 548.1 1476.57 545.34"/><polygon id="_Trazado_207" data-name="&lt;Trazado&gt;" class="cls-10" points="1483.12 541.4 1487.67 538.22 1490.61 540.73 1486.07 543.91 1483.12 541.4"/><polygon id="_Trazado_208" data-name="&lt;Trazado&gt;" class="cls-10" points="1489.29 536.92 1493.55 533.35 1496.7 535.59 1492.45 539.16 1489.29 536.92"/><polygon id="_Trazado_209" data-name="&lt;Trazado&gt;" class="cls-10" points="1495.06 531.91 1498.98 527.98 1502.32 529.94 1498.4 533.87 1495.06 531.91"/><polygon id="_Trazado_210" data-name="&lt;Trazado&gt;" class="cls-10" points="1500.36 526.41 1503.93 522.16 1507.43 523.83 1503.86 528.08 1500.36 526.41"/><polygon id="_Trazado_211" data-name="&lt;Trazado&gt;" class="cls-10" points="1505.16 520.48 1508.35 515.93 1511.98 517.29 1508.79 521.83 1505.16 520.48"/><polygon id="_Trazado_212" data-name="&lt;Trazado&gt;" class="cls-10" points="1509.43 514.15 1512.21 509.34 1515.94 510.38 1513.17 515.18 1509.43 514.15"/><polygon id="_Trazado_213" data-name="&lt;Trazado&gt;" class="cls-10" points="1513.13 507.48 1515.48 502.44 1519.29 503.14 1516.94 508.18 1513.13 507.48"/><polygon id="_Trazado_214" data-name="&lt;Trazado&gt;" class="cls-10" points="1516.24 500.5 1518.14 495.28 1521.99 495.65 1520.1 500.87 1516.24 500.5"/><polygon id="_Trazado_215" data-name="&lt;Trazado&gt;" class="cls-10" points="1518.72 493.28 1520.16 487.92 1524.04 487.95 1522.6 493.31 1518.72 493.28"/><polygon id="_Trazado_216" data-name="&lt;Trazado&gt;" class="cls-10" points="1520.57 485.88 1521.54 480.41 1525.4 480.1 1524.43 485.57 1520.57 485.88"/><polygon id="_Trazado_217" data-name="&lt;Trazado&gt;" class="cls-10" points="1521.77 478.33 1522.25 472.8 1526.07 472.16 1525.59 477.69 1521.77 478.33"/><polygon id="_Trazado_218" data-name="&lt;Trazado&gt;" class="cls-10" points="1522.3 470.72 1522.3 465.17 1526.05 464.19 1526.05 469.74 1522.3 470.72"/><polygon id="_Trazado_219" data-name="&lt;Trazado&gt;" class="cls-10" points="1522.17 463.08 1521.68 457.55 1525.33 456.26 1525.82 461.79 1522.17 463.08"/><polygon id="_Trazado_220" data-name="&lt;Trazado&gt;" class="cls-10" points="1521.37 455.49 1520.4 450.02 1523.93 448.41 1524.89 453.88 1521.37 455.49"/><polygon id="_Trazado_221" data-name="&lt;Trazado&gt;" class="cls-10" points="1519.91 448 1518.47 442.63 1521.84 440.72 1523.28 446.09 1519.91 448"/><polygon id="_Trazado_222" data-name="&lt;Trazado&gt;" class="cls-10" points="1517.81 440.66 1515.91 435.44 1519.1 433.24 1521 438.46 1517.81 440.66"/><polygon id="_Trazado_223" data-name="&lt;Trazado&gt;" class="cls-10" points="1515.07 433.53 1512.72 428.5 1515.71 426.03 1518.06 431.06 1515.07 433.53"/><polygon id="_Trazado_224" data-name="&lt;Trazado&gt;" class="cls-10" points="1511.72 426.67 1508.95 421.86 1511.71 419.14 1514.48 423.95 1511.72 426.67"/><polygon id="_Trazado_225" data-name="&lt;Trazado&gt;" class="cls-10" points="1507.79 420.13 1504.61 415.58 1507.12 412.63 1510.31 417.18 1507.79 420.13"/><polygon id="_Trazado_226" data-name="&lt;Trazado&gt;" class="cls-10" points="1503.31 413.95 1499.74 409.7 1501.98 406.54 1505.55 410.79 1503.31 413.95"/><polygon id="_Trazado_227" data-name="&lt;Trazado&gt;" class="cls-10" points="1498.3 408.19 1494.37 404.26 1496.33 400.92 1500.26 404.85 1498.3 408.19"/><polygon id="_Trazado_228" data-name="&lt;Trazado&gt;" class="cls-10" points="1492.8 402.88 1488.55 399.31 1490.21 395.82 1494.47 399.39 1492.8 402.88"/><polygon id="_Trazado_229" data-name="&lt;Trazado&gt;" class="cls-10" points="1486.87 398.08 1482.32 394.89 1483.68 391.26 1488.22 394.45 1486.87 398.08"/><polygon id="_Trazado_230" data-name="&lt;Trazado&gt;" class="cls-10" points="1480.54 393.81 1475.73 391.03 1476.77 387.3 1481.57 390.08 1480.54 393.81"/><polygon id="_Trazado_231" data-name="&lt;Trazado&gt;" class="cls-10" points="1473.87 390.11 1468.83 387.76 1469.53 383.95 1474.57 386.3 1473.87 390.11"/><polygon id="_Trazado_232" data-name="&lt;Trazado&gt;" class="cls-10" points="1466.89 387 1461.67 385.11 1462.04 381.25 1467.26 383.15 1466.89 387"/><polygon id="_Trazado_233" data-name="&lt;Trazado&gt;" class="cls-10" points="1459.67 384.52 1454.31 383.08 1454.34 379.21 1459.7 380.64 1459.67 384.52"/><polygon id="_Trazado_234" data-name="&lt;Trazado&gt;" class="cls-10" points="1452.26 382.67 1446.8 381.71 1446.49 377.85 1451.95 378.81 1452.26 382.67"/><polygon id="_Trazado_235" data-name="&lt;Trazado&gt;" class="cls-10" points="1444.72 381.48 1439.19 380.99 1438.55 377.17 1444.08 377.66 1444.72 381.48"/></g><g id="_Grupo_63" data-name="&lt;Grupo&gt;"><g id="_Grupo_64" data-name="&lt;Grupo&gt;"><polygon id="_Trazado_236" data-name="&lt;Trazado&gt;" class="cls-13" points="1433.03 430 1430.69 426 1433.03 422 1437.71 422 1440.05 426 1437.71 430 1433.03 430"/><polygon id="_Trazado_237" data-name="&lt;Trazado&gt;" class="cls-18" points="1433.33 430 1431.28 426.5 1433.33 423 1437.42 423 1439.46 426.5 1437.42 430 1433.33 430"/><g id="_Grupo_65" data-name="&lt;Grupo&gt;"><path id="_Trazado_238" data-name="&lt;Trazado&gt;" class="cls-19" d="M1495.06,776.63a2.68,2.68,0,0,1-5.37,0,2.79,2.79,0,0,1,.05-0.54,2.68,2.68,0,0,1,5.3.29A2.53,2.53,0,0,1,1495.06,776.63Z" transform="translate(-57 -350)"/><path id="_Trazado_239" data-name="&lt;Trazado&gt;" class="cls-20" d="M1495,776.38a9.28,9.28,0,0,1-2.19.25,8.61,8.61,0,0,1-3.11-.54A2.68,2.68,0,0,1,1495,776.38Z" transform="translate(-57 -350)"/></g></g><g id="_Grupo_66" data-name="&lt;Grupo&gt;"><polygon id="_Trazado_240" data-name="&lt;Trazado&gt;" class="cls-13" points="1401.85 451.64 1397.19 451.65 1394.87 447.61 1397.21 443.56 1401.87 443.55 1404.19 447.58 1401.85 451.64"/><polygon id="_Trazado_241" data-name="&lt;Trazado&gt;" class="cls-18" points="1401.52 451.1 1397.49 451.14 1395.5 447.63 1397.55 444.09 1401.58 444.06 1403.56 447.56 1401.52 451.1"/><g id="_Grupo_67" data-name="&lt;Grupo&gt;"><path id="_Trazado_242" data-name="&lt;Trazado&gt;" class="cls-19" d="M1457.87,795.27a2.68,2.68,0,1,1-2.68,4.65,2.79,2.79,0,0,1-.44-0.32,2.68,2.68,0,0,1,2.9-4.45Z" transform="translate(-57 -350)"/><path id="_Trazado_243" data-name="&lt;Trazado&gt;" class="cls-20" d="M1457.65,795.16a9.28,9.28,0,0,1-.88,2,8.61,8.61,0,0,1-2,2.42A2.68,2.68,0,0,1,1457.65,795.16Z" transform="translate(-57 -350)"/></g></g><g id="_Grupo_68" data-name="&lt;Grupo&gt;"><polygon id="_Trazado_244" data-name="&lt;Trazado&gt;" class="cls-13" points="1404.43 489.13 1402.11 493.17 1397.45 493.16 1395.11 489.11 1397.43 485.07 1402.09 485.08 1404.43 489.13"/><polygon id="_Trazado_245" data-name="&lt;Trazado&gt;" class="cls-18" points="1403.8 489.15 1401.82 492.66 1397.79 492.63 1395.74 489.09 1397.73 485.58 1401.76 485.62 1403.8 489.15"/><g id="_Grupo_69" data-name="&lt;Grupo&gt;"><path id="_Trazado_246" data-name="&lt;Trazado&gt;" class="cls-19" d="M1455.43,836.8a2.68,2.68,0,0,1,2.68,4.65,2.78,2.78,0,0,1-.5.22,2.68,2.68,0,0,1-2.4-4.74Z" transform="translate(-57 -350)"/><path id="_Trazado_247" data-name="&lt;Trazado&gt;" class="cls-20" d="M1455.22,836.93a9.28,9.28,0,0,1,1.31,1.77,8.61,8.61,0,0,1,1.09,3A2.68,2.68,0,0,1,1455.22,836.93Z" transform="translate(-57 -350)"/></g></g><g id="_Grupo_70" data-name="&lt;Grupo&gt;"><polygon id="_Trazado_248" data-name="&lt;Trazado&gt;" class="cls-13" points="1438.19 506 1440.53 510 1438.19 514 1433.51 514 1431.17 510 1433.51 506 1438.19 506"/><polygon id="_Trazado_249" data-name="&lt;Trazado&gt;" class="cls-18" points="1437.89 506 1439.94 509.5 1437.89 513 1433.81 513 1431.76 509.5 1433.81 506 1437.89 506"/><g id="_Grupo_71" data-name="&lt;Grupo&gt;"><path id="_Trazado_250" data-name="&lt;Trazado&gt;" class="cls-19" d="M1490.17,859.67a2.68,2.68,0,0,1,5.37,0,2.79,2.79,0,0,1-.05.54,2.68,2.68,0,0,1-5.3-.29A2.52,2.52,0,0,1,1490.17,859.67Z" transform="translate(-57 -350)"/><path id="_Trazado_251" data-name="&lt;Trazado&gt;" class="cls-20" d="M1490.18,859.93a9.28,9.28,0,0,1,2.19-.25,8.61,8.61,0,0,1,3.11.54A2.68,2.68,0,0,1,1490.18,859.93Z" transform="translate(-57 -350)"/></g></g><g id="_Grupo_72" data-name="&lt;Grupo&gt;"><polygon id="_Trazado_252" data-name="&lt;Trazado&gt;" class="cls-13" points="1469.37 484.66 1474.03 484.65 1476.34 488.69 1474 492.74 1469.35 492.76 1467.03 488.72 1469.37 484.66"/><polygon id="_Trazado_253" data-name="&lt;Trazado&gt;" class="cls-18" points="1469.7 485.2 1473.73 485.16 1475.71 488.67 1473.67 492.21 1469.64 492.24 1467.66 488.74 1469.7 485.2"/><g id="_Grupo_73" data-name="&lt;Grupo&gt;"><path id="_Trazado_254" data-name="&lt;Trazado&gt;" class="cls-19" d="M1527.35,841a2.68,2.68,0,1,1,2.68-4.65,2.8,2.8,0,0,1,.44.32,2.68,2.68,0,0,1-2.9,4.45Z" transform="translate(-57 -350)"/><path id="_Trazado_255" data-name="&lt;Trazado&gt;" class="cls-20" d="M1527.57,841.15a9.28,9.28,0,0,1,.88-2,8.61,8.61,0,0,1,2-2.42A2.68,2.68,0,0,1,1527.57,841.15Z" transform="translate(-57 -350)"/></g></g><g id="_Grupo_74" data-name="&lt;Grupo&gt;"><polygon id="_Trazado_256" data-name="&lt;Trazado&gt;" class="cls-13" points="1466.79 447.17 1469.11 443.13 1473.76 443.15 1476.1 447.2 1473.79 451.24 1469.13 451.23 1466.79 447.17"/><polygon id="_Trazado_257" data-name="&lt;Trazado&gt;" class="cls-18" points="1467.42 447.15 1469.4 443.65 1473.43 443.68 1475.47 447.22 1473.49 450.73 1469.46 450.69 1467.42 447.15"/><g id="_Grupo_75" data-name="&lt;Grupo&gt;"><path id="_Trazado_258" data-name="&lt;Trazado&gt;" class="cls-19" d="M1529.79,799.51a2.68,2.68,0,0,1-2.68-4.65,2.8,2.8,0,0,1,.5-0.22,2.68,2.68,0,0,1,2.4,4.74Z" transform="translate(-57 -350)"/><path id="_Trazado_259" data-name="&lt;Trazado&gt;" class="cls-20" d="M1530,799.37a9.28,9.28,0,0,1-1.31-1.77,8.61,8.61,0,0,1-1.09-3A2.68,2.68,0,0,1,1530,799.37Z" transform="translate(-57 -350)"/></g></g></g><g id="_Grupo_76" data-name="&lt;Grupo&gt;"><ellipse id="_Trazado_260" data-name="&lt;Trazado&gt;" class="cls-10" cx="1435.97" cy="442.32" rx="3.01" ry="2.11"/><ellipse id="_Trazado_261" data-name="&lt;Trazado&gt;" class="cls-10" cx="1480.29" cy="795.54" rx="3.01" ry="2.11" transform="translate(-256.45 496.71) rotate(-30)"/><ellipse id="_Trazado_262" data-name="&lt;Trazado&gt;" class="cls-10" cx="1470.92" cy="804.68" rx="3.01" ry="2.11" transform="matrix(0.5, -0.87, 0.87, 0.5, -18.41, 1326.19)"/><ellipse id="_Trazado_263" data-name="&lt;Trazado&gt;" class="cls-10" cx="1410.38" cy="467.27" rx="2.11" ry="3.01"/><ellipse id="_Trazado_264" data-name="&lt;Trazado&gt;" class="cls-10" cx="1470.6" cy="829.95" rx="2.11" ry="3.01" transform="translate(-274.95 496.5) rotate(-30)"/><ellipse id="_Trazado_265" data-name="&lt;Trazado&gt;" class="cls-10" cx="1479.73" cy="839.32" rx="2.11" ry="3.01" transform="matrix(0.5, -0.87, 0.87, 0.5, -44.01, 1351.14)"/><ellipse id="_Trazado_266" data-name="&lt;Trazado&gt;" class="cls-10" cx="1435.33" cy="492.87" rx="3.01" ry="2.11"/><ellipse id="_Trazado_267" data-name="&lt;Trazado&gt;" class="cls-10" cx="1505.01" cy="839.64" rx="3.01" ry="2.11" transform="translate(-275.19 514.97) rotate(-30)"/><ellipse id="_Trazado_268" data-name="&lt;Trazado&gt;" class="cls-10" cx="1514.37" cy="830.51" rx="3.01" ry="2.11" transform="translate(-19.04 1376.76) rotate(-60)"/><ellipse id="_Trazado_269" data-name="&lt;Trazado&gt;" class="cls-10" cx="1460.92" cy="467.92" rx="2.11" ry="3.01"/><ellipse id="_Trazado_270" data-name="&lt;Trazado&gt;" class="cls-10" cx="1514.7" cy="805.24" rx="2.11" ry="3.01" transform="translate(-256.69 515.21) rotate(-30)"/><ellipse id="_Trazado_271" data-name="&lt;Trazado&gt;" class="cls-10" cx="1505.57" cy="795.87" rx="2.11" ry="3.01" transform="translate(6.55 1351.81) rotate(-60)"/></g><g id="_Grupo_77" data-name="&lt;Grupo&gt;"><path id="_Trazado_272" data-name="&lt;Trazado&gt;" class="cls-21" d="M1508.36,817.85a15.91,15.91,0,1,1-31.83,0c0-.21,0-0.42,0-0.63a15.91,15.91,0,0,1,31.8,0C1508.35,817.43,1508.36,817.64,1508.36,817.85Z" transform="translate(-57 -350)"/><path id="_Trazado_273" data-name="&lt;Trazado&gt;" class="cls-22" d="M1508.34,817.22c-3.89,2.27-9.57,3.71-15.9,3.71s-12-1.43-15.9-3.71A15.91,15.91,0,0,1,1508.34,817.22Z" transform="translate(-57 -350)"/></g></g><path id="_Trazado_274" data-name="&lt;Trazado&gt;" class="cls-23" d="M1906,782.18V825s-10.71,14-27.65,17.51l0.08-61.93a9.73,9.73,0,0,1,9.95-9.56h13.91S1906,774.4,1906,782.18Z" transform="translate(-57 -350)"/><path id="_Trazado_275" data-name="&lt;Trazado&gt;" class="cls-23" d="M114,736v80.53l-34-6.26-2.88-.54-7-1.28S60.39,805.53,59.75,788s-0.15-42.47-.15-42.47l5.25-5.8,0.32-.37,0.66-.74,1.4-1.81-0.24,0V736h47Z" transform="translate(-57 -350)"/><g id="_Grupo_78" data-name="&lt;Grupo&gt;"><path id="_Trazado_276" data-name="&lt;Trazado&gt;" class="cls-6" d="M81,593.35V706H66V673.88l-0.43-16.56-1.08-39.59L63.72,589H76.15a5.56,5.56,0,0,1,4.6,2.27v0l-0.18,0A3.49,3.49,0,0,1,81,593.35Z" transform="translate(-57 -350)"/><g id="_Grupo_79" data-name="&lt;Grupo&gt;"><g id="_Grupo_80" data-name="&lt;Grupo&gt;"><path id="_Trazado_277" data-name="&lt;Trazado&gt;" class="cls-24" d="M79,594.82V704H57V591H75.41a3.68,3.68,0,0,1,3.06,2l0.06,0.11A3.81,3.81,0,0,1,79,594.82Z" transform="translate(-57 -350)"/><rect id="_Trazado_278" data-name="&lt;Trazado&gt;" class="cls-25" y="270" width="22" height="37"/><rect id="_Trazado_279" data-name="&lt;Trazado&gt;" class="cls-17" y="309" width="4" height="21"/></g><g id="_Grupo_81" data-name="&lt;Grupo&gt;" class="cls-26"><path id="_Trazado_280" data-name="&lt;Trazado&gt;" class="cls-17" d="M78.48,593H57v-2H75.41A3.85,3.85,0,0,1,78.48,593Z" transform="translate(-57 -350)"/><rect id="_Trazado_281" data-name="&lt;Trazado&gt;" class="cls-17" y="245" width="22" height="2"/><rect id="_Trazado_282" data-name="&lt;Trazado&gt;" class="cls-17" y="248" width="22" height="2"/><rect id="_Trazado_283" data-name="&lt;Trazado&gt;" class="cls-17" y="252" width="22" height="1"/><rect id="_Trazado_284" data-name="&lt;Trazado&gt;" class="cls-17" y="255" width="22" height="3"/><rect id="_Trazado_285" data-name="&lt;Trazado&gt;" class="cls-17" y="258" width="22" height="3"/><rect id="_Trazado_286" data-name="&lt;Trazado&gt;" class="cls-17" y="263" width="22" height="1"/><rect id="_Trazado_287" data-name="&lt;Trazado&gt;" class="cls-17" y="266" width="22" height="2"/><rect id="_Trazado_288" data-name="&lt;Trazado&gt;" class="cls-17" y="270" width="22" height="1"/><rect id="_Trazado_289" data-name="&lt;Trazado&gt;" class="cls-17" y="273" width="22" height="2"/><rect id="_Trazado_290" data-name="&lt;Trazado&gt;" class="cls-17" y="276" width="22" height="2"/><rect id="_Trazado_291" data-name="&lt;Trazado&gt;" class="cls-17" y="280" width="22" height="1"/><rect id="_Trazado_292" data-name="&lt;Trazado&gt;" class="cls-17" y="283" width="22" height="2"/><rect id="_Trazado_293" data-name="&lt;Trazado&gt;" class="cls-17" y="287" width="22" height="1"/><rect id="_Trazado_294" data-name="&lt;Trazado&gt;" class="cls-17" y="290" width="22" height="2"/><rect id="_Trazado_295" data-name="&lt;Trazado&gt;" class="cls-17" y="293" width="22" height="3"/><rect id="_Trazado_296" data-name="&lt;Trazado&gt;" class="cls-17" y="298" width="22" height="1"/><rect id="_Trazado_297" data-name="&lt;Trazado&gt;" class="cls-17" y="301" width="22" height="2"/><rect id="_Trazado_298" data-name="&lt;Trazado&gt;" class="cls-17" y="304" width="22" height="2"/><rect id="_Trazado_299" data-name="&lt;Trazado&gt;" class="cls-17" y="308" width="22" height="1"/><rect id="_Trazado_300" data-name="&lt;Trazado&gt;" class="cls-17" y="311" width="22" height="2"/><rect id="_Trazado_301" data-name="&lt;Trazado&gt;" class="cls-17" y="315" width="22" height="1"/><rect id="_Trazado_302" data-name="&lt;Trazado&gt;" class="cls-17" y="318" width="22" height="2"/><rect id="_Trazado_303" data-name="&lt;Trazado&gt;" class="cls-17" y="321" width="22" height="2"/><rect id="_Trazado_304" data-name="&lt;Trazado&gt;" class="cls-17" y="325" width="22" height="2"/><rect id="_Trazado_305" data-name="&lt;Trazado&gt;" class="cls-17" y="329" width="22" height="2"/><rect id="_Trazado_306" data-name="&lt;Trazado&gt;" class="cls-17" y="332" width="22" height="2"/><rect id="_Trazado_307" data-name="&lt;Trazado&gt;" class="cls-17" y="336" width="22" height="1"/><rect id="_Trazado_308" data-name="&lt;Trazado&gt;" class="cls-17" y="339" width="22" height="2"/><rect id="_Trazado_309" data-name="&lt;Trazado&gt;" class="cls-17" y="343" width="22" height="1"/><rect id="_Trazado_310" data-name="&lt;Trazado&gt;" class="cls-17" y="346" width="22" height="2"/><rect id="_Trazado_311" data-name="&lt;Trazado&gt;" class="cls-17" y="349" width="22" height="2"/><rect id="_Trazado_312" data-name="&lt;Trazado&gt;" class="cls-17" y="353" width="22" height="1"/></g></g></g><g id="_Grupo_82" data-name="&lt;Grupo&gt;"><path id="_Trazado_313" data-name="&lt;Trazado&gt;" class="cls-27" d="M1904,732.61v34c0,0.07-.23.14-0.23,0.21a4.1,4.1,0,0,1-.36,1.18s-0.07,0-.08.07a3.94,3.94,0,0,1-.42.76s0,0.29-.06.31a4.16,4.16,0,0,1-3.22,1.91h-7.06s0-.82-0.07-1.91c0,0,0-.17,0-0.19l0-.82s0-.08,0-0.1c0-.36,0-0.77,0-1.2,0-.26,0-0.55,0-0.84s0-.73,0-1.11c0,0,0,0,0-.07q0-.37,0-0.76s0,0,0-.07q0-.57,0-1.18,0-.41,0-0.83c0-.36,0-0.73,0-1.11,0,0,0,0,0-.07,0-.25,0-0.5,0-0.76,0,0,0,0,0-.07q0-.58,0-1.18c0-.27,0-0.55,0-0.83s0-.73,0-1.11c0,0,0,0,0-.07,0-.25,0-0.51,0-0.76,0,0,0,0,0-.07,0-.38-0.06-0.76-0.06-1.16v0c0-.28,0-0.56,0-0.83s0-.75,0-1.11v-0.07c0-.26,0-0.51,0-0.76,0,0,0,0,0-.07,0-.4,0-0.79,0-1.18s0-.56,0-0.83,0-.75,0-1.11v-0.07c0-.26,0-0.51,0-0.76v-0.07q0-.6.08-1.18c0-.28,0-0.56.07-0.83s0.07-.75.11-1.11v-0.07c0-.26.06-0.51,0.09-0.76v-0.07c0.05-.41.11-0.8,0.16-1.18s0.09-.56.14-0.83,0.14-.75.21-1.11v-0.07c0.05-.26.11-0.52,0.17-0.76l0-.07q0.14-.62.3-1.18t0.25-.83c0.12-.39.25-0.76,0.38-1.11l0-.07q0.15-.4.31-0.76l0-.07c0.18-.43.38-0.82,0.57-1.18s0.32-.57.49-0.83a10,10,0,0,1,.82-1.11l0.06-.07a7.64,7.64,0,0,1,.77-0.76l0.08-.07a4.88,4.88,0,0,1,4.24-1.24s0-.47,0-1.36a3.93,3.93,0,0,1,1.9,2.61c0,0.06,0,.12,0,0.19h0c0,0.12.26,0.23,0.27,0.35A2.8,2.8,0,0,1,1904,732.61Z" transform="translate(-57 -350)"/><ellipse id="_Trazado_314" data-name="&lt;Trazado&gt;" class="cls-22" cx="1844.61" cy="402.26" rx="1.47" ry="8.61"/><ellipse id="_Trazado_315" data-name="&lt;Trazado&gt;" class="cls-28" cx="1844.61" cy="402.26" rx="0.63" ry="3.66"/><path id="_Trazado_316" data-name="&lt;Trazado&gt;" class="cls-29" d="M1901.77,740.48a1.31,1.31,0,0,0-.17.8c0,0.14,0,.27,0,0.41a1.07,1.07,0,0,1-.44,1.06,2.53,2.53,0,0,1-2.78-.14,3.14,3.14,0,0,1-1-2.14,2.6,2.6,0,0,0,0-.57,1.67,1.67,0,0,1,.06-0.62c0-.14.14-0.42,0.14-0.56,0-1.25-2.22-1.39-1.39-2.64,0.69-1,2.22-1.11,2.81-2.39,0.1-.21.2-0.41,0.3-0.59,0.4-.73.85-1.18,1.2-0.76a10.39,10.39,0,0,1,.63.9,4,4,0,0,1,.27.49,4.86,4.86,0,0,1-.21,2.22c0,1.11,1.25,1.67,1.11,2.93a2.89,2.89,0,0,1-.16.6,5.54,5.54,0,0,1-.26.59C1901.83,740.21,1901.8,740.35,1901.77,740.48Z" transform="translate(-57 -350)"/><path id="_Trazado_317" data-name="&lt;Trazado&gt;" class="cls-29" d="M1896.1,768.6a1.31,1.31,0,0,0-.77.29l-0.33.24a1.07,1.07,0,0,1-1.13.21,2.53,2.53,0,0,1-1.39-2.41,3.14,3.14,0,0,1,1.23-2,2.6,2.6,0,0,0,.49-0.31,1.68,1.68,0,0,1,.55-0.28c0.12-.08.43-0.11,0.54-0.18,1-.68,0-2.62,1.46-2.6,1.19,0.05,2.14,1.26,3.53,1.06l0.66-.07c0.83-.06,1.45.07,1.29,0.59a10.35,10.35,0,0,1-.41,1,4,4,0,0,1-.26.49,4.86,4.86,0,0,1-2,1c-0.93.6-.72,2-1.86,2.52a2.9,2.9,0,0,1-.59.19,5.54,5.54,0,0,1-.64.1Z" transform="translate(-57 -350)"/><path id="_Trazado_318" data-name="&lt;Trazado&gt;" class="cls-30" d="M1893.22,757.64a1.31,1.31,0,0,0-.4-0.71l-0.28-.3a1.07,1.07,0,0,1-.37-1.09,2.53,2.53,0,0,1,2.18-1.73,3.14,3.14,0,0,1,2.19.93,2.6,2.6,0,0,0,.37.44,1.67,1.67,0,0,1,.36.5c0.09,0.1.17,0.4,0.26,0.51,0.82,0.94,2.59-.42,2.78,1.07,0.12,1.19-.94,2.3-0.54,3.65,0.06,0.23.12,0.44,0.17,0.64,0.18,0.81.14,1.45-.4,1.36a10.38,10.38,0,0,1-1.07-.26,4,4,0,0,1-.53-0.19,4.87,4.87,0,0,1-1.31-1.81c-0.73-.84-2-0.43-2.77-1.48a2.9,2.9,0,0,1-.27-0.56,5.56,5.56,0,0,1-.19-0.62Z" transform="translate(-57 -350)"/><path id="_Trazado_319" data-name="&lt;Trazado&gt;" class="cls-29" d="M1900.14,751.79a1.31,1.31,0,0,0,0,.82c0,0.13.06,0.27,0.09,0.4a1.07,1.07,0,0,1-.25,1.12,2.53,2.53,0,0,1-2.76.34,3.14,3.14,0,0,1-1.39-1.93,2.6,2.6,0,0,0-.09-0.57,1.67,1.67,0,0,1,0-.62c0-.14.06-0.43,0-0.57-0.22-1.23-2.43-1-1.82-2.36,0.52-1.08,2-1.48,2.35-2.84,0.06-.23.12-0.44,0.19-0.64,0.27-.79.63-1.31,1-1a10.38,10.38,0,0,1,.78.77,4,4,0,0,1,.35.44,4.86,4.86,0,0,1,.18,2.22c0.19,1.09,1.52,1.43,1.6,2.7a2.91,2.91,0,0,1-.06.62,5.56,5.56,0,0,1-.15.63C1900.15,751.52,1900.14,751.66,1900.14,751.79Z" transform="translate(-57 -350)"/><path id="_Trazado_320" data-name="&lt;Trazado&gt;" class="cls-31" d="M1898.82,736.61c3.33,0.24,3.06,4.68,3.75,7,0.42,2-.83,5.09-2.5,4.7s-0.14-2.87-.56-4.57c-0.28-1.31-.14-3.26-1.67-3.39-1,0-1,1.83-1.94,1.7-1.81-.39-1.94-2.74-1.57-4.37a5.41,5.41,0,0,1,.3-0.95,5.94,5.94,0,0,1,1.11-1.72,6.35,6.35,0,0,1,.78-0.72c0.22-.2.63-0.33,0.91-0.59-0.42.65-.83,1.27-1.23,1.91-0.2.32-.39,0.65-0.58,1-0.83,1.15-1.25,3.5-.14,3.63s1.11-2.35,2.53-3.25A3.51,3.51,0,0,1,1898.82,736.61Z" transform="translate(-57 -350)"/><path id="_Trazado_321" data-name="&lt;Trazado&gt;" class="cls-25" d="M1899.37,770.51h-9.47V730h9.47s-3.13,16.11-3.37,20.93C1895.11,768.16,1899.37,770.51,1899.37,770.51Z" transform="translate(-57 -350)"/><g id="_Grupo_83" data-name="&lt;Grupo&gt;" class="cls-32"><path id="_Trazado_322" data-name="&lt;Trazado&gt;" class="cls-22" d="M1903.54,733h-7.12a1.1,1.1,0,0,0,.06-0.15,2.23,2.23,0,0,1,.77-0.85h6.2s0,0,0,0,0,0,0,0,0,0.37,0,.52S1903.54,733,1903.54,733Z" transform="translate(-57 -350)"/><path id="_Trazado_323" data-name="&lt;Trazado&gt;" class="cls-22" d="M1904,733v1h-8.89c0.16,0,.32,0,0.49-1h8.4Z" transform="translate(-57 -350)"/><path id="_Trazado_324" data-name="&lt;Trazado&gt;" class="cls-22" d="M1904,736v1h-9.82s0-.13,0-0.15a2.71,2.71,0,0,1,.31-0.85H1904Z" transform="translate(-57 -350)"/><path id="_Trazado_325" data-name="&lt;Trazado&gt;" class="cls-22" d="M1904,738h0Z" transform="translate(-57 -350)"/><path id="_Trazado_326" data-name="&lt;Trazado&gt;" class="cls-22" d="M1904,740v1h-10.95s0-.13,0-0.15a4.49,4.49,0,0,1,.17-0.85H1904Z" transform="translate(-57 -350)"/><path id="_Trazado_327" data-name="&lt;Trazado&gt;" class="cls-22" d="M1904,742v1h-11.3c0-1,.09-1,0.14-1H1904Z" transform="translate(-57 -350)"/><path id="_Trazado_328" data-name="&lt;Trazado&gt;" class="cls-22" d="M1904,744h-11.57s0,0.37,0,.35a0.47,0.47,0,0,1,.09-0.35H1904Z" transform="translate(-57 -350)"/><path id="_Trazado_329" data-name="&lt;Trazado&gt;" class="cls-22" d="M1903.75,746h0Z" transform="translate(-57 -350)"/><path id="_Trazado_330" data-name="&lt;Trazado&gt;" class="cls-22" d="M1904,748v1h-11.87s0-.13,0-0.15c0-.26,0-0.85,0-0.85H1904Z" transform="translate(-57 -350)"/><path id="_Trazado_331" data-name="&lt;Trazado&gt;" class="cls-22" d="M1904,750h0Z" transform="translate(-57 -350)"/><path id="_Trazado_332" data-name="&lt;Trazado&gt;" class="cls-22" d="M1904,752v1h-12v-0.32c0-.26,0-0.68,0-0.68h12Z" transform="translate(-57 -350)"/><path id="_Trazado_333" data-name="&lt;Trazado&gt;" class="cls-22" d="M1904,754v1h-12a7.54,7.54,0,0,0,0-1h12Z" transform="translate(-57 -350)"/><path id="_Trazado_334" data-name="&lt;Trazado&gt;" class="cls-22" d="M1903.75,756h-11.63s0,0.37,0,.35a0.76,0.76,0,0,0,0-.35h11.67Z" transform="translate(-57 -350)"/><path id="_Trazado_335" data-name="&lt;Trazado&gt;" class="cls-22" d="M1904,758v1h-11.83s0-1,0-1H1904Z" transform="translate(-57 -350)"/><path id="_Trazado_336" data-name="&lt;Trazado&gt;" class="cls-22" d="M1904,760v1h-11.77s0-.13,0-0.15a7.8,7.8,0,0,1,0-.85H1904Z" transform="translate(-57 -350)"/><path id="_Trazado_337" data-name="&lt;Trazado&gt;" class="cls-22" d="M1904,762v1h-11.72a5.89,5.89,0,0,0,0-1H1904Z" transform="translate(-57 -350)"/><path id="_Trazado_338" data-name="&lt;Trazado&gt;" class="cls-22" d="M1904,764v1h-11.65s0-.13,0-0.15c0-.25,0-0.85,0-0.85H1904Z" transform="translate(-57 -350)"/><path id="_Trazado_339" data-name="&lt;Trazado&gt;" class="cls-22" d="M1904,766v0.56a2.55,2.55,0,0,1-.46.44h-11.12a5,5,0,0,1,0-1H1904Z" transform="translate(-57 -350)"/><path id="_Trazado_340" data-name="&lt;Trazado&gt;" class="cls-22" d="M1903.29,768c-0.11,0-.25,0-0.42,1h-10.38s0-.13,0-0.15c0-.23,0-0.85,0-0.85h10.83Z" transform="translate(-57 -350)"/></g><path id="_Trazado_341" data-name="&lt;Trazado&gt;" class="cls-7" d="M1902.94,730.44s-9.64-2.43-10.78,18.18c-0.1,1.84-.13,4.11-0.09,6.33,0.21,9.72.49,16,.49,16h-2.31c-2.19,0-3.25-2.25-3.25-4.44v-34c0-2.19,1.06-4.55,3.25-4.55h9.37a4.29,4.29,0,0,1,1.95.81A3.26,3.26,0,0,1,1902.94,730.44Z" transform="translate(-57 -350)"/><path id="_Trazado_342" data-name="&lt;Trazado&gt;" class="cls-33" d="M1902.94,730.44s-9.31-2.43-10.44,18.18c-2.09-.32-4.5-0.84-5.5-1.52V732.55c0-2.19,1.06-4.55,3.25-4.55h9.37a4.29,4.29,0,0,1,1.95.81A3.26,3.26,0,0,1,1902.94,730.44Z" transform="translate(-57 -350)"/></g></g><g id="_Grupo_84" data-name="&lt;Grupo&gt;"><path id="_Trazado_343" data-name="&lt;Trazado&gt;" class="cls-34" d="M1009.15,801.41l3.61,1.75a3.88,3.88,0,0,1,.92.56,1.52,1.52,0,0,1,.47.6,1.57,1.57,0,0,1-.05,1.37,2.09,2.09,0,0,1-.76.86l-0.51-.77a1.2,1.2,0,0,0,.47-0.47,0.57,0.57,0,0,0,0-.65,2.45,2.45,0,0,0-.92-0.65l-3.61-1.75Z" transform="translate(-57 -350)"/><path id="_Trazado_compuesto_12" data-name="&lt;Trazado compuesto&gt;" class="cls-34" d="M1014.23,798a3.06,3.06,0,0,1-1.61-1.86,3.17,3.17,0,0,1,.16-2.48,3.24,3.24,0,0,1,4.31-1.49,3,3,0,0,1,1.63,1.86,3.17,3.17,0,0,1-.17,2.49,3.21,3.21,0,0,1-1.68,1.57,3.06,3.06,0,0,1-2.63-.1m0.41-.85a2.3,2.3,0,0,0,3.23-2.8,2.28,2.28,0,0,0-1.21-1.34,2.26,2.26,0,0,0-1.78-.12,2.33,2.33,0,0,0-1.43,2.94,2.23,2.23,0,0,0,1.19,1.33" transform="translate(-57 -350)"/><path id="_Trazado_compuesto_13" data-name="&lt;Trazado compuesto&gt;" class="cls-34" d="M1020.73,785.7l3.23-.57-0.5,1-3.07.48-0.07.15,2.3,1.12-0.41.85-5.59-2.71,0.48-1a2.71,2.71,0,0,1,1.19-1.4,1.69,1.69,0,0,1,1.48,0,1.77,1.77,0,0,1,.86.84,1.6,1.6,0,0,1,.1,1.16m-1.14.73,0.12-.26c0.39-.81.27-1.35-0.34-1.65s-1,0-1.41.75l-0.15.3Z" transform="translate(-57 -350)"/><path id="_Trazado_compuesto_14" data-name="&lt;Trazado compuesto&gt;" class="cls-34" d="M1027.2,772.65l2.27,1.1-0.41.85-5.59-2.71,0.46-1a4.44,4.44,0,0,1,.62-1,1.6,1.6,0,0,1,.67-0.46,1.8,1.8,0,0,1,1.42.1,1.66,1.66,0,0,1,1,1.1,2.21,2.21,0,0,1-.21,1.61Zm-0.78-.38,0.15-.31c0.38-.78.28-1.31-0.33-1.61s-1.06,0-1.45.79l-0.13.27Z" transform="translate(-57 -350)"/><path id="_Trazado_compuesto_15" data-name="&lt;Trazado compuesto&gt;" class="cls-34" d="M1032.84,763.36l-1.16,2.4,1.05,1.28-0.44.91-4.6-5.64,7.24,0.2-0.45.93Zm-1,0-2.3-.1L1031,765Z" transform="translate(-57 -350)"/><path id="_Trazado_compuesto_16" data-name="&lt;Trazado compuesto&gt;" class="cls-34" d="M1035.59,755.06l3.22-.56-0.5,1-3.07.47-0.07.15,2.3,1.12-0.41.85-5.59-2.71,0.48-1a2.67,2.67,0,0,1,1.19-1.4,1.67,1.67,0,0,1,1.49,0,1.87,1.87,0,0,1,.86.83,1.65,1.65,0,0,1,.1,1.16m-1.14.73,0.13-.26c0.39-.81.27-1.34-0.34-1.64s-1,0-1.42.76l-0.14.28Z" transform="translate(-57 -350)"/><path id="_Trazado_compuesto_17" data-name="&lt;Trazado compuesto&gt;" class="cls-34" d="M1041.25,746l-1.16,2.39,1.06,1.28-0.44.91-4.6-5.65,7.23,0.22-0.45.93Zm-1,0-2.31-.09,1.48,1.78Z" transform="translate(-57 -350)"/><polygon id="_Trazado_344" data-name="&lt;Trazado&gt;" class="cls-34" points="987.33 380.91 992.13 383.23 991.72 384.08 986.92 381.75 986.3 383.03 985.51 382.64 987.16 379.24 987.96 379.63 987.33 380.91"/><path id="_Trazado_compuesto_18" data-name="&lt;Trazado compuesto&gt;" class="cls-34" d="M1048.87,726.58a3,3,0,0,1-1.61-1.85,3.16,3.16,0,0,1,.16-2.47,3.26,3.26,0,0,1,4.31-1.5,3,3,0,0,1,1.63,1.86,3.29,3.29,0,0,1-1.86,4.08,3.05,3.05,0,0,1-2.63-.11m0.41-.85a2.3,2.3,0,0,0,3.22-2.8,2.4,2.4,0,0,0-3-1.45,2.18,2.18,0,0,0-1.31,1.17,2.21,2.21,0,0,0-.11,1.76,2.25,2.25,0,0,0,1.19,1.32" transform="translate(-57 -350)"/><path id="_Trazado_compuesto_19" data-name="&lt;Trazado compuesto&gt;" class="cls-34" d="M1056.84,717.34l-5.59-2.71,0.57-1.18a4.82,4.82,0,0,1,.81-1.24,2.74,2.74,0,0,1,1-.68,3,3,0,0,1,2.49.12,2.91,2.91,0,0,1,1.65,1.93,2.88,2.88,0,0,1,.1,1.22,4.94,4.94,0,0,1-.48,1.39Zm-0.39-1.23,0.18-.37a3.38,3.38,0,0,0,.34-1,2.07,2.07,0,0,0-.07-0.86,2.11,2.11,0,0,0-1.18-1.35,2.19,2.19,0,0,0-1.78-.11,2.63,2.63,0,0,0-1.3,1.39l-0.18.37Z" transform="translate(-57 -350)"/><path id="_Trazado_compuesto_20" data-name="&lt;Trazado compuesto&gt;" class="cls-34" d="M1058.29,707.17a3.06,3.06,0,0,1-1.61-1.84,3.17,3.17,0,0,1,.16-2.49,3.07,3.07,0,0,1,1.84-1.62,3.11,3.11,0,0,1,2.46.14,3.06,3.06,0,0,1,1.63,1.85,3.22,3.22,0,0,1-.18,2.5,3.18,3.18,0,0,1-1.68,1.57,3,3,0,0,1-2.63-.11m0.41-.83a2.22,2.22,0,0,0,1.83.1,2.27,2.27,0,0,0,1.4-2.91,2.43,2.43,0,0,0-3-1.46,2.32,2.32,0,0,0-.24,4.27" transform="translate(-57 -350)"/><path id="_Trazado_345" data-name="&lt;Trazado&gt;" class="cls-34" d="M1063,692.48l0.08,0.88a1.25,1.25,0,0,0-.61.15,0.91,0.91,0,0,0-.34.41,1,1,0,0,0-.08.68,0.66,0.66,0,0,0,.38.47,0.89,0.89,0,0,0,1-.29l0.49-.44a2.64,2.64,0,0,1,1.16-.67,1.68,1.68,0,0,1,1.13.15,1.91,1.91,0,0,1,1,1.14,2.12,2.12,0,0,1-1.13,2.52,2.26,2.26,0,0,1-1.51,0l0.23-.95a1.48,1.48,0,0,0,.78.13,1,1,0,0,0,.73-0.59,1,1,0,0,0,.05-0.78,1,1,0,0,0-.54-0.59,0.91,0.91,0,0,0-.32-0.09,1,1,0,0,0-.33,0,1.06,1.06,0,0,0-.33.15,3.2,3.2,0,0,0-.37.26l-0.49.42a1.7,1.7,0,0,1-2,.47,1.48,1.48,0,0,1-.82-1,1.91,1.91,0,0,1,.15-1.42,1.86,1.86,0,0,1,1.67-1" transform="translate(-57 -350)"/><path id="_Trazado_346" data-name="&lt;Trazado&gt;" class="cls-34" d="M980.27,762.39a1.77,1.77,0,0,0,.19.4l0.22-.07,0.34,0.16a0.24,0.24,0,0,0,0,.28c0,0.29.05,0.67,0.08,1.17-0.1.35-.2,0.77-0.3,1.28s-0.16.84-.18,0.89l-0.32.65-0.13.86a0.25,0.25,0,0,0-.13.15L979,772.77h0.11l0-.07a0.54,0.54,0,0,1,.23-0.27l-0.46,1v0.41a0.07,0.07,0,0,0-.08,0h0a0.26,0.26,0,0,0,0,.11l-1,3.71-0.47.63a0.92,0.92,0,0,1-.59.37l-0.17.36-0.07,0a1,1,0,0,1-1,0,2.24,2.24,0,0,1-.74-0.26l-5-3.23-0.62-.3-3.59-2.32-0.64-.31-0.78-.49a0.17,0.17,0,0,0-.09,0c-0.63-.37.8,0.53-0.32-0.2l-1.58-1.1c-0.14-.3-0.33-0.75-0.56-1.35a3.75,3.75,0,0,0,.07-0.55,0.78,0.78,0,0,1,.41-0.39,3.65,3.65,0,0,0,.54-0.27,1.48,1.48,0,0,0,.42,0,3.33,3.33,0,0,1,.75.16,1.41,1.41,0,0,0,.48-0.23l1.32,0.71,0.95,0.46,8,4.86,0.28-.47a6.1,6.1,0,0,1,.34-1l2.24-7,1.11-2.23a5.36,5.36,0,0,1,1-1.14h0a0.43,0.43,0,0,0,.11.18,0.25,0.25,0,0,0,.19-0.14l0-.06,0.43,0.08" transform="translate(-57 -350)"/><path id="_Trazado_compuesto_21" data-name="&lt;Trazado compuesto&gt;" class="cls-34" d="M988.07,751.56c0.14,0.29.32,0.68,0.54,1.17l-0.23.33a1,1,0,0,1,.18.29,3.4,3.4,0,0,1-.44.29,0.11,0.11,0,0,1,0,.06,2.93,2.93,0,0,1-1.2.79,9.29,9.29,0,0,0-1.82.24l0.71,3.62h0.1l0.12,0a3.11,3.11,0,0,1,.13,1.15c-0.26,1.68-.39,2.52-0.37,2.53a3.32,3.32,0,0,1-2.43,1.89,6.5,6.5,0,0,1-1.91-.38,10.92,10.92,0,0,1-1.77-1.88,2.35,2.35,0,0,1-.3-1.4c0-.11-0.15-0.78-0.34-2,0-.51.08-1.34,0.13-2.49,0.23-1.07.34-1.62,0.33-1.62h0c0-.07.14-0.24,0.28-0.48s0.23-.39.29-0.51a0.31,0.31,0,0,0,0-.14,0.9,0.9,0,0,1,.89-0.31l0.08,0.06a4.3,4.3,0,0,1,1.09-.09,2.09,2.09,0,0,1,.08-0.21,1.41,1.41,0,0,1,.79-0.67l2.49-.25a11.64,11.64,0,0,1,2.57,0M982.6,755l-0.42.37a3.05,3.05,0,0,0-.38,1.39l-0.15,1.58a3.11,3.11,0,0,0,.79,1.86l0.1,0.11,0.35-.57a7.57,7.57,0,0,0-.14-4.1c0-.06-0.07-0.28-0.14-0.64" transform="translate(-57 -350)"/><path id="_Trazado_347" data-name="&lt;Trazado&gt;" class="cls-34" d="M992.31,742.44a2.68,2.68,0,0,1,.86.71,4.06,4.06,0,0,1,.09,1.79,6.89,6.89,0,0,1-.45,2.3s-0.19.27-.48,0.73a1.75,1.75,0,0,0-.2.31,1.32,1.32,0,0,0-.14.48l-0.68.89-0.42.86a4.27,4.27,0,0,1-.67.73,6,6,0,0,1-.63.6,1.2,1.2,0,0,0-.61.06,0.24,0.24,0,0,1-.14-0.12l-0.15.05a1.8,1.8,0,0,0-.38-0.25,1,1,0,0,0-.53-0.12,3.8,3.8,0,0,1,.14-1l0.37-.75,0.36-1.1,0.33-.69,0.6-1.78c0-.13,0-0.21,0-0.21a1.14,1.14,0,0,0-.36.13c-0.19.18-.54,0.48-1.06,0.94-1.81,1.56-3.32,2.23-4.53,2a1.19,1.19,0,0,0-.51,0l-1.08-.52a1.68,1.68,0,0,1-.36-0.4c-0.68-.4-0.39-1.94.9-4.6h0s0.37-.54,1.05-1.61a12.38,12.38,0,0,1,1.42-1.25,3.09,3.09,0,0,1,1.81-.58,0.89,0.89,0,0,1,.22.28,1,1,0,0,0,.22.29l0.14,0,0.1,0.72-0.08.16a0.09,0.09,0,0,0,0,0,7.73,7.73,0,0,0-1,1.1c-0.52.81-.83,1.29-0.92,1.47L985,745.49a0.17,0.17,0,0,1,.14,0l0.41-.24c2.9-2.64,5.14-3.59,6.72-2.82" transform="translate(-57 -350)"/><path id="_Trazado_compuesto_22" data-name="&lt;Trazado compuesto&gt;" class="cls-34" d="M997.89,787.78a4.65,4.65,0,0,0,.28,1.64,1.7,1.7,0,0,0,.26.17,0.79,0.79,0,0,0,.24.08c0,0.09-.16.24-0.33,0.5a0.44,0.44,0,0,0,.22.39,7,7,0,0,0-.07,2.16l-0.38,2a0.5,0.5,0,0,1-.21.27,1.49,1.49,0,0,1,.06.35,2,2,0,0,0,.77-0.32,1.59,1.59,0,0,1-.14.39,9,9,0,0,1-.73,1.17c0.1-.2.07-0.33-0.08-0.41l-0.16.34a0.66,0.66,0,0,0,.3.38,0.84,0.84,0,0,0-.5.47l0.39,0.19,0,0.57a2.37,2.37,0,0,1,.6-0.89,0.18,0.18,0,0,0,.07.27l-1.43,2.94a0.12,0.12,0,0,0,.07.17l-0.8,2.81a7.49,7.49,0,0,1,1.12-1.52c-0.06-.06-0.19-0.2-0.38-0.43l0.16-.33,0.09,0.15,0.26-.37,0-.4a0.67,0.67,0,0,0,.42,0l0.5-1a5.91,5.91,0,0,0-.25,1.37,1.77,1.77,0,0,1-.4.33l0.13,0.22a1.28,1.28,0,0,0-.32.46,1.32,1.32,0,0,0,.06.44,4.89,4.89,0,0,0,.61-1c0,0.08-.13.32-0.29,0.73s-0.22.65-.26,0.72,0,0,0,0a0.6,0.6,0,0,1-.11-0.25l-0.33.67,0.23-.1a0.3,0.3,0,0,1,.13.48l-1.84,3.8a2,2,0,0,0-.4.2l-0.09.19h0.24l-0.19.39a28.19,28.19,0,0,0-1.09,2.74,0.82,0.82,0,0,1-.43.12l0,0a1.63,1.63,0,0,0-.42.54,2.32,2.32,0,0,0-.11.37c-0.07.21-.12,0.33-0.14,0.37a1,1,0,0,1-.84.76l-0.12.25s0,0.15-.05.38L990,815.74a0.25,0.25,0,0,1,0-.22,0.36,0.36,0,0,1,.25-0.18l0.14-.29a1.22,1.22,0,0,0,.06-0.51,1.68,1.68,0,0,0-.55.51,0.35,0.35,0,0,0,0,.27,5.57,5.57,0,0,0-1.15,1,0.35,0.35,0,0,0,.22.18l-0.17.34a0.4,0.4,0,0,0-.45.21,2.4,2.4,0,0,0-.44.39,0.52,0.52,0,0,0-.35,0,0.13,0.13,0,0,0-.06-0.15,0.56,0.56,0,0,0-.27.28,0.35,0.35,0,0,0,0-.26l-0.26.15,0.09,0.3a0.39,0.39,0,0,0-.26.24l-0.83,0-1,.84a1.15,1.15,0,0,1-.14-0.21,1.44,1.44,0,0,1-.89.17,3.45,3.45,0,0,1-1.69.31c-1.14-.43-2.16-0.76-3.06-1l-2-.65q-7.24-3.51-10.91-16a4.13,4.13,0,0,0-.09-1.67,2.44,2.44,0,0,1-.12-1.47,0.55,0.55,0,0,1,.09-0.12c-0.15-.27-0.35-0.68-0.62-1.24-0.06-.86-0.13-2.15-0.21-3.85,0.18-.25.29-0.41,0.31-0.46l-0.37-2.19,1.11-5.86,0.79-1.62,1.07,0.06a5.58,5.58,0,0,0,.9-0.35,0.7,0.7,0,0,0,.38.65,8.71,8.71,0,0,0,1.34.59l-0.07-.08a9.67,9.67,0,0,1,1-.32,2.23,2.23,0,0,0,0,.58h0a3.81,3.81,0,0,1,.45.08l0.18,0.81,0.66-.66a2.86,2.86,0,0,1-.15,1.27,0.71,0.71,0,0,1-.15.21,1.34,1.34,0,0,1,.13.41c-0.13.38-.29,0.94-0.48,1.64a17.71,17.71,0,0,1-.07,2.58c0,0.35,0,1-.06,2.07,0.11,0.88.2,2.54,0.28,5a24.6,24.6,0,0,1,.91,4.31c0.44,1.14,1.19,2.91,2.29,5.3,0,0.12,0,.32,0,0.54a0.83,0.83,0,0,0,.5.64,1,1,0,0,0,.48.06c0.13,0.34.35,0.92,0.63,1.72l-0.06,0a1.28,1.28,0,0,1,.45.09l1.81,1.56,1.38,0.67a1.42,1.42,0,0,0,.91-0.21,1.7,1.7,0,0,0,.83-0.55c0.19-.07.46-0.2,0.84-0.38l2.3-2.56a19,19,0,0,0,1.32-2.19l1.71-3.21,1.55-3.78,1.84-5.23a1.62,1.62,0,0,1,.32-0.45l0.22-1.68a0.4,0.4,0,0,0,.25-0.24l0.5-2.44,0.38-.78,0.36-.08,0.64-1.32a0.69,0.69,0,0,1,.49.09,0.53,0.53,0,0,0,.22-0.28,1.53,1.53,0,0,0,.25.26,1.1,1.1,0,0,0,.39-0.18,3.35,3.35,0,0,0,.19.93,0.65,0.65,0,0,0,.07.08s0.08,0,.12-0.1l0.28-.58h0a3.19,3.19,0,0,0,.59.65l0.38-.27M997,798.15l-0.16.33,0,0a0.87,0.87,0,0,0,.31.31,1.1,1.1,0,0,0-.1-0.62" transform="translate(-57 -350)"/><path id="_Trazado_compuesto_23" data-name="&lt;Trazado compuesto&gt;" class="cls-34" d="M1005.79,764.41a4,4,0,0,1,2,2c0.09,0.08.31,0.28,0.62,0.59,0.35,0.73.84,1.8,1.45,3.19,0.23,1.81.43,3.51,0.6,5.08a24.54,24.54,0,0,1-1.68,7.17l-0.6,1.24a1,1,0,0,1-.39.38l0,0.06a19.28,19.28,0,0,1-2.17,2.65,25.48,25.48,0,0,1-3.62,1.83c-0.44,0-1.12,0-2.06.11a15.68,15.68,0,0,1-3.71-1.06l-1.68-1-2.75-1.34c-0.08-.09-0.41-0.41-1-1s-1.08-1-1.37-1.22c-0.53-.57-0.93-1.93-1.18-4.1,0.06-.32.15-0.82,0.27-1.52,0-.2,0-0.46,0-0.77a0.33,0.33,0,0,0,.18-0.19l0.19-1.25a6.84,6.84,0,0,1,.56-2l1.75-3.6a4.55,4.55,0,0,1,.93-1.23l0-.08q0.64-1.32,4.9-3.94l0.38,0.18a10.56,10.56,0,0,0,2-1.09,22.1,22.1,0,0,1,3.83-.11,15.65,15.65,0,0,1,2.6,1m-3.32,3.71-0.48-.23c-2.11.2-3.37,0.72-3.78,1.57a0.26,0.26,0,0,0,0,.16,1.17,1.17,0,0,1,0,.12l-0.12.25a2.1,2.1,0,0,0-1.38,1.42l-0.16.33-0.92,2.07-1.35,5,0.23,0.36,0.66,0.32a1.69,1.69,0,0,0,.66.11,2.16,2.16,0,0,1,.21.57h0.54a2.72,2.72,0,0,1,.09.76s0.22,0.34.68,1a4.3,4.3,0,0,0,.93,1.12l0.46,0.11a5.57,5.57,0,0,0,2.11-1.29,6.7,6.7,0,0,0,1.67-2,27.42,27.42,0,0,1,.85-2.79l0.27-3.59a11.36,11.36,0,0,0-.17-3.74,2.43,2.43,0,0,0-1-1.58" transform="translate(-57 -350)"/><path id="_Trazado_348" data-name="&lt;Trazado&gt;" class="cls-34" d="M1013.51,744.44l3,1.6,5.88,3.55,1.78,1.8a4,4,0,0,0,.1.9l-0.14.3a1,1,0,0,1-.51.28l-0.12.24-0.05.4c-0.35.18-.93,0.43-1.73,0.79l-2.16-.27-2-.92-5.22-3-1.4-.68a1.81,1.81,0,0,0-.47.08,28.46,28.46,0,0,0,0,3.13l2.2,5.77a25.7,25.7,0,0,0,3,5.83,2.74,2.74,0,0,1-.28,1.32,3.47,3.47,0,0,1-.58.63l0.21,0.33c-0.06.08-.19,0.28-0.44,0.61l-0.48-.23-0.59.37a2.5,2.5,0,0,0,0,.65,6.79,6.79,0,0,1-1.45-.16c-0.79-.34-1.3-0.52-1.51-0.59l0,0-2.23-1.46c-0.49-.32-1.07-0.72-1.74-1.22l-2.51-1.82a21.9,21.9,0,0,1-3.24-2.95l0-1.22a6.72,6.72,0,0,1,.57-0.69,1.1,1.1,0,0,0,.88,0c0.45-.19.73-0.29,0.82-0.32a3.29,3.29,0,0,0,1.39.06c0.36,0.09,1,.24,1.86.44a15.9,15.9,0,0,0-1.37-6,3.74,3.74,0,0,0-.25-1.42c-0.1-1.34-.17-2.68-0.23-4a5.59,5.59,0,0,1,.41-1.6,6.37,6.37,0,0,1,1.8-1.25,20,20,0,0,1,6.75.75" transform="translate(-57 -350)"/><path id="_Trazado_349" data-name="&lt;Trazado&gt;" class="cls-34" d="M1031.11,720.76a1.83,1.83,0,0,1,.19.79,1.31,1.31,0,0,0,.58,1,1.39,1.39,0,0,0,.67.11,3.76,3.76,0,0,1,.21,1.51,5.12,5.12,0,0,0,.16,1.71c0,0.93-.08,2.31-0.14,4.17l-0.21.63a8.05,8.05,0,0,1-.32.84l-0.49,2a19,19,0,0,0-.86,2l-0.28.79-1,1.77v0a0.55,0.55,0,0,0,0,.36A15.77,15.77,0,0,1,1029,740l-0.49,1.1,0,0.08a27.78,27.78,0,0,1-3.15,4.18,13.1,13.1,0,0,1-2,1.75,4.16,4.16,0,0,1-2,.42,2.28,2.28,0,0,1-1.91,0,14.88,14.88,0,0,1-2.69-2,13.26,13.26,0,0,1-.67-1.53q-1-5.68,1.26-14.27c0.07-.23.48-1.63,1.24-4.21a1.32,1.32,0,0,0,0-.8l-15.56-8.21a2.28,2.28,0,0,0-.39-0.35c-0.73-.5-1.54-1.11-2.44-1.85-0.9-1.53-1.12-2.8-.64-3.82,1.27-1,2.8-1.09,4.6-.22l0.53,0.26a4.39,4.39,0,0,1,.55.18,1.2,1.2,0,0,1,.56-0.05l19.09,9.44,1,0.8a1,1,0,0,1-.12.3c-0.07.15-.2,0.41-0.39,0.75a1.77,1.77,0,0,1,.07,1.62s-0.19.28-.53,0.73-0.53.66-.54,0.69l-2.34,7a0.6,0.6,0,0,1-.44.36l0.58,5.25a0.43,0.43,0,0,0,.08.15l2.64-4.92,1.6-3.63,2.11-6.46a7.84,7.84,0,0,0,.64-1,2.08,2.08,0,0,0,.18-0.51l0.52-.12,0.32,0.48a3.14,3.14,0,0,0,.78-0.66" transform="translate(-57 -350)"/><path id="_Trazado_compuesto_24" data-name="&lt;Trazado compuesto&gt;" class="cls-34" d="M1042.34,701.34a9.86,9.86,0,0,0,.81,1.19,0.7,0.7,0,0,1-.3.35,3.48,3.48,0,0,0,0,.78c0.26-.21.62-0.47,1.07-0.78a4.55,4.55,0,0,0,.29,1.39,25.14,25.14,0,0,1-.51,2.68,1.72,1.72,0,0,0,.51,1.08l-1.71,5a18.63,18.63,0,0,1-6.26,7,10.92,10.92,0,0,1-6.49.26,1.93,1.93,0,0,1-.75-0.11,10,10,0,0,1-3.66-3.7,9.49,9.49,0,0,1-1.84-5.65,2.16,2.16,0,0,1,.24-0.63,9,9,0,0,1,.21-3.79,16.35,16.35,0,0,1,1.18-3.67,6.65,6.65,0,0,1,2.3-2.42,2,2,0,0,0,.43.25c0.17-.21.37-0.46,0.61-0.73a0.86,0.86,0,0,0,.5-0.07,4.9,4.9,0,0,0,2,.35l0.82,0.4a0.64,0.64,0,0,1,.26.4,0.83,0.83,0,0,1,.47.07,2,2,0,0,1,.76.8c0.17,0.12.4,0.26,0.71,0.44a22.26,22.26,0,0,0,1.21,1.92l1,5.46a9.77,9.77,0,0,0,2-3.07l2.41-4.68a4.78,4.78,0,0,0,1.71-.55m-11.91,4.8-0.73-.74s-1,.74-0.93.5a11.32,11.32,0,0,0-.76,3,9.33,9.33,0,0,0,.77,3.49c0-.09,2.95.18,3.08,0.12,0.18-2-.94-5.26-1.43-6.37" transform="translate(-57 -350)"/><path id="_Trazado_350" data-name="&lt;Trazado&gt;" class="cls-34" d="M1050.34,684.86a4.79,4.79,0,0,1,1.61,1.29c0.25,0.36.32,1.48,0.18,3.33a12.49,12.49,0,0,1-.85,4.25c0,0.08-.33.52-0.88,1.35a3.66,3.66,0,0,0-.35.57,2.48,2.48,0,0,0-.26.89l-1.28,1.65-0.78,1.62a7.38,7.38,0,0,1-1.21,1.36c-0.59.59-1,1-1.18,1.11a2.06,2.06,0,0,0-1.14.12,0.44,0.44,0,0,1-.25-0.24l-0.27.1a3.51,3.51,0,0,0-.72-0.46,1.89,1.89,0,0,0-1-.23,6.4,6.4,0,0,1,.28-1.93l0.68-1.4,0.66-2,0.61-1.27,1.13-3.3c-0.07-.25-0.1-0.38-0.1-0.38a1.83,1.83,0,0,0-.64.25l-2,1.73q-5,4.35-8.4,3.7a2.45,2.45,0,0,0-.92,0l-2-1a4,4,0,0,1-.66-0.73c-1.27-.76-0.71-3.59,1.68-8.53v0s0.67-1,2-3a19.92,19.92,0,0,1,2.62-2.31,5.62,5.62,0,0,1,3.34-1.07,1.61,1.61,0,0,1,.39.52,2.12,2.12,0,0,0,.44.54l0.25,0,0.19,1.33-0.13.28s0-.08,0-0.08a14.87,14.87,0,0,0-1.83,2q-1.48,2.23-1.71,2.71l-0.93,2.82a0.34,0.34,0,0,1,.26,0l0.78-.45c5.37-4.91,9.5-6.62,12.42-5.21" transform="translate(-57 -350)"/><polygon id="_Trazado_351" data-name="&lt;Trazado&gt;" class="cls-35" points="999.13 288.74 985.76 295.44 986.66 285.76 983.09 285.44 981.97 297.65 974.37 296.74 973.95 300.29 981.63 301.2 980.55 312.81 984.11 313.14 985.02 303.37 1011.47 316.01 1013.02 312.77 985.43 299.6 999.86 292.37 1011.99 293.15 1012.22 289.58 999.13 288.74"/><path id="_Trazado_352" data-name="&lt;Trazado&gt;" class="cls-36" d="M1026.77,640.38a8.37,8.37,0,1,1-9.82,6.6,8.36,8.36,0,0,1,9.82-6.6" transform="translate(-57 -350)"/><path id="_Trazado_353" data-name="&lt;Trazado&gt;" class="cls-37" d="M1044.65,665a7,7,0,1,1-9.73-1.55,7,7,0,0,1,9.73,1.55" transform="translate(-57 -350)"/><path id="_Trazado_354" data-name="&lt;Trazado&gt;" class="cls-38" d="M1039.33,623a7,7,0,1,1-2.9,9.41,7,7,0,0,1,2.9-9.41" transform="translate(-57 -350)"/><path id="_Trazado_355" data-name="&lt;Trazado&gt;" class="cls-39" d="M1076,659.67a7,7,0,1,1-8.18,5.5,7,7,0,0,1,8.18-5.5" transform="translate(-57 -350)"/><path id="_Trazado_356" data-name="&lt;Trazado&gt;" class="cls-40" d="M1071.07,635.4a7,7,0,1,1-2.9,9.42,7,7,0,0,1,2.9-9.42" transform="translate(-57 -350)"/></g><g id="_Grupo_85" data-name="&lt;Grupo&gt;"><path id="_Trazado_357" data-name="&lt;Trazado&gt;" class="cls-41" d="M125.81,706.12c-1.54,18.54,7.41,90.9,49.51,49.51Z" transform="translate(-57 -350)"/><path id="_Trazado_358" data-name="&lt;Trazado&gt;" class="cls-42" d="M125.83,706.1c18.54-1.53,87.58,10.73,49.51,49.51Z" transform="translate(-57 -350)"/></g><g id="_Grupo_86" data-name="&lt;Grupo&gt;"><path id="_Trazado_359" data-name="&lt;Trazado&gt;" class="cls-41" d="M242,680.63c-18.28,3.47-85.63,31.39-34.51,60.92Z" transform="translate(-57 -350)"/><path id="_Trazado_360" data-name="&lt;Trazado&gt;" class="cls-42" d="M242,680.65c6.42,17.46,13,87.27-34.51,60.92Z" transform="translate(-57 -350)"/></g><g id="_Grupo_87" data-name="&lt;Grupo&gt;"><path id="_Trazado_361" data-name="&lt;Trazado&gt;" class="cls-41" d="M231.62,812.32c1.73-18.53-6.45-91-49-50Z" transform="translate(-57 -350)"/><path id="_Trazado_362" data-name="&lt;Trazado&gt;" class="cls-42" d="M231.6,812.34c-18.56,1.34-87.46-11.65-49-50Z" transform="translate(-57 -350)"/></g><text class="cls-43" transform="translate(1064.65 322.29)">El<tspan x="33.54" y="0">éc</tspan><tspan x="80.28" y="0">tri</tspan><tspan x="123.49" y="0">c</tspan><tspan x="145.4" y="0">o</tspan><tspan x="0" y="36">g</tspan><tspan x="26.45" y="36">r</tspan><tspan x="41.52" y="36">atui</tspan><tspan x="120.22" y="36">t</tspan><tspan x="135.85" y="36">o</tspan></text><polygon id="_Trazado_363" data-name="&lt;Trazado&gt;" class="cls-6" points="555.6 256.58 708.59 489.07 845.09 489.07 954.58 250.59 555.6 256.58"/><text class="cls-44" transform="translate(677.12 316.53)"><tspan class="cls-45">T</tspan><tspan x="20.38" y="0">r</tspan><tspan x="35.45" y="0">anspo</tspan><tspan x="158.01" y="0">r</tspan><tspan x="174.35" y="0">t</tspan><tspan x="189.97" y="0">e</tspan><tspan class="cls-45" x="0" y="38">V</tspan><tspan x="25.47" y="38">ec</tspan><tspan x="72.21" y="38">inal</tspan></text><g id="_Grupo_88" data-name="&lt;Grupo&gt;"><g id="_Grupo_89" data-name="&lt;Grupo&gt;"><path id="_Trazado_364" data-name="&lt;Trazado&gt;" class="cls-41" d="M1310.72,774.89c-0.78,9.42,3.77,46.2,25.16,25.16Z" transform="translate(-57 -350)"/><path id="_Trazado_365" data-name="&lt;Trazado&gt;" class="cls-42" d="M1310.73,774.88c9.42-.78,44.51,5.45,25.16,25.16Z" transform="translate(-57 -350)"/></g><g id="_Grupo_90" data-name="&lt;Grupo&gt;"><path id="_Trazado_366" data-name="&lt;Trazado&gt;" class="cls-41" d="M1369.76,761.94c-9.29,1.76-43.52,16-17.54,31Z" transform="translate(-57 -350)"/><path id="_Trazado_367" data-name="&lt;Trazado&gt;" class="cls-42" d="M1369.78,761.95c3.27,8.87,6.62,44.35-17.54,31Z" transform="translate(-57 -350)"/></g><g id="_Grupo_91" data-name="&lt;Grupo&gt;"><path id="_Trazado_368" data-name="&lt;Trazado&gt;" class="cls-41" d="M1364.49,828.87c0.88-9.42-3.28-46.24-24.9-25.43Z" transform="translate(-57 -350)"/><path id="_Trazado_369" data-name="&lt;Trazado&gt;" class="cls-42" d="M1364.48,828.88c-9.43.68-44.45-5.92-24.9-25.43Z" transform="translate(-57 -350)"/></g></g><g id="_Grupo_92" data-name="&lt;Grupo&gt;"><g id="_Grupo_93" data-name="&lt;Grupo&gt;"><path id="_Trazado_370" data-name="&lt;Trazado&gt;" class="cls-41" d="M1759.68,702.88c-0.78,9.42,3.77,46.2,25.16,25.16Z" transform="translate(-57 -350)"/><path id="_Trazado_371" data-name="&lt;Trazado&gt;" class="cls-42" d="M1759.69,702.87c9.42-.78,44.51,5.45,25.16,25.16Z" transform="translate(-57 -350)"/></g><g id="_Grupo_94" data-name="&lt;Grupo&gt;"><path id="_Trazado_372" data-name="&lt;Trazado&gt;" class="cls-41" d="M1818.73,689.93c-9.29,1.76-43.52,16-17.54,31Z" transform="translate(-57 -350)"/><path id="_Trazado_373" data-name="&lt;Trazado&gt;" class="cls-42" d="M1818.74,689.94c3.27,8.87,6.62,44.35-17.54,31Z" transform="translate(-57 -350)"/></g><g id="_Grupo_95" data-name="&lt;Grupo&gt;"><path id="_Trazado_374" data-name="&lt;Trazado&gt;" class="cls-41" d="M1813.46,756.86c0.88-9.42-3.28-46.24-24.9-25.43Z" transform="translate(-57 -350)"/><path id="_Trazado_375" data-name="&lt;Trazado&gt;" class="cls-42" d="M1813.44,756.87c-9.43.68-44.45-5.92-24.9-25.43Z" transform="translate(-57 -350)"/></g></g></svg>