<svg id="Capa_2" data-name="Capa 2" xmlns="http://www.w3.org/2000/svg" xmlns:xlink="http://www.w3.org/1999/xlink" width="1353.9" height="712" viewBox="0 0 1353.9 712">
  <defs>
    <clipPath id="clip-path">
      <path d="M69.41,261.32c-24.4,35.4-21,62-21,62,2.9,22.5,18,52,18,52s-24,32-24,56c0,115,326,276,678,276,306.4,0,575.2-119,575.2-182,0-37.6-76.2-55-76.2-99,0-50.8,76.3-64.4,90-124,13.8-59.8-44.6-120.6-68-145-48.4-50.5-153-129.8-410-145C352.51-16,95.91,222.92,69.41,261.32Z" style="fill: none"/>
    </clipPath>
    <clipPath id="clip-path-2">
      <rect x="944.35" y="296.77" width="8.35" height="6.32" style="fill: none"/>
    </clipPath>
    <linearGradient id="Degradado_sin_nombre_23" data-name="Degradado sin nombre 23" x1="667.41" y1="131.19" x2="667.41" y2="175.45" gradientTransform="matrix(1, 0, 0, -1, 361.85, 549.11)" gradientUnits="userSpaceOnUse">
      <stop offset="0.22" stop-color="#d67861"/>
      <stop offset="1" stop-color="#edb652"/>
    </linearGradient>
    <linearGradient id="Degradado_sin_nombre_23-2" x1="667.42" y1="131.17" x2="667.42" y2="159.19" xlink:href="#Degradado_sin_nombre_23"/>
    <linearGradient id="Degradado_sin_nombre_23-3" x1="566.41" y1="130.3" x2="566.41" y2="174.56" xlink:href="#Degradado_sin_nombre_23"/>
    <linearGradient id="Degradado_sin_nombre_23-4" x1="566.43" y1="130.28" x2="566.43" y2="158.29" xlink:href="#Degradado_sin_nombre_23"/>
    <clipPath id="clip-path-3">
      <rect x="369.12" y="296.39" width="8.81" height="6.68" style="fill: none"/>
    </clipPath>
    <linearGradient id="Degradado_sin_nombre_23-5" x1="114.32" y1="131.19" x2="114.32" y2="197.7" xlink:href="#Degradado_sin_nombre_23"/>
    <linearGradient id="Degradado_sin_nombre_23-6" x1="114.32" y1="131.21" x2="114.32" y2="173.29" xlink:href="#Degradado_sin_nombre_23"/>
    <linearGradient id="Degradado_sin_nombre_23-7" x1="-30.81" y1="130.32" x2="-30.81" y2="189.73" xlink:href="#Degradado_sin_nombre_23"/>
    <linearGradient id="Degradado_sin_nombre_23-8" x1="-30.84" y1="130.27" x2="-30.84" y2="167.88" xlink:href="#Degradado_sin_nombre_23"/>
    <linearGradient id="Degradado_sin_nombre_23-9" x1="-140.85" y1="130.28" x2="-140.85" y2="170.99" xlink:href="#Degradado_sin_nombre_23"/>
    <linearGradient id="Degradado_sin_nombre_23-10" x1="-140.83" y1="130.32" x2="-140.83" y2="156.08" xlink:href="#Degradado_sin_nombre_23"/>
    <linearGradient id="Degradado_sin_nombre_23-11" x1="786.57" y1="132.08" x2="786.57" y2="198.6" xlink:href="#Degradado_sin_nombre_23"/>
    <linearGradient id="Degradado_sin_nombre_23-12" x1="786.61" y1="132.09" x2="786.61" y2="174.17" xlink:href="#Degradado_sin_nombre_23"/>
    <linearGradient id="Degradado_sin_nombre_23-13" x1="455.05" y1="132.44" x2="455.05" y2="176.7" xlink:href="#Degradado_sin_nombre_23"/>
    <linearGradient id="Degradado_sin_nombre_23-14" x1="455.01" y1="132.43" x2="455.01" y2="160.44" xlink:href="#Degradado_sin_nombre_23"/>
    <linearGradient id="Degradado_sin_nombre_21" data-name="Degradado sin nombre 21" x1="894.76" y1="293.51" x2="898.28" y2="293.51" gradientTransform="matrix(1, 0, 0, -1, 0, 712)" gradientUnits="userSpaceOnUse">
      <stop offset="0.11" stop-color="#4f6389"/>
      <stop offset="0.27" stop-color="#4f6389"/>
    </linearGradient>
    <linearGradient id="Degradado_sin_nombre_21-2" x1="876.43" y1="295.67" x2="880.18" y2="295.67" xlink:href="#Degradado_sin_nombre_21"/>
    <linearGradient id="Degradado_sin_nombre_21-3" x1="-549.4" y1="203.67" x2="-526.97" y2="203.67" gradientTransform="translate(354.64 549.11) rotate(180)" xlink:href="#Degradado_sin_nombre_21"/>
    <linearGradient id="Degradado_sin_nombre_22" data-name="Degradado sin nombre 22" x1="-543.81" y1="203.66" x2="-526.87" y2="203.66" gradientTransform="translate(354.64 549.11) rotate(180)" gradientUnits="userSpaceOnUse">
      <stop offset="0.27" stop-color="#4f6389"/>
      <stop offset="1" stop-color="#1f4d6e"/>
    </linearGradient>
    <linearGradient id="Degradado_sin_nombre_21-4" x1="-243.53" y1="181.1" x2="-226.93" y2="181.1" gradientTransform="matrix(1, 0, 0, -1, 361.85, 549.11)" xlink:href="#Degradado_sin_nombre_21"/>
  </defs>
  <title>calle3</title>
  <g style="clip-path: url(#clip-path)">
    <g>
      <polygon points="950.61 278.14 946.65 278.14 946.65 355.77 950.7 355.77 950.7 278.14 950.61 278.14" style="fill: #b3bdbd"/>
      <path d="M927.44,248.18l-.94,3.95a26.72,26.72,0,0,1,20.15,26h4A30.55,30.55,0,0,0,927.44,248.18Z" style="fill: #b3bdbd"/>
      <polygon points="905.02 242.14 928.37 248.31 927.36 252.33 904.01 246.15 905.02 242.14" style="fill: #636363"/>
      <polygon points="904.15 246.15 927.5 252.32 926.46 256.42 903.11 250.26 904.15 246.15" style="fill: #dfc55c"/>
      <path d="M969.82,248.18l.94,3.95a26.72,26.72,0,0,0-20.15,26h-4A30.64,30.64,0,0,1,969.82,248.18Z" style="fill: #b3bdbd"/>
      <polygon points="993.36 246.21 970.01 252.38 969 248.37 992.35 242.21 993.36 246.21" style="fill: #636363"/>
      <polygon points="994.3 250.29 970.96 256.45 969.92 252.35 993.26 246.19 994.3 250.29" style="fill: #dfc55c"/>
      <rect x="944.37" y="296.77" width="8.31" height="112.2" style="fill: #aa545e"/>
      <rect x="944.37" y="296.77" width="2.62" height="96.81" style="fill: #803f47;opacity: 0.5;isolation: isolate"/>
      <polyline points="950.53 302.89 950.88 306.19 950.88 315.48 946.94 310.58 946.94 320.84 950.88 327.67 946.94 335.63 946.94 347.82 950.88 342.47 950.88 354.65 946.94 361.97 950.53 368.8 946.61 374.43 950.88 382.44" style="fill: none;stroke: #fff;stroke-miterlimit: 10;stroke-width: 0.436870934538035px;opacity: 0.600000023841858;isolation: isolate"/>
      <circle cx="946.94" cy="310.64" r="1.45" style="fill: #b4545e;stroke: #d8b6bf;stroke-miterlimit: 10;stroke-width: 0.436870934538035px"/>
      <circle cx="950.88" cy="315.54" r="1.45" style="fill: #b4545e;stroke: #d8b6bf;stroke-miterlimit: 10;stroke-width: 0.436870934538035px"/>
      <circle cx="950.76" cy="306.97" r="1.45" style="fill: #b4545e;stroke: #d8b6bf;stroke-miterlimit: 10;stroke-width: 0.436870934538035px"/>
      <circle cx="946.94" cy="320.88" r="1.45" style="fill: #b4545e;stroke: #d8b6bf;stroke-miterlimit: 10;stroke-width: 0.436870934538035px"/>
      <circle cx="950.88" cy="327.71" r="1.45" style="fill: #b4545e;stroke: #d8b6bf;stroke-miterlimit: 10;stroke-width: 0.436870934538035px"/>
      <circle cx="946.94" cy="335.68" r="1.45" style="fill: #b4545e;stroke: #d8b6bf;stroke-miterlimit: 10;stroke-width: 0.436870934538035px"/>
      <circle cx="950.88" cy="342.5" r="1.45" style="fill: #b4545e;stroke: #d8b6bf;stroke-miterlimit: 10;stroke-width: 0.436870934538035px"/>
      <circle cx="946.94" cy="347.85" r="1.45" style="fill: #b4545e;stroke: #d8b6bf;stroke-miterlimit: 10;stroke-width: 0.436870934538035px"/>
      <circle cx="950.88" cy="354.67" r="1.45" style="fill: #b4545e;stroke: #d8b6bf;stroke-miterlimit: 10;stroke-width: 0.436870934538035px"/>
      <circle cx="946.94" cy="361.98" r="1.45" style="fill: #b4545e;stroke: #d8b6bf;stroke-miterlimit: 10;stroke-width: 0.436870934538035px"/>
      <circle cx="950.88" cy="368.81" r="1.45" style="fill: #b4545e;stroke: #d8b6bf;stroke-miterlimit: 10;stroke-width: 0.436870934538035px"/>
      <circle cx="946.94" cy="374.16" r="1.45" style="fill: #b4545e;stroke: #d8b6bf;stroke-miterlimit: 10;stroke-width: 0.436870934538035px"/>
      <g>
        <g style="opacity: 0.699999988079071">
          <g style="clip-path: url(#clip-path-2)">
            <ellipse cx="950.27" cy="298.11" rx="5.77" ry="4.71" style="fill: #e4eaf4"/>
          </g>
        </g>
        <g id="_Grupo_" data-name=" Grupo ">
          <path id="_Trazado_" data-name=" Trazado " d="M938.51,224.29a1.14,1.14,0,0,0,1-.2,1.49,1.49,0,0,0,.46-1.77,20.44,20.44,0,0,0-4.41-5.51,18.24,18.24,0,0,0-6.4-3.52,18.63,18.63,0,0,0-13.69.73,1.46,1.46,0,0,0-.73,1.68,1,1,0,0,0,1.22.78,1.06,1.06,0,0,0,.25-.09,16.08,16.08,0,0,1,12.09-.67,16.59,16.59,0,0,1,9.54,8.05A1.75,1.75,0,0,0,938.51,224.29Z" style="fill: #84b0e4"/>
          <path id="_Trazado_2" data-name=" Trazado 2" d="M918.08,222.23a1.47,1.47,0,0,0-.72,1.68,1,1,0,0,0,1.22.78,1.25,1.25,0,0,0,.25-.09,9,9,0,0,1,6.9-.37,9.3,9.3,0,0,1,5.4,4.52,1.09,1.09,0,0,0,.63.52,1.18,1.18,0,0,0,1-.2,1.49,1.49,0,0,0,.46-1.77A11.63,11.63,0,0,0,918.08,222.23Z" style="fill: #84b0e4"/>
          <path id="_Trazado_3" data-name=" Trazado 3" d="M918.16,231.06a1,1,0,0,0-.47,1.15.68.68,0,0,0,.82.47l.14-.06a6.12,6.12,0,0,1,4.53-.23,5.92,5.92,0,0,1,3.51,3,1,1,0,0,0,.39.33.63.63,0,0,0,.62-.09.92.92,0,0,0,.29-1.22,7.77,7.77,0,0,0-4.38-3.68A7.5,7.5,0,0,0,918.16,231.06Z" style="fill: #84b0e4"/>
        </g>
        <path d="M911.56,243.94s1.68-6.2,7.87-5c6.63,1.27,5.39,8.33,5.39,8.33Z" style="fill: #3c3d4b"/>
        <path d="M912.06,277.4a25.3,25.3,0,0,1-1.34-3.87c-1-4.19,0-11.41-5.93-12.78.92-6.59-1.15-17.37-10.85-16.54,4.09-6.17.61-19.15-5.32-23.87-9.32-7.32-22-6.7-27.85,3.78-9-4.72-16.47-8.05-26.72-2.1-5.53,3.24-8.6,6.81-8.91,12.57-.41,6.38,3.69,6.6,5,12-12.8.63-18.63,13.18-11.88,22.39-13.51,4.92-13.61,21.14-6,30.35,8.6,10.58,25,14.44,38.69,14.44h.1c1.15,0,2.15-.1,3.18-.1,2.15-.11,4.19-.31,6.24-.53l-1.62,105.4,8.6.74-2.3-106.92a51.63,51.63,0,0,0,16.8-6.42,35.9,35.9,0,0,0,8.39,1c12.64,0,26-7,25-20-.31-3.57-1.94-6.49-3.28-9.64h0Z" style="fill: #5e5e8d"/>
        <path d="M1050.93,384.85a33.27,33.27,0,0,0-7.58.88,10.59,10.59,0,0,1-10.87-4.21c-3.59-4.95-8-7.86-12.64-7.86-6.74,0-12.79,5.91-16.88,15.26a11.16,11.16,0,0,1-10.62,6.74h-.65a22.09,22.09,0,0,0-7.34,1.23c-11.5,4-8.42,21,3.75,21h82.37a10.86,10.86,0,0,0,9.47-16.21A33.2,33.2,0,0,0,1050.93,384.85Z" style="fill: url(#Degradado_sin_nombre_23)"/>
        <path d="M1044.82,397a26.83,26.83,0,0,0-5.43.56,8,8,0,0,1-7.78-2.66c-2.57-3.13-5.75-5-9.08-5-4.83,0-9.2,3.74-12.1,9.66a8.12,8.12,0,0,1-7.61,4.26h-.46a18,18,0,0,0-5.26.78c-8.23,2.52-6,13.32,2.69,13.32h59c6,0,9.72-5.67,6.79-10.26C1061.48,401.34,1053.72,397,1044.82,397Z" style="fill: url(#Degradado_sin_nombre_23-2)"/>
        <path d="M950,385.73a32.86,32.86,0,0,0-7.58.89,10.6,10.6,0,0,1-10.86-4.22c-3.6-4.94-8-7.85-12.65-7.85-6.73,0-12.78,5.91-16.87,15.25a11.18,11.18,0,0,1-10.63,6.74h-.64a22.45,22.45,0,0,0-7.35,1.23c-11.49,4-8.41,21,3.75,21h82.33a10.86,10.86,0,0,0,9.47-16.21A33.22,33.22,0,0,0,950,385.73Z" style="fill: url(#Degradado_sin_nombre_23-3)"/>
        <path d="M943.8,397.89a26.83,26.83,0,0,0-5.43.56,8.06,8.06,0,0,1-7.78-2.67c-2.57-3.12-5.75-5-9.08-5-4.83,0-9.2,3.73-12.1,9.65a8.13,8.13,0,0,1-7.61,4.27h-.46a18,18,0,0,0-5.26.78c-8.23,2.52-6,13.31,2.69,13.31h59c6,0,9.73-5.66,6.8-10.25C960.46,402.19,952.7,397.89,943.8,397.89Z" style="fill: url(#Degradado_sin_nombre_23-4)"/>
        <polygon points="375.34 282.39 370.63 284.92 370.63 375.05 375.34 375.05 375.34 282.39" style="fill: #b3bdbd"/>
        <rect x="356.68" y="413.22" width="31.93" height="8.62" style="fill: #636363"/>
        <rect x="367.72" y="296.47" width="9.85" height="117.69" style="fill: #aa545e"/>
        <path d="M347.69,246.64l-1.15,4.71a31.89,31.89,0,0,1,24.06,31h4.73A36.58,36.58,0,0,0,347.69,246.64Z" style="fill: #b3bdbd"/>
        <polygon points="320.97 239.45 348.84 246.81 347.63 251.59 319.76 244.23 320.97 239.45" style="fill: #636363"/>
        <polygon points="319.78 244.19 347.64 251.55 346.4 256.44 318.53 249.09 319.78 244.19" style="fill: #dfc55c"/>
        <path d="M398.29,246.64l1.15,4.71a31.91,31.91,0,0,0-24.07,31h-4.72A36.57,36.57,0,0,1,398.29,246.64Z" style="fill: #b3bdbd"/>
        <polygon points="426.33 244.29 398.46 251.65 397.25 246.87 425.11 239.51 426.33 244.29" style="fill: #636363"/>
        <polygon points="427.49 249.16 399.62 256.51 398.39 251.62 426.26 244.26 427.49 249.16" style="fill: #dfc55c"/>
        <rect x="367.81" y="282.39" width="30.58" height="5.06" style="fill: #636363"/>
        <g id="_Grupo_2" data-name=" Grupo 2">
          <path id="_Trazado_4" data-name=" Trazado 4" d="M420.91,286.84a1.35,1.35,0,0,0,.58,1,1.64,1.64,0,0,0,2.13-.15,24.23,24.23,0,0,0,4.38-7.19,23,23,0,0,0,1.44-8.76,23.47,23.47,0,0,0-6.09-15.53,1.67,1.67,0,0,0-2.14-.2,1.27,1.27,0,0,0-.34,1.77.86.86,0,0,0,.14.18,21,21,0,0,1,.22,27.83A2.19,2.19,0,0,0,420.91,286.84Z" style="fill: #84b0e4"/>
          <path id="_Trazado_5" data-name=" Trazado 5" d="M415.3,262.44a1.68,1.68,0,0,0-2.14-.19,1.27,1.27,0,0,0-.34,1.77.65.65,0,0,0,.15.18,11.9,11.9,0,0,1,.14,15.75,1.32,1.32,0,0,0-.33.92,1.38,1.38,0,0,0,.58,1,1.68,1.68,0,0,0,2.14-.15,14.39,14.39,0,0,0,3.55-9.72A14.79,14.79,0,0,0,415.3,262.44Z" style="fill: #84b0e4"/>
          <path id="_Trazado_6" data-name=" Trazado 6" d="M405.58,265.94a1.15,1.15,0,0,0-1.47-.09.82.82,0,0,0-.18,1.15l.09.11a7.65,7.65,0,0,1,2,5.14,7.26,7.26,0,0,1-1.94,5.21,1.21,1.21,0,0,0-.22.57.83.83,0,0,0,.35.68,1,1,0,0,0,1.46-.14,9.57,9.57,0,0,0,2.36-6.48A9.41,9.41,0,0,0,405.58,265.94Z" style="fill: #84b0e4"/>
        </g>
        <g id="_Grupo_3" data-name=" Grupo 3">
          <path id="_Trazado_7" data-name=" Trazado 7" d="M370,257a1.41,1.41,0,0,0-.52-1.06,1.66,1.66,0,0,0-2.14,0,24.55,24.55,0,0,0-4.77,6.9,23.11,23.11,0,0,0-1.91,8.67,23.58,23.58,0,0,0,5.25,16,1.68,1.68,0,0,0,2.12.31,1.27,1.27,0,0,0,.44-1.75,1.33,1.33,0,0,0-.14-.19,21,21,0,0,1,1.3-27.79A2.29,2.29,0,0,0,370,257Z" style="fill: #84b0e4"/>
          <path id="_Trazado_8" data-name=" Trazado 8" d="M374.19,281.7a1.68,1.68,0,0,0,2.13.31,1.28,1.28,0,0,0,.44-1.75,1.33,1.33,0,0,0-.14-.19,11.89,11.89,0,0,1,.72-15.74,1.33,1.33,0,0,0,.37-.91,1.41,1.41,0,0,0-.52-1.06,1.69,1.69,0,0,0-2.14,0,14.36,14.36,0,0,0-4.08,9.5A14.86,14.86,0,0,0,374.19,281.7Z" style="fill: #84b0e4"/>
          <path id="_Trazado_9" data-name=" Trazado 9" d="M384.12,278.77a1.15,1.15,0,0,0,1.46.17.83.83,0,0,0,.26-1.14l-.1-.12a7.79,7.79,0,0,1-1.71-5.24,7.32,7.32,0,0,1,2.22-5.1,1.33,1.33,0,0,0,.17-.52.83.83,0,0,0-.31-.7,1.06,1.06,0,0,0-1.46,0,9.55,9.55,0,0,0-2.72,6.34A9.44,9.44,0,0,0,384.12,278.77Z" style="fill: #84b0e4"/>
        </g>
        <path d="M397.46,272.49c0-.46-.55-1.72-2.51-1.72s-2.5,1-2.5,1.72v9.2h5v-9.2Z" style="fill: #323a56"/>
        <ellipse cx="394.95" cy="270.77" rx="5.36" ry="5.47" style="fill: #3e506c"/>
        <ellipse cx="395.96" cy="269.31" rx="3.09" ry="3.16" style="fill: #5476b0"/>
        <rect x="367.69" y="296.39" width="2.62" height="96.81" style="fill: #803f47;opacity: 0.5;isolation: isolate"/>
        <polyline points="373.84 302.59 374.21 305.88 374.21 315.17 370.27 310.26 370.27 320.51 374.21 327.34 370.27 335.3 370.27 347.47 374.21 342.13 374.21 354.3 370.27 361.61 373.84 368.44 369.92 374.06 374.21 382.06" style="fill: none;stroke: #fff;stroke-miterlimit: 10;stroke-width: 0.436870934538035px;opacity: 0.600000023841858;isolation: isolate"/>
        <circle cx="370.27" cy="310.26" r="1.45" style="fill: #b4545e;stroke: #d8b6bf;stroke-miterlimit: 10;stroke-width: 0.436870934538035px"/>
        <circle cx="374.21" cy="315.17" r="1.45" style="fill: #b4545e;stroke: #d8b6bf;stroke-miterlimit: 10;stroke-width: 0.436870934538035px"/>
        <circle cx="374.07" cy="306.59" r="1.45" style="fill: #b4545e;stroke: #d8b6bf;stroke-miterlimit: 10;stroke-width: 0.436870934538035px"/>
        <circle cx="370.27" cy="320.51" r="1.45" style="fill: #b4545e;stroke: #d8b6bf;stroke-miterlimit: 10;stroke-width: 0.436870934538035px"/>
        <circle cx="374.21" cy="327.34" r="1.45" style="fill: #b4545e;stroke: #d8b6bf;stroke-miterlimit: 10;stroke-width: 0.436870934538035px"/>
        <circle cx="370.27" cy="335.3" r="1.45" style="fill: #b4545e;stroke: #d8b6bf;stroke-miterlimit: 10;stroke-width: 0.436870934538035px"/>
        <circle cx="374.21" cy="342.13" r="1.45" style="fill: #b4545e;stroke: #d8b6bf;stroke-miterlimit: 10;stroke-width: 0.436870934538035px"/>
        <circle cx="370.27" cy="347.47" r="1.45" style="fill: #b4545e;stroke: #d8b6bf;stroke-miterlimit: 10;stroke-width: 0.436870934538035px"/>
        <circle cx="374.21" cy="354.3" r="1.45" style="fill: #b4545e;stroke: #d8b6bf;stroke-miterlimit: 10;stroke-width: 0.436870934538035px"/>
        <circle cx="370.27" cy="361.61" r="1.45" style="fill: #b4545e;stroke: #d8b6bf;stroke-miterlimit: 10;stroke-width: 0.436870934538035px"/>
        <circle cx="374.21" cy="368.44" r="1.45" style="fill: #b4545e;stroke: #d8b6bf;stroke-miterlimit: 10;stroke-width: 0.436870934538035px"/>
        <circle cx="370.27" cy="373.79" r="1.45" style="fill: #b4545e;stroke: #d8b6bf;stroke-miterlimit: 10;stroke-width: 0.436870934538035px"/>
        <g>
          <g style="opacity: 0.699999988079071">
            <g style="clip-path: url(#clip-path-3)">
              <ellipse cx="375.36" cy="297.81" rx="6.09" ry="4.98" style="fill: #e4eaf4"/>
            </g>
          </g>
          <path d="M508.78,368.21a49.57,49.57,0,0,0-11.38,1.33,15.92,15.92,0,0,1-16.33-6.34c-5.41-7.43-12-11.79-19.05-11.79-10.13,0-19.21,8.88-25.36,22.92a16.8,16.8,0,0,1-16,10.13h-.94a33.55,33.55,0,0,0-11.05,1.85c-17.24,6-12.64,31.61,5.64,31.61H538a16.32,16.32,0,0,0,14.24-24.36A50,50,0,0,0,508.78,368.21Z" style="fill: url(#Degradado_sin_nombre_23-5)"/>
          <path d="M499.53,386.46a40,40,0,0,0-8.16.84,12.18,12.18,0,0,1-11.69-4c-3.87-4.71-8.57-7.47-13.64-7.47-7.26,0-13.8,5.63-18.17,14.51a12.21,12.21,0,0,1-11.43,6.42h-.69a26.92,26.92,0,0,0-7.92,1.15c-12.37,3.78-9.06,20,4,20h88.64c9,0,14.61-8.53,10.21-15.42C524.56,392.93,512.88,386.46,499.53,386.46Z" style="fill: url(#Degradado_sin_nombre_23-6)"/>
          <path d="M360.12,374.42A44.68,44.68,0,0,0,350,375.57a14.2,14.2,0,0,1-14.57-5.66c-4.83-6.63-10.7-10.53-17-10.53-9.05,0-17.15,7.94-22.65,20.48a14.94,14.94,0,0,1-14.24,9.05h-.82a29.84,29.84,0,0,0-9.86,1.65c-15.42,5.35-11.29,28.23,5,28.23H386.31A14.57,14.57,0,0,0,399,397,44.57,44.57,0,0,0,360.12,374.42Z" style="fill: url(#Degradado_sin_nombre_23-7)"/>
          <path d="M351.85,390.72a35.7,35.7,0,0,0-7.28.75,10.84,10.84,0,0,1-10.43-3.57c-3.45-4.2-7.66-6.67-12.19-6.67-6.49,0-12.29,5-16.22,12.95a10.91,10.91,0,0,1-10.21,5.75h-.62a24.17,24.17,0,0,0-7.07,1.05c-11,3.38-8.05,17.86,3.61,17.86h79.15c8.05,0,13.05-7.61,9.12-13.79C374.21,396.5,363.81,390.72,351.85,390.72Z" style="fill: url(#Degradado_sin_nombre_23-8)"/>
          <path d="M241,388.4a30.26,30.26,0,0,0-7,.82,9.73,9.73,0,0,1-10-3.88c-3.31-4.6-7.32-7.22-11.66-7.22-6.2,0-11.75,5.44-15.52,14a10.28,10.28,0,0,1-9.76,6.2h-.6a20.52,20.52,0,0,0-6.76,1.15c-10.56,3.65-7.73,19.33,3.45,19.33h75.7a10,10,0,0,0,8.71-14.94A30.55,30.55,0,0,0,241,388.4Z" style="fill: url(#Degradado_sin_nombre_23-9)"/>
          <path d="M235.3,399.56a25.31,25.31,0,0,0-5,.52,7.42,7.42,0,0,1-7.15-2.45c-2.37-2.87-5.24-4.6-8.35-4.6-4.44,0-8.41,3.45-11.12,8.88a7.46,7.46,0,0,1-7,3.92h-.42a16.88,16.88,0,0,0-4.84.71c-7.57,2.3-5.54,12.25,2.47,12.25h54.23c5.5,0,8.94-5.22,6.24-9.43A22.5,22.5,0,0,0,235.3,399.56Z" style="fill: url(#Degradado_sin_nombre_23-10)"/>
          <path d="M1181.07,367.32a49,49,0,0,0-11.38,1.32,15.92,15.92,0,0,1-16.33-6.34c-5.41-7.42-12-11.79-19-11.79-10.13,0-19.21,8.89-25.36,22.92a16.77,16.77,0,0,1-16,10.13h-1a33.77,33.77,0,0,0-11,1.85c-17.25,6-12.65,31.62,5.63,31.62h123.74a16.32,16.32,0,0,0,14.17-24.35A49.91,49.91,0,0,0,1181.07,367.32Z" style="fill: url(#Degradado_sin_nombre_23-11)"/>
          <path d="M1171.81,385.57a39.84,39.84,0,0,0-8.15.84,12.17,12.17,0,0,1-11.69-4c-3.88-4.7-8.58-7.46-13.65-7.46-7.25,0-13.79,5.62-18.16,14.51a12.23,12.23,0,0,1-11.43,6.41H1108a27.25,27.25,0,0,0-7.92,1.15c-12.37,3.78-9.06,20,4,20h88.64c9,0,14.62-8.53,10.21-15.42C1196.85,392,1185.19,385.57,1171.81,385.57Z" style="fill: url(#Degradado_sin_nombre_23-12)"/>
          <path d="M838.59,383.6a32.7,32.7,0,0,0-7.57.88,10.61,10.61,0,0,1-10.87-4.22c-3.59-4.94-8-7.85-12.64-7.85-6.74,0-12.79,5.91-16.88,15.26A11.15,11.15,0,0,1,780,394.4h-.65a22.62,22.62,0,0,0-7.34,1.23c-11.5,4-8.42,21,3.75,21h82.32a10.87,10.87,0,0,0,9.48-16.21A33.21,33.21,0,0,0,838.59,383.6Z" style="fill: url(#Degradado_sin_nombre_23-13)"/>
          <path d="M832.49,395.74a26.83,26.83,0,0,0-5.43.56,8.06,8.06,0,0,1-7.78-2.67c-2.57-3.12-5.75-5-9.08-5-4.83,0-9.2,3.73-12.1,9.65a8.13,8.13,0,0,1-7.61,4.27H790a18,18,0,0,0-5.26.78c-8.23,2.52-6,13.31,2.69,13.31h59c6,0,9.73-5.66,6.8-10.25C849.1,400,841.34,395.74,832.49,395.74Z" style="fill: url(#Degradado_sin_nombre_23-14)"/>
          <path d="M528.61,291.24a19.38,19.38,0,0,0,1-6c0-15.67-19.09-28.52-43.33-29.75H486c-1,0-2.09-.08-3.15-.09h-.39c-22.49,0-41.29,10-46,23.3-9.54,5.58-15.55,13.68-15.55,22.72,0,16.81,20.79,30.43,46.44,30.43h.16c1.15,0,2.3-.06,3.45-.12h0c2.3-.11,4.49-.32,6.66-.64l-1.87,85.51H485l-2.55-86.42a54,54,0,0,0,18.15-7.53,35.25,35.25,0,0,0,9,1.15c14.61,0,26.44-8.61,26.44-19.22,0-5.17-2.83-9.86-7.4-13.32h0Z" style="fill: #5e5e91"/>
          <path d="M626.33,335.68a15.66,15.66,0,0,0,.74-4.75c0-12.4-14.66-22.57-33.34-23.55h-.23c-.81,0-1.61-.05-2.42-.06h-.28c-17.25,0-31.71,7.88-35.34,18.39-7.34,4.42-12,10.83-12,18,0,13.3,16,24.09,35.64,24.09h.12a23.39,23.39,0,0,0,2.65-.1h0c1.74-.09,3.45-.25,5.12-.5l-1.44,67.67h7.16l-2-68.4a40.77,40.77,0,0,0,14.05-5.93,26.37,26.37,0,0,0,6.9.92c11.22,0,20.32-6.82,20.32-15.22a13.49,13.49,0,0,0-5.69-10.54h-.06Z" style="fill: #5e5e91"/>
          <path d="M218.57,298.56a19.49,19.49,0,0,0,1-6c0-15.68-19.09-28.52-43.33-29.75h-.3c-1,0-2.1-.08-3.15-.08h-.38c-22.49,0-41.29,10-46,23.3-9.54,5.58-15.55,13.69-15.55,22.72,0,16.81,20.79,30.43,46.44,30.43h.15c1.15,0,2.3-.05,3.45-.11h0c2.3-.12,4.5-.32,6.66-.65l-1.88,85.5h9.22l-2.55-86.42A53.7,53.7,0,0,0,190.5,330a34.74,34.74,0,0,0,9,1.15c14.62,0,26.45-8.61,26.45-19.22C225.93,306.71,223.1,302,218.57,298.56Z" style="fill: #5e5e91"/>
          <path d="M1141.3,295.2c-.41-5.39-3.94-10.95-6.2-15.28-4.22-6.08-9.57-5.63-14.85-3.92,1.15-9.2-5.81-15.92-12.75-22.58-5.81-1.86-12.57-1-18.88,1.76a14.63,14.63,0,0,0,3,2.14c-5.22,4.92-11.21,8.18-15.06,14.68-4.75,8.05-4.6,17.84-1.89,26.44a28.83,28.83,0,0,0,14.15,17.34,36.94,36.94,0,0,0,17.51,3.93c6.15,6.9,16.66,11.5,28.6,11.5,18.39,0,33.45-10.91,34.24-24.6A52.08,52.08,0,0,0,1141.3,295.2Z" style="fill: #a5509f"/>
          <path d="M1168.79,301.25c6.82,0,11.44-3.87,14.38-8.89a35.36,35.36,0,0,0,4.28-13.61c1-8.94-7.89-18.14-16.45-22.13l.29-.74a24,24,0,0,0,7.52-17.79c0-12.54-8.87-22.71-19.82-22.71a8.94,8.94,0,0,0-1.46.08v-.09a25.43,25.43,0,0,0,1.51-8.59c0-14.71-12.49-26.63-27.88-26.63s-27.93,11.95-27.93,26.63a25.6,25.6,0,0,0,1,6.9c-3.67.11-6.55.15-10.27,2.88A31.77,31.77,0,0,0,1082.58,232a23.37,23.37,0,0,0-.34,11.15,22,22,0,0,0,6.38,12.1c6.31-2.72,13.07-3.61,18.88-1.75,6.9,6.66,13.88,13.33,12.75,22.58,5.28-1.72,10.63-2.17,14.85,3.92,2.3,4.32,5.75,9.88,6.2,15.27a52.21,52.21,0,0,1,27.91,11.4c0-.38.08-.75.08-1.15A19.5,19.5,0,0,0,1168.79,301.25Z" style="fill: #c660ac"/>
          <path d="M1085.31,302.4c-2.71-8.57-2.86-18.4,1.89-26.45,3.86-6.49,9.84-9.75,15.06-14.68-5.14-2.62-8.27-8.36-9.42-14.24a23.37,23.37,0,0,1,.34-11.15,31.77,31.77,0,0,1,11.35-15.41c3.71-2.74,6.6-2.77,10.27-2.88a25.6,25.6,0,0,1-1-6.9c0-14.71,12.49-26.63,27.88-26.63a28.94,28.94,0,0,1,3.84.29,28.69,28.69,0,0,0-14.44-3.89c-15.39,0-27.88,11.92-27.88,26.63a25.6,25.6,0,0,0,1,6.9c-3.67.11-6.55.15-10.27,2.88a31.77,31.77,0,0,0-11.35,15.41,23.37,23.37,0,0,0-.34,11.15c1.15,5.89,4.28,11.62,9.42,14.24-5.22,4.92-11.21,8.19-15.06,14.68-4.75,8-4.6,17.86-1.89,26.45a28.86,28.86,0,0,0,14.15,17.37A33.66,33.66,0,0,0,1099,319.5,28.87,28.87,0,0,1,1085.31,302.4Z" style="fill: #cc87c2"/>
          <polygon points="1121.81 277.37 1114.01 260.94 1108.99 245.5 1127.39 278.98 1130.64 262.11 1132.26 260.25 1128.85 281.73 1134.56 293.56 1147.28 271.49 1144.46 252.58 1145.97 250.67 1149.35 268.61 1157.98 256.51 1160.05 256.51 1136.02 300.11 1138.02 417.61 1129.23 417.61 1131.93 298.67 1123.54 280.99 1110.74 279.33 1110.74 277.37 1121.81 277.37" style="fill: #57103c"/>
          <path d="M143.73,261.08a69.64,69.64,0,0,0-20.58-3c-22.49,0-41.28,10-46,23.3-9.54,5.58-15.55,13.68-15.55,22.72,0,16.81,20.8,30.43,46.44,30.43a67.83,67.83,0,0,0,17.25-2.2c-1.46-3.7-2.86-7.43-4.28-11.17C115.1,297.7,124.08,274.26,143.73,261.08Z" style="fill: #ef709b"/>
          <path d="M150.26,326.5c14.61,0,26.44-8.61,26.44-19.22,0-5.17-2.83-9.86-7.4-13.32a19.46,19.46,0,0,0,1-6c0-11.81-10.84-22-26.54-26.84C124.08,274.26,115.1,297.7,121,321.18c1.4,3.74,2.81,7.47,4.27,11.18a53,53,0,0,0,16-7A35.25,35.25,0,0,0,150.26,326.5Z" style="fill: #e21b88"/>
          <polygon points="128.13 312.87 132.25 305.24 140.64 298.99 138.12 299.59 132.14 303.81 137.62 293.78 135.8 293.97 127.62 305.84 124.17 292.05 122.46 290.52 126.07 308.09 121.03 315.4 106.53 299.72 109.51 284.24 107.92 282.68 104.34 297.35 95.19 287.46 92.99 287.46 118.55 319.01 116.36 419.3 125.68 419.3 122.81 321.96 126.85 315.39 136.32 310.35 141.19 313.87 142.27 313.63 137.68 309.72 145.28 305.59 145.28 304.52 128.13 312.87" style="fill: #57103c"/>
          <path d="M69.12,304.12c0-9,6-17.14,15.55-22.72,4.46-12.64,21.5-22.19,42.33-23.21-1.23-.06-2.47-.1-3.72-.1-22.49,0-41.29,10-46,23.3-9.54,5.58-15.56,13.68-15.56,22.72,0,16.81,20.8,30.43,46.45,30.43,1.15,0,2.3-.06,3.45-.12C87.81,333.13,69.12,320.05,69.12,304.12Z" style="fill: #ff8dd1"/>
          <path d="M1087.34,294.09a19.37,19.37,0,0,0,1-6c0-10.65-8.83-20-22.1-25.29a11.12,11.12,0,0,0,.25-2.23c0-9.6-11.68-17.38-26.1-17.38-12.65,0-23.16,6-25.58,13.9-.7,0-1.42-.07-2.14-.07-12.65,0-22.88,7-22.88,15.55a12.69,12.69,0,0,0,4.69,9.41c-9.13,5.55-14.85,13.47-14.85,22.29,0,11.29,9.39,21.14,23.34,26.44,2.46,6.32,12.36,11.06,24.21,11.06,12.48,0,22.79-5.25,24.52-12.09a48.47,48.47,0,0,0,7.67-4.14,35.71,35.71,0,0,0,9,1.15c14.61,0,26.44-8.61,26.44-19.22C1094.74,302.23,1091.91,297.54,1087.34,294.09Z" style="fill: #ef709b"/>
          <polygon points="1051.56 304.66 1059.84 291.21 1058.31 287.6 1045.64 305.97 1042.19 292.18 1040.47 290.66 1044.1 308.22 1039.06 315.54 1024.55 299.86 1027.54 284.37 1025.93 282.82 1022.36 297.49 1013.21 287.6 1011.01 287.6 1036.58 319.13 1034.37 419.43 1043.69 419.43 1040.83 322.09 1049.73 307.63 1063.3 306.27 1063.3 304.66 1051.56 304.66" style="fill: #57103c"/>
          <path d="M1010.69,330.64c-14-5.25-23.34-15.09-23.34-26.44,0-8.81,5.75-16.73,14.85-22.29a12.69,12.69,0,0,1-4.69-9.41c0-8.58,10.25-15.55,22.88-15.55.72,0,1.43,0,2.14.07,2.16-7.1,10.83-12.65,21.67-13.69a37,37,0,0,0-3.83-.21c-12.64,0-23.15,6-25.58,13.9-.7,0-1.41-.07-2.14-.07-12.64,0-22.88,6.95-22.88,15.55a12.66,12.66,0,0,0,4.7,9.41c-9.13,5.55-14.86,13.47-14.86,22.29,0,11.29,9.39,21.14,23.34,26.44,2.46,6.33,12.36,11.06,24.21,11.06,1.31,0,2.59-.07,3.84-.18C1020.88,340.62,1012.84,336.26,1010.69,330.64Z" style="fill: #ff8fc5"/>
          <path d="M237,266.54l.26-.7A23.58,23.58,0,0,0,244,248.89c0-12-7.95-21.65-17.75-21.65a7.15,7.15,0,0,0-1.31.08v-.09a25.6,25.6,0,0,0,1.35-8.18A25,25,0,1,0,176.31,218q0,.54,0,1.08a26,26,0,0,0,.86,6.51c-3.29.12-5.87.15-9.2,2.75A30.31,30.31,0,0,0,157.8,243a23.85,23.85,0,0,0-.3,10.63c1,5.61,3.84,11.07,8.44,13.56-4.68,4.69-10,7.8-13.5,14-4.25,7.61-4.11,17-1.69,25.17a27.16,27.16,0,0,0,12.73,16.56,31.32,31.32,0,0,0,15.63,3.72c5.51,6.61,14.95,11,25.62,11,17,0,30.75-11,30.75-24.52a19.42,19.42,0,0,0-.45-4c6.11,0,10.25-3.68,12.89-8.47a35.35,35.35,0,0,0,3.83-13C252.62,279.1,244.68,270.27,237,266.54Z" style="fill: #c660ac"/>
          <path d="M189.57,274.42l-.2-.61a22.3,22.3,0,0,1-5-14.64c0-10.35,5.87-18.71,13.11-18.71.32,0,.64,0,1,.07v-.08a25.65,25.65,0,0,1-1-7.07c0-12.1,8.26-21.92,18.4-21.92s18.39,9.82,18.39,21.92a25.31,25.31,0,0,1-.63,5.63c2.43.1,4.34.13,6.78,2.38A26.52,26.52,0,0,1,247.92,254a23.94,23.94,0,0,1,.22,9.2c-.76,4.84-2.83,9.57-6.23,11.72,3.45,4.06,7.4,6.74,10,12.09,3.14,6.57,3,14.7,1.25,21.75-1.68,6.6-5,11.42-9.39,14.31a20.43,20.43,0,0,1-11.5,3.21,23.1,23.1,0,0,1-18.84,9.48c-12.53,0-22.7-9.48-22.7-21.17a20,20,0,0,1,.34-3.45c-4.51,0-7.57-3.17-9.51-7.32a34.58,34.58,0,0,1-2.83-11.21C178.05,285.29,183.91,277.71,189.57,274.42Z" style="fill: #a5509f"/>
          <path d="M160.24,310.14c-2.43-8.16-2.57-17.55,1.69-25.16,3.45-6.19,8.82-9.29,13.49-14-4.59-2.5-7.4-8-8.43-13.58a23.66,23.66,0,0,1,.29-10.62,30.24,30.24,0,0,1,10.18-14.68c3.32-2.6,5.91-2.64,9.2-2.75a25.66,25.66,0,0,1-.87-6.52,25.18,25.18,0,0,1,25-25.37,23.33,23.33,0,0,1,3.44.26,24.44,24.44,0,0,0-12.88-3.7,25.35,25.35,0,0,0-24.11,31.89c-3.29.12-5.88.15-9.2,2.75a30.2,30.2,0,0,0-10.17,14.68,23.52,23.52,0,0,0-.3,10.62c1,5.61,3.84,11.07,8.44,13.57-4.68,4.69-10,7.79-13.5,14-4.25,7.61-4.12,17-1.69,25.17a27.13,27.13,0,0,0,12.73,16.55,28.62,28.62,0,0,0,9.08,3.17A27.17,27.17,0,0,1,160.24,310.14Z" style="fill: #cc87c2"/>
          <polygon points="192.94 286.3 185.94 270.64 184.92 264.34 191.36 275.95 195.77 257.45 195.6 261.16 193.59 279.99 197.95 287.83 200.85 271.77 202.3 269.99 199.25 290.45 203.5 298.96 215.75 280.7 213.24 262.68 214.58 260.86 217.61 277.95 225.34 266.43 227.19 266.43 205.6 303.17 207.45 419.94 199.58 419.94 201.95 303.82 193.42 287.88 181.33 287.32 179.56 286.44 192.94 286.3" style="fill: #57103c"/>
          <path d="M1112.94,403.89a8.07,8.07,0,0,1-.5-2.7c0-4.8,4.5-9,11.26-11.39a4.72,4.72,0,0,1-.13-1c0-4.32,6-7.81,13.29-7.81,6.43,0,11.8,2.69,13,6.25H1151c6.44,0,11.65,3.14,11.65,7a5.5,5.5,0,0,1-2.39,4.23c4.59,2.51,7.56,6.07,7.56,10,0,5.08-8.62,9.47-8.62,9.47s-35,.6-36.55.6c-7.44,0-13.47-3.87-13.47-8.66C1109.17,407.55,1110.62,405.45,1112.94,403.89Z" style="fill: #e889c6"/>
          <path d="M1112,405.49a7.66,7.66,0,0,1-.39-2.42c0-4.28,3.62-8.05,9.07-10.15a4.58,4.58,0,0,1-.09-.9c0-3.85,4.79-7,10.7-7,5.18,0,9.5,2.4,10.49,5.58h.87c5.19,0,9.38,2.79,9.38,6.24a5,5,0,0,1-1.92,3.77c3.75,2.23,6.1,5.41,6.1,8.95,0,4.53-6.9,8.45-6.9,8.45s-28.2.55-29.45.55c-6,0-10.85-3.45-10.85-7.71A6.74,6.74,0,0,1,1112,405.49Z" style="fill: #a5509f"/>
          <polygon points="1131.15 410.69 1126.94 404.65 1127.72 403.01 1134.17 411.29 1135.92 405.08 1136.81 404.39 1134.95 412.3 1137.52 415.59 1144.91 408.53 1143.39 401.56 1144.21 400.86 1146.03 407.47 1150.69 403.01 1151.81 403.01 1138.78 417.21 1136.62 418.55 1132.08 412.03 1125.17 411.42 1125.17 410.69 1131.15 410.69" style="fill: #57103c"/>
          <path d="M594.92,402.91a7.86,7.86,0,0,1-.54-2.79c0-5,5-9.3,12.43-11.76a5.2,5.2,0,0,1-.14-1c0-4.46,6.58-8.05,14.68-8.05,7.11,0,13,2.77,14.39,6.46h1.15c7.1,0,12.86,3.23,12.86,7.24a5.56,5.56,0,0,1-2.63,4.36c5.14,2.59,8.36,6.27,8.36,10.35,0,5.26-9.53,9.78-9.53,9.78s-38.61.63-40.38.63c-8.22,0-14.88-4-14.88-8.94C590.75,406.69,592.35,404.52,594.92,402.91Z" style="fill: #d880b9"/>
          <path d="M593.92,404.55a7.43,7.43,0,0,1-.43-2.48c0-4.41,4-8.29,10-10.48a4.12,4.12,0,0,1-.1-.92c0-4,5.29-7.2,11.83-7.2,5.75,0,10.49,2.47,11.59,5.75h1c5.75,0,10.35,2.88,10.35,6.44a5.09,5.09,0,0,1-2.13,3.89c4.14,2.3,6.73,5.59,6.73,9.2,0,4.68-7.67,8.73-7.67,8.73s-31,.55-32.51.55c-6.63,0-12-3.57-12-8A6.9,6.9,0,0,1,593.92,404.55Z" style="fill: #995580"/>
          <path d="M636.62,402l-5.15,4.6-3.06-8.41H628l.53,2.29,1.68,7.2L622.08,415l-2.83-3.45,2-8.16-1,.71-1.94,6.46-3.11-3.38.47-10.34h-.37l-1.65,8.63-.7-.76-5.75-6.21-.25.22,3.33,5,4.6,6.25-8.87-.43a2.59,2.59,0,0,0,.15.61l9.74,1.15,3.33,5.33h4.08l5.31-5.42,14.55-4.06L641,407l-10.24,2.3,7.06-7.2h-1.23Z" style="fill: #57103c"/>
          <path d="M597.29,260.24a69.82,69.82,0,0,0-20.6-3c-22.49,0-41.28,10-46,23.31-9.54,5.57-15.55,13.68-15.55,22.71,0,16.81,20.8,30.43,46.45,30.43a67.8,67.8,0,0,0,17.24-2.19c-1.46-3.7-2.86-7.44-4.28-11.18C568.65,296.81,577.64,273.37,597.29,260.24Z" style="fill: #c660ac"/>
          <path d="M603.82,325.62c14.61,0,26.44-8.61,26.44-19.22,0-5.18-2.82-9.87-7.4-13.33a19.42,19.42,0,0,0,1-6c0-11.81-10.84-22-26.55-26.83-19.65,13.14-28.64,36.57-22.74,60.06,1.4,3.73,2.82,7.47,4.28,11.17a52.92,52.92,0,0,0,16-7A35.19,35.19,0,0,0,603.82,325.62Z" style="fill: #a5509f"/>
          <polygon points="581.69 311.98 585.81 304.35 594.19 298.1 591.68 298.69 585.7 302.92 591.18 292.9 589.36 293.08 581.17 304.96 577.74 291.15 576.01 289.63 579.63 307.2 574.6 314.51 560.09 298.83 563.08 283.35 561.48 281.79 557.89 296.46 548.74 286.56 546.55 286.56 572.12 318.11 569.92 418.41 579.23 418.41 576.37 321.07 580.41 314.5 589.89 309.47 594.74 312.98 595.83 312.73 591.23 308.83 598.84 304.69 598.84 303.64 581.69 311.98" style="fill: #57103c"/>
          <path d="M522.67,303.23c0-9,6-17.14,15.55-22.71,4.46-12.65,21.5-22.19,42.33-23.21-1.23-.06-2.47-.11-3.72-.11-22.49,0-41.29,10-46,23.31-9.54,5.57-15.55,13.68-15.55,22.71,0,16.81,20.79,30.43,46.44,30.43,1.15,0,2.3,0,3.45-.11C541.37,332.24,522.67,319.17,522.67,303.23Z" style="fill: #cc87c2"/>
          <rect x="-388.21" y="417.24" width="2034.45" height="24.88" style="fill: #2571af"/>
          <polygon points="1646.9 682.81 -388.01 682.81 -387.55 444.47 1646.9 444.47 1646.9 682.81" style="fill: #2aa0d3"/>
          <rect x="-388.28" y="437.66" width="2034.45" height="6.39" style="fill: #4093cc"/>
          <rect x="42.79" y="596.86" width="1211.64" height="27.32" style="fill: #99e5ff"/>
          <path d="M1177.89,515.46h-47.71a.83.83,0,0,1-.73-.93.84.84,0,0,1,.73-.74h47.71a.86.86,0,0,1,.74.94A.84.84,0,0,1,1177.89,515.46Zm-95.42,0h-47.71a.83.83,0,0,1-.73-.93.84.84,0,0,1,.73-.74h47.71a.84.84,0,0,1,.74.93.83.83,0,0,1-.73.74Zm-95.42,0H939.41a.84.84,0,0,1,0-1.67h47.71a.85.85,0,0,1,.71,1,.84.84,0,0,1-.77.71Zm-95.42,0H844a.84.84,0,0,1,0-1.67H891.7a.84.84,0,0,1,.71,1,.83.83,0,0,1-.76.72Zm-95.42,0H748.56a.84.84,0,0,1,0-1.67h47.72a.84.84,0,0,1,.71,1,.82.82,0,0,1-.75.72Zm-95.43,0H653.14a.83.83,0,0,1-.73-.93.84.84,0,0,1,.73-.74h47.71a.86.86,0,0,1,.73,1,.84.84,0,0,1-.75.72Zm-95.42,0H557.72a.83.83,0,0,1-.73-.93.84.84,0,0,1,.73-.74h47.71a.84.84,0,0,1,.73.94.83.83,0,0,1-.74.73Zm-95.42,0H462.3a.84.84,0,0,1,0-1.67H510a.86.86,0,0,1,.74.94.84.84,0,0,1-.74.73Zm-95.42,0H366.88a.84.84,0,0,1,0-1.67h47.71a.85.85,0,0,1,.74.93.83.83,0,0,1-.73.74Zm-95.42,0H271.46a.84.84,0,0,1,0-1.67h47.71a.85.85,0,0,1,.75.93.84.84,0,0,1-.73.74Zm-95.42,0H176a.83.83,0,0,1-.73-.93.84.84,0,0,1,.73-.74h47.71a.85.85,0,0,1,.76.92.83.83,0,0,1-.72.75Z" style="fill: #99e5ff"/>
          <path d="M1249.3,515.46h-23.71a.83.83,0,0,1-.73-.93.84.84,0,0,1,.73-.74h23.71a.84.84,0,0,1,.73.94A.82.82,0,0,1,1249.3,515.46Z" style="fill: #99e5ff"/>
          <polygon points="198.58 459.51 94.78 459.51 104.55 445.53 208.36 445.53 198.58 459.51" style="fill: #99e5ff"/>
          <polygon points="180.54 485.32 76.73 485.32 86.51 471.34 190.31 471.34 180.54 485.32" style="fill: #99e5ff"/>
          <polygon points="162.5 511.13 58.69 511.13 68.46 497.15 172.27 497.15 162.5 511.13" style="fill: #99e5ff"/>
          <polygon points="144.45 536.94 40.65 536.94 50.42 522.96 154.24 522.96 144.45 536.94" style="fill: #99e5ff"/>
          <polygon points="126.41 562.75 22.6 562.75 32.37 548.77 136.19 548.77 126.41 562.75" style="fill: #99e5ff"/>
          <polygon points="108.38 588.56 4.56 588.56 14.33 574.58 118.15 574.58 108.38 588.56" style="fill: #99e5ff"/>
          <rect x="40.65" y="447.15" width="1213.35" height="1.92" style="fill: #99e5ff"/>
          <rect x="48.86" y="584.13" width="1213.35" height="1.92" style="fill: #99e5ff"/>
          <path d="M1113.8,469.43c5,.07,8.84-1.47,10.35-4.1l.18-.33,5.09,1.68-13.61,7.73a.41.41,0,0,0-.2.55s0,0,0,.06h0l.09.12.08.1v.09a.47.47,0,0,0,.06.15l2,3.72h-.58c-7.65.47-11.29,4.85-8.46,10.19,3.06,5.75,12.58,10.53,21.22,10.64s13.2-4.47,10.14-10.23a14.72,14.72,0,0,0-3.71-4.34l-.46-.31,3.63-1.78,6,2,.28.06.53.11,1.62,3a1.83,1.83,0,0,0,1.51.76c.62,0,.94-.32.72-.72l-4.15-7.83a1.86,1.86,0,0,0-1.51-.76c-.62,0-.94.32-.72.73l1.69,3.17L1118.81,475l13.19-7.48,6.38,2.11a1.15,1.15,0,0,0,1.37-.21l2.3-4.78a1,1,0,0,0-.85-1,2,2,0,0,0-.9-.12.64.64,0,0,0-.54.31l-2,4.21-13-4.29v-.37a6.9,6.9,0,0,0-.9-4.19c-3.05-5.74-12.57-10.53-21.22-10.64s-13.2,4.47-10.14,10.23S1105.15,469.31,1113.8,469.43Zm4.87,11.28,4.75,8.93a1.85,1.85,0,0,0,2,.66l9.1-4.43.55.47a12.28,12.28,0,0,1,2.89,3.45c2.62,4.93-1.28,8.88-8.69,8.77s-15.58-4.19-18.2-9.13c-2.3-4.43.6-8.18,6.9-8.71Zm2.24,0,.8.08a26,26,0,0,1,10.35,3.37l.7.4-7.77,3.77Zm-2.3-4.39,18.45,6.15-2.81,1.35-.55-.28a30.48,30.48,0,0,0-13-4.23h-.62ZM1113,468c-7.42-.1-15.58-4.2-18.2-9.13s1.27-8.88,8.69-8.77,15.58,4.19,18.2,9.12a6.1,6.1,0,0,1,.79,3.34V463l-14-4.6a1.76,1.76,0,0,0-.88-.08.58.58,0,0,0-.5.33,1.16,1.16,0,0,0,.94,1l14,4.6-.26.4C1120.35,466.8,1117.16,468,1113,468Z" style="fill: #99e5ff"/>
          <path d="M1168.47,539.59c-2.48-6.1-11.86-11-20.92-10.85s-14.4,5.19-11.93,11.29a12.69,12.69,0,0,0,3.2,4.44l.41.38-9.52,4.6-6.36-4.53a2,2,0,0,0-.88-.33,1.41,1.41,0,0,0-.83.13c-.42.24-.37.75.13,1.15l7.19,5.07a1.82,1.82,0,0,0,1.66.22l4.68-2.23,21.41,7.93-19.55,9.46-1.37-3.37a1.65,1.65,0,0,0-1.48-.77c-.64,0-1,.37-.85.81l3.37,8.3a1.64,1.64,0,0,0,1.48.77c.64,0,1-.37.85-.8l-1.3-3.22.46-.11.22-.07,4.38-2.12,5.61,1.87-.1.39a7.07,7.07,0,0,0,.38,4.6c2.47,6.1,11.85,11,20.91,10.85s14.41-5.18,11.93-11.29c-2.3-5.65-10.49-10.34-19.09-10.8h-.65l-1.59-4a1.4,1.4,0,0,0-.1-.16l-.07-.09v-.09a.33.33,0,0,0,0-.14h0a1.28,1.28,0,0,0-.78-.64l-22.11-8.19,3.68-1.91.51.34a27.8,27.8,0,0,0,15.07,4.34C1165.58,550.79,1170.94,545.7,1168.47,539.59Zm-5.08,23.32c7.17.56,14,4.53,15.93,9.2,2.13,5.23-2.47,9.57-10.23,9.68s-15.81-4.07-17.94-9.32a6.23,6.23,0,0,1-.39-3.69l.11-.5,14,4.69a1.74,1.74,0,0,0,1.15,0,.53.53,0,0,0,.33-.66l0,0-3.84-9.47Zm.11,8.05-12-4,.33-.43c1.5-1.92,4.2-3.18,7.6-3.58l.77-.08Zm-3.92-9.66H1159c-4.32.39-7.81,2-9.55,4.48l-.24.35-4.33-1.44,13.47-6.52Zm-16.26-15.5-.66-.42,10.24-4.94c.45-.21.45-.72,0-1.08a1.81,1.81,0,0,0-.86-.35,1.45,1.45,0,0,0-.85.09l-10.26,4.9-.5-.5A10.5,10.5,0,0,1,1138,540c-2.13-5.23,2.47-9.58,10.23-9.68s15.81,4.07,17.93,9.31-2.47,9.58-10.23,9.68A23.58,23.58,0,0,1,1143.32,545.8Z" style="fill: #99e5ff"/>
          <ellipse cx="888.7" cy="425.63" rx="19.13" ry="2.87" style="fill: #316293"/>
          <path d="M897.35,418.05v2.7l3.29,1.84a12.26,12.26,0,0,1,1.47.4.71.71,0,0,1,.61.48.85.85,0,0,1-.53.41,8.37,8.37,0,0,1-1.72.45l-2.94-.35H897a2.43,2.43,0,0,1-1.48-.17,1.83,1.83,0,0,1-.25-1.07,11.07,11.07,0,0,1,.06-1.15l-.08-3.37Z" style="fill: #f9b498"/>
          <path d="M894.46,424l.17-.09.34-2.3a.59.59,0,0,1,.43.08.64.64,0,0,1,.4.62l.15.14a1.24,1.24,0,0,0,1.24.2,1,1,0,0,0,.83-.6l-.14-.22a.71.71,0,0,1,0-.57,1.19,1.19,0,0,1,.4-.79l.56.57a.5.5,0,0,1,.23.09c0,.06,2.3,1.32,2.4,1.39a3.5,3.5,0,0,0,.71.17,9,9,0,0,1,1.46.21,1.06,1.06,0,0,1,.76.82l.07.12a5,5,0,0,1,.06.95,1.83,1.83,0,0,1-1.15.62c-.32.11-3.84.2-3.84.18a29.43,29.43,0,0,1-3.72,0,2.62,2.62,0,0,1-1.26-.26V424Z" style="fill: #fff"/>
          <ellipse cx="900.78" cy="422.88" rx="0.29" ry="0.26" transform="translate(-93.28 468.4) rotate(-27.77)" style="fill: #dd78d3"/>
          <ellipse cx="899.95" cy="422.56" rx="0.29" ry="0.26" transform="translate(-93.2 468.67) rotate(-27.81)" style="fill: #dd78d3"/>
          <ellipse cx="899.11" cy="422.12" rx="0.29" ry="0.26" transform="translate(-93.11 467.71) rotate(-27.78)" style="fill: #dd78d3"/>
          <path d="M901.21,422.18l-.32.69a.16.16,0,0,1-.06.08.17.17,0,0,1-.14,0,.15.15,0,0,1-.09-.19v0l.31-.69a.15.15,0,0,1,.2-.08.15.15,0,0,1,.09.19Z" style="fill: #dde9f2"/>
          <path d="M900.39,421.85l-.31.68a.16.16,0,0,1-.07.09.17.17,0,0,1-.21,0,.15.15,0,0,1,0-.17l.31-.69a.17.17,0,0,1,.21-.08.16.16,0,0,1,.08.2Z" style="fill: #dde9f2"/>
          <path d="M899.55,421.45l-.31.69a.11.11,0,0,1-.07.08.15.15,0,0,1-.21,0,.13.13,0,0,1,0-.16l.31-.69a.17.17,0,0,1,.21-.08.14.14,0,0,1,.08.19Z" style="fill: #dde9f2"/>
          <path d="M900.2,424.41c3.21,0,4.13-.64,4.17-.67l-.12-.23h0s-.92.62-4,.62a39,39,0,0,1-5.18-.19,1.49,1.49,0,0,1-.4-.15.37.37,0,0,0-.17.16,1,1,0,0,0,.4.18A30.57,30.57,0,0,0,900.2,424.41Z" style="fill: #dd78d3"/>
          <path d="M891.27,361.1s1.28,17.47,2,30.57,1.6,26.77,1.6,26.77H898s1.15-9.82,1.52-12.14a168.31,168.31,0,0,0,1.76-17.45c.82-11.61,1.45-29.21,1.45-29.21l-5.37,1.15Z" style="fill: #173756"/>
          <polygon points="898.28 417.93 898.28 419.06 894.8 419.06 894.75 418.07 898.28 417.93" style="fill: url(#Degradado_sin_nombre_21)"/>
          <path d="M891.77,319.24a9,9,0,0,1-1.85-3.65,6.27,6.27,0,0,1,0-3.54,4.05,4.05,0,0,1,.66-.88c.32-.51,0-1.15.32-1.74a4,4,0,0,1,.94-1,7.52,7.52,0,0,1,3.32-1.32c.73-.21,3,0,2.18-1.42a3.86,3.86,0,0,1,1.93.28,4.41,4.41,0,0,1,2.22,2.3,2.56,2.56,0,0,1,.11,2.08,3,3,0,0,1-.61.81.79.79,0,0,0-.33.87,15.88,15.88,0,0,1-.14,3,6.93,6.93,0,0,1-1.23,2.62A4,4,0,0,1,898,319a10.64,10.64,0,0,1-1.39.7c-1.15.47-2.88,1.15-4,.33A4.38,4.38,0,0,1,891.77,319.24Z" style="fill: #ff9b64"/>
          <path d="M902.26,334.65l1.45,8.16a39.51,39.51,0,0,0,4.21-6.14,1,1,0,0,1-.08-.22,3.12,3.12,0,0,1-.12-1.71,3.72,3.72,0,0,1,1.22-1.42,3.08,3.08,0,0,1,.75-.69c.16,0,.56.08.25.66s-1.15.95-1.15,1.26.31.45,1.1.12a6.36,6.36,0,0,0,1.94-1.3c.4-.45.76-1.15,1-.93s0,.65-.15.92a1.61,1.61,0,0,1-.35.43s.24-.16.33.16a.6.6,0,0,1-.34.66.38.38,0,0,1,.31.34.46.46,0,0,0-.27.58.52.52,0,0,0,.12.17,1.18,1.18,0,0,1-.61.67,13.86,13.86,0,0,1-2.37,1h-.07c-.77,1.29-4.12,12.27-7.14,12.21-1.54,0-5.75-14.24-5.75-14.24Z" style="fill: #f9b498"/>
          <path d="M897.65,361.27c-4.47,25.58-4.41,25.65-7.11,34-1.88,5.75-10.42,21.48-10.42,21.48l-3.39-1.23s4.48-16.23,5.9-21.68a83.69,83.69,0,0,0,2.92-22.7,20.45,20.45,0,0,1-1.51-4.84,15.66,15.66,0,0,1,0-5l6.61.5Z" style="fill: #173756"/>
          <path d="M879.74,416.91l-.69,2.51,2.11,3.15a11.15,11.15,0,0,1,1.14,1,.75.75,0,0,1,.34.71.85.85,0,0,1-.66.12,8.5,8.5,0,0,1-1.73-.39l-2.48-1.65-.49-.2a2.56,2.56,0,0,1-1.25-.84,1.8,1.8,0,0,1,.26-1.06,5.81,5.81,0,0,1,.4-.74l1-3.21Z" style="fill: #f9b498"/>
          <path d="M875.1,422h.18l1.15-2a.58.58,0,0,1,.37.24.66.66,0,0,1,.15.72l.08.19a1.25,1.25,0,0,0,1.08.64,1,1,0,0,0,1-.31v-.25a.7.7,0,0,1,.17-.57,1.11,1.11,0,0,1,.65-.57l.31.73a.39.39,0,0,1,.18.18c0,.07,1.65,2.09,1.73,2.19a5,5,0,0,0,.6.43,8.47,8.47,0,0,1,1.28.73,1.15,1.15,0,0,1,.42,1.05v.06a5.45,5.45,0,0,1-.29.89,1.71,1.71,0,0,1-1.31.14,37.63,37.63,0,0,1-3.63-1.26c-1.49-.52-3-1.15-3.45-1.34a2.46,2.46,0,0,1-1.08-.71Z" style="fill: #fff"/>
          <circle cx="881.39" cy="423.31" r="0.28" style="fill: #dd78d3"/>
          <circle cx="880.75" cy="422.65" r="0.28" style="fill: #dd78d3"/>
          <circle cx="874.95" cy="421.87" r="0.27" style="fill: #dd78d3"/>
          <path d="M882,422.85l-.54.52a.16.16,0,0,1-.22.07.15.15,0,0,1-.06-.22.09.09,0,0,1,.06-.06l.54-.53a.16.16,0,0,1,.22-.07.15.15,0,0,1,.06.22A.13.13,0,0,1,882,422.85Z" style="fill: #dde9f2"/>
          <path d="M881.38,422.22l-.54.53h-.09a.16.16,0,0,1-.12-.26l.54-.53a.14.14,0,0,1,.21,0,.15.15,0,0,1,0,.22Z" style="fill: #dde9f2"/>
          <path d="M880.78,421.55l-.54.53a.18.18,0,0,1-.22.06.16.16,0,0,1-.07-.22.13.13,0,0,1,.07-.06l.54-.53a.16.16,0,0,1,.22-.07.17.17,0,0,1,.06.22Z" style="fill: #dde9f2"/>
          <path d="M880.28,424.54c3,1.15,4.07.94,4.12.93v-.26h0s-1.08.25-4-.93a41.73,41.73,0,0,1-4.74-2.11,1.42,1.42,0,0,1-.31-.29.32.32,0,0,0-.21.08,1,1,0,0,0,.29.32A31.58,31.58,0,0,0,880.28,424.54Z" style="fill: #dd78d3"/>
          <polygon points="880.18 416.48 879.88 417.55 876.43 416.33 876.6 415.11 880.18 416.48" style="fill: url(#Degradado_sin_nombre_21-2)"/>
          <path d="M881.61,335.46A10.62,10.62,0,0,1,892,325.39c5.87,0,10.53,4.44,10.53,9.3,0,.77,1.52,24.94,1.52,26.21,0,2.82-4.39,4.6-11.32,4.6s-10.1-.54-10.1-3.36C882.63,361,881.61,337,881.61,335.46Z" style="fill: url(#Degradado_sin_nombre_21-3)"/>
          <path d="M884.11,329a10.34,10.34,0,0,1,7.76-3.62H892a10.92,10.92,0,0,0-7.23,7.1c-.42,1.37-1.15,3.18,0,4.31a3,3,0,0,0,.83.58l3.3-.32.14-.53s.24-2.16.23-2.67c.16.47.58,2.3.58,2.3a2.71,2.71,0,0,0,.12.55,2.63,2.63,0,0,0,.4-.53,16.6,16.6,0,0,1-.43,6.2c-.81,2.53-1.62,4.82-2.18,7.26a31.06,31.06,0,0,0-.58,3.2,17.35,17.35,0,0,0,1,8.41c1.46,3.58,3.83,3.85,7.31,3.85a22.33,22.33,0,0,0,3-.13,29.38,29.38,0,0,1-5.84.53c-6.9,0-10.1-.54-10.1-3.36,0-1.15-1-25.17-1-26.66A10,10,0,0,1,884.11,329Z" style="fill: url(#Degradado_sin_nombre_22)"/>
          <path d="M891.34,326.07,892,317l4.06,4.69s-.29,4.37-.36,4.94a2.26,2.26,0,0,1,0,1.54,1.28,1.28,0,0,1-1.24.8,3.52,3.52,0,0,1-1.8-.63,2.65,2.65,0,0,1-1.37-2A.67.67,0,0,1,891.34,326.07Z" style="fill: #f9b498"/>
          <path d="M892.43,313.82c.37.31.3.45.3.45,1-2.3,2.85-3.75,4.6-3.38a3.56,3.56,0,0,1,2.63,1.74c.7,1.3.53,3.14.12,5.18a14.17,14.17,0,0,1-1.81,4.12c-.64,1.15-1,1.64-2.16,1.4A4.41,4.41,0,0,1,894,322a6.9,6.9,0,0,1-1.93-5h0a1.24,1.24,0,0,1-.54-.29,1.46,1.46,0,0,1-.37-1.33,3.47,3.47,0,0,1,.38-1.45.62.62,0,0,1,.87-.16Z" style="fill: #f9bfa2"/>
          <path d="M895.72,326.32l.23.29a2.13,2.13,0,0,1-.6,2.3,2.26,2.26,0,0,1-2.3,0,3.23,3.23,0,0,1-1-.72,2.43,2.43,0,0,1-.85-1.88l.11-.92a3.16,3.16,0,0,0,.38,1.73c.47.72,1.69,1.88,2.8,1.67a1.34,1.34,0,0,0,1.05-.92A3,3,0,0,0,895.72,326.32Z" style="fill: #d3e6ea"/>
          <path d="M889.28,337.68s.73,2.09,1.7,4.37c1.15,2.69,2.71,5.64,3.88,5.75.8,0,5.43-4.18,5.43-4.18,2-2,3.86-4.11,4.93-5.3a.85.85,0,0,1-.09-.22,2.93,2.93,0,0,1-.12-1.71,3.7,3.7,0,0,1,1.25-1.41,3.15,3.15,0,0,1,.77-.69c.18,0,.59.08.26.65s-1.15,1-1.22,1.27.32.45,1.15.11a6.27,6.27,0,0,0,2-1.3c.41-.45.78-1.15,1.06-.93s0,.66-.15.91a2,2,0,0,1-.37.44.21.21,0,0,1,.3.05.15.15,0,0,1,0,.11.6.6,0,0,1-.35.65.39.39,0,0,1,.31.35.42.42,0,0,1-.3.41.43.43,0,0,1,.15.34,1.18,1.18,0,0,1-.62.66,15.47,15.47,0,0,1-2.44,1.05h-.07c-.79,1.29-7.17,11.29-9,13.12a8.29,8.29,0,0,1-3,2.12,3.52,3.52,0,0,1-3.06-.91c-4.26-3.2-9-15.09-9-15.09Z" style="fill: #f9bfa2"/>
          <ellipse cx="955.54" cy="426.05" rx="15.32" ry="2.4" style="fill: #316293"/>
          <path d="M941.65,377.19s.41,14.14.41,17.6c0,1.35,1.73,16.92,2.05,19.87.22,2.07.28,2.55.28,2.55l.39,4.08-2.65,1.56a9,9,0,0,0-1.35.37.7.7,0,0,0-.57.45.83.83,0,0,0,.49.41,7.61,7.61,0,0,0,1.57.44l2.69-.31h.48a2.14,2.14,0,0,0,1.37-.16,1.8,1.8,0,0,0,.22-1,11,11,0,0,0,0-1.15s.56-7.48.7-9.64c.31-4.78.58-12.85.52-15.84,0-3.2,2.67-18.92,2.67-18.92Z" style="fill: #f9b498"/>
          <path d="M949,377.19s.11,13.34.68,15.91a83,83,0,0,0,5.66,15.13c.59,1.15,2,3.92,3.23,6.61l1.07,2.3,1.67,3.73-2,2.3a9.16,9.16,0,0,0-1.15.81.7.7,0,0,0-.39.62.76.76,0,0,0,.57.22,7.5,7.5,0,0,0,1.64-.1l2.44-1.15.48-.1a2.28,2.28,0,0,0,1.24-.61,1.91,1.91,0,0,0-.12-1.06,10.62,10.62,0,0,0-.4-1.07s-1.85-9.29-2.4-11.38c-1.22-4.6-2.92-7.62-5.19-16.1-.35-1.32.58-15.18.58-15.18Z" style="fill: #f9bfa2"/>
          <path d="M947.72,424.33a.94.94,0,0,1-.36.18,26.65,26.65,0,0,1-4.89.36c-2.79.07-3.69-.46-3.81-.54h0a7.06,7.06,0,0,0,0,.92,1.61,1.61,0,0,0,1.09.57,31.14,31.14,0,0,0,3.52.09h3.45a2.3,2.3,0,0,0,1.15-.28Z" style="fill: #e8eaea"/>
          <path d="M938.76,424.17s.86.58,3.71.51a32.58,32.58,0,0,0,4.73-.31.83.83,0,0,0,.36-.16l-.37-2.18a.49.49,0,0,0-.39.09.65.65,0,0,0-.36.61l-.12.14a1.15,1.15,0,0,1-1.15.22,1,1,0,0,1-.74-.61l.13-.22a.68.68,0,0,0,0-.56,1.14,1.14,0,0,0-.38-.75l-.5.56a.4.4,0,0,0-.2.09c0,.06-2.06,1.35-2.17,1.42a3.69,3.69,0,0,1-.65.18,7.41,7.41,0,0,0-1.33.24,1,1,0,0,0-.65.68Z" style="fill: #173756"/>
          <path d="M965.05,422.5a1,1,0,0,1-.28.3,27.51,27.51,0,0,1-4.51,2c-2.61,1-3.63.82-3.77.78h0a5.69,5.69,0,0,0,.27.89,1.57,1.57,0,0,0,1.2.17,26,26,0,0,0,3.35-1.15c1.36-.46,2.76-1,3.2-1.15a2.19,2.19,0,0,0,1-.66Z" style="fill: #e8eaea"/>
          <path d="M956.53,425.36s1,.27,3.65-.77a33.23,33.23,0,0,0,4.37-1.91,1.06,1.06,0,0,0,.29-.27l-1-1.92a.49.49,0,0,0-.34.22.65.65,0,0,0-.14.69l-.08.17a1.16,1.16,0,0,1-1,.59.93.93,0,0,1-.88-.34v-.24a.7.7,0,0,0-.15-.54,1.08,1.08,0,0,0-.6-.57l-.29.7a.37.37,0,0,0-.17.16c0,.07-1.52,2-1.6,2.07a4.21,4.21,0,0,1-.55.39,7.4,7.4,0,0,0-1.15.68,1,1,0,0,0-.39.86Z" style="fill: #173756"/>
          <path d="M942.13,423.5a.23.23,0,0,1-.32.12h0a.28.28,0,0,1-.13-.36.24.24,0,0,1,.32-.12h0A.28.28,0,0,1,942.13,423.5Z" style="fill: #fff"/>
          <path d="M942.86,423.18a.24.24,0,0,1-.32.12h0a.26.26,0,0,1-.12-.35.23.23,0,0,1,.32-.12h0A.28.28,0,0,1,942.86,423.18Z" style="fill: #fff"/>
          <path d="M943.64,422.76a.25.25,0,0,1-.32.13h0a.28.28,0,0,1-.13-.36.25.25,0,0,1,.32-.12h0A.27.27,0,0,1,943.64,422.76Z" style="fill: #fff"/>
          <path d="M941.49,422.76l.3.67a.12.12,0,0,0,.07.07.13.13,0,0,0,.12,0,.15.15,0,0,0,.07-.21l-.3-.66a.14.14,0,0,0-.18-.08h0a.15.15,0,0,0-.08.2Z" style="fill: #f95873"/>
          <path d="M942.24,422.42l.3.67a.13.13,0,0,0,.06.07.15.15,0,0,0,.13,0,.14.14,0,0,0,.07-.2h0l-.3-.67a.14.14,0,0,0-.18-.07h0A.15.15,0,0,0,942.24,422.42Z" style="fill: #f95873"/>
          <path d="M943,422l.29.67a.13.13,0,0,0,.07.06.11.11,0,0,0,.13,0,.14.14,0,0,0,.07-.19h0l-.3-.67a.15.15,0,0,0-.18-.08h0a.16.16,0,0,0-.07.2Z" style="fill: #f95873"/>
          <path d="M942.47,424.91c-2.94.09-3.8-.52-3.83-.55l.09-.23h0s.85.59,3.7.52a34.1,34.1,0,0,0,4.74-.31.86.86,0,0,0,.35-.16.35.35,0,0,1,.17.15,1,1,0,0,1-.36.18A25.58,25.58,0,0,1,942.47,424.91Z" style="fill: #f95873"/>
          <path d="M959.49,423.59a.23.23,0,0,1-.26.22h0a.26.26,0,0,1-.23-.3.24.24,0,0,1,.25-.22h0A.27.27,0,0,1,959.49,423.59Z" style="fill: #fff"/>
          <path d="M960.1,423a.26.26,0,0,1-.28.22h0a.29.29,0,0,1-.23-.3.23.23,0,0,1,.26-.22h0A.26.26,0,0,1,960.1,423Z" style="fill: #fff"/>
          <path d="M960.68,422.37a.25.25,0,0,1-.26.23h0a.28.28,0,0,1-.23-.3.24.24,0,0,1,.26-.22h0A.27.27,0,0,1,960.68,422.37Z" style="fill: #fff"/>
          <path d="M958.65,423.11l.5.53h.08a.11.11,0,0,0,.11,0,.16.16,0,0,0,0-.22l-.49-.53a.14.14,0,0,0-.2,0h0A.17.17,0,0,0,958.65,423.11Z" style="fill: #f95873"/>
          <path d="M959.25,422.53l.5.53h.08a.11.11,0,0,0,.11,0,.14.14,0,0,0,0-.21l-.49-.53a.14.14,0,0,0-.2,0v0A.15.15,0,0,0,959.25,422.53Z" style="fill: #f95873"/>
          <path d="M959.84,421.9l.49.53h.08a.13.13,0,0,0,.12,0,.18.18,0,0,0,0-.22l-.5-.53a.14.14,0,0,0-.19,0h0A.16.16,0,0,0,959.84,421.9Z" style="fill: #f95873"/>
          <path d="M960.26,424.81c-2.74,1.07-3.74.79-3.78.78v-.25h0s1,.26,3.66-.77a33.82,33.82,0,0,0,4.37-1.91.9.9,0,0,0,.28-.27.32.32,0,0,1,.21.08.86.86,0,0,1-.28.29A26.07,26.07,0,0,1,960.26,424.81Z" style="fill: #f95873"/>
          <path d="M944,339.05s-1,2-1.89,4c-1,2.4-2.77,5.35-3.8,5.41-.72,0-4.94-4.53-4.94-4.53-1.73-1.86-3.36-3.71-4.3-4.79a.64.64,0,0,0,.08-.19,2.67,2.67,0,0,0,.12-1.53,3.38,3.38,0,0,0-1.15-1.28,2.87,2.87,0,0,0-.68-.62c-.15,0-.52.07-.23.58s1,.86,1.07,1.15-.29.4-1,.09a5.65,5.65,0,0,1-1.75-1.15c-.36-.4-.67-1-.93-.84s0,.59.13.82a2,2,0,0,0,.32.39.18.18,0,0,0-.27,0,.36.36,0,0,0,0,.09.55.55,0,0,0,.31.59.33.33,0,0,0-.27.31.41.41,0,0,1,.23.52.31.31,0,0,1-.1.15,1.1,1.1,0,0,0,.56.6,12.69,12.69,0,0,0,2.13.95h.07c.69,1.15,6.25,10.15,7.88,11.81a7.43,7.43,0,0,0,2.64,1.93,3.07,3.07,0,0,0,2.7-.78C944.7,350,948,340.85,948,340.85Z" style="fill: #f9b498"/>
          <path d="M965.06,340.82a21.79,21.79,0,0,1-3-4.6c-.43-1.15.57-2.3.51-3.62a6,6,0,0,0-2.35-4.45c-1.49-1.34-3.34-2.45-4.53-4.2-.35-.5.14-1.23.1-1.87a7.71,7.71,0,0,0-8-7.44h-.24c-4.09.18-6.8,3.37-6.61,8.05.15,3.65,3.72,5,5.12,7.77.41.83-.33,1.85-.29,2.84.09,2.3,2,3.76,2.62,5.66a4.14,4.14,0,0,1,.19.79c.23,2-.65,6.18-.55,8.32a7.5,7.5,0,0,0,1.54,4.6c4.74,3.77,10.34,2,13.5-1.86A9.91,9.91,0,0,0,965.06,340.82Z" style="fill: #721c53"/>
          <path d="M956.6,389.4l.2-15.51a18.48,18.48,0,0,0,1.15-6.24,28.73,28.73,0,0,0-1-5.61,43.73,43.73,0,0,0-1.58-4.86l-12.56-3-.52,8.05-.3,4.65c-.46,5.14-.33,7.29-.49,11.25,0,.93-.07,1.82-.1,2.7,2.3.6,4.6,2.5,6.9,4.36C951.07,387.41,953.79,389.51,956.6,389.4Z" style="fill: #173756"/>
          <path d="M960,354.73V340.81a8.45,8.45,0,0,0-8.15-8.55,9.36,9.36,0,0,0-9.77,8.75,64.72,64.72,0,0,0-.54,10.22c.09,1.45-.31,3,0,3.64a1.83,1.83,0,0,0,1.56,1.26c2.72,0,6.06.62,9.67.94C956.65,357.42,960,357.41,960,354.73Z" style="fill: #e56187"/>
          <path d="M960,340.64a9.59,9.59,0,0,0-1.29.2v.08l-2.41.67c-.94.24-2.49,1.15-2.89-.06-.17-.51-.11-1.36-.93-1.32a8.65,8.65,0,0,0,1.08,3.94c-.44-.45-1-.06-.48.41.67.65,1.48.8,1.76,1.69s.69,1.57.91,2.4a8.51,8.51,0,0,1-.44,5.54c-.64,1.46-2.3,2.3-4.32,2.73l1.69.18c3.94.34,7.29.33,7.29-2.3V340.87A.52.52,0,0,0,960,340.64Z" style="fill: #ce5980"/>
          <path d="M952.05,332.71l-.71-7.14-2.85,3.34s-.57,3.78-.52,4.31c-.07.22-.39.76-.64,1.31a6.94,6.94,0,0,0-.62,1.7c0,.59-.06,1.29.53,1.29a6.23,6.23,0,0,0,2.3-1.69c.66-.81,2.45-3.08,2.45-3.08h0Z" style="fill: #f9b498"/>
          <path d="M951,321.56h-.15c-.92-2.18-2.61-3.54-4.24-3.22a3.32,3.32,0,0,0-2.45,1.61c-.65,1.22-.52,3-.15,4.88a13.72,13.72,0,0,0,1.65,3.88c.58,1.07.92,1.55,2,1.33a4,4,0,0,0,2-1.21,6.57,6.57,0,0,0,1.81-4.72h0a1,1,0,0,0,.51-.27,1.39,1.39,0,0,0,.35-1.26,1.63,1.63,0,0,0-.46-1A.9.9,0,0,0,951,321.56Z" style="fill: #f9bfa2"/>
          <path d="M960.62,347.3a32.72,32.72,0,0,0-1.25-5.63l-5.22,1.65a24.25,24.25,0,0,1,1,3,47,47,0,0,1,1.65,6.16,75.29,75.29,0,0,1,1,10.48c0,3.58-.26,7.81-.4,9.91l-.19.08a2.76,2.76,0,0,0-1.15,1,3.71,3.71,0,0,0-.14,1.78,3.22,3.22,0,0,0,0,1c.07.15.43.36.59-.24s-.09-1.4,0-1.67.5-.07.79.7a6.48,6.48,0,0,1,.42,2.22c0,.58-.22,1.25.06,1.33s.45-.4.51-.7h0a1,1,0,0,0,.17.9c.29,0,.38-.46.42-.94a.73.73,0,0,0,.2.66,1.25,1.25,0,0,0,.35-1.21c0,.17.09.28.19.26.5-.09.11-2.16.11-2.16a15.21,15.21,0,0,0-.88-2.36v-.06a93.6,93.6,0,0,0,2.5-17.31A66.87,66.87,0,0,0,960.62,347.3Z" style="fill: #f9bfa2"/>
          <path d="M959.88,341.29l-6,1.79-.45-2.58a.22.22,0,0,0-.25-.19h0a.21.21,0,0,0-.17.25l.29,1.73-.35-.48a.2.2,0,0,0-.29,0h0a.23.23,0,0,0,0,.31l.9,1.15.27.44,6.27-1.84Z" style="fill: #ce5980"/>
          <path d="M657,421.78c11.7,0,21.17,1.43,21.17,3.2,0,.53-.87,1-2.4,1.49,1.27,0,2.57-.08,3.91-.08,10.35,0,18.68,1.51,18.68,3.38s-8.38,3.38-18.72,3.38-18.69-1.52-18.69-3.38c0-.65,1-1.23,2.7-1.75-2.1.1-4.35.16-6.7.16-11.7,0-21.17-1.44-21.17-3.21S645.24,421.78,657,421.78Z" style="fill: #316293"/>
          <path d="M645.1,417.43v2.71L641.52,422a12.9,12.9,0,0,0-1.6.4.75.75,0,0,0-.65.47.89.89,0,0,0,.56.42,12,12,0,0,0,1.86.45l3.18-.35h.56a3,3,0,0,0,1.61-.18,1.73,1.73,0,0,0,.25-1.08,8.77,8.77,0,0,0-.07-1.15l.09-3.45Z" style="fill: #f9b498"/>
          <path d="M648.25,423.37l-.19-.09-.37-2.3a.68.68,0,0,0-.46.08.64.64,0,0,0-.43.62l-.16.14a1.43,1.43,0,0,1-1.35.2,1,1,0,0,1-.84-.66l.15-.22a.6.6,0,0,0,.06-.58,1.14,1.14,0,0,0-.43-.78l-.59.57a.58.58,0,0,0-.26.09c0,.06-2.47,1.34-2.6,1.41a6.6,6.6,0,0,1-.77.17,11.82,11.82,0,0,0-1.57.2,1.18,1.18,0,0,0-.83.82l-.07.13a6,6,0,0,0-.07.95s0,.22,1.27.62c.34.12,4.14.21,4.14.19a34,34,0,0,0,4,0,2.87,2.87,0,0,0,1.35-.27v-1.33Z" style="fill: #fff"/>
          <path d="M641.65,422.34a.31.31,0,0,1-.41.11.27.27,0,0,1-.14-.36h0a.3.3,0,0,1,.4-.12.27.27,0,0,1,.14.36Z" style="fill: #dd78d3"/>
          <path d="M642.58,422a.29.29,0,0,1-.4.11.27.27,0,0,1-.15-.36v0a.29.29,0,0,1,.4-.11.28.28,0,0,1,.15.36Z" style="fill: #dd78d3"/>
          <path d="M643.49,421.6a.3.3,0,0,1-.41.12.27.27,0,0,1-.14-.36v0a.3.3,0,0,1,.4-.12.28.28,0,0,1,.14.37Z" style="fill: #dd78d3"/>
          <path d="M641,421.56l.33.7a.2.2,0,0,0,.08.08.19.19,0,0,0,.15,0,.15.15,0,0,0,.09-.19v0l-.33-.7a.18.18,0,0,0-.22-.08.15.15,0,0,0-.1.19Z" style="fill: #dde9f2"/>
          <path d="M641.84,421.22l.34.71a.15.15,0,0,0,.08.08.19.19,0,0,0,.15,0,.16.16,0,0,0,.08-.2h0l-.34-.7a.16.16,0,0,0-.22-.08.14.14,0,0,0-.1.18Z" style="fill: #dde9f2"/>
          <path d="M642.8,420.88l.33.7s0,.07.08.08a.2.2,0,0,0,.15,0,.14.14,0,0,0,.09-.19v0l-.33-.7a.18.18,0,0,0-.22-.08.15.15,0,0,0-.1.19Z" style="fill: #dde9f2"/>
          <path d="M642,423.8c-3.45,0-4.45-.64-4.49-.68l.12-.23h0s1,.63,4.34.63a45.34,45.34,0,0,0,5.59-.19,1.3,1.3,0,0,0,.43-.15.38.38,0,0,1,.19.16,1.12,1.12,0,0,1-.42.18A35.8,35.8,0,0,1,642,423.8Z" style="fill: #dd78d3"/>
          <path d="M651.67,360.06s-1.37,17.62-2.18,30.79-1.74,27-1.74,27h-3.38s-1.26-9.88-1.63-12.23a175.54,175.54,0,0,1-1.9-17.58c-.9-11.69-1.56-29.43-1.56-29.43l5.75,1.15Z" style="fill: #25435b"/>
          <polygon points="644.1 417.27 644.1 418.41 647.87 418.41 647.91 417.42 644.1 417.27" style="fill: #4093cc"/>
          <path d="M651.14,317.85a8.84,8.84,0,0,0,2-3.67,6,6,0,0,0,0-3.56,4.45,4.45,0,0,0-.72-.9c-.35-.52-.06-1.15-.35-1.75a4.12,4.12,0,0,0-1-1,8.75,8.75,0,0,0-3.59-1.34c-.79-.2-3.23,0-2.3-1.42a4.49,4.49,0,0,0-2.08.27,4.61,4.61,0,0,0-2.4,2.3,2.46,2.46,0,0,0-.11,2.1,2.71,2.71,0,0,0,.65.82.78.78,0,0,1,.36.87,14.54,14.54,0,0,0,.16,3,6.58,6.58,0,0,0,1.32,2.64,4,4,0,0,0,1.38,1.39,12,12,0,0,0,1.49.71c1.28.48,3.1,1.14,4.37.33A4.8,4.8,0,0,0,651.14,317.85Z" style="fill: #25435b"/>
          <path d="M644.78,360.2c4.83,25.78,4.78,25.83,7.68,34.24,2,5.8,11.25,21.63,11.25,21.63l3.65-1.23S662.52,398.5,661,393a78.53,78.53,0,0,1-3.15-22.86,19.8,19.8,0,0,0,1.63-4.87,14.88,14.88,0,0,0,0-5.07l-7.13.51Z" style="fill: #173756"/>
          <path d="M664.11,416.28l.75,2.53-2.3,3.17a12.29,12.29,0,0,0-1.23,1c-.29.3-.48.57-.36.7a1,1,0,0,0,.7.13,10,10,0,0,0,1.88-.41l2.66-1.66.53-.2a2.79,2.79,0,0,0,1.35-.85,1.77,1.77,0,0,0-.29-1.07,5.66,5.66,0,0,0-.44-.75l-1.05-3.23Z" style="fill: #f9b498"/>
          <path d="M669.12,421.36h-.2l-1.26-2a.64.64,0,0,0-.4.24.63.63,0,0,0-.16.72l-.09.19a1.35,1.35,0,0,1-1.15.64,1.15,1.15,0,0,1-1-.31v-.25a.6.6,0,0,0-.17-.56,1.14,1.14,0,0,0-.7-.59l-.33.75a.41.41,0,0,0-.2.17c0,.07-1.77,2.1-1.86,2.21a4,4,0,0,1-.65.42,9.73,9.73,0,0,0-1.38.75,1.07,1.07,0,0,0-.44,1v.13a4.65,4.65,0,0,0,.31.91s.1.2,1.41.14a38.57,38.57,0,0,0,3.92-1.28c1.6-.51,3.23-1.15,3.74-1.34a3,3,0,0,0,1.15-.73Z" style="fill: #fff"/>
          <ellipse cx="662.36" cy="422.7" rx="0.28" ry="0.3" transform="translate(178.33 1041.66) rotate(-84.52)" style="fill: #dd78d3"/>
          <ellipse cx="663.05" cy="422.07" rx="0.28" ry="0.3" transform="translate(179.58 1041.78) rotate(-84.52)" style="fill: #dd78d3"/>
          <ellipse cx="663.73" cy="421.39" rx="0.28" ry="0.3" transform="translate(180.89 1041.85) rotate(-84.52)" style="fill: #dd78d3"/>
          <path d="M661.64,422.22l.59.53a.16.16,0,0,0,.24,0,.14.14,0,0,0,0-.21h0l-.59-.5a.16.16,0,0,0-.24,0A.14.14,0,0,0,661.64,422.22Z" style="fill: #dde9f2"/>
          <path d="M662.34,421.6l.59.53a.16.16,0,0,0,.24,0,.15.15,0,0,0,0-.21h0l-.59-.52a.18.18,0,0,0-.24,0,.15.15,0,0,0,0,.21Z" style="fill: #dde9f2"/>
          <path d="M663,420.88l.59.53a.18.18,0,0,0,.24,0,.14.14,0,0,0,0-.21h0l-.59-.53a.18.18,0,0,0-.24,0,.15.15,0,0,0,0,.21Z" style="fill: #dde9f2"/>
          <path d="M663.49,423.93c-3.22,1.2-4.38.95-4.44.94v-.27h0s1.15.25,4.28-.93a42.4,42.4,0,0,0,5.11-2.14,1.2,1.2,0,0,0,.35-.28.41.41,0,0,1,.24.08,1.08,1.08,0,0,1-.32.32A35.1,35.1,0,0,1,663.49,423.93Z" style="fill: #dd78d3"/>
          <polygon points="663.63 415.81 663.95 416.89 667.67 415.66 667.49 414.43 663.63 415.81" style="fill: #4093cc"/>
          <path d="M661.09,336.56c0,1.51-.08,23.38-.08,24.5,0,2.84-3.45,3.39-10.89,3.39a36.73,36.73,0,0,1-3.76-.17c-.28-13.71.28-27.34,8.29-39.57C659,326.24,661.09,332.69,661.09,336.56Z" style="fill: #25435b"/>
          <path d="M639.53,333.41c0-3.45,2.47-6.64,6.14-8.26A12.77,12.77,0,0,1,650.9,324a11.37,11.37,0,0,1,3.75.64c-8,12.23-8.55,25.86-8.29,39.57a21.86,21.86,0,0,1-4.6-.88c-2.47-.81-3.9-2-3.9-3.55C637.9,358.53,639.53,334.18,639.53,333.41Z" style="fill: #173756"/>
          <path d="M645.67,325.15A12.77,12.77,0,0,1,650.9,324a11.37,11.37,0,0,1,3.75.64c-8,12.23-8.55,25.86-8.29,39.57a21.86,21.86,0,0,1-4.6-.88C640.93,350.64,640.73,337.9,645.67,325.15Z" style="fill: #fff"/>
          <path d="M661.12,375.53c-.27-.15.12-.73.31-1.25a5.49,5.49,0,0,0,.21-2.13c-.08-.77-.39-1-.61-.84s-.18,1-.53,1.5-.64.23-.68.07a2.92,2.92,0,0,1,.24-.91,3.26,3.26,0,0,1,.65-1.6,3.11,3.11,0,0,1,1.52-.63h.23c.52-1.35,1.44-3.72,2.29-6.17a46,46,0,0,0,1.76-6,16,16,0,0,1,4.43.17v.11c-.72,2.3-6.39,11.6-7.13,12.77v.06a12.62,12.62,0,0,1,.22,2.38,1,1,0,0,1-.29.78.43.43,0,0,1-.35,0,.38.38,0,0,1-.22.41.39.39,0,0,1-.44-.1.53.53,0,0,1-.39.56c-.32.06-.3-.2-.3-.2a1.46,1.46,0,0,1-.21.48C661.7,375.27,661.4,375.69,661.12,375.53Z" style="fill: #f9b498"/>
          <path d="M651.6,324.73l-.75-9.19-4.36,4.72s.31,4.4.38,5a2.08,2.08,0,0,0,0,1.55,27.33,27.33,0,0,1-.6,4.6,50.92,50.92,0,0,1,3.87-4.43,2.67,2.67,0,0,0,1.47-2A.57.57,0,0,0,651.6,324.73Z" style="fill: #f9b498"/>
          <path d="M650.42,312.4c-.39.31-.32.45-.32.45-1.15-2.3-3.08-3.77-5-3.45a3.85,3.85,0,0,0-2.84,1.74c-.76,1.32-.57,3.17-.13,5.22a14.09,14.09,0,0,0,2,4.15c.7,1.15,1.08,1.66,2.3,1.42a4.94,4.94,0,0,0,2.3-1.32,6.72,6.72,0,0,0,2.08-5.07h0a1.16,1.16,0,0,0,.58-.3,1.39,1.39,0,0,0,.4-1.35,3.27,3.27,0,0,0-.41-1.46A.69.69,0,0,0,650.42,312.4Z" style="fill: #f9bfa2"/>
          <path d="M665.16,373.05a1.18,1.18,0,0,0-.16-.93,16.1,16.1,0,0,0-1.65-2.3h-.06c0-.54,0-3,0-6.14-.87.64-1.72,1.87-2.57,2.05.37,1.95.64,3.45.69,3.83l-.23.14a3.23,3.23,0,0,0-1.25,1.39,3.52,3.52,0,0,0,.25,2,3,3,0,0,0,.28,1c.13.15.61.27.68-.4s-.44-1.49-.34-1.81.61-.19,1.15.56a6.33,6.33,0,0,1,1.05,2.3c.1.64,0,1.41.4,1.43s.46-.54.46-.87a1.5,1.5,0,0,0-.07-.6.27.27,0,0,0,.35.13l.09-.06a.58.58,0,0,0,.09-.77.5.5,0,0,0,.53-.12.41.41,0,0,0,0-.53A.54.54,0,0,0,665.16,373.05Z" style="fill: #f9bfa2"/>
          <path d="M662.44,347.72c-.34-1.6-1.76-14.48-1.76-14.48h-7.3s3,13.69,3.53,15,2.67,11.62,3.76,17.36c.85-.17,1.72-1.42,2.57-2.05C663.11,357.65,662.81,349.47,662.44,347.72Z" style="fill: #173756"/>
          <path d="M688.87,424.74s-.47-2.43-1-5.16c-1.15.18-2.3.34-3.45.46l.42.92,1.72,4-.91,1.43a15.89,15.89,0,0,1-1.62,2.52,6.17,6.17,0,0,0-1.31,1.61,3.57,3.57,0,0,0,1.22,0L686,430l1.69-2.3.48-.11a2.35,2.35,0,0,0,1.28-.65,2.07,2.07,0,0,0-.12-1.15A11.37,11.37,0,0,0,688.87,424.74Z" style="fill: #f9bfa2"/>
          <path d="M672.22,420.64H669l.11.65.61,4.3-2.1,2.07a17.09,17.09,0,0,1-2.08,1.49,7,7,0,0,0-1.86,1.15,8.13,8.13,0,0,0,2,.12h2l2.37-1.78h.5a2.27,2.27,0,0,0,1.4-.24,2,2,0,0,0,.18-1.15,9.87,9.87,0,0,0-.1-1.22S672.15,423.37,672.22,420.64Z" style="fill: #f9b498"/>
          <path d="M683.4,331.3a14.83,14.83,0,0,1-1.37-3,13,13,0,0,1-.44-2c-.27-1.83-.18-3.72-.56-5.5-1.23-5.86-4.43-10.23-8.71-10s-7.05,5-6.9,12.1a14.18,14.18,0,0,0,.55,4c.51,1.3,2,1.94,1.81,3.78a1.35,1.35,0,0,1-.32.8c-.43.49-1.15.54-1.42,1.76a2.84,2.84,0,0,0,1.74,3.61,3.5,3.5,0,0,0,.56.13,13.85,13.85,0,0,0,6.82-.49,13.06,13.06,0,0,1,3.63-.36c2,0,4-.09,4.6-.74a3.11,3.11,0,0,0,.61-1.15C684.48,332.79,683.94,332.23,683.4,331.3Z" style="fill: #173756"/>
          <path d="M686.39,412.69c-1.25-4.91-3-8-5.36-17.05-.17-.66.81-22,.81-22A20.17,20.17,0,0,0,683,367a31.63,31.63,0,0,0-1-5.94c-.08-.32-.16-.6-.25-.9a24.8,24.8,0,0,1-2.85-.29l2.11-.09c-.08-.29.59-.22.5-.49,2.17-.14,3.65-.86,3.65-2.95,0-4.18-.08-13.88-.08-14.65,0-4.84-3.18-12.12-8.36-12.16s-9.53,3.77-10.1,10.43a88.83,88.83,0,0,0-.55,12.2c.1,1.74-.32,3.62-.06,4.34a14.12,14.12,0,0,0,1.07,1.5l-.14,3.3-.31,4.93c-.47,5.45-.76,10.65-.92,14.85-.23,5.75-.08,14.94,0,16.64.07,1.43,2.62,17.8,3.09,20.9l.31,2h3.17c0-1.9.1-3.78.11-4.71.09-5.09,0-13.63-.24-16.8-.08-1.28.71-16.19,1.15-18.6.35,0,1,16.29,1.15,16.93.81,3.76,3.45,8.8,6,14,.61,1.27,2.07,4.15,3.34,7l.69,1.54c1.17-.12,2.32-.27,3.45-.46C687.3,416.83,686.68,413.8,686.39,412.69Z" style="fill: #a5509f"/>
          <path d="M681.55,359.28c2.17-.14,3.66-.86,3.66-2.95,0-4.18-.08-13.88-.08-14.65,0-3.83-2-9.2-5.4-11.27,5.94,9.07,5.67,19.49,2.13,28.28h-7.7c12.7,10.86,3.16,26.81,6.9,39.85.43.55.86,1.1,1.28,1.67-.4-1.35-.82-2.84-1.27-4.6-.17-.67.8-22,.8-22A19.61,19.61,0,0,0,683,367a30.58,30.58,0,0,0-1-5.94c-.08-.33-.16-.6-.25-.9a22.9,22.9,0,0,1-2.85-.3l2.12-.08C681,359.48,681.63,359.55,681.55,359.28Z" style="fill: #964594"/>
          <polygon points="672.22 373.43 672.08 399.13 673.69 385.57 674.05 372.69 670.94 365.64 672.22 373.43" style="fill: #964594"/>
          <path d="M677,360.42a25.26,25.26,0,0,1-5.27-.59A27.54,27.54,0,0,1,667,358.4a.35.35,0,0,1-.17-.44.31.31,0,0,1,.4-.19h0a28.62,28.62,0,0,0,5.51,1.57,20,20,0,0,0,8.81-.17.3.3,0,0,1,.38.21v0a.34.34,0,0,1-.22.4A17.32,17.32,0,0,1,677,360.42Z" style="fill: #ce2c75"/>
          <path d="M676.92,330l-.78-7.55-2.94,3.45s-.59,4-.54,4.6c-.06.23-.4.8-.66,1.39a7.27,7.27,0,0,0-.63,1.8c0,.63-.06,1.36.54,1.37a6.28,6.28,0,0,0,2.42-1.78c.69-.86,2.54-3.26,2.54-3.26h0Z" style="fill: #f9b498"/>
          <path d="M675.8,318.16h-.15c-.95-2.3-2.7-3.76-4.39-3.45a3.45,3.45,0,0,0-2.53,1.7c-.68,1.29-.53,3.13-.15,5.16a15,15,0,0,0,1.7,4.12c.61,1.15,1,1.64,2.06,1.41a4.11,4.11,0,0,0,2.07-1.29,7,7,0,0,0,1.89-5h0a1,1,0,0,0,.51-.28,1.47,1.47,0,0,0,.37-1.34,1.79,1.79,0,0,0-.48-1.05A.88.88,0,0,0,675.8,318.16Z" style="fill: #f9bfa2"/>
          <path d="M684.69,378.48a.58.58,0,0,1-.52.59H677a.58.58,0,0,1-.52-.59V374a.58.58,0,0,1,.52-.59h7.18a.57.57,0,0,1,.52.59v4.46Z" style="fill: #ce2c75"/>
          <rect x="676.81" y="376.12" width="7.5" height="0.24" style="fill: #173756"/>
          <rect x="679.42" y="375.88" width="2.14" height="0.8" style="fill: #fce37c"/>
          <path d="M685.79,345.37a34,34,0,0,0-1.3-6,15.56,15.56,0,0,0-1.54-4.16c-.79-1.33-1.9-2.36-3.45-1.88-1.28.41-1.6,1.73-1.55,3.18a16.5,16.5,0,0,0,1.08,4.6,23.36,23.36,0,0,1,1,3.16,52.07,52.07,0,0,1,1.71,6.52,81,81,0,0,1,1.06,11.09c0,3.81-.27,8.29-.4,10.5l-.21.08a2.79,2.79,0,0,0-1.24,1.09,4,4,0,0,0-.14,1.9,3.56,3.56,0,0,0,0,1c.08.17.44.37.61-.26a12.64,12.64,0,0,0,0-1.76c.09-.28.52-.07.82.74a6.9,6.9,0,0,1,.43,2.3c0,.61-.23,1.32.07,1.41s.46-.43.52-.74h0a1.17,1.17,0,0,0,.18,1c.29,0,.39-.48.43-1a.82.82,0,0,0,.2.7,1.37,1.37,0,0,0,.36-1.29c0,.17.1.3.2.29.5-.1.11-2.3.11-2.3a15.4,15.4,0,0,0-.9-2.49V373a101.94,101.94,0,0,0,2.59-18.4A71.41,71.41,0,0,0,685.79,345.37Z" style="fill: #f9bfa2"/>
          <path d="M672.69,330.46a10.54,10.54,0,0,0-1.45,3,1.66,1.66,0,0,0,.26,1.63c.41.39,1.15,0,1.9-.68a23.37,23.37,0,0,0,2.85-3.2c.44-.57.71-1,.71-1l-.09-.76s-.79,1.15-1.77,2.45c-.27.36-.56.71-.85,1.05-1,1.15-2,2.12-2.46,1.73a1.51,1.51,0,0,1-.22-1.39A11.73,11.73,0,0,1,672.69,330.46Z" style="fill: #ff8fb4"/>
          <path d="M682.82,429.73c.6-.66,1.27-1.54,1.27-1.54l1.94,1.24,1.56-1.77.61-.22a7.39,7.39,0,0,1,.16-1.05,1.94,1.94,0,0,1,.85-1.45,3,3,0,0,1,.54,1.06,5.68,5.68,0,0,1,0,1l.32,2.3-1.26.32-.52-1.85-2.14,2.61s-1.56.5-2.93.82c-1.07.26-2,.42-2.06.15S682.19,430.41,682.82,429.73Z" style="fill: #e56187"/>
          <path d="M665,429.4c.75-.5,1.6-1.15,1.6-1.15l1.6,1.69,1.92-1.33.67-.07a5.54,5.54,0,0,1,.37-1.06,1.42,1.42,0,0,1,1.09-1.07,2.57,2.57,0,0,1,.42,1.29,3.9,3.9,0,0,1-.31.8l-.22,2.3h-1.3v-2l-2.73,2s-1.63.09-3.05.06c-1.15,0-2.07-.11-2-.37S664.21,429.9,665,429.4Z" style="fill: #e56187"/>
          <path d="M394.18,321.45c-.8-2.42-.83-5.82-3-7.53a5.92,5.92,0,0,0-3.29-1,19.58,19.58,0,0,0-3.25-.21h-.28a6,6,0,0,0-6.27,4.19c-.72,1.72-1.36,3.52-2,5.29a4.61,4.61,0,0,0,0,3.81c1.15,2.13,3.45,2.55,5.58,2,1.72-.48,4.3.14,6.24,0a13.92,13.92,0,0,0,4.6-.94C395,326,394.92,323.64,394.18,321.45Zm-10.7,3.28a.61.61,0,0,0,.49-.34c.83-1.81.42-4,.9-5.95,0-.11.06-.28.09-.47a7.74,7.74,0,0,0,1-.56c.1.23.18.48.26.67a24.85,24.85,0,0,0,1.39,2.78.67.67,0,0,0,.43.62,2.54,2.54,0,0,0,0,.39.59.59,0,0,0,.25.38.7.7,0,0,0,.46.69.72.72,0,0,0,.37.94l.17.05a1.93,1.93,0,0,0,0,.48.74.74,0,0,0,.11.39.7.7,0,0,0-.37-.11h-.11l-3.29-.08a.69.69,0,0,0-.67.53h-.42c-.12,0-.58.1-1,.15A3.5,3.5,0,0,0,383.48,324.73Z" style="fill: #9e6456"/>
          <path d="M398.16,406.28c-1-.89-3.61,1.15-3.68,1.26-.37-.26-1.15-1-1-.46,1.55,4.83,4.6,19,5.84,19.43,1.06.35,1-.22,1.15-1.15C400.73,423.63,398.67,406.72,398.16,406.28Z" style="fill: #ea8068"/>
          <path d="M381.65,406c-.75-1.15-3.78.2-3.89.27-.28-.35-.87-1.27-.85-.7.25,5.05-.5,19.54.59,20.28s1,0,1.39-.8C379.63,423.42,382,406.57,381.65,406Z" style="fill: #ea8068"/>
          <path d="M404.25,362.5c-.74-2.85-1.45-5.75-2.3-8.54a25.54,25.54,0,0,0-3.85-7.3.55.55,0,0,0-.77-.12.57.57,0,0,0-.22.53.56.56,0,0,0-.78.15.57.57,0,0,0-.08.46c.06.18.13.37.2.55-.13-.24-.24-.48-.36-.73-.29-.64-1.33-.29-1,.34.56,1.24-1.34-1-.69.2.82,1.54,6.89,12.55,8.31,14.94.29,1.15.63,4.6,1.7,4.27a.56.56,0,0,0,.17-.09,4.79,4.79,0,0,0,.67,2.17c.94.94,1.45-.82,1.49-1.48C406.82,365.7,405.47,364.12,404.25,362.5Z" style="fill: #f9b498"/>
          <path d="M386.48,314.5c-4.68-.31-7,5.52-5.52,9.41.59,3.44,5.24,5,8.23,4.59,2.18-.33,2.67-4.74,2.3-8.37-.22-2.17-.65-4-1.5-4.66A6.92,6.92,0,0,0,386.48,314.5Z" style="fill: #f9bfa2"/>
          <rect x="381.07" y="326.76" width="8.78" height="4.98" transform="translate(35.84 696.34) rotate(-86.9)" style="fill: #f9bfa2"/>
          <path d="M380,331.71c-3.37.66-8.4,5.54-8.91,8.88a7.51,7.51,0,0,0,.23,2.5c.11.83-.09,1.64,0,2.48a2.77,2.77,0,0,0,3,2.53,3.21,3.21,0,0,0,.43-.07c1.87-.35,1.35-2.79-.21-3.13h0a5.51,5.51,0,0,1,.06-.71,5.13,5.13,0,0,0,0-1c-.11-1.24-.57-2,0-3.21a7.57,7.57,0,0,1,4.57-4.22C381.23,335.3,382,331.32,380,331.71Z" style="fill: #e3b86d"/>
          <path d="M403.67,351.53c-1.15-2.63-3.27-4.54-4-7.44-1-4.25-2.95-11.38-8.57-11.81-1.41-.11.09,3.13,1.48,3.25a4.23,4.23,0,0,1,3.6,3,1.15,1.15,0,0,0-1.44.76,1,1,0,0,0,0,.55l.26,1.27a1,1,0,0,0-.67,1c.07,6,.37,12.21,3.21,17.62.93,1.77,1.63,3.86,4,3.45a3.89,3.89,0,0,0,3.45-4A18,18,0,0,0,403.67,351.53Z" style="fill: #e3b86d"/>
          <path d="M374.58,359.86c3.53.24,7.71-.5,11.17,0,1.42.21,3.2-.21,4.6,0,1,.14,2.62.67,3.59.14a7.36,7.36,0,0,1,1.15,0c-.18-6.4.31-13.07.46-15.06.26-3.55,1-1.52.84-5.09-.09-2.57-.1-5.42-2.67-6.82a25.93,25.93,0,0,0-9.2-2.35,1,1,0,0,0-.74.2c-3.65.53-7.44,1.61-9.2,5.19s-1.05,8.12-.55,11.94C374.35,350.09,373.59,357.84,374.58,359.86Z" style="fill: #e3b86d"/>
          <path d="M389.76,313.46a5.33,5.33,0,0,0-2.57.56.77.77,0,0,0-.57-.83.82.82,0,0,0-1,.37.79.79,0,0,0-1.12.08l0,0-.64.83a.81.81,0,0,0-.59.19,7.29,7.29,0,0,0-1.15,1.14.74.74,0,0,0-.79.33,12,12,0,0,0-1.75,5.85,6.46,6.46,0,0,0,0,1.39,2,2,0,0,0,.08.67c.17,1.07,1.41,4.05,3.37,3.81s2.43-1.43,2.23-2c-.41-1.15-2-3.1-.71-4,.37-.27.85-.35,1.21-.63.93-.75.78-1.83,1-2.9.53-2.09.68-3.45,3-3.38a.74.74,0,0,0,.76-.72.72.72,0,0,0-.71-.76Z" style="fill: #9e6456"/>
          <path d="M393.81,333.07l-.09-.06a26.15,26.15,0,0,0-9.2-2.36,1,1,0,0,0-.74.21,17.17,17.17,0,0,0-6.25,1.85A12.19,12.19,0,0,0,393.81,333.07Z" style="fill: #f9b498"/>
          <path d="M402.25,426.55a14.37,14.37,0,0,0-1.31-1.15l-.12-.27a1,1,0,0,0-.88-.62,3.57,3.57,0,0,0-1.41.23.59.59,0,0,0-.27.59,2.61,2.61,0,0,0-.1,1.61,3.92,3.92,0,0,0,1.55,1.15c1.35.83,3.23,1.94,4.42,1.65a.4.4,0,0,0,.36-.36C404.57,428.21,403,427.24,402.25,426.55Z" style="fill: #393b4a"/>
          <path d="M380.36,426.09a14.63,14.63,0,0,0-1-1.47.54.54,0,0,0-.05-.28.94.94,0,0,0-.71-.8,3.4,3.4,0,0,0-1.42-.11.56.56,0,0,0-.4.51,2.65,2.65,0,0,0-.48,1.54,3.9,3.9,0,0,0,1.23,1.5c1.15,1.15,2.7,2.66,3.91,2.64a.42.42,0,0,0,.44-.27C382.23,428.26,380.94,426.94,380.36,426.09Z" style="fill: #393b4a"/>
          <path d="M399.88,392.22c-.71-7.06-4.59-26.73-4.71-29.43-.09-1.88-.56-3.45-2.72-3.45-2.77,0-6.74.1-9.51,0a33.83,33.83,0,0,0-8,.4,1.67,1.67,0,0,0-1.15,2c.41,2.58-.44,4.6-.57,7.15,0,0-.86,30.31-.25,50.11a.65.65,0,0,0,.64.54,40.66,40.66,0,0,0,6.89-.1c1.49-.27,1.33-1.7,1.54-3.17q1.15-7.65,2-15.34.94-8,1.68-16c1.31,5.55,2.54,11.14,3.52,16.78.81,4.69,1.44,9.42,1.81,14.17.09,1.15,0,3.32,1.15,3.74a9.72,9.72,0,0,0,2.58.22,48.72,48.72,0,0,0,5.92-.15c.6-.07.62-1.33.62-1.48A210.8,210.8,0,0,0,399.88,392.22Z" style="fill: #e3b86d"/>
          <path d="M394.8,355.16a1.38,1.38,0,0,0-1.57-1.15h0v-.13c-.41-1-2.2-1.37-2.46,0l-.38,2.05a1.33,1.33,0,0,0-1.66.55,1.15,1.15,0,0,0-1.59.36l-.06.11a12.13,12.13,0,0,0-.75,1.83h-.1v-.23a3.64,3.64,0,0,0-2.79-1.5,1.29,1.29,0,0,0-1.66-.72,1.38,1.38,0,0,0-.36.23,1.31,1.31,0,0,0-1.49-.06h-.2a1.86,1.86,0,0,0-3.05-.85c-.26-1.22-2.39-1.08-2.53.39q-.81,8.7-1,17.45c0,.82-.22,2.06.45,2.73s2.12.67,3,.84a30.3,30.3,0,0,0,7.83.69,10.49,10.49,0,0,0,9.36-7.11C395.45,365.82,395.34,360.14,394.8,355.16Z" style="fill: #e3b86d"/>
          <path d="M356.09,305.82c-5.34-.35-8,6.31-6.31,10.76.67,4,5.67,5.67,9.08,5.14,3.6-.56,3.27-10.09,2-14.2a1.45,1.45,0,0,0-.75-.63A7.89,7.89,0,0,0,356.09,305.82Z" style="fill: #f9b498"/>
          <path d="M343.6,409.64c-.38-1.29-3.68-.95-3.8-.9-.17-.41-.46-1.47-.59-.92-1.29,4.9-4.29,19.2-3.45,20.21s.95.35,1.56-.34C338.5,426.35,343.78,410.28,343.6,409.64Z" style="fill: #ea8068"/>
          <path d="M360.82,407.58c-.77-1.15-3.78.27-3.89.35-.3-.34-.91-1.24-.86-.69.35,5.06-.09,19.55,1,20.26s1,0,1.38-.83C359.17,425,361.21,408.13,360.82,407.58Z" style="fill: #ea8068"/>
          <path d="M340.1,428.93a12.86,12.86,0,0,1-1.39-1.47,1.11,1.11,0,0,1-.21-.74,3.23,3.23,0,0,0,0-.44.32.32,0,0,0-.17-.33c-.5-.27-.75.17-2.87-.45a.47.47,0,0,0-.52.4v0c-.08.64-.15,1.33-.16,1.43,0,.43-.33,1,1.67,2.3,1,.67.67.88,1.5,1.36a3.9,3.9,0,0,0,2.9.36C342.1,430.87,340.8,429.62,340.1,428.93Z" style="fill: #393b4a"/>
          <path d="M361.46,427.78a12.59,12.59,0,0,1-1.66-1.15,1.09,1.09,0,0,1-.36-.68,3.23,3.23,0,0,0,0-.44.36.36,0,0,0-.23-.3c-.55-.16-.7.33-2.9.15a.47.47,0,0,0-.43.49.06.06,0,0,0,0,0,8.55,8.55,0,0,0,.15,1.45c0,.41-.11,1.08,2.11,1.93,1.15.44.84.71,1.76,1a3.87,3.87,0,0,0,2.91-.25C363.83,429.25,362.28,428.28,361.46,427.78Z" style="fill: #393b4a"/>
          <rect x="347.89" y="318.16" width="10.16" height="5.96" transform="translate(19.77 662.75) rotate(-88.01)" style="fill: #f9b498"/>
          <path d="M368.11,335.21c-1.38-5.58-4.49-9.45-9.83-11-.3-.77-.85-2.29-1.83-2.29a3.93,3.93,0,0,0-1.55.57c-.62.29-1.24.59-1.85.91h-.3a5.46,5.46,0,0,0-2.81-1.15c-1.25,0-1.5,1.65-1.78,2.7-5.05,1.9-8.53,4.35-11.12,10.45-1.89,4.45-2.57,13.14-2.76,17.92-.2,5.27,3.6,7.3,3.68,12.57,0,1.15,3.76,1.76,4.92,1.45,9.8-2.57,13-1.75,23.15-1.28C367.22,366.12,370.2,343.63,368.11,335.21Z" style="fill: #edd8cf"/>
          <path d="M368.71,362a25.63,25.63,0,0,0-2.63-.19,1.29,1.29,0,0,0-.64-.19,114,114,0,0,0-19.36,1.05,1.76,1.76,0,0,0-.75.11c-1.43.21-3.89-3.76-5.32-3.45s-5.94,1.44-5.9,1.94c1,8.79,1.49,23.1,1.49,33.45a235.64,235.64,0,0,1-1.28,28.36A1.67,1.67,0,0,0,336,424.7a10.15,10.15,0,0,0,3.16.05,1.71,1.71,0,0,0,1.59-1.15c3.32-11.14,8.82-27.15,12.16-38.29,1.52,10.7,2.8,18.39,1.88,37.62a1.62,1.62,0,0,0,1.6,1.64h0l3-.13a1.91,1.91,0,0,0,1.65-1.64C364.65,409.23,368.71,362,368.71,362Z" style="fill: #5e5e91"/>
          <path d="M329.15,369.73c.08-2.94.12-5.9.33-8.84a26,26,0,0,1,2.1-8,.55.55,0,0,1,1.06.19.57.57,0,0,1,.8,0,.6.6,0,0,1,.18.44,1.73,1.73,0,0,1-.07.59c.07-.27.13-.53.18-.8.14-.68,1.23-.58,1.09.11-.27,1.33,1.09-1.29.73,0-.46,1.69-3.93,13.79-4.74,16.4,0,1.15.42,4.6-.7,4.53a.54.54,0,0,1-.18,0,4.84,4.84,0,0,1-.16,2.3c-.7,1.15-1.6-.47-1.79-1.15C327.35,373.4,328.32,371.59,329.15,369.73Z" style="fill: #f9b498"/>
          <path d="M368.9,346.68c.39-5.75-.46-13.74-2.84-19-1.73-1.45-4.11-2.3-7.23-3.35-.64,1.87-2.52,8.8-3.58,10.53-.78-1.65-5.88-8.05-7.09-9.91-2.71,1.08-5,1.54-7.48,3.19,0,2.38.09,6.12.24,8.49,0,1.86,0,3.73.06,5.6.09,3.24-6.47,18-5.87,18.59,2.3,2.15,9.66,9.44,12.5,10.9a.75.75,0,0,0,.88-.11c1.89-1.79,3.67-7.55,5.45-9.42,1,1.21,2.3,6.18,3.18,7.52,1.59,2.47,1.87,2.17,2.16,2,1.4-.58,7.65-8.74,9.43-9.76C369.41,361.57,368.62,350.83,368.9,346.68Z" style="fill: #393b4a"/>
          <path d="M341,328.09a1.71,1.71,0,0,1-.32,0,9,9,0,0,0-2.83,1.37,13.77,13.77,0,0,0-4.27,7.22c-.45,1.49-.79,3-1.3,4.49-.57,1.71-1.37,3.33-1.87,5.06-.45,1.54-.56,3.13-.86,4.7a49.65,49.65,0,0,1-1.52,4.95,14.89,14.89,0,0,0,.46,9.19v.07a21.55,21.55,0,0,1-.91,2.82,1.44,1.44,0,0,0,.67,1.64c1.27.63,2.91,1.44,4.12.27a8,8,0,0,0,1.67-2.7,4.63,4.63,0,0,0,1.15-2,31.48,31.48,0,0,1,1.53-4.67,69.3,69.3,0,0,0,3.74-8.35c2.42-7,4.79-14.29,3.68-21.77C343.61,329,343,327.6,341,328.09Z" style="fill: #edd8cf"/>
          <path d="M362.09,319.64a22.49,22.49,0,0,0-.17-3.7c-.17-.25-.26,0-.42.3-.66,1.42-3.38,1.7-4.53,1.77a9.38,9.38,0,0,1-6-1.58,2,2,0,0,1-.88-2.07,3.15,3.15,0,0,0-1.78,1c.64,3.33,1.24,8.65,4.76,10.13,2.38,1,6.57,1.22,8.2-1.24A8,8,0,0,0,362.09,319.64Z" style="fill: #edd8cf"/>
          <path d="M352.46,308.73c-.14.3-.29.6-.42.9a.51.51,0,0,0-.63.24l-.08.16a.53.53,0,0,0-.75.11.1.1,0,0,0,0,.05v.13a.56.56,0,0,0-.78,0c0-.13-.12-.26-.18-.39a5.9,5.9,0,0,0-1.92.2,3.64,3.64,0,0,0-.15.8l-.13-.53a.54.54,0,0,0-.67-.38.54.54,0,0,0-.38.66c.23,1,1.15,6.36,3.31,4.6a2.43,2.43,0,0,0,.64-1.15c.43-1,1-.94,1.67-1.54a5.43,5.43,0,0,0,1.58-3.51C353.56,308.59,352.75,308.12,352.46,308.73Z" style="fill: #edd8cf"/>
          <path d="M362.84,306.94a2.86,2.86,0,0,0-2.21-.54c-.19-1.15-.47-2.41-.66-3.57a4.64,4.64,0,0,0-.89-2.19,1.77,1.77,0,0,0-1.71-.51c-1.33.1-2.7.45-4,.67s-2.68.43-4,.66a2.16,2.16,0,0,0-2.46,1.82,2.08,2.08,0,0,0,.16,1.2c.08,1.23.49,2.48.59,3.71a5.15,5.15,0,0,0-1.77,1.15.93.93,0,0,0-.06,1.3.89.89,0,0,0,.59.3c2.92.37,6.16-.49,9.05-.93,1.62-.26,3.25-.52,4.86-.83A4.61,4.61,0,0,0,363,308,.92.92,0,0,0,362.84,306.94Z" style="fill: #393b4a"/>
          <path d="M356.69,351.5a1,1,0,0,0,.08-.53c-.12-.42-.26-.83-.39-1.24-1.33-.46-4.87-1.15-4.94,1.15s3.23,2.05,4.72,2.09a.63.63,0,0,0,.6-.45A1.06,1.06,0,0,0,356.69,351.5Z" style="fill: #f9b498"/>
          <path d="M376.07,349.6c-.55-3.54-2-6.64-3.23-10-1.15-3.13-.84-7-3.19-9.6a10.13,10.13,0,0,0-3.6-2.3,1.19,1.19,0,0,1,.1.32c1.15,2.19,1.34,5,1.58,7.72.34,3.71-.83,7.85-.53,11.57a3.25,3.25,0,0,1-1.7-.42c-2.3-1.33-5-1.46-6.18,1.32a6.68,6.68,0,0,0-1.26.09,2.48,2.48,0,0,0-2,2.44c-.1,1-.39,2.64.31,3.53s2.3.65,3.37.56a6.88,6.88,0,0,0,.76,1.35c1.85,2.56,4.6,2,7.38,1.86,1.53-.08,2.37.71,3.76,1.09a3.56,3.56,0,0,0,3.45-1C377.16,356,376.52,352.19,376.07,349.6Z" style="fill: #edd8cf"/>
          <path d="M394.63,338.82c0-.23-.38-.23-.36,0q.38,6,.3,12a.19.19,0,0,0,.19.18.18.18,0,0,0,.18-.18C395,346.8,394.89,342.79,394.63,338.82Z" style="fill: #ba9759"/>
          <path d="M365.18,347c1.15.73,4.49,2.18,5.05,0s-1.57-2.82-3.07-3S364.76,346.71,365.18,347Z" style="fill: #f9b498"/>
          <rect x="382.98" y="329.53" width="4.81" height="2.68" style="fill: #f9b498"/>
          <path d="M392.61,322.66c-.14-.47-.47-1.08-.67-1.55a11.16,11.16,0,0,0-.91-1.79c-.14-.17,0,.4-.16.56h0a.31.31,0,0,0,0,.44l0,0h0a3.18,3.18,0,0,1,.13.51.26.26,0,0,0-.12.19,4,4,0,0,0,0,1.76.52.52,0,0,1-.1.11.33.33,0,0,0,0,.47.34.34,0,0,0,.29.11C391.58,323.43,392.85,323.45,392.61,322.66Z" style="fill: #f9bfa2"/>
          <ellipse cx="1193.21" cy="430.66" rx="18.5" ry="1.9" style="fill: #316293"/>
          <path d="M1184.17,423.18v2.61l-3.24,1.78a10.44,10.44,0,0,0-1.46.38.69.69,0,0,0-.6.46.84.84,0,0,0,.52.4,9,9,0,0,0,1.7.43l2.9-.34h.51a2.59,2.59,0,0,0,1.48-.17,1.76,1.76,0,0,0,.23-1,10.93,10.93,0,0,0-.06-1.15l.08-3.27Z" style="fill: #f9b498"/>
          <path d="M1196.38,422.74l.59,2.46-2.21,3a10.55,10.55,0,0,0-1.15.95.72.72,0,0,0-.36.67.86.86,0,0,0,.64.15,9.13,9.13,0,0,0,1.72-.31l2.49-1.51.5-.16a2.49,2.49,0,0,0,1.26-.76,1.75,1.75,0,0,0-.21-1,6.38,6.38,0,0,0-.37-.74l-.84-3.14Z" style="fill: #f9b498"/>
          <path d="M1177.26,428.71h0c.11.07,1,.64,4.09.64a30,30,0,0,0,5.28-.23,1.13,1.13,0,0,0,.39-.17h0v1.29a2.63,2.63,0,0,1-1.24.25h-3.66s-3.44-.08-3.78-.18a1.8,1.8,0,0,1-1.15-.6A5.54,5.54,0,0,1,1177.26,428.71Z" style="fill: #d5dde2"/>
          <path d="M1186.86,428.78a1.32,1.32,0,0,1-.39.15,39.52,39.52,0,0,1-5.1.18c-3.07,0-4-.6-4-.61h0a1,1,0,0,1,.72-.69,10.2,10.2,0,0,1,1.44-.21,3.38,3.38,0,0,0,.7-.16c.12-.05,2.3-1.28,2.37-1.34a.41.41,0,0,1,.23-.09l.55-.55a1,1,0,0,1,.39.75.64.64,0,0,1,0,.57l-.13.2a1,1,0,0,0,.77.64,1.25,1.25,0,0,0,1.23-.19l.13-.12a.62.62,0,0,1,.39-.6.59.59,0,0,1,.43-.08l.33,2.17h0Z" style="fill: #e891cf"/>
          <path d="M1200.54,427.78a1.35,1.35,0,0,1-.32.26,38.17,38.17,0,0,1-4.76,1.86c-2.9,1-3.94.74-3.94.74h0a1,1,0,0,1,.45-.86,9.18,9.18,0,0,1,1.28-.67,3.51,3.51,0,0,0,.61-.39c.08-.09,1.78-2,1.8-2.06a.4.4,0,0,1,.18-.16l.33-.7a1.12,1.12,0,0,1,.62.59.61.61,0,0,1,.14.55l-.06.24a1,1,0,0,0,1,.34A1.24,1.24,0,0,0,1199,427l.09-.17a.62.62,0,0,1,.17-.69.55.55,0,0,1,.37-.22l1,1.94h0Z" style="fill: #e891cf"/>
          <path d="M1195.54,430.08a31,31,0,0,0,4.91-2,1.11,1.11,0,0,0,.31-.3h0l.44,1.21a2.63,2.63,0,0,1-1.09.64c-.49.2-2,.72-3.45,1.15,0,0-3.3,1.07-3.64,1.08a1.69,1.69,0,0,1-1.28-.18,4.66,4.66,0,0,1-.26-.88h0C1191.61,430.88,1192.7,431.1,1195.54,430.08Z" style="fill: #d5dde2"/>
          <ellipse cx="1180.79" cy="427.81" rx="0.26" ry="0.28" transform="translate(258.32 1280.06) rotate(-62.65)" style="fill: #dd78d3"/>
          <ellipse cx="1181.59" cy="427.48" rx="0.26" ry="0.28" transform="translate(259.19 1280.75) rotate(-62.66)" style="fill: #dd78d3"/>
          <ellipse cx="1182.43" cy="427.09" rx="0.26" ry="0.28" transform="translate(259.7 1280.97) rotate(-62.64)" style="fill: #dd78d3"/>
          <path d="M1180.37,427.17l.31.66a.16.16,0,0,0,.2.09.15.15,0,0,0,.08-.2h0l-.31-.67a.16.16,0,0,0-.2-.08.14.14,0,0,0-.08.2Z" style="fill: #f8feff"/>
          <path d="M1181.17,426.86l.31.66a.16.16,0,0,0,.21.08.15.15,0,0,0,.08-.19h0l-.31-.67a.18.18,0,0,0-.21-.08.15.15,0,0,0-.08.2Z" style="fill: #f8feff"/>
          <path d="M1182,426.48l.31.67a.16.16,0,0,0,.2.08.15.15,0,0,0,.08-.2h0l-.31-.67a.16.16,0,0,0-.2-.08.14.14,0,0,0-.08.2Z" style="fill: #f8feff"/>
          <path d="M1181.35,429.33c-3.16,0-4.07-.62-4.1-.64l.1-.23h0s.9.61,4,.61a41.34,41.34,0,0,0,5.1-.19,1.14,1.14,0,0,0,.4-.15.35.35,0,0,1,.17.15,1.13,1.13,0,0,1-.39.17A30.7,30.7,0,0,1,1181.35,429.33Z" style="fill: #dd78d3"/>
          <path d="M1180.57,340s-2,5.35-2.81,7.58l-1,2.7a37.63,37.63,0,0,1-4.15-5.94,1.31,1.31,0,0,0,.08-.21,2.82,2.82,0,0,0,.11-1.65,3.57,3.57,0,0,0-1.15-1.38,3.15,3.15,0,0,0-.74-.67c-.16,0-.57.08-.24.63s1.08.94,1.15,1.23-.32.44-1.07.12a6.06,6.06,0,0,1-1.92-1.27c-.41-.43-.75-1.05-1-.89s0,.63.15.88a1.87,1.87,0,0,0,.36.43.21.21,0,0,0-.29,0,.17.17,0,0,0,0,.12.56.56,0,0,0,.34.63.37.37,0,0,0-.3.34.43.43,0,0,1,.26.56.57.57,0,0,1-.11.16,1.11,1.11,0,0,0,.6.64,13.52,13.52,0,0,0,2.3,1h.07c.76,1.24,4.06,11.87,7,11.81.86,0,3.22-4.49,5.08-8.31,1.4-2.86,2.5-5.36,2.5-5.36Z" style="fill: #f9b498"/>
          <ellipse cx="1194.52" cy="428.85" rx="0.26" ry="0.28" transform="translate(601.83 1551.13) rotate(-81.91)" style="fill: #dd78d3"/>
          <ellipse cx="1194.59" cy="428.16" rx="0.26" ry="0.28" transform="translate(603.38 1551.03) rotate(-81.95)" style="fill: #dd78d3"/>
          <ellipse cx="1195.01" cy="427.39" rx="0.26" ry="0.28" transform="matrix(0.14, -0.99, 0.99, 0.14, 604.5, 1550.78)" style="fill: #dd78d3"/>
          <path d="M1193.9,428.39l.51.53a.18.18,0,0,0,.22,0,.16.16,0,0,0,0-.22h0l-.51-.53a.16.16,0,0,0-.22,0,.14.14,0,0,0,0,.21Z" style="fill: #f8feff"/>
          <path d="M1194.55,427.78l.52.53a.18.18,0,0,0,.22,0,.17.17,0,0,0,0-.22h0l-.52-.53a.16.16,0,0,0-.22,0,.15.15,0,0,0,0,.21Z" style="fill: #f8feff"/>
          <path d="M1195.21,427.19l.52.53a.15.15,0,0,0,.22-.21h0l-.51-.53a.18.18,0,0,0-.22,0,.15.15,0,0,0,0,.21Z" style="fill: #f8feff"/>
          <path d="M1195.54,430.08c-3,1-4,.76-4.09.74v-.25h0s1.06.28,3.94-.73a38.22,38.22,0,0,0,4.76-1.87,1,1,0,0,0,.32-.26.35.35,0,0,1,.22.08,1.11,1.11,0,0,1-.31.3A31,31,0,0,1,1195.54,430.08Z" style="fill: #dd78d3"/>
          <path d="M1190.16,368.06s-1.25,16.93-2,29.6-1.59,25.93-1.59,25.93h-3.09s-1.15-9.51-1.49-11.76c-.83-5.47-1.08-7.89-1.74-16.9-.82-11.24-1.42-28.29-1.42-28.29l5.29,1.15Z" style="fill: #721c53"/>
          <path d="M1185,367.81s1.64,23.94,3,32.33c1.53,9.2,7.36,22.57,7.36,22.57l3.64-.38s-4.28-18.79-4.59-25.18c-.26-5.09,1.7-20.31,1.7-20.31a12.17,12.17,0,0,0,1.15-2.45,9.24,9.24,0,0,0,0-5.88l-7.13-.43Z" style="fill: #842868"/>
          <polygon points="1183.24 423.05 1183.24 424.14 1186.69 424.14 1186.72 423.2 1183.24 423.05" style="fill: #9eb9c6"/>
          <polygon points="1195.32 422.51 1195.55 423.47 1199.15 423.12 1199.01 421.94 1195.32 422.51" style="fill: #9eb9c6"/>
          <path d="M1199.23,343.2c0-4.71-4.14-9.75-9.51-9.75s-9.65,4.3-9.65,9c0,.74-1.39,24.14-1.39,25.38,0,2.74,4,4.44,10.34,4.44s9.2-.53,9.2-3.25C1198.31,368,1199.23,344.65,1199.23,343.2Z" style="fill: #fca56b"/>
          <path d="M1186.59,371.88c3.18,0,5.35-.25,6.69-3.72a14,14,0,0,0-2.65-14.79,6.78,6.78,0,0,1-1.55-2.92c-.56-1.61-1.66-3.13-2.07-4.75a7.1,7.1,0,0,0,1.79.54,16.62,16.62,0,0,1,.12-3.73c.24,1.92.62,3.35,2.3,3.75a13.73,13.73,0,0,0,4.49.79c.49-3.19,1.51-5.5,0-8.51-1-1.91-3.63-5.1-5.91-5.08h.1a9.32,9.32,0,0,1,7.11,3.45,9.89,9.89,0,0,1,2.39,6.24c0,1.45-.92,24.74-.92,25.82,0,2.74-2.89,3.26-9.19,3.26a25.36,25.36,0,0,1-5.36-.51A16.38,16.38,0,0,0,1186.59,371.88Z" style="fill: #ff9b64"/>
          <path d="M1187.21,327.58a7.45,7.45,0,0,0,1.15-4.39c-.1-.58-.37-1.15-.5-1.72,0-.24-.75-2-.7-2.08a.85.85,0,0,0,.23-1,1.4,1.4,0,0,0-1.15-.56,1.48,1.48,0,0,0,.33-.53,2.76,2.76,0,0,0-3.09-.37l.35-.06a6.06,6.06,0,0,0-4.43.22c-1.26.6-2.3.78-2.94,2.3-.43,1.08.28,1.88.57,2.85a12.43,12.43,0,0,0,.84,2.93,9.76,9.76,0,0,0,1.66,2.17,3.6,3.6,0,0,0,1.47,1.15,10.75,10.75,0,0,0,1.47.43c1.23.24,3,.57,4-.38A4.49,4.49,0,0,0,1187.21,327.58Z" style="fill: #173756"/>
          <path d="M1188.79,334l-2.2-8.56-3.13,5.17,1.15,4.6a2.11,2.11,0,0,0,.29,1.47,1.25,1.25,0,0,0,1.34.55,3.48,3.48,0,0,0,1.64-.92,2.53,2.53,0,0,0,1-2.1A.6.6,0,0,0,1188.79,334Z" style="fill: #f9b498"/>
          <path d="M1185.62,322.54c-.3.35-.22.48-.22.48-1.38-2-3.45-3.07-5.06-2.43a3.55,3.55,0,0,0-2.3,2.11c-.46,1.36,0,3.08.77,4.95a14,14,0,0,0,2.46,3.61c.82,1,1.26,1.39,2.3,1a4.33,4.33,0,0,0,1.87-1.62,6.66,6.66,0,0,0,1.15-5.15h0a1.21,1.21,0,0,0,.47-.37,1.4,1.4,0,0,0,.12-1.33,3.13,3.13,0,0,0-.62-1.33.63.63,0,0,0-.88,0Z" style="fill: #f9bfa2"/>
          <path d="M1184.57,335l-.17.32a2,2,0,0,0,1,2.13,2.29,2.29,0,0,0,2.18-.38,3.16,3.16,0,0,0,.82-.85,2.35,2.35,0,0,0,.5-1.94l-.27-.86a3,3,0,0,1-.07,1.72c-.33.76-1.31,2.08-2.43,2.08a1.33,1.33,0,0,1-1.15-.69A3,3,0,0,1,1184.57,335Z" style="fill: #ff9b64"/>
          <path d="M1174.72,373.23a2.07,2.07,0,0,0-2.09,2,2,2,0,0,0,1.06,1.79c-.76,1.75-2,5.08-3.37,7.79-.72,1.41-1.49,2.94-2.36,4.53s-1.8,3.25-2.83,4.94-2.11,3.45-3.29,5.13-2.44,3.39-3.79,5a38.53,38.53,0,0,1-4.38,4.47,29.12,29.12,0,0,1-2.4,1.91l-1.23.89-1.27.79a42.85,42.85,0,0,1-5,2.66c-.83.37-1.64.69-2.43,1s-1.56.57-2.29.8c-1.51.47-2.9.87-4.14,1.15s-2.3.5-3.26.64c-1.81.28-2.85.34-2.85.34v.81a29,29,0,0,0,2.92-.4c.92-.16,2-.36,3.3-.69s2.67-.71,4.19-1.2c.76-.24,1.53-.55,2.3-.85s1.62-.67,2.44-1.05a41.77,41.77,0,0,0,5-2.75l1.27-.81,1.23-.91a29.89,29.89,0,0,0,2.41-2,40.43,40.43,0,0,0,4.38-4.59q2-2.48,3.76-5.09c1.16-1.73,2.3-3.45,3.24-5.17s1.93-3.38,2.77-5,1.61-3.14,2.3-4.6c1.39-2.85,2.45-5.25,3.19-6.95l.4-.73a2.08,2.08,0,0,0,.78.15,2.06,2.06,0,1,0,0-4.11Z" style="fill: #f97091"/>
          <path d="M1173.85,373.2a4.2,4.2,0,0,1,1.57-1.09,2.2,2.2,0,0,1,1.63.21c1.83-1.28,8.43-6.44,11.13-9.8,1-1.15,1.46-4.6,1.76-7.87s1.08-9,1.08-9l5.84,1.25a61.36,61.36,0,0,1-.95,8.65c-.83,4.16-2.36,8.32-3.45,9.19a79.11,79.11,0,0,1-14.68,9.3v.08a13.43,13.43,0,0,1-1.23,2.42s-1.24,1.65-1.71,1.26c-.1-.08-.2-.11-.08-.25-.46.39-.72.6-1,.36s-.21-.22.07-.5c-.43.3-.68.39-.89.12s0-.39.38-.64h0c-.33.29-.95.43-1.15.11s.68-.7,1.15-1.07a5.77,5.77,0,0,0,1.5-1.9,1.23,1.23,0,0,0,.11-.73,9.3,9.3,0,0,1-1.26.81c-.63.26-.66-.07-.59-.24A2.67,2.67,0,0,1,1173.85,373.2Z" style="fill: #f9bfa2"/>
          <ellipse cx="1137" cy="430.88" rx="11.04" ry="1.59" style="fill: #316293"/>
          <path d="M1144.34,424c.18.21,1.51,3.44.42,4.66s-1.77-.14-1.45-.64-2.4-2.21-2.38-2.88S1142.66,422,1144.34,424Z" style="fill: #e2c9af"/>
          <path d="M1129.36,410c1.14-.69,1.82,3.15,1.82,3.15l-1.15-.47a2,2,0,0,1-1.15.5C1128.18,413.31,1128.22,410.73,1129.36,410Z" style="fill: #842157"/>
          <path d="M1130.77,427.13c-.15.25-2.77,2.56-4.29,1.94s-.45-1.72.14-1.58,1.31-3,2-3.18S1132.15,424.9,1130.77,427.13Z" style="fill: #e2c9af"/>
          <path d="M1124.5,413.8c.84-1.76,1.15-.28,1.77-.81a4.35,4.35,0,0,1,1.23-.76,1.36,1.36,0,0,1,1-.92c1-.46,3.59.92,3.59.92.74.53,1.53.79,1.72,1.46s.45,2.1.65,2.6c.35.93,2.09.9,3.57-.09a5.41,5.41,0,0,1,3.45-.7,2.94,2.94,0,0,0,.92-1.15c.57-.93-.25-.93-.25-1.75s.71-.47,1.94,1a1.14,1.14,0,0,1-.2,1.61.77.77,0,0,1-.21.14,5,5,0,0,1-1.22.57s1.63.76,1.89,3.76a8.6,8.6,0,0,1-2,6.44c0,.63,0,3.71-1.15,4.39s-1.39-.79-1-1.15a2.51,2.51,0,0,0-.43-1.68,15.85,15.85,0,0,1-6.54.29c0,1.15-.25,2.7-1,3.2-1.24.8-1.42-.72-1-1.08s-.85-2.13-1.15-3.07a2.91,2.91,0,0,1-1.25-.54,9.17,9.17,0,0,1-2-2.66c-.47-1.42,0-1.86-1.23-2.75a2.89,2.89,0,0,1-1-2.3.83.83,0,0,0-.07-.78A5.28,5.28,0,0,1,1124.5,413.8Z" style="fill: #efdcc5"/>
          <path d="M1125.29,412.6a5.48,5.48,0,0,0,1.15.14c.9-.46,1.14-1.28,1.32-.91A1.06,1.06,0,0,1,1127,413a1.25,1.25,0,0,1,.89.9c.09.33.47-.09,1.15-.43s1.56-.38,1.72.5a1.25,1.25,0,0,1-.16,1,5,5,0,0,1-.54.68.92.92,0,0,0-.46.63,1.93,1.93,0,0,1-.26,1.77,3.58,3.58,0,0,1-1.49.82,5.57,5.57,0,0,1-3.18.31c-.78-.23-.47-1.28-.47-1.28a4.45,4.45,0,0,1-.45-1.89A3.34,3.34,0,0,1,1125.29,412.6Z" style="fill: #842157"/>
          <path d="M1129.17,413.88c-.23.27-.25.58-.07.7a.67.67,0,0,0,.75-.29c.23-.27.25-.58.07-.7A.67.67,0,0,0,1129.17,413.88Z" style="fill: #000004"/>
          <path d="M1124.35,415.9a1.77,1.77,0,0,0,.31,1,.64.64,0,0,0,.77,0,1,1,0,0,0,.23-.18A1.65,1.65,0,0,0,1124.35,415.9Z" style="fill: #efdcc5"/>
          <path d="M1126.29,415.82a.76.76,0,0,1-1-.27,1.43,1.43,0,0,1-.21-1.15,2,2,0,0,1-.42.79.22.22,0,0,1-.19-.06,1.53,1.53,0,0,1-.16-.37,5.53,5.53,0,0,0,0,1.15,1.68,1.68,0,0,1,1.31.83,2,2,0,0,0,.44-.53A3.55,3.55,0,0,0,1126.29,415.82Z" style="fill: #f4749d"/>
          <path d="M1125.18,412.46a2.23,2.23,0,0,1,.8.23,2.31,2.31,0,0,1,1.27.87c.22.43-.33.64-.83.74l-1,.2a4,4,0,0,0-.5-.74,1.18,1.18,0,0,1-.33-.69.58.58,0,0,1,.54-.61Z" style="fill: #000004"/>
          <ellipse cx="1125.66" cy="413.21" rx="0.28" ry="0.67" transform="translate(175.15 1144.22) rotate(-57.72)" style="fill: #efdcc5"/>
          <path d="M1134,415.13a12.38,12.38,0,0,0,.08-1.72,1.75,1.75,0,0,0-.35-1.15c-.59-.47-1.48,1.15-1.48,1.15a.6.6,0,0,1,.69.27,4.11,4.11,0,0,1,.3,1C1133.37,415.36,1133.56,416,1134,415.13Z" style="fill: #842157"/>
          <path d="M1134.45,416.28l.83.63s-.46,2.83-4.52,4.6-4.5.91-4.5.91v-.75s1,.42,4.6-1.35S1134.45,416.28,1134.45,416.28Z" style="fill: #f97091"/>
          <ellipse cx="1129.39" cy="414.05" rx="0.22" ry="0.17" style="fill: #efdcc5"/>
          <ellipse cx="124.59" cy="430.4" rx="15.21" ry="1.56" style="fill: #81c3d3"/>
          <path d="M136.14,377.64s-.46,15.46-.46,19.26c0,1.47-1.88,18.48-2.23,21.71-.24,2.3-.3,2.8-.3,2.8l-.44,4.47,2.89,1.69a10.81,10.81,0,0,1,1.48.41.74.74,0,0,1,.61.5.89.89,0,0,1-.53.44,8.44,8.44,0,0,1-1.72.48l-2.94-.35-.52.06a2.42,2.42,0,0,1-1.5-.18,2.08,2.08,0,0,1-.24-1.15q0-.63,0-1.26s-.61-8.16-.77-10.53c-.34-5.23-.62-14.05-.57-17.32C129,395.22,126,378,126,378Z" style="fill: #f9b498"/>
          <path d="M129.1,377.33s-1.14,14.95-1.77,17.72a90.58,90.58,0,0,1-6.18,16.63c-.64,1.31-2.19,4.29-3.53,7.22l-1.15,2.54-1.84,4,2.2,2.57a11.13,11.13,0,0,1,1.27.89.75.75,0,0,1,.43.68.87.87,0,0,1-.63.24,8.93,8.93,0,0,1-1.79-.12l-2.68-1.31-.51-.11a2.51,2.51,0,0,1-1.36-.67,2,2,0,0,1,.13-1.15c.13-.39.28-.77.45-1.15,0,0,2-10.22,2.62-12.52,1.33-5.07,3.19-8.33,5.66-17.6.4-1.45-.62-16.6-.62-16.6Z" style="fill: #f9bfa2"/>
          <path d="M129.5,429.26a.92.92,0,0,0,.39.21,29.8,29.8,0,0,0,5.34.39c3.05.08,4-.51,4.16-.6h0a5.68,5.68,0,0,1,0,1,1.73,1.73,0,0,1-1.15.63c-.32.11-3.85.13-3.84.11h-3.71a2.47,2.47,0,0,1-1.25-.31Z" style="fill: #e8eaea"/>
          <path d="M139.24,429.05s-.93.65-4,.57a37.46,37.46,0,0,1-5.18-.35,1.13,1.13,0,0,1-.39-.17l.42-2.37a.57.57,0,0,1,.42.1.7.7,0,0,1,.38.67l.14.15a1.14,1.14,0,0,0,1.24.24,1,1,0,0,0,.81-.66l-.14-.25a.75.75,0,0,1,0-.62,1.23,1.23,0,0,1,.41-.81l.54.62a.37.37,0,0,1,.23.1c0,.07,2.3,1.47,2.37,1.54a4.44,4.44,0,0,0,.71.21,7.83,7.83,0,0,1,1.46.26,1.1,1.1,0,0,1,.71.74Z" style="fill: #f97091"/>
          <path d="M110.5,427.23a1.22,1.22,0,0,0,.31.33,28.83,28.83,0,0,0,4.92,2.19c2.86,1.15,4,.9,4.13.87h0a5.31,5.31,0,0,1-.29,1s-.1.22-1.32.19a27.77,27.77,0,0,1-3.65-1.22c-1.5-.5-3-1.08-3.45-1.3a2.54,2.54,0,0,1-1.1-.73Z" style="fill: #e8eaea"/>
          <path d="M119.87,430.36s-1.08.29-4-.85a36.62,36.62,0,0,1-4.77-2.08,1.3,1.3,0,0,1-.32-.3l1.15-2.1a.58.58,0,0,1,.37.24.73.73,0,0,1,.15.76l.09.18a1.2,1.2,0,0,0,1.15.65,1,1,0,0,0,1-.37v-.26a.79.79,0,0,1,.16-.6,1.17,1.17,0,0,1,.66-.63l.31.77a.33.33,0,0,1,.18.17c0,.07,1.66,2.16,1.75,2.3a3.72,3.72,0,0,0,.61.43,9.16,9.16,0,0,1,1.29.74,1.14,1.14,0,0,1,.42.94Z" style="fill: #f97091"/>
          <path d="M135.61,428.32a.27.27,0,0,0,.35.13h0a.31.31,0,0,0,.14-.39.27.27,0,0,0-.35-.13h0A.31.31,0,0,0,135.61,428.32Z" style="fill: #fff"/>
          <path d="M134.8,428a.27.27,0,0,0,.34.14h0a.31.31,0,0,0,.14-.39.26.26,0,0,0-.35-.14h0A.3.3,0,0,0,134.8,428Z" style="fill: #fff"/>
          <path d="M134,427.51a.25.25,0,0,0,.34.14h0a.31.31,0,0,0,.14-.39.26.26,0,0,0-.35-.14h0A.32.32,0,0,0,134,427.51Z" style="fill: #fff"/>
          <path d="M136.31,427.51l-.33.73a.18.18,0,0,1-.07.08.17.17,0,0,1-.14,0,.19.19,0,0,1-.07-.22l.34-.72a.14.14,0,0,1,.19-.09h0A.17.17,0,0,1,136.31,427.51Z" style="fill: #f95873"/>
          <path d="M135.5,427.15l-.34.72a.13.13,0,0,1-.07.08.15.15,0,0,1-.13,0,.16.16,0,0,1-.07-.22l.33-.72a.15.15,0,0,1,.19-.09h0A.19.19,0,0,1,135.5,427.15Z" style="fill: #f95873"/>
          <path d="M134.65,426.71l-.34.72a.11.11,0,0,1-.07.08.11.11,0,0,1-.13,0,.16.16,0,0,1-.07-.22l.33-.72a.15.15,0,0,1,.19-.09h0A.19.19,0,0,1,134.65,426.71Z" style="fill: #f95873"/>
          <path d="M135.24,429.86c3.21.08,4.14-.58,4.19-.6l-.1-.25h0s-.94.64-4.05.56a37.45,37.45,0,0,1-5.18-.34,1,1,0,0,1-.39-.18.46.46,0,0,0-.18.16,1,1,0,0,0,.39.21A28.8,28.8,0,0,0,135.24,429.86Z" style="fill: #f95873"/>
          <path d="M116.62,428.42a.27.27,0,0,0,.31.24h0a.28.28,0,0,0,.25-.32.26.26,0,0,0-.28-.24h0A.3.3,0,0,0,116.62,428.42Z" style="fill: #fff"/>
          <path d="M116,427.78a.26.26,0,0,0,.3.24h0a.31.31,0,0,0,.25-.32.3.3,0,0,0-.31-.25h0A.28.28,0,0,0,116,427.78Z" style="fill: #fff"/>
          <path d="M115.33,427.09a.27.27,0,0,0,.28.24h0a.3.3,0,0,0,.26-.32.28.28,0,0,0-.31-.24h0A.3.3,0,0,0,115.33,427.09Z" style="fill: #fff"/>
          <path d="M117.54,427.89l-.54.58h-.09a.15.15,0,0,1-.13,0,.17.17,0,0,1,0-.23l.54-.58a.14.14,0,0,1,.21,0h0A.17.17,0,0,1,117.54,427.89Z" style="fill: #f95873"/>
          <path d="M116.9,427.26l-.55.57h-.09a.13.13,0,0,1-.12,0,.17.17,0,0,1,0-.23l.54-.57a.15.15,0,0,1,.21,0h0A.2.2,0,0,1,116.9,427.26Z" style="fill: #f95873"/>
          <path d="M116.25,426.57l-.54.58h-.09a.29.29,0,0,1-.13,0,.17.17,0,0,1,0-.23l.54-.58a.15.15,0,0,1,.21,0h0A.17.17,0,0,1,116.25,426.57Z" style="fill: #f95873"/>
          <path d="M115.78,429.74c3,1.15,4.09.87,4.14.85v-.27h0s-1.08.29-4-.85a38.87,38.87,0,0,1-4.77-2.08,1,1,0,0,1-.32-.3.34.34,0,0,0-.22.09,1.08,1.08,0,0,0,.31.33A28.85,28.85,0,0,0,115.78,429.74Z" style="fill: #f95873"/>
          <path d="M133.58,336s1.15,2.18,2.07,4.41c1.15,2.62,3,5.84,4.16,5.91.78,0,5.39-4.95,5.39-4.95,1.9-2,3.69-4.06,4.7-5.23a1,1,0,0,1-.09-.21,3.06,3.06,0,0,1-.13-1.67,3.65,3.65,0,0,1,1.15-1.4,3,3,0,0,1,.74-.68c.16,0,.56.07.25.63s-1.08.95-1.15,1.24.31.44,1.08.11a6.37,6.37,0,0,0,1.91-1.29c.39-.44.75-1.08,1-.92s0,.63-.13.9a1.82,1.82,0,0,1-.36.42.21.21,0,0,1,.29,0,.19.19,0,0,1,0,.12.58.58,0,0,1-.33.65.35.35,0,0,1,.31.33.44.44,0,0,0-.27.56.57.57,0,0,0,.12.18,1.13,1.13,0,0,1-.6.65,14.45,14.45,0,0,1-2.3,1h-.07c-.74,1.26-6.83,11.09-8.62,12.91a8.09,8.09,0,0,1-2.88,2.1,3.35,3.35,0,0,1-3-.86c-4.13-3.11-7.75-13.06-7.75-13.06Z" style="fill: #f9b498"/>
          <path d="M150.74,336.33l2.08-7.23a.76.76,0,0,1,.57-.52l3.35-.27a.22.22,0,0,1,.16,0,1.13,1.13,0,0,1,.26.23.44.44,0,0,1,0,.32l-2.08,7.23a.87.87,0,0,1-.22.35.66.66,0,0,1-.35.16l-3.35.27a.25.25,0,0,1-.17,0,1.64,1.64,0,0,1-.25-.21A.74.74,0,0,1,150.74,336.33Z" style="fill: #315892"/>
          <path d="M150.74,336.33a.3.3,0,0,0,.11.41.28.28,0,0,0,.18,0l3.36-.27A.74.74,0,0,0,155,336l2.08-7.23a.3.3,0,0,0-.11-.41.27.27,0,0,0-.18,0l-3.35.27a.76.76,0,0,0-.57.52Z" style="fill: #646877"/>
          <polygon points="151.11 335.84 154.82 335.54 156.72 328.93 153.01 329.23 151.11 335.84" style="fill: #85daff"/>
          <path d="M154.79,328.84a.11.11,0,0,0,.06.15h0a.28.28,0,0,0,.21-.2.11.11,0,0,0,0-.15l-.06,0A.25.25,0,0,0,154.79,328.84Z" style="fill: #95b6e0"/>
          <path d="M152.18,336.13a.08.08,0,0,0,0,.12.07.07,0,0,0,.06,0l1-.08a.2.2,0,0,0,.17-.16h0a.09.09,0,0,0,0-.12.07.07,0,0,0-.06,0l-1.05.08a.2.2,0,0,0-.17.16Z" style="fill: #95b6e0"/>
          <path d="M110.5,337.9a23.6,23.6,0,0,0,3.28-5.1c.46-1.2-.62-2.56-.56-3.95a6.67,6.67,0,0,1,2.57-4.88c1.62-1.46,3.66-2.67,5-4.59.36-.56-.15-1.35-.12-2.05a8.41,8.41,0,0,1,8.68-8.14h.28c4.47.2,7.45,3.68,7.23,8.84-.16,4-4.06,5.46-5.59,8.51-.46.9.37,2,.32,3.1-.1,2.49-2.17,4.12-2.86,6.19a4.27,4.27,0,0,0-.19.86c-.26,2.17.7,6.77.6,9.1a8.26,8.26,0,0,1-1.69,5.08c-5.18,4.12-11.28,2.14-14.77-2.05A10.86,10.86,0,0,1,110.5,337.9Z" style="fill: #721c53"/>
          <path d="M119.47,383.52l.09-9.44a20.42,20.42,0,0,1-1.24-6.83,31.93,31.93,0,0,1,1.05-6.14,47,47,0,0,1,1.72-5.31l13.8-3.31.54,8.88.33,5.1c.5,5.62.37,8,.54,12.3,0,1,.07,2,.11,3A59.69,59.69,0,0,1,119.47,383.52Z" style="fill: #0677b1"/>
          <path d="M122.69,361c3-3.78,8.16-4.94,12.23-7.11l-.08-1.37-13.79,3.31a47,47,0,0,0-1.73,5.31,31.93,31.93,0,0,0-1,6.14,20.18,20.18,0,0,0,1.25,6.83l0,9.43h3.13c-.39-2.82-.86-5.66,1.71-8.22C120,371.74,121.08,366,122.69,361Z" style="fill: url(#Degradado_sin_nombre_21-4)"/>
          <path d="M116,353.13V337.91a9.21,9.21,0,0,1,8.91-9.34,10.23,10.23,0,0,1,10.69,9.53,70.83,70.83,0,0,1,.59,11.18c-.1,1.59.33,3.31.06,4a2,2,0,0,1-1.7,1.38c-3,0-6.62.67-10.57,1C119.7,356.06,116,356,116,353.13Z" style="fill: #ad71c6"/>
          <path d="M116,337.71a9.41,9.41,0,0,1,1.41.22V338c.88.26,1.76.5,2.64.73s2.73,1.15,3.16-.07c.19-.55.13-1.48,1-1.44a9.4,9.4,0,0,1-1.15,4.31c.48-.48,1-.07.53.45-.81.7-1.66.87-2,1.85s-.75,1.72-1,2.61a9.29,9.29,0,0,0,.49,6.06c.7,1.59,2.55,2.5,4.72,3l-1.85.18c-4.31.38-8,.36-8-2.55V337.92C116,337.85,116,337.78,116,337.71Z" style="fill: #995db5"/>
          <path d="M124.77,329l.78-7.8,3.09,3.59s.63,4.13.57,4.71c.08.24.42.83.7,1.42a7.76,7.76,0,0,1,.68,1.87c0,.64.07,1.4-.58,1.41a6.62,6.62,0,0,1-2.56-1.84c-.74-.88-2.68-3.37-2.68-3.37h0Z" style="fill: #f9b498"/>
          <path d="M125.94,316.85h.16c1-2.38,2.86-3.88,4.6-3.52a3.62,3.62,0,0,1,2.72,1.78c.71,1.32.56,3.23.16,5.32a15,15,0,0,1-1.8,4.25c-.64,1.15-1,1.7-2.17,1.46a4.44,4.44,0,0,1-2.18-1.34,7.14,7.14,0,0,1-2-5.09h0a1.14,1.14,0,0,1-.55-.3,1.5,1.5,0,0,1-.39-1.37,1.78,1.78,0,0,1,.5-1.15A1,1,0,0,1,125.94,316.85Z" style="fill: #f9bfa2"/>
          <path d="M115.39,343.85a35.16,35.16,0,0,1,1.38-6.16l5.75,1.81a23.35,23.35,0,0,0-1.15,3.26,52,52,0,0,0-1.82,6.74A82.06,82.06,0,0,0,118.4,361c0,3.94.28,8.56.43,10.83l.22.1a3,3,0,0,1,1.32,1.15,4,4,0,0,1,.15,1.95,3.83,3.83,0,0,1,0,1.07c-.08.16-.46.39-.65-.27s.09-1.52,0-1.81-.55-.07-.86.76a6.89,6.89,0,0,0-.46,2.42c0,.63.24,1.37-.07,1.46s-.49-.43-.55-.76h0a1.13,1.13,0,0,1-.2,1c-.31,0-.41-.49-.44-1a.86.86,0,0,1-.22.72,1.39,1.39,0,0,1-.37-1.33c0,.18-.1.31-.21.29-.54-.11-.11-2.37-.11-2.37a15.63,15.63,0,0,1,1-2.58v-.06a103.34,103.34,0,0,1-2.72-18.93A72.25,72.25,0,0,1,115.39,343.85Z" style="fill: #f9bfa2"/>
          <path d="M116.19,337.35l6.59,1.95.5-2.83a.23.23,0,0,1,.27-.19.24.24,0,0,1,.2.27l-.34,1.89.39-.53a.24.24,0,0,1,.33,0h0a.25.25,0,0,1,0,.34l-1,1.27-.31.49-6.9-2Z" style="fill: #995db5"/>
        </g>
      </g>
    </g>
  </g>
</svg>
