<svg xmlns="http://www.w3.org/2000/svg" xmlns:xlink="http://www.w3.org/1999/xlink" width="1353.9" height="712" viewBox="0 0 1353.9 712">
  <defs>
    <clipPath id="clip-path">
      <path d="M69.41,261.32c-24.4,35.4-21,62-21,62,2.9,22.5,18,52,18,52s-24,32-24,56c0,115,326,276,678,276,306.4,0,575.2-119,575.2-182,0-37.6-76.2-55-76.2-99,0-50.8,76.3-64.4,90-124,13.8-59.8-44.6-120.6-68-145-48.4-50.5-153-129.8-410-145C352.51-16,95.91,222.92,69.41,261.32Z" style="fill: none"/>
    </clipPath>
  </defs>
  <title>calle3</title>
  <g id="Capa_3" data-name="Capa 3">
    <g style="clip-path: url(#clip-path)">
      <g style="opacity: 0.200000002980232">
        <path d="M1226.7,503h57.2a99.6,99.6,0,0,0-9.3-9h-47.9v9Z" style="fill: #33b1dd"/>
        <path d="M1226.7,512.85h64.2a47.35,47.35,0,0,0-6.3-9h-57.9v9Z" style="fill: #33b1dd"/>
        <path d="M1226.7,483.25h34.5c-3.9-3-7.9-6-11.8-9h-22.8v9Z" style="fill: #33b1dd"/>
        <path d="M1226.7,522.65h67.5a32.64,32.64,0,0,0-2.9-9h-64.6Z" style="fill: #33b1dd"/>
        <path d="M719.3,708.75c306.4,0,575.2-119,575.2-182,0-1.1-.1-2.2-.2-3.2H1224v-.4h-.2v-65.4h7.3c-7.7-8.7-12.9-18.4-12.9-29.9,0-32.5,31.1-49.8,57.2-73.6v-9.2c0-2.4,1.5-4.4,3.5-4.4s3.5,2,3.5,4.4v2.6a110.56,110.56,0,0,0,16.9-21.5h-.3v-18c0-2.4,1.5-4.4,3.5-4.4s3.5,2,3.5,4.4v3.9c.9-2.6,1.7-5.4,2.4-8.2a81.38,81.38,0,0,0,1.8-25.5v3.5h-13v-19.5h-23v19.5h-17.7v87.7h-36.3v-30.2h-13.1v-77h-11.7V237h-2.7v25.4H1182v-10.9h-20.2v10.9h-19.9V317h-14.1v-10.7h-43.3V317h-11.9v-22.9h-4V317h-11.9v78.8h-35.1v-114h-3.5l-9.9-9.1v-21.3l-7.3-6.1c0-6.6-3.7-12.1-8.5-13.3v-30.5a2,2,0,1,0-3.8,0V232c-4.9,1.2-8.5,6.6-8.5,13.3l-7.3,6.1v21.3l-9.9,9.1h-4.1v113.9h-7.7v1.6H817.7v16.3H951.1v.4H817.7v15.1H951.1v.4H817.7v14.7H951.1v.4H817.7v89H816v-193c-17.8-16.7-36.3-32.8-53.8-49.8v-24.4H745.9v-7.5H679.3v7.5H663v39.8H647v10.7H632.9v-54.6H616.7v-87.6l-3.4-11.5-.5,31.4v9.8l-54.3,34.8-.4,100.1h-3.5v30.2h-1.9v-4.8H540.2v-66.3l-5.7-8.1h-5.6v-6.7l-18.2-36.5v36.7l-19.4-.1v6.7h-5.6l-5.7,8.1v66.3H467.2l-9.6,4.8v66.6H431.9v-66.6H387.7v-30.2H374.6v-4.8h-65v-1.2h65v-7.8h-65v-1.2h65v-7.8h-65v-1.2h65v-7.8h-65v-1.2h65v-7.8h-65v-1.2h65v-7.8h-65v-1.2h65v-7.8h-65v-1.2h65v-7.8h-65v-1.2h65v-8H362.9V237h-2.7v25.4H349.5v-10.9H329.3v10.9H309.4V317H295.3v-10.7H252V317H240.1v-22.9h-4V317H224.2l-16.1,78.8h-19v-114l-3.5-9.1h-9.9v-21.3l-7.3-6.1c0-6.6-3.7-12.1-8.5-13.3v-30.5c0-1.4-.8-2.5-1.9-2.5a2.29,2.29,0,0,0-1.9,2.5V232c-4.9,1.2-8.5,6.6-8.5,13.3l-7.3,6.1v21.3h-9.9l-4.1,9.1v113.9H110.9v-35.8H98.7v-43H80.8V298H77.2v18.9H68.8v-16.6H52.9v16.6H47.3a40.41,40.41,0,0,0,0,7.9c2.9,22.5,18,52,18,52s-15.9,21.2-21.8,42v30.7C72.4,562.75,384,708.75,719.3,708.75Zm257.6-455.5h27v.9h-27Zm0,5.1h27v.9h-27Zm0,5h27v.9h-27Zm0,5.1h27v.9h-27Zm0,5.1h27v.9h-27ZM963.6,289H977v-.1h27v.1h13.4v1.2H963.7V289Zm0,6.4h53.7v1.2H963.6Zm0,6.5h53.7v1.2H963.6Zm0,6.5h53.7v1.2H963.6Zm0,6.5h53.7v1.2H963.6Zm0,6.5h53.7v1.2H963.6Zm0,6.5h53.7v1.2H963.6Zm0,6.5h53.7v1.2H963.6Zm0,6.5h53.7v1.2H963.6Zm0,6.5h53.7v1.2H963.6ZM874,465.15H985.4v.9H875v10.6H985.1v.9H875v10.6H984.8v.9H875v10.6H984.6v.9H875v10.6H984.3v.9H875v10.6H984.1v.9H874Zm-75.5-115.1h3.8v19.5h-3.8Zm0,84.2h3.8v19.5h-3.8ZM779,386h3.8v19.5H779Zm0,48.5h3.8V454H779Zm-10.8-108.6H772v19.5h-3.8Zm-97.1-48.7h81.5v4.3H671.1Zm0,9.7h81.5v4.3H671.1Zm0,9.7h81.5v4.3H671.1Zm0,9.8h81.5v4.3H671.1Zm0,9.7h81.5v4.3H671.1Zm0,9.8h81.5v4.3H671.1Zm0,9.7h81.5v4.3H671.1Zm0,9.7h81.5v4.3H671.1Zm0,9.8h81.5v4.3H671.1Zm0,9.7h81.5v4.3H671.1Zm0,9.7h81.5v4.3H671.1Zm0,9.8h81.5v4.3H671.1Zm0,9.7h81.5v4.3H671.1Zm0,9.7h81.5V408H671.1Zm0,9.8h81.5v4.3H671.1Zm0,9.7h81.5v4.3H671.1Zm0,9.7h81.5v4.3H671.1Zm0,9.8h81.5V447H671.1Zm0,9.7h81.5v4.3H671.1Zm0,9.7h81.5v4.3H671.1Zm0,9.8h81.5v4.3H671.1Zm0,9.7h81.5v4.3H671.1Zm0,9.7h81.5v4.3H671.1Zm0,9.8h81.5v4.3H671.1ZM563.7,241.55h45.7v3.5H563.7Zm0,11.4h45.7v3.5H563.7Zm0,11.4h45.7v3.5H563.7Zm0,11.3h45.7v3.5H563.7Zm0,11.4h45.7v3.5H563.7Zm0,11.4h45.7V302H563.7Zm0,11.4h45.7v3.5H563.7Zm0,11.3h45.7v3.5H563.7Zm0,11.4h45.7v3.5H563.7Zm0,11.4h45.7v3.5H563.7Zm0,11.4h45.7v3.5H563.7Zm0,11.3h45.7v3.5H563.7Zm0,11.4h45.7v3.5H563.7Zm0,11.4h45.7V393H563.7Zm0,11.4h45.7v3.5H563.7Zm0,11.3h45.7v3.5H563.7Zm0,11.4h45.7v3.5H563.7Zm0,11.4h45.7v3.5H563.7Zm0,11.3h45.7v3.5H563.7Zm0,11.4h45.7v3.5H563.7Zm0,11.4h45.7v3.5H563.7Zm0,11.4h45.7V484H563.7Zm0,11.3h45.7v3.5H563.7Zm0,11.4h45.7v3.5H563.7Zm-36.5-199.7h4.5v19.7h-4.5Zm0,29.1h4.5v19.7h-4.5Zm-10-29.1h4.5v19.7h-4.5Zm0,29.1h4.5v19.7h-4.5Zm-10-29.1h4.5v19.7h-4.5Zm0,29.1h4.5v19.7h-4.5Zm-10-29.1h4.5v19.7h-4.5Zm0,29.1h4.5v19.7h-4.5Zm-10-29.1h4.5v19.7h-4.5Zm0,29.1h4.5v19.7h-4.5Zm-177.6,9.8h65v1.2h-65Zm0,9h65v1.2h-65Zm0,9h65v1.2h-65Zm0,9h65v1.2h-65Zm0,9.1h65v1.2h-65Zm-29.3-65.1h4.6V334h-4.6Zm-21.2,15.4h4.6v20.6h-4.6Zm-92.5-17.4H171v17.3h-4.4Zm-18.9,26.7h4.4v17.3h-4.4Zm-8.3-48.2h4.4v17.3h-4.4Z" style="fill: #33b1dd"/>
        <polygon points="867.9 247.05 870.9 247.05 870.9 394.25 874 394.25 874 252.85 876.9 252.85 876.9 394.25 880 394.25 880 258.55 882.9 258.55 882.9 394.25 886 394.25 886 264.35 888.9 264.35 888.9 394.25 892 394.25 892 270.05 895 270.05 895 394.25 898.1 394.25 898.1 275.85 901 275.85 901 394.25 943.3 394.25 943.3 359.85 931.2 359.85 931.2 316.85 913.9 316.85 913.9 286.05 903.5 272.95 903.5 258.35 886.1 241.05 878.7 234.65 867.5 234.65 867.5 207.75 865.4 207.75 865.4 234.65 863.6 234.65 863.6 241.05 858.3 241.05 858.3 316.85 843.6 316.85 843.6 359.85 835.6 359.85 831.4 359.85 831.4 394.25 867.9 394.25 867.9 247.05" style="fill: #33b1dd"/>
        <path d="M1226.7,473.45h21.8c-4.1-3.3-8.1-6.6-11.7-10.1h-10v10.1Z" style="fill: #33b1dd"/>
        <path d="M1226.7,493.15h46.9c-3.6-3-7.4-6-11.3-9h-35.6Z" style="fill: #33b1dd"/>
        <path d="M1302.5,303.65c-1.9,0-3.5,2-3.5,4.4v18h.3a82.71,82.71,0,0,0,6.6-14.1v-3.9C1305.9,305.65,1304.4,303.65,1302.5,303.65Z" style="fill: #b0e0f7"/>
        <path d="M1279,340.65c-1.9,0-3.5,2-3.5,4.4v9.2c2.4-2.1,4.7-4.4,6.9-6.6v-2.6C1282.4,342.55,1280.9,340.65,1279,340.65Z" style="fill: #b0e0f7"/>
        <path d="M1223.9,457.65v65.4h.2v.4h70.3c0-.3-.1-.5-.1-.8h-67.5v-9h64.6c-.1-.3-.3-.5-.4-.8h-64.2v-9h57.9c-.2-.3-.5-.5-.7-.8h-57.2v-9h47.9c-.3-.3-.6-.5-.9-.8h-46.9v-9h35.6c-.3-.3-.7-.5-1-.8H1227v-9h22.8c-.3-.3-.7-.5-1-.8H1227v-10.1h10c-2-1.9-3.8-3.8-5.6-5.7h-7.5Z" style="fill: #b0e0f7"/>
        <polygon points="984.1 523.05 875 523.05 875 512.35 984.4 512.35 984.4 511.45 875 511.45 875 500.85 984.6 500.85 984.6 499.85 875 499.85 875 489.25 984.9 489.25 984.9 488.25 875 488.25 875 477.65 985.1 477.65 985.1 476.75 875 476.75 875 466.05 985.4 466.05 985.4 465.15 875 465.15 874 465.15 874 523.95 984.1 523.95 984.1 523.05" style="fill: #b0e0f7"/>
        <rect x="563.7" y="241.55" width="45.7" height="3.5" style="fill: #b0e0f7"/>
        <rect x="563.7" y="252.95" width="45.7" height="3.5" style="fill: #b0e0f7"/>
        <rect x="563.7" y="264.35" width="45.7" height="3.5" style="fill: #b0e0f7"/>
        <rect x="563.7" y="275.65" width="45.7" height="3.5" style="fill: #b0e0f7"/>
        <rect x="563.7" y="287.05" width="45.7" height="3.5" style="fill: #b0e0f7"/>
        <rect x="563.7" y="298.45" width="45.7" height="3.5" style="fill: #b0e0f7"/>
        <rect x="563.7" y="309.85" width="45.7" height="3.5" style="fill: #b0e0f7"/>
        <rect x="563.7" y="321.15" width="45.7" height="3.5" style="fill: #b0e0f7"/>
        <rect x="563.7" y="332.55" width="45.7" height="3.5" style="fill: #b0e0f7"/>
        <rect x="563.7" y="343.95" width="45.7" height="3.5" style="fill: #b0e0f7"/>
        <rect x="563.7" y="355.35" width="45.7" height="3.5" style="fill: #b0e0f7"/>
        <rect x="563.7" y="366.65" width="45.7" height="3.5" style="fill: #b0e0f7"/>
        <rect x="563.7" y="378.05" width="45.7" height="3.5" style="fill: #b0e0f7"/>
        <rect x="563.7" y="389.45" width="45.7" height="3.5" style="fill: #b0e0f7"/>
        <rect x="563.7" y="400.85" width="45.7" height="3.5" style="fill: #b0e0f7"/>
        <rect x="563.7" y="412.15" width="45.7" height="3.5" style="fill: #b0e0f7"/>
        <rect x="563.7" y="423.55" width="45.7" height="3.5" style="fill: #b0e0f7"/>
        <rect x="563.7" y="434.95" width="45.7" height="3.5" style="fill: #b0e0f7"/>
        <rect x="563.7" y="446.25" width="45.7" height="3.5" style="fill: #b0e0f7"/>
        <rect x="563.7" y="457.65" width="45.7" height="3.5" style="fill: #b0e0f7"/>
        <rect x="563.7" y="469.05" width="45.7" height="3.5" style="fill: #b0e0f7"/>
        <rect x="563.7" y="480.45" width="45.7" height="3.5" style="fill: #b0e0f7"/>
        <rect x="563.7" y="491.75" width="45.7" height="3.5" style="fill: #b0e0f7"/>
        <rect x="563.7" y="503.15" width="45.7" height="3.5" style="fill: #b0e0f7"/>
        <rect x="671.1" y="277.15" width="81.5" height="4.3" style="fill: #b0e0f7"/>
        <rect x="671.1" y="286.85" width="81.5" height="4.3" style="fill: #b0e0f7"/>
        <rect x="671.1" y="296.55" width="81.5" height="4.3" style="fill: #b0e0f7"/>
        <rect x="671.1" y="306.35" width="81.5" height="4.3" style="fill: #b0e0f7"/>
        <rect x="671.1" y="316.05" width="81.5" height="4.3" style="fill: #b0e0f7"/>
        <rect x="671.1" y="325.85" width="81.5" height="4.3" style="fill: #b0e0f7"/>
        <rect x="671.1" y="335.55" width="81.5" height="4.3" style="fill: #b0e0f7"/>
        <rect x="671.1" y="345.25" width="81.5" height="4.3" style="fill: #b0e0f7"/>
        <rect x="671.1" y="355.05" width="81.5" height="4.3" style="fill: #b0e0f7"/>
        <rect x="671.1" y="364.75" width="81.5" height="4.3" style="fill: #b0e0f7"/>
        <rect x="671.1" y="374.45" width="81.5" height="4.3" style="fill: #b0e0f7"/>
        <rect x="671.1" y="384.25" width="81.5" height="4.3" style="fill: #b0e0f7"/>
        <rect x="671.1" y="393.95" width="81.5" height="4.3" style="fill: #b0e0f7"/>
        <rect x="671.1" y="403.65" width="81.5" height="4.3" style="fill: #b0e0f7"/>
        <rect x="671.1" y="413.45" width="81.5" height="4.3" style="fill: #b0e0f7"/>
        <rect x="671.1" y="423.15" width="81.5" height="4.3" style="fill: #b0e0f7"/>
        <rect x="671.1" y="432.85" width="81.5" height="4.3" style="fill: #b0e0f7"/>
        <rect x="671.1" y="442.65" width="81.5" height="4.3" style="fill: #b0e0f7"/>
        <rect x="671.1" y="452.35" width="81.5" height="4.3" style="fill: #b0e0f7"/>
        <rect x="671.1" y="462.05" width="81.5" height="4.3" style="fill: #b0e0f7"/>
        <rect x="671.1" y="471.85" width="81.5" height="4.3" style="fill: #b0e0f7"/>
        <rect x="671.1" y="481.55" width="81.5" height="4.3" style="fill: #b0e0f7"/>
        <rect x="671.1" y="491.25" width="81.5" height="4.3" style="fill: #b0e0f7"/>
        <rect x="671.1" y="501.05" width="81.5" height="4.3" style="fill: #b0e0f7"/>
        <rect x="892" y="270.05" width="2.9" height="124.2" style="fill: #b0e0f7"/>
        <rect x="898.1" y="275.85" width="2.9" height="118.4" style="fill: #b0e0f7"/>
        <rect x="886" y="264.35" width="2.9" height="129.9" style="fill: #b0e0f7"/>
        <rect x="867.9" y="247.05" width="2.9" height="147.2" style="fill: #b0e0f7"/>
        <rect x="880" y="258.55" width="2.9" height="135.7" style="fill: #b0e0f7"/>
        <rect x="874" y="252.85" width="2.9" height="141.4" style="fill: #b0e0f7"/>
        <polygon points="816 413.45 816 413.85 816 428.95 816 429.35 816 444.05 816 444.45 816 533.55 817.7 533.55 817.7 444.45 951.1 444.45 951.1 444.05 817.7 444.05 817.7 429.35 951.1 429.35 951.1 428.95 817.7 428.95 817.7 413.85 951.1 413.85 951.1 413.45 817.7 413.45 817.7 397.15 816 397.15 816 413.45" style="fill: #b0e0f7"/>
        <rect x="816" y="394.65" width="1.7" height="1" style="fill: #b0e0f7"/>
        <rect x="816" y="395.65" width="1.7" height="1.6" style="fill: #b0e0f7"/>
        <rect x="768.2" y="325.85" width="3.8" height="19.5" style="fill: #b0e0f7"/>
        <rect x="798.5" y="350.05" width="3.8" height="19.5" style="fill: #b0e0f7"/>
        <rect x="779" y="385.95" width="3.8" height="19.5" style="fill: #b0e0f7"/>
        <rect x="798.5" y="434.25" width="3.8" height="19.5" style="fill: #b0e0f7"/>
        <rect x="779" y="434.45" width="3.8" height="19.5" style="fill: #b0e0f7"/>
      </g>
    </g>
  </g>
</svg>
