<svg xmlns="http://www.w3.org/2000/svg" width="1267" height="545.6" viewBox="0 0 1267 545.6">
  <title>ciudad2</title>
  <g id="Capa_2" data-name="Capa 2">
    <g id="Capa_4" data-name="Capa 4">
      <g style="opacity: 0.200000002980232">
        <path d="M1183.2,339.8h57.2a99.6,99.6,0,0,0-9.3-9h-47.9v9Z" style="fill: #33b1dd"/>
        <path d="M1183.2,349.7h64.2a47.35,47.35,0,0,0-6.3-9h-57.9v9Z" style="fill: #33b1dd"/>
        <path d="M1183.2,320.1h34.5c-3.9-3-7.9-6-11.8-9h-22.8v9Z" style="fill: #33b1dd"/>
        <path d="M1183.2,359.5h67.5a32.64,32.64,0,0,0-2.9-9h-64.6Z" style="fill: #33b1dd"/>
        <path d="M675.8,545.6c306.4,0,575.2-119,575.2-182,0-1.1-.1-2.2-.2-3.2h-70.3V360h-.2V294.6h7.3c-7.7-8.7-12.9-18.4-12.9-29.9,0-32.5,31.1-49.8,57.2-73.6v-9.2c0-2.4,1.5-4.4,3.5-4.4s3.5,2,3.5,4.4v2.6a110.56,110.56,0,0,0,16.9-21.5h-.3V145c0-2.4,1.5-4.4,3.5-4.4s3.5,2,3.5,4.4v3.9c.9-2.6,1.7-5.4,2.4-8.2a81.38,81.38,0,0,0,1.8-25.5v3.5h-13V99.2h-23v19.5H1213v87.7h-36.3V176.2h-13.1v-77h-11.7V73.8h-2.7V99.2h-10.7V88.3h-20.2V99.2h-19.9v54.6h-14.1V143.1H1041v10.7h-11.9V130.9h-4v22.9h-11.9v78.8H978.1v-114h-3.5l-9.9-9.1V88.2l-7.3-6.1c0-6.6-3.7-12.1-8.5-13.3V38.3a2,2,0,1,0-3.8,0V68.8c-4.9,1.2-8.5,6.6-8.5,13.3l-7.3,6.1v21.3l-9.9,9.1h-4.1V232.5h-7.7v1.6H774.2v16.3H907.6v.4H774.2v15.1H907.6v.4H774.2V281H907.6v.4H774.2v89h-1.7v-193c-17.8-16.7-36.3-32.8-53.8-49.8V103.2H702.4V95.7H635.8v7.5H619.5V143h-16v10.7H589.4V99.1H573.2V11.5L569.8,0l-.5,31.4v9.8L515,76l-.4,100.1h-3.5v30.2h-1.9v-4.8H496.7V135.2l-5.7-8.1h-5.6v-6.7L467.2,83.9v36.7l-19.4-.1v6.7h-5.6l-5.7,8.1v66.3H423.7l-9.6,4.8V273H388.4V206.4H344.2V176.2H331.1v-4.8h-65v-1.2h65v-7.8h-65v-1.2h65v-7.8h-65v-1.2h65v-7.8h-65v-1.2h65v-7.8h-65v-1.2h65v-7.8h-65v-1.2h65v-7.8h-65v-1.2h65v-7.8h-65v-1.2h65v-8H319.4V73.8h-2.7V99.2H306V88.3H285.8V99.2H265.9v54.6H251.8V143.1H208.5v10.7H196.6V130.9h-4v22.9H180.7l-16.1,78.8h-19v-114l-3.5-9.1h-9.9V88.2l-7.3-6.1c0-6.6-3.7-12.1-8.5-13.3V38.3c0-1.4-.8-2.5-1.9-2.5a2.29,2.29,0,0,0-1.9,2.5V68.8c-4.9,1.2-8.5,6.6-8.5,13.3l-7.3,6.1v21.3H86.9l-4.1,9.1V232.5H67.4V196.7H55.2v-43H37.3V134.8H33.7v18.9H25.3V137.1H9.4v16.6H3.8a40.41,40.41,0,0,0,0,7.9c2.9,22.5,18,52,18,52S5.9,234.8,0,255.6v30.7C28.9,399.6,340.5,545.6,675.8,545.6ZM933.4,90.1h27V91h-27Zm0,5.1h27v.9h-27Zm0,5h27v.9h-27Zm0,5.1h27v.9h-27Zm0,5.1h27v.9h-27Zm-13.3,15.4h13.4v-.1h27v.1h13.4V127H920.2v-1.2Zm0,6.4h53.7v1.2H920.1Zm0,6.5h53.7v1.2H920.1Zm0,6.5h53.7v1.2H920.1Zm0,6.5h53.7v1.2H920.1Zm0,6.5h53.7v1.2H920.1Zm0,6.5h53.7v1.2H920.1Zm0,6.5h53.7v1.2H920.1Zm0,6.5h53.7v1.2H920.1Zm0,6.5h53.7v1.2H920.1ZM830.5,302H941.9v.9H831.5v10.6H941.6v.9H831.5V325H941.3v.9H831.5v10.6H941.1v.9H831.5V348H940.8v.9H831.5v10.6H940.6v.9H830.5ZM755,186.9h3.8v19.5H755Zm0,84.2h3.8v19.5H755Zm-19.5-48.3h3.8v19.5h-3.8Zm0,48.5h3.8v19.5h-3.8ZM724.7,162.7h3.8v19.5h-3.8ZM627.6,114h81.5v4.3H627.6Zm0,9.7h81.5V128H627.6Zm0,9.7h81.5v4.3H627.6Zm0,9.8h81.5v4.3H627.6Zm0,9.7h81.5v4.3H627.6Zm0,9.8h81.5V167H627.6Zm0,9.7h81.5v4.3H627.6Zm0,9.7h81.5v4.3H627.6Zm0,9.8h81.5v4.3H627.6Zm0,9.7h81.5v4.3H627.6Zm0,9.7h81.5v4.3H627.6Zm0,9.8h81.5v4.3H627.6Zm0,9.7h81.5v4.3H627.6Zm0,9.7h81.5v4.3H627.6Zm0,9.8h81.5v4.3H627.6Zm0,9.7h81.5v4.3H627.6Zm0,9.7h81.5V274H627.6Zm0,9.8h81.5v4.3H627.6Zm0,9.7h81.5v4.3H627.6Zm0,9.7h81.5v4.3H627.6Zm0,9.8h81.5V313H627.6Zm0,9.7h81.5v4.3H627.6Zm0,9.7h81.5v4.3H627.6Zm0,9.8h81.5v4.3H627.6ZM520.2,78.4h45.7v3.5H520.2Zm0,11.4h45.7v3.5H520.2Zm0,11.4h45.7v3.5H520.2Zm0,11.3h45.7V116H520.2Zm0,11.4h45.7v3.5H520.2Zm0,11.4h45.7v3.5H520.2Zm0,11.4h45.7v3.5H520.2Zm0,11.3h45.7v3.5H520.2Zm0,11.4h45.7v3.5H520.2Zm0,11.4h45.7v3.5H520.2Zm0,11.4h45.7v3.5H520.2Zm0,11.3h45.7V207H520.2Zm0,11.4h45.7v3.5H520.2Zm0,11.4h45.7v3.5H520.2Zm0,11.4h45.7v3.5H520.2Zm0,11.3h45.7v3.5H520.2Zm0,11.4h45.7v3.5H520.2Zm0,11.4h45.7v3.5H520.2Zm0,11.3h45.7v3.5H520.2Zm0,11.4h45.7V298H520.2Zm0,11.4h45.7v3.5H520.2Zm0,11.4h45.7v3.5H520.2Zm0,11.3h45.7v3.5H520.2Zm0,11.4h45.7v3.5H520.2ZM483.7,140.3h4.5V160h-4.5Zm0,29.1h4.5v19.7h-4.5Zm-10-29.1h4.5V160h-4.5Zm0,29.1h4.5v19.7h-4.5Zm-10-29.1h4.5V160h-4.5Zm0,29.1h4.5v19.7h-4.5Zm-10-29.1h4.5V160h-4.5Zm0,29.1h4.5v19.7h-4.5Zm-10-29.1h4.5V160h-4.5Zm0,29.1h4.5v19.7h-4.5Zm-177.6,9.8h65v1.2h-65Zm0,9h65v1.2h-65Zm0,9h65v1.2h-65Zm0,9h65v1.2h-65Zm0,9.1h65v1.2h-65Zm-29.3-65.1h4.6v20.6h-4.6Zm-21.2,15.4h4.6v20.6h-4.6Zm-92.5-17.4h4.4v17.3h-4.4Zm-18.9,26.7h4.4v17.3h-4.4Zm-8.3-48.2h4.4V144H95.9Z" style="fill: #33b1dd"/>
        <polygon points="824.4 83.9 827.4 83.9 827.4 231.1 830.5 231.1 830.5 89.7 833.4 89.7 833.4 231.1 836.5 231.1 836.5 95.4 839.4 95.4 839.4 231.1 842.5 231.1 842.5 101.2 845.4 101.2 845.4 231.1 848.5 231.1 848.5 106.9 851.5 106.9 851.5 231.1 854.6 231.1 854.6 112.7 857.5 112.7 857.5 231.1 899.8 231.1 899.8 196.7 887.7 196.7 887.7 153.7 870.4 153.7 870.4 122.9 860 109.8 860 95.2 842.6 77.9 835.2 71.5 824 71.5 824 44.6 821.9 44.6 821.9 71.5 820.1 71.5 820.1 77.9 814.8 77.9 814.8 153.7 800.1 153.7 800.1 196.7 792.1 196.7 787.9 196.7 787.9 231.1 824.4 231.1 824.4 83.9" style="fill: #33b1dd"/>
        <path d="M1183.2,310.3H1205c-4.1-3.3-8.1-6.6-11.7-10.1h-10v10.1Z" style="fill: #33b1dd"/>
        <path d="M1183.2,330h46.9c-3.6-3-7.4-6-11.3-9h-35.6Z" style="fill: #33b1dd"/>
        <path d="M1259,140.5c-1.9,0-3.5,2-3.5,4.4v18h.3a82.71,82.71,0,0,0,6.6-14.1v-3.9C1262.4,142.5,1260.9,140.5,1259,140.5Z" style="fill: #b0e0f7"/>
        <path d="M1235.5,177.5c-1.9,0-3.5,2-3.5,4.4v9.2c2.4-2.1,4.7-4.4,6.9-6.6v-2.6C1238.9,179.4,1237.4,177.5,1235.5,177.5Z" style="fill: #b0e0f7"/>
        <path d="M1180.4,294.5v65.4h.2v.4h70.3c0-.3-.1-.5-.1-.8h-67.5v-9h64.6c-.1-.3-.3-.5-.4-.8h-64.2v-9h57.9c-.2-.3-.5-.5-.7-.8h-57.2v-9h47.9c-.3-.3-.6-.5-.9-.8h-46.9v-9H1219c-.3-.3-.7-.5-1-.8h-34.5v-9h22.8c-.3-.3-.7-.5-1-.8h-21.8V300.4h10c-2-1.9-3.8-3.8-5.6-5.7h-7.5Z" style="fill: #b0e0f7"/>
        <polygon points="940.6 359.9 831.5 359.9 831.5 349.2 940.9 349.2 940.9 348.3 831.5 348.3 831.5 337.7 941.1 337.7 941.1 336.7 831.5 336.7 831.5 326.1 941.4 326.1 941.4 325.1 831.5 325.1 831.5 314.5 941.6 314.5 941.6 313.6 831.5 313.6 831.5 302.9 941.9 302.9 941.9 302 831.5 302 830.5 302 830.5 360.8 940.6 360.8 940.6 359.9" style="fill: #b0e0f7"/>
        <rect x="520.2" y="78.4" width="45.7" height="3.5" style="fill: #b0e0f7"/>
        <rect x="520.2" y="89.8" width="45.7" height="3.5" style="fill: #b0e0f7"/>
        <rect x="520.2" y="101.2" width="45.7" height="3.5" style="fill: #b0e0f7"/>
        <rect x="520.2" y="112.5" width="45.7" height="3.5" style="fill: #b0e0f7"/>
        <rect x="520.2" y="123.9" width="45.7" height="3.5" style="fill: #b0e0f7"/>
        <rect x="520.2" y="135.3" width="45.7" height="3.5" style="fill: #b0e0f7"/>
        <rect x="520.2" y="146.7" width="45.7" height="3.5" style="fill: #b0e0f7"/>
        <rect x="520.2" y="158" width="45.7" height="3.5" style="fill: #b0e0f7"/>
        <rect x="520.2" y="169.4" width="45.7" height="3.5" style="fill: #b0e0f7"/>
        <rect x="520.2" y="180.8" width="45.7" height="3.5" style="fill: #b0e0f7"/>
        <rect x="520.2" y="192.2" width="45.7" height="3.5" style="fill: #b0e0f7"/>
        <rect x="520.2" y="203.5" width="45.7" height="3.5" style="fill: #b0e0f7"/>
        <rect x="520.2" y="214.9" width="45.7" height="3.5" style="fill: #b0e0f7"/>
        <rect x="520.2" y="226.3" width="45.7" height="3.5" style="fill: #b0e0f7"/>
        <rect x="520.2" y="237.7" width="45.7" height="3.5" style="fill: #b0e0f7"/>
        <rect x="520.2" y="249" width="45.7" height="3.5" style="fill: #b0e0f7"/>
        <rect x="520.2" y="260.4" width="45.7" height="3.5" style="fill: #b0e0f7"/>
        <rect x="520.2" y="271.8" width="45.7" height="3.5" style="fill: #b0e0f7"/>
        <rect x="520.2" y="283.1" width="45.7" height="3.5" style="fill: #b0e0f7"/>
        <rect x="520.2" y="294.5" width="45.7" height="3.5" style="fill: #b0e0f7"/>
        <rect x="520.2" y="305.9" width="45.7" height="3.5" style="fill: #b0e0f7"/>
        <rect x="520.2" y="317.3" width="45.7" height="3.5" style="fill: #b0e0f7"/>
        <rect x="520.2" y="328.6" width="45.7" height="3.5" style="fill: #b0e0f7"/>
        <rect x="520.2" y="340" width="45.7" height="3.5" style="fill: #b0e0f7"/>
        <rect x="627.6" y="114" width="81.5" height="4.3" style="fill: #b0e0f7"/>
        <rect x="627.6" y="123.7" width="81.5" height="4.3" style="fill: #b0e0f7"/>
        <rect x="627.6" y="133.4" width="81.5" height="4.3" style="fill: #b0e0f7"/>
        <rect x="627.6" y="143.2" width="81.5" height="4.3" style="fill: #b0e0f7"/>
        <rect x="627.6" y="152.9" width="81.5" height="4.3" style="fill: #b0e0f7"/>
        <rect x="627.6" y="162.7" width="81.5" height="4.3" style="fill: #b0e0f7"/>
        <rect x="627.6" y="172.4" width="81.5" height="4.3" style="fill: #b0e0f7"/>
        <rect x="627.6" y="182.1" width="81.5" height="4.3" style="fill: #b0e0f7"/>
        <rect x="627.6" y="191.9" width="81.5" height="4.3" style="fill: #b0e0f7"/>
        <rect x="627.6" y="201.6" width="81.5" height="4.3" style="fill: #b0e0f7"/>
        <rect x="627.6" y="211.3" width="81.5" height="4.3" style="fill: #b0e0f7"/>
        <rect x="627.6" y="221.1" width="81.5" height="4.3" style="fill: #b0e0f7"/>
        <rect x="627.6" y="230.8" width="81.5" height="4.3" style="fill: #b0e0f7"/>
        <rect x="627.6" y="240.5" width="81.5" height="4.3" style="fill: #b0e0f7"/>
        <rect x="627.6" y="250.3" width="81.5" height="4.3" style="fill: #b0e0f7"/>
        <rect x="627.6" y="260" width="81.5" height="4.3" style="fill: #b0e0f7"/>
        <rect x="627.6" y="269.7" width="81.5" height="4.3" style="fill: #b0e0f7"/>
        <rect x="627.6" y="279.5" width="81.5" height="4.3" style="fill: #b0e0f7"/>
        <rect x="627.6" y="289.2" width="81.5" height="4.3" style="fill: #b0e0f7"/>
        <rect x="627.6" y="298.9" width="81.5" height="4.3" style="fill: #b0e0f7"/>
        <rect x="627.6" y="308.7" width="81.5" height="4.3" style="fill: #b0e0f7"/>
        <rect x="627.6" y="318.4" width="81.5" height="4.3" style="fill: #b0e0f7"/>
        <rect x="627.6" y="328.1" width="81.5" height="4.3" style="fill: #b0e0f7"/>
        <rect x="627.6" y="337.9" width="81.5" height="4.3" style="fill: #b0e0f7"/>
        <rect x="848.5" y="106.9" width="2.9" height="124.2" style="fill: #b0e0f7"/>
        <rect x="854.6" y="112.7" width="2.9" height="118.4" style="fill: #b0e0f7"/>
        <rect x="842.5" y="101.2" width="2.9" height="129.9" style="fill: #b0e0f7"/>
        <rect x="824.4" y="83.9" width="2.9" height="147.2" style="fill: #b0e0f7"/>
        <rect x="836.5" y="95.4" width="2.9" height="135.7" style="fill: #b0e0f7"/>
        <rect x="830.5" y="89.7" width="2.9" height="141.4" style="fill: #b0e0f7"/>
        <polygon points="772.5 250.3 772.5 250.7 772.5 265.8 772.5 266.2 772.5 280.9 772.5 281.3 772.5 370.4 774.2 370.4 774.2 281.3 907.6 281.3 907.6 280.9 774.2 280.9 774.2 266.2 907.6 266.2 907.6 265.8 774.2 265.8 774.2 250.7 907.6 250.7 907.6 250.3 774.2 250.3 774.2 234 772.5 234 772.5 250.3" style="fill: #b0e0f7"/>
        <rect x="772.5" y="231.5" width="1.7" height="1" style="fill: #b0e0f7"/>
        <rect x="772.5" y="232.5" width="1.7" height="1.6" style="fill: #b0e0f7"/>
        <rect x="724.7" y="162.7" width="3.8" height="19.5" style="fill: #b0e0f7"/>
        <rect x="755" y="186.9" width="3.8" height="19.5" style="fill: #b0e0f7"/>
        <rect x="735.5" y="222.8" width="3.8" height="19.5" style="fill: #b0e0f7"/>
        <rect x="755" y="271.1" width="3.8" height="19.5" style="fill: #b0e0f7"/>
        <rect x="735.5" y="271.3" width="3.8" height="19.5" style="fill: #b0e0f7"/>
      </g>
    </g>
  </g>
</svg>
