<svg id="le_dron" data-name="le dron" xmlns="http://www.w3.org/2000/svg" viewBox="0 0 285.36 54.32"><defs><style>.cls-1{fill:#5b6178;}.cls-2{fill:#323a56;}.cls-3{fill:#b4545e;}.cls-4{fill:#873f47;}.cls-5{fill:#b96085;}.cls-6{fill:#9f3556;}</style></defs><title>dron</title><polygon class="cls-1" points="129.36 35.17 54.8 29.1 54.8 21.38 129.36 24.47 129.36 35.17"/><path class="cls-2" d="M224.15,123.14l42-3.23h0a6.54,6.54,0,0,1-6.54,6.54H224.15v-3.31Z" transform="translate(-169.36 -117.36)"/><path class="cls-2" d="M211.36,123.14l-35.49-2.73a6.06,6.06,0,0,0-6.52,6h42v-3.31Z" transform="translate(-169.36 -117.36)"/><path class="cls-1" d="M48.4,2.55h0A7.42,7.42,0,0,1,55.82,10v2.35a0,0,0,0,1,0,0H41a0,0,0,0,1,0,0V10A7.42,7.42,0,0,1,48.4,2.55Z"/><rect class="cls-3" x="38.5" y="10.46" width="19.8" height="4.22"/><path class="cls-1" d="M39,20.39H57.81a0,0,0,0,1,0,0V38.45a3.74,3.74,0,0,1-3.74,3.74H42.74A3.74,3.74,0,0,1,39,38.45V20.39A0,0,0,0,1,39,20.39Z"/><rect class="cls-2" x="36.02" y="14.68" width="24.77" height="18.89"/><rect class="cls-1" x="36.02" y="21.72" width="24.77" height="4.8"/><polygon class="cls-1" points="156 35.17 230.56 29.1 230.56 21.38 156 24.47 156 35.17"/><path class="cls-2" d="M399.92,123.14l-35.49-2.73a6.06,6.06,0,0,0-6.52,6h42v-3.31Z" transform="translate(-169.36 -117.36)"/><path class="cls-2" d="M412.71,123.14l42-3.23h0a6.54,6.54,0,0,1-6.54,6.54H412.71v-3.31Z" transform="translate(-169.36 -117.36)"/><path class="cls-1" d="M398.9,119.91h14.83a0,0,0,0,1,0,0v2.35a7.42,7.42,0,0,1-7.42,7.42h0a7.42,7.42,0,0,1-7.42-7.42v-2.35A0,0,0,0,1,398.9,119.91Z" transform="translate(643.27 132.23) rotate(-180)"/><rect class="cls-3" x="396.41" y="127.81" width="19.8" height="4.22" transform="translate(643.27 142.49) rotate(180)"/><path class="cls-1" d="M400.65,137.75H412a3.74,3.74,0,0,1,3.74,3.74v18.06a0,0,0,0,1,0,0H396.91a0,0,0,0,1,0,0V141.49A3.74,3.74,0,0,1,400.65,137.75Z" transform="translate(643.27 179.94) rotate(180)"/><rect class="cls-2" x="393.93" y="132.03" width="24.77" height="18.89" transform="translate(643.27 165.6) rotate(180)"/><rect class="cls-1" x="393.93" y="139.08" width="24.77" height="4.8" transform="translate(643.27 165.6) rotate(180)"/><path class="cls-2" d="M138.45,0h8.45a22.37,22.37,0,0,1,22.37,22.37v0a0,0,0,0,1,0,0H116.08a0,0,0,0,1,0,0v0A22.37,22.37,0,0,1,138.45,0Z"/><rect class="cls-1" x="97.18" y="17.65" width="90.99" height="22.37" rx="3.03" ry="3.03"/><path class="cls-2" d="M266.54,154.34a3,3,0,0,0,3,3H354.5a3,3,0,0,0,3-3V141.92h-91v12.42Z" transform="translate(-169.36 -117.36)"/><path class="cls-1" d="M350.56,157.37H273.51a18.84,18.84,0,0,0,17.21,11.19h42.63a18.84,18.84,0,0,0,17.21-11.19h0Z" transform="translate(-169.36 -117.36)"/><polygon class="cls-2" points="150.38 40.02 134.97 40.02 135.97 51.2 149.39 51.2 150.38 40.02"/><path class="cls-1" d="M299.6,164.17h24.88V151.73A12.44,12.44,0,0,0,312,139.29h0a12.44,12.44,0,0,0-12.44,12.44v12.44Z" transform="translate(-169.36 -117.36)"/><circle class="cls-2" cx="142.68" cy="34.37" r="8.71"/><circle class="cls-3" cx="142.68" cy="34.37" r="6.06"/><circle class="cls-4" cx="141.02" cy="32.69" r="2.9"/><circle class="cls-4" cx="142.68" cy="37.28" r="1.41"/><path class="cls-3" d="M306.82,135h10.44v-4.23a5.22,5.22,0,0,0-5.22-5.22h0a5.22,5.22,0,0,0-5.22,5.22V135Z" transform="translate(-169.36 -117.36)"/><rect class="cls-2" x="192.29" y="26.52" width="1.99" height="4.77" rx="0.99" ry="0.99"/><path class="cls-2" d="M365.95,143.68h0a1,1,0,0,0-1,1v2.78a1,1,0,0,0,1,1h0a1,1,0,0,0,1-1v-2.78A1,1,0,0,0,365.95,143.68Z" transform="translate(-169.36 -117.36)"/><path class="cls-2" d="M369.26,143.48h0a1,1,0,0,0-1,1v2.78a1,1,0,0,0,1,1h0a1,1,0,0,0,1-1v-2.78A1,1,0,0,0,369.26,143.48Z" transform="translate(-169.36 -117.36)"/><path class="cls-2" d="M372.57,143.28h0a1,1,0,0,0-1,1v2.78a1,1,0,0,0,1,1h0a1,1,0,0,0,1-1v-2.78A1,1,0,0,0,372.57,143.28Z" transform="translate(-169.36 -117.36)"/><path class="cls-2" d="M261.43,143.88h0a1,1,0,0,1,1,1v2.78a1,1,0,0,1-1,1h0a1,1,0,0,1-1-1v-2.78A1,1,0,0,1,261.43,143.88Z" transform="translate(-169.36 -117.36)"/><path class="cls-2" d="M258.12,143.68h0a1,1,0,0,1,1,1v2.78a1,1,0,0,1-1,1h0a1,1,0,0,1-1-1v-2.78A1,1,0,0,1,258.12,143.68Z" transform="translate(-169.36 -117.36)"/><path class="cls-2" d="M254.81,143.48h0a1,1,0,0,1,1,1v2.78a1,1,0,0,1-1,1h0a1,1,0,0,1-1-1v-2.78A1,1,0,0,1,254.81,143.48Z" transform="translate(-169.36 -117.36)"/><path class="cls-2" d="M251.5,143.28h0a1,1,0,0,1,1,1v2.78a1,1,0,0,1-1,1h0a1,1,0,0,1-1-1v-2.78A1,1,0,0,1,251.5,143.28Z" transform="translate(-169.36 -117.36)"/><path class="cls-5" d="M277.48,140.64h-4.31a1.82,1.82,0,0,1-1.82-1.82h0a1.82,1.82,0,0,1,1.82-1.82h4.31a1.82,1.82,0,0,1,1.82,1.82h0A1.82,1.82,0,0,1,277.48,140.64Z" transform="translate(-169.36 -117.36)"/><circle class="cls-6" cx="104.03" cy="21.13" r="0.81"/><rect class="cls-2" x="49.08" y="47.46" width="67.27" height="3.31" rx="1.57" ry="1.57"/><path class="cls-1" d="M215,164.56v3.64a3.48,3.48,0,0,0,3.48,3.48h0a3.48,3.48,0,0,0,3.48-3.48v-3.64a3.48,3.48,0,0,0-3.48-3.48h0A3.48,3.48,0,0,0,215,164.56Z" transform="translate(-169.36 -117.36)"/><path class="cls-1" d="M230.32,164.56v3.64a3.48,3.48,0,0,0,3.48,3.48h0a3.48,3.48,0,0,0,3.48-3.48v-3.64a3.48,3.48,0,0,0-3.48-3.48h0A3.48,3.48,0,0,0,230.32,164.56Z" transform="translate(-169.36 -117.36)"/><rect class="cls-2" x="338.66" y="164.64" width="67.27" height="3.31" rx="1.57" ry="1.57" transform="translate(575.23 215.23) rotate(-180)"/><path class="cls-1" d="M409.41,168.2v-3.64a3.48,3.48,0,0,0-3.48-3.48h0a3.48,3.48,0,0,0-3.48,3.48v3.64a3.48,3.48,0,0,0,3.48,3.48h0A3.48,3.48,0,0,0,409.41,168.2Z" transform="translate(-169.36 -117.36)"/><path class="cls-1" d="M394,168.2v-3.64a3.48,3.48,0,0,0-3.48-3.48h0a3.48,3.48,0,0,0-3.48,3.48v3.64a3.48,3.48,0,0,0,3.48,3.48h0A3.48,3.48,0,0,0,394,168.2Z" transform="translate(-169.36 -117.36)"/></svg>