<?xml version="1.0" encoding="utf-8"?>
<!-- Generator: Adobe Illustrator 19.2.0, SVG Export Plug-In . SVG Version: 6.00 Build 0)  -->
<svg version="1.1" id="Capa_3" xmlns="http://www.w3.org/2000/svg" xmlns:xlink="http://www.w3.org/1999/xlink" x="0px" y="0px"
	 width="1353.9px" height="712px" viewBox="0 0 1353.9 712" style="enable-background:new 0 0 1353.9 712;" xml:space="preserve">
<style type="text/css">
	.st0{clip-path:url(#SVGID_2_);}
	.st1{fill:#92A37F;}
	.st2{fill:#323A56;}
	.st3{fill:#191D2B;}
	.st4{fill:#41516E;}
	.st5{fill:#CFD1D2;}
	.st6{fill:#DE594F;}
	.st7{fill:#DACA41;}
	.st8{fill:#85B3B3;}
	.st9{fill:url(#SVGID_3_);}
	.st10{fill:#999999;}
	.st11{fill:#B78677;}
	.st12{fill:#FFFFFF;}
	.st13{fill:#C577CE;}
	.st14{fill:#DFE7F0;}
	.st15{fill:url(#SVGID_4_);}
	.st16{fill:#6191C8;}
	.st17{fill:#283A56;}
	.st18{fill:#A570C4;}
	.st19{fill:#9960BA;}
	.st20{fill:#A6786C;}
	.st21{fill:#B1BFBF;}
	.st22{fill:#B4545E;}
	.st23{fill:#636363;}
	.st24{fill:#EAC753;}
	.st25{fill:#E5E5E5;}
	.st26{fill:#117086;}
	.st27{fill:#0B4452;}
	.st28{opacity:0.19;fill:#FFFFFF;enable-background:new    ;}
	.st29{fill:#1793B1;}
	.st30{opacity:0.48;fill:#F2F2F2;enable-background:new    ;}
	.st31{opacity:0.43;fill:#808080;enable-background:new    ;}
	.st32{opacity:0.5;fill:#803F47;enable-background:new    ;}
	.st33{fill:#E4EAF4;}
	.st34{fill:none;stroke:#84B0E4;stroke-width:4.5952;stroke-linecap:round;stroke-miterlimit:10;}
	.st35{opacity:0.6;fill:none;stroke:#FFFFFF;stroke-width:1.1488;stroke-miterlimit:10;enable-background:new    ;}
	.st36{fill:#B4545E;stroke:#D8B6BF;stroke-width:1.1488;stroke-miterlimit:10;}
	.st37{fill:#C660AC;}
	.st38{fill:#CC87C2;}
	.st39{fill:#57103C;}
	.st40{fill:#E29179;}
	.st41{fill:#EFDCC5;}
	.st42{fill:#FC609C;}
	.st43{fill:#FF8FC5;}
	.st44{opacity:0.7;}
	.st45{fill:#FCFCFC;}
	.st46{fill:url(#SVGID_7_);}
	.st47{fill:url(#SVGID_8_);}
	.st48{fill:url(#SVGID_9_);}
	.st49{fill:url(#SVGID_10_);}
	.st50{fill:url(#SVGID_11_);}
	.st51{fill:url(#SVGID_12_);}
	.st52{fill:url(#SVGID_13_);}
	.st53{fill:url(#SVGID_14_);}
	.st54{fill:url(#SVGID_15_);}
	.st55{fill:url(#SVGID_16_);}
	.st56{fill:url(#SVGID_17_);}
	.st57{fill:url(#SVGID_18_);}
</style>
<g>
	<g>
		<defs>
			<path id="SVGID_1_" d="M69.4,261.3c-24.4,35.4-21,62-21,62c2.9,22.5,18,52,18,52s-24,32-24,56c0,115,326,276,678,276
				c306.4,0,575.2-119,575.2-182c0-37.6-76.2-55-76.2-99c0-50.8,76.3-64.4,90-124c13.8-59.8-44.6-120.6-68-145
				c-48.4-50.5-153-129.8-410-145C352.5-16,95.9,222.9,69.4,261.3z"/>
		</defs>
		<clipPath id="SVGID_2_">
			<use xlink:href="#SVGID_1_"  style="overflow:visible;"/>
		</clipPath>
		<g class="st0">
			<path class="st1" d="M1028.8,339.3h68.2c3.6,0,6.5,2.9,6.5,6.5v193.5c0,3.6-2.9,6.5-6.5,6.5h-68.2c-3.6,0-6.5-2.9-6.5-6.5V345.8
				C1022.3,342.2,1025.2,339.3,1028.8,339.3z"/>
			<path class="st2" d="M1096,545.8h-63.8v61.6h63.8V545.8z"/>
			<path class="st3" d="M1096.1,606.1h-63.8v5.6h63.8V606.1z"/>
			<path class="st4" d="M1038.9,570.3c0,6.1,2.2,10.9,4.9,10.9h40.6c2.8,0,4.9-4.9,4.9-10.9V567H1039v3.2L1038.9,570.3z"/>
			<path class="st2" d="M1093.4,485.3c0,1-0.8,1.8-1.8,1.8h-18.2c-1,0-1.9-0.8-1.9-1.8v-21.1c0-1.1,0.9-2,1.9-2h18.1
				c1.1,0,2,0.9,1.9,2l0,0V485.3z"/>
			<path class="st5" d="M1079,466.6c0,0.7-0.5,1.4-1.3,1.4c0,0,0,0,0,0h-2.2c-0.7,0-1.4-0.6-1.4-1.3c0,0,0,0,0,0v-0.1l0,0
				c-0.1-0.7,0.5-1.4,1.3-1.5h2.2c0.7,0,1.4,0.6,1.4,1.3c0,0,0,0,0,0L1079,466.6L1079,466.6L1079,466.6z"/>
			<path class="st5" d="M1084.8,466.6c0,0.7-0.6,1.4-1.3,1.4h-2.2c-0.7,0-1.3-0.6-1.3-1.4v-0.1l0,0c-0.1-0.7,0.5-1.4,1.3-1.4
				c0,0,0,0,0,0h2.3c0.7,0,1.3,0.6,1.3,1.3c0,0,0,0,0,0L1084.8,466.6L1084.8,466.6L1084.8,466.6z"/>
			<path class="st5" d="M1090.6,466.6c0,0.7-0.5,1.4-1.3,1.4c0,0,0,0,0,0h-2.3c-0.7,0-1.3-0.6-1.3-1.4v-0.1l0,0
				c0-0.7,0.5-1.4,1.3-1.4h2.2C1090,465.2,1090.6,465.8,1090.6,466.6L1090.6,466.6L1090.6,466.6L1090.6,466.6z"/>
			<path class="st5" d="M1079,470.9c0,0.7-0.5,1.4-1.3,1.4c0,0,0,0,0,0h-2.2c-0.8,0-1.4-0.6-1.4-1.4v-0.1l0,0c0-0.7,0.5-1.4,1.3-1.4
				c0,0,0,0,0,0h2.2C1078.4,469.5,1079,470.1,1079,470.9C1079,470.8,1079,470.8,1079,470.9L1079,470.9L1079,470.9L1079,470.9z"/>
			<path class="st5" d="M1084.8,470.9c0,0.7-0.5,1.4-1.3,1.4c0,0,0,0,0,0h-2.2c-0.7,0-1.3-0.6-1.3-1.4v-0.1l0,0
				c0-0.7,0.5-1.4,1.3-1.4c0,0,0,0,0,0h2.3C1084.3,469.5,1084.9,470.1,1084.8,470.9C1084.9,470.8,1084.9,470.9,1084.8,470.9
				L1084.8,470.9L1084.8,470.9L1084.8,470.9z"/>
			<path class="st5" d="M1090.6,470.9c0,0.7-0.5,1.4-1.3,1.4c0,0,0,0,0,0h-2.2c-0.8,0-1.4-0.6-1.4-1.4c0,0,0,0,0-0.1l0,0
				c0-0.7,0.5-1.4,1.3-1.4c0,0,0,0,0,0h2.2C1090,469.5,1090.6,470.1,1090.6,470.9C1090.6,470.8,1090.6,470.8,1090.6,470.9
				L1090.6,470.9L1090.6,470.9L1090.6,470.9z"/>
			<path class="st5" d="M1079,475.2c0,0.7-0.5,1.4-1.3,1.4c0,0,0,0,0,0h-2.2c-0.7,0-1.4-0.6-1.4-1.3c0,0,0,0,0,0v-0.1l0,0
				c0-0.7,0.5-1.4,1.3-1.4c0,0,0,0,0,0h2.2c0.7-0.1,1.3,0.4,1.4,1.1C1079,475,1079,475.1,1079,475.2L1079,475.2L1079,475.2z"/>
			<path class="st5" d="M1084.8,475.2c0,0.7-0.5,1.4-1.3,1.4c0,0,0,0,0,0h-2.2c-0.7,0-1.3-0.6-1.3-1.4v-0.1l0,0
				c0-0.7,0.5-1.4,1.3-1.4c0,0,0,0,0,0h2.3c0.7-0.1,1.3,0.4,1.4,1.1c0,0,0,0,0,0C1084.9,475,1084.9,475.1,1084.8,475.2L1084.8,475.2
				L1084.8,475.2z"/>
			<path class="st5" d="M1090.6,475.2c0,0.7-0.5,1.4-1.3,1.4c0,0,0,0,0,0h-2.2c-0.7,0-1.4-0.6-1.4-1.3c0,0,0,0,0,0c0,0,0,0,0-0.1
				l0,0c0-0.7,0.5-1.4,1.3-1.4c0,0,0,0,0,0h2.2c0.7-0.1,1.3,0.4,1.4,1.1c0,0,0,0,0,0C1090.6,475,1090.6,475.1,1090.6,475.2
				L1090.6,475.2L1090.6,475.2z"/>
			<path class="st5" d="M1079,479.2c0,0.7-0.5,1.4-1.3,1.4h-2.2c-0.8,0-1.4-0.6-1.4-1.4v-0.1l0,0c0-0.7,0.6-1.4,1.3-1.4h2.2
				C1078.4,477.8,1079,478.4,1079,479.2L1079,479.2L1079,479.2L1079,479.2z"/>
			<path class="st5" d="M1084.8,479.2c0,0.8-0.5,1.4-1.3,1.4c0,0,0,0,0,0h-2.2c-0.7,0-1.3-0.6-1.3-1.4v-0.1l0,0
				c0-0.7,0.6-1.4,1.3-1.4h2.2C1084.2,477.8,1084.8,478.4,1084.8,479.2C1084.8,479.2,1084.8,479.2,1084.8,479.2L1084.8,479.2
				L1084.8,479.2L1084.8,479.2z"/>
			<path class="st5" d="M1090.6,479.2c0,0.7-0.5,1.4-1.3,1.4h-2.2c-0.8,0-1.4-0.6-1.4-1.4c0,0,0,0,0-0.1l0,0c0-0.7,0.5-1.4,1.3-1.4
				c0,0,0,0,0,0h2.2C1090,477.8,1090.6,478.4,1090.6,479.2C1090.6,479.1,1090.6,479.1,1090.6,479.2L1090.6,479.2L1090.6,479.2
				L1090.6,479.2z"/>
			<path class="st6" d="M1079,484.1c0,0.7-0.5,1.4-1.3,1.4h-2.2c-0.7,0-1.4-0.6-1.4-1.4v-0.1l0,0c0-0.7,0.5-1.4,1.3-1.4h2.2
				c0.7-0.1,1.3,0.4,1.4,1.1C1079,483.9,1079,484,1079,484.1L1079,484.1L1079,484.1z"/>
			<path class="st7" d="M1084.8,484.1c0,0.8-0.5,1.4-1.3,1.4c0,0,0,0,0,0h-2.2c-0.7,0-1.3-0.6-1.3-1.4v-0.1l0,0
				c0-0.7,0.5-1.4,1.3-1.4h2.3c0.7-0.1,1.3,0.4,1.4,1.1c0,0,0,0,0,0C1084.9,483.9,1084.9,484,1084.8,484.1L1084.8,484.1
				L1084.8,484.1z"/>
			<path class="st8" d="M1090.6,484.1c0,0.7-0.5,1.4-1.3,1.4h-2.2c-0.7,0-1.4-0.6-1.4-1.4c0,0,0-0.1,0-0.1l0,0
				c0-0.7,0.5-1.4,1.3-1.4c0,0,0,0,0,0h2.2c0.7-0.1,1.3,0.4,1.4,1.1c0,0,0,0,0,0C1090.6,483.9,1090.6,484,1090.6,484.1L1090.6,484.1
				L1090.6,484.1z"/>
			
				<linearGradient id="SVGID_3_" gradientUnits="userSpaceOnUse" x1="1032.3199" y1="179.275" x2="1095.6899" y2="179.275" gradientTransform="matrix(1 0 0 1 0 232)">
				<stop  offset="0.11" style="stop-color:#566386"/>
				<stop  offset="0.27" style="stop-color:#566386"/>
			</linearGradient>
			<rect x="1032.3" y="373.4" class="st9" width="63.4" height="75.9"/>
			<rect x="1036.2" y="377.6" class="st2" width="55.4" height="67.1"/>
			<rect x="1034.1" y="473.5" class="st5" width="21.4" height="7.9"/>
			<path class="st10" d="M1051.8,477.6c0,0.5-0.4,1-0.9,1h-12.3c-0.5,0-1-0.4-1-0.9v-0.1l0,0c0-0.5,0.3-1,0.9-1c0,0,0,0,0,0h12.3
				c0.5,0,1,0.4,1,0.9V477.6L1051.8,477.6z"/>
			<rect x="1034.1" y="462.4" class="st5" width="21.4" height="7.9"/>
			<path class="st10" d="M1051.8,466.4c0,0.5-0.4,1-0.9,1h-12.3c-0.5,0-1-0.4-1-0.9c0,0,0,0,0,0v-0.1l0,0c0-0.5,0.4-1,0.9-1h12.3
				c0.5,0,1,0.4,1,0.9c0,0,0,0,0,0V466.4z"/>
			<ellipse class="st10" cx="1044.8" cy="466.4" rx="1.8" ry="1.8"/>
			<rect x="1031.9" y="496.3" class="st2" width="64.3" height="3.2"/>
			<path class="st2" d="M1063.8,348c5.8,0,11.3,2.3,15.4,6.5l1.7-1.8c-4.5-4.5-10.6-7.1-17-7.1c-6.4,0-12.5,2.6-16.9,7.1l1.6,1.8
				C1052.5,350.3,1058,348,1063.8,348z"/>
			<path class="st2" d="M1063.8,353.1c4.4,0,8.7,1.7,11.8,4.9l1.8-1.8c-3.6-3.6-8.5-5.6-13.6-5.7c-5,0.1-9.8,2-13.4,5.5l1.8,1.8
				C1055.3,354.8,1059.5,353.1,1063.8,353.1z"/>
			<path class="st2" d="M1063.8,358.8c3,0.1,6,1.1,8.4,3l1.8-1.8c-2.8-2.4-6.3-3.7-9.9-3.9c-3.6,0-7.1,1.3-9.9,3.6l1.8,1.8
				C1058,359.7,1060.9,358.7,1063.8,358.8z"/>
			<path class="st2" d="M1063.8,364.2c1.6,0,3.2,0.4,4.7,1.2l1.8-1.8c-3.9-2.4-8.9-2.4-12.8,0l1.7,1.8
				C1060.5,364.6,1062.2,364.2,1063.8,364.2z"/>
			<path class="st11" d="M999.6,605.1l0.2,5.9l7.5,4c0,0,1.9,0.4,3.3,0.8c0.8,0.4,1.5,0.6,1.5,1c-0.2,0.5-0.7,0.8-1.3,0.8
				c-1.3,0.5-2.6,0.8-4,1l-6.7-0.8c-0.4,0-0.8,0.1-1.3,0.2c-1.3,0-2.9,0.2-3.3-0.4c-0.4-0.8-0.6-1.6-0.6-2.4c0-0.9,0.1-1.8,0.2-2.6
				l-0.2-7.5L999.6,605.1L999.6,605.1z"/>
			<path class="st12" d="M993.1,618.3l0.4-0.2l0.8-5.1c0,0,0-0.2,1,0.2c0.5,0.3,0.9,0.8,0.8,1.4l0.4,0.2c0.8,0.5,1.8,0.7,2.7,0.4
				c0.8-0.1,1.4-0.7,1.7-1.4l-0.3-0.4c-0.2-0.4-0.3-0.8-0.2-1.2c0.1-0.6,0.4-1.2,0.8-1.6l1.3,1.2c0.2,0,0.4,0.1,0.6,0.2
				c0,0.2,5.2,2.8,5.4,3l1.7,0.4c1.1,0,2.2,0.1,3.3,0.4c0.9,0.2,1.5,0.9,1.7,1.8l0.2,0.2c0.2,0.7,0.2,1.3,0.2,2c0,0,0,0.4-2.7,1.4
				c-0.6,0.2-8.8,0.4-8.8,0.4c-3.5,0.2-7.1,0.2-8.3,0.2c-1-0.1-2-0.3-2.9-0.6L993.1,618.3L993.1,618.3z"/>
			<path class="st13" d="M1006.6,616c0.2,0.3,0.5,0.3,0.8,0.2c0.3-0.2,0.4-0.5,0.2-0.8c-0.2-0.3-0.5-0.3-0.8-0.2
				C1006.6,615.2,1006.6,615.7,1006.6,616z"/>
			<path class="st13" d="M1004.8,615.2c0.2,0.3,0.5,0.3,0.8,0.2c0.3-0.2,0.3-0.5,0.2-0.8c-0.2-0.3-0.5-0.3-0.8-0.2
				C1004.8,614.7,1004.7,614.9,1004.8,615.2z"/>
			<path class="st13" d="M1002.9,614.4c0.2,0.3,0.5,0.3,0.8,0.2c0.3-0.2,0.3-0.5,0.2-0.8c-0.2-0.3-0.5-0.4-0.8-0.2
				C1002.9,613.6,1002.9,614,1002.9,614.4z"/>
			<path class="st14" d="M1008.3,614.2l-0.6,1.6c0,0.1-0.1,0.2-0.2,0.2h-0.2c-0.2,0-0.2-0.2-0.2-0.4l0.6-1.6c0-0.2,0.2-0.2,0.4-0.2
				S1008.3,614,1008.3,614.2z"/>
			<path class="st14" d="M1006.4,613.6l-0.6,1.6c0,0.1-0.1,0.2-0.2,0.2h-0.3c-0.2,0-0.2-0.2-0.2-0.4l0.6-1.6c0-0.2,0.2-0.2,0.4-0.2
				S1006.4,613.4,1006.4,613.6z"/>
			<path class="st14" d="M1004.5,612.6l-0.6,1.6c0,0.1-0.1,0.2-0.2,0.2c0,0,0,0,0,0h-0.2c-0.2,0-0.2-0.2-0.2-0.4l0.6-1.6
				c0-0.2,0.2-0.2,0.4-0.2S1004.5,612.4,1004.5,612.6z"/>
			<path class="st13" d="M1006,619.1c7.3,0,9.4-1.4,9.4-1.4l-0.2-0.4l0,0c0,0-2.1,1.4-9.2,1.4c-3.9,0.1-7.8-0.1-11.7-0.4
				c-0.3,0.1-0.7-0.1-0.8-0.4c-0.2,0.1-0.3,0.2-0.4,0.4c0.2,0.2,0.5,0.4,0.8,0.4C995.4,619.1,998.9,619.1,1006,619.1z"/>
			
				<linearGradient id="SVGID_4_" gradientUnits="userSpaceOnUse" x1="-840.17" y1="294.655" x2="-814.23" y2="294.655" gradientTransform="matrix(1 0 0 -1 1826.01 835.84)">
				<stop  offset="0.11" style="stop-color:#566386"/>
				<stop  offset="0.27" style="stop-color:#566386"/>
			</linearGradient>
			<path class="st15" d="M985.8,479.8c0,0,2.9,38.5,4.6,67.3s3.4,59,3.4,59h7.1c0,0,2.7-21.7,3.3-26.8c1.9-12.4,2.5-18,4-38.5
				c1.9-25.5,3.3-64.5,3.3-64.5l-12.1,2.4L985.8,479.8z"/>
			<polygon class="st16" points="1001.6,604.9 1001.6,607.3 993.7,607.3 993.7,605.3 			"/>
			<path class="st17" d="M986.8,387.3c-2-2.3-3.4-5.1-4.2-8.1c-0.6-2.6-0.8-5.5,0.2-7.7c0.4-0.8,1-1.2,1.5-2
				c0.6-1.2,0.2-2.6,0.8-3.9c0.6-0.8,1.3-1.6,2.1-2.2c1.9-1.8,5-2.2,7.5-2.8c1.7-0.4,6.7,0,5-3c1.5-0.1,3,0.1,4.4,0.6
				c2.2,1.1,3.9,2.9,5,5.1c0.7,1.5,0.8,3.1,0.2,4.7c-0.4,0.7-0.9,1.3-1.5,1.8c-0.6,0.4-1,1.1-0.8,1.8c0.1,2.2-0.1,4.5-0.4,6.7
				c-0.5,2.1-1.4,4-2.7,5.7c-0.7,1.2-1.7,2.3-2.9,3c-1,0.6-2,1.2-3.1,1.6c-2.7,1-6.5,2.4-9.2,0.8
				C988.1,388.5,987.5,388.1,986.8,387.3z"/>
			<path class="st11" d="M1011.2,421.3l5.8,24.3c5.8-4.5,12.5-13.6,12.5-13.6c-0.1-0.1-0.2-0.2-0.2-0.4c-0.6-1.2-0.7-2.6-0.4-3.9
				c0.9-1.3,2.1-2.3,3.5-3c1.3-0.8,1.5-1.4,2.3-1.6c0.4-0.2,1.7,0.2,0.8,1.4c-1,1.2-3.3,2-3.5,2.8c-0.2,0.6,1,1,3.3,0.2
				c2-0.7,4-1.7,5.8-2.8c1.3-1,2.3-2.4,3.1-2s0,1.4-0.4,2c-0.3,0.4-0.6,0.7-1,1c0.3-0.2,0.8-0.1,1,0.2c0,0,0,0,0,0
				c0,0.1,0.1,0.1,0.1,0.2c0.4,1-1,1.4-1,1.4c0.4,0,0.8,0.3,0.8,0.8v0c-0.1,0.4-0.4,0.7-0.8,0.8c0,0,0.2,0,0.4,0.8
				c0.2,0.6-1.9,1.4-1.9,1.4c-2.3,1-4.7,1.7-7.1,2.2h-0.3c-2.3,2.8-12.3,27-21.3,27c-4.6,0-17.1-31.4-17.1-31.4L1011.2,421.3z"/>
			<path class="st4" d="M1000.2,480c-10,56.4-10,56.6-16.1,74.8c-4.1,12.7-23.5,47.2-23.5,47.2l-7.7-2.6c0,0,10.2-35.7,13.3-47.9
				c7.7-28.6,6.7-50.1,6.7-50.1c-1.5-3.4-2.6-7-3.3-10.8c-0.7-3.7-0.7-7.5,0-11.1l15,1.2L1000.2,480z"/>
			<path class="st11" d="M959.8,602.7l-1.5,5.5l4.8,6.9c0.9,0.7,1.7,1.4,2.5,2.2c0.6,0.6,1,1.2,0.8,1.6c-0.4,0.3-1,0.4-1.5,0.2
				c-1.3-0.2-2.7-0.5-4-0.8l-5.6-3.7c-0.3-0.2-0.7-0.3-1-0.4c-1.1-0.4-2.1-1-2.9-1.8c0-0.8,0.2-1.7,0.6-2.4l0.8-1.6l2.3-7.1
				L959.8,602.7z"/>
			<path class="st12" d="M949.3,613.8h0.4l2.7-4.5l0.8,0.6c0.5,0.4,0.6,1,0.4,1.6l0.2,0.4c0.5,0.9,1.5,1.4,2.5,1.4
				c1.7,0.2,2.1-0.6,2.1-0.6l-0.2-0.6c0,0-0.2-0.2,0.4-1.2c0.3-0.6,0.8-1,1.5-1.2l0.6,1.6c0.2,0.1,0.3,0.2,0.4,0.4
				c0,0.2,3.7,4.7,4,4.9l1.5,1c1,0.5,2,1,2.9,1.6c0.7,0.5,1.1,1.4,0.8,2.2v0.4c-0.1,0.7-0.4,1.4-0.6,2c0,0-0.2,0.4-2.9,0.2
				c-0.8,0-8.1-2.8-8.1-2.8c-3.3-1.2-6.7-2.4-7.9-3c-1-0.3-1.9-0.8-2.5-1.6L949.3,613.8z"/>
			
				<ellipse transform="matrix(0.9944 -0.1054 0.1054 0.9944 -59.6409 104.989)" class="st13" cx="963.5" cy="616.8" rx="0.6" ry="0.6"/>
			
				<ellipse transform="matrix(0.9944 -0.1052 0.1052 0.9944 -59.4088 104.6645)" class="st13" cx="962.2" cy="615.4" rx="0.6" ry="0.6"/>
			
				<ellipse transform="matrix(0.9944 -0.1056 0.1056 0.9944 -59.4297 104.8541)" class="st13" cx="960.7" cy="613.8" rx="0.6" ry="0.6"/>
			<path class="st14" d="M965,615.7l-1.3,1.2h-0.2c-0.1,0-0.2-0.1-0.2-0.2c0,0,0,0,0,0c-0.2-0.2-0.2-0.4,0-0.4l1.3-1.2
				c0.2-0.2,0.4-0.2,0.4,0C965.2,615.5,965.2,615.7,965,615.7z"/>
			<path class="st14" d="M963.5,614.4l-1.3,1.3H962c-0.1,0-0.2-0.1-0.2-0.2c0,0,0,0,0,0c-0.2-0.2-0.2-0.4,0-0.4l1.3-1.2
				c0.2-0.2,0.4-0.2,0.4,0C963.7,614,963.7,614.2,963.5,614.4C963.5,614.4,963.5,614.4,963.5,614.4L963.5,614.4z"/>
			<path class="st14" d="M962,612.8l-1.3,1.2h-0.2c-0.1,0-0.2-0.1-0.2-0.2c0,0,0,0,0,0c-0.2-0.2-0.2-0.4,0-0.4l1.3-1.2
				c0.2-0.2,0.4-0.2,0.4,0C962.3,612.6,962.3,612.8,962,612.8z"/>
			<path class="st13" d="M961,619.5c6.7,2.6,9.2,2,9.2,2v-0.6l0,0c0,0-2.5,0.6-9-2c-3.7-1.3-7.2-2.8-10.6-4.7
				c-0.3-0.1-0.5-0.3-0.6-0.6c0,0-0.6,0-0.4,0.2c0.2,0.3,0.4,0.5,0.6,0.6C951.2,615.4,954.5,616.8,961,619.5z"/>
			<polygon class="st16" points="960.8,601.6 960.2,604.1 952.3,601.2 952.7,598.6 			"/>
			<path class="st18" d="M966.2,428.2c0,3.2,0.2,51.1,0.2,53.5c0,6.3,7.1,7.5,22.7,7.5c2.9,0,5.4-0.2,7.9-0.4
				c0.6-30-0.6-59.8-17.3-86.6C970.4,405.7,966.2,419.7,966.2,428.2z"/>
			<path class="st18" d="M1011.2,421.3c0-7.5-5.2-14.6-12.9-18c-3.4-1.6-7.1-2.4-10.8-2.4c-2.7,0.1-5.4,0.5-7.9,1.4
				c16.7,26.8,17.9,56.6,17.3,86.6c3.3-0.3,6.5-0.9,9.6-2c5.2-1.8,8.1-4.5,8.1-7.7C1014.6,476.3,1011.2,423,1011.2,421.3z"/>
			<path class="st19" d="M995.2,488.5c-7.9,0-13.1-0.6-16.5-8.5c-2.3-5.9-3.1-12.2-2.3-18.5c0.3-2.4,0.7-4.8,1.3-7.1
				c1.3-5.5,3.1-10.3,5-16c0.6-2,2.3-13,2.3-13s-14.6-5.3-13.5-8.3c2.3-7.5,8.5-14,16.1-16h-0.2c-7.1,0-12.5,3.6-16.5,8.5
				c-4.4,5.5-5.8,17-5.8,22.1c0,3.2,1.3,47.9,1.3,50.3c0,6.3,7.1,7.5,22.7,7.5c4.4,0.1,8.8-0.3,13.1-1.2
				C999.8,488.3,997.7,488.5,995.2,488.5z"/>
			<path class="st12" d="M998.3,403.3c-3.4-1.6-7.1-2.4-10.8-2.4c-2.7,0.1-5.4,0.5-7.9,1.4c16.7,26.8,17.9,56.6,17.3,86.6
				c3.3-0.3,6.5-0.9,9.6-2C1008.3,459.1,1008.7,431.1,998.3,403.3z"/>
			<path class="st20" d="M986,402.5l1.5-20.1l9.2,10.3c0,0-0.6,9.5-0.8,11c0.4,1.1,0.4,2.3,0,3.5c-0.5,1.1-1.5,1.8-2.7,1.8
				c-1.5-0.1-2.9-0.6-4.2-1.4c-1.7-1-3.1-2.6-3.1-4.3C985.8,402.7,985.8,402.7,986,402.5z"/>
			<path class="st11" d="M988.5,375.3c0.8,0.6,0.6,1,0.6,1c2.3-5.1,6.5-8.3,10.4-7.5c3.1,0.6,5,2,5.8,3.9c1.7,2.8,1.3,6.9,0.2,11.4
				c-0.8,3.3-2.2,6.4-4.2,9.1c-1.5,2.4-2.3,3.6-4.8,3c-1.8-0.5-3.5-1.5-4.8-2.8c-3-2.9-4.6-7-4.4-11.1l0,0c-1.5-0.3-2.5-1.8-2.2-3.3
				c0,0,0,0,0,0c0-0.1,0.1-0.2,0.1-0.4c0.1-1.1,0.4-2.2,0.8-3.2C986.9,374.9,987.8,374.9,988.5,375.3z"/>
			<path class="st11" d="M969.8,417.1l-6.2,36.1c-0.9,5.9,0.3,44.8,0.7,48.3l-0.2,0.2c-1.2,1.7-2.2,3.4-3.1,5.2c0,0-0.8,1.7-0.3,2
				c0.7,0.6,0.9,0.4,0.9,0.4c-0.2,0.4-0.2,0.9,0.1,1.2c0.2,0.3,0.7,0.4,1,0.2l0,0c-0.3,0.5-0.2,1.2,0.3,1.6c0.2,0.2,0.5,0.2,0.7,0
				c0,0,0,0,0,0c0.1-0.1,0.1-0.1,0.1-0.2c-0.1,0.4-0.2,0.8-0.1,1.2c0,0.8,0.3,2,1.1,1.8c0.8,0,0.5-1.9,0.7-3.1c0.3-1.9,1-3.6,2-5.2
				c0.9-1.7,2-1.9,2.2-1.3s-0.7,2.5-0.4,3.9c0.3,1.4,1.3,1.2,1.5,0.7c0.4-0.4,0.1-1,0.5-2.3c0.3-1.5,0.9-2.7,0.4-4.3
				c-0.5-1.6-2.9-2.8-2.9-2.8c-0.1-0.1-0.3-0.2-0.4-0.2c0.2-3.7,5.2-42.3,6.9-46.9c1.1-2.9,8.4-29.1,8.4-29.1L969.8,417.1z"/>
			<polygon class="st21" points="233.3,306.6 223.1,306.6 223.1,501 233.4,501 233.4,306.6 			"/>
			<rect x="216.3" y="336.1" class="st22" width="22.3" height="262.3"/>
			<path class="st21" d="M173.7,231.5l-2.4,9.9c30.3,7.1,51.7,34.1,51.8,65.2h10.2C233.3,270.7,208.6,239.7,173.7,231.5z"/>
			<polygon class="st23" points="173.6,242.1 113.5,226.6 116.1,216.5 176.3,232 			"/>
			<polygon class="st24" points="171,252.2 110.9,236.8 113.6,226.5 173.6,242 			"/>
			<path class="st21" d="M282.8,231.5l2.4,9.9c-30.3,7.1-51.7,34.1-51.8,65.2h-10.2C223.2,270.7,247.9,239.7,282.8,231.5z"/>
			
				<rect x="282.7" y="231.1" transform="matrix(0.9998 -1.780142e-002 1.780142e-002 0.9998 -4.6191 5.1668)" class="st21" width="10.5" height="61.8"/>
			<polygon class="st25" points="310.7,277.2 309.1,287.7 269.4,287.7 267.4,277.2 			"/>
			<path class="st26" d="M306,289.7c-1.2,9.4-9.9,16-19.3,14.7c-7.7-1-13.7-7.1-14.7-14.7H306z"/>
			<path class="st27" d="M307.8,287.7c0,1.1-0.9,1.9-1.9,1.9c0,0,0,0,0,0h-33.4c-1.1,0-1.9-0.9-1.9-1.9c0,0,0,0,0,0H307.8z"/>
			<polygon class="st12" points="277.5,287.7 272.7,287.7 270.6,277.2 276.7,277.2 			"/>
			<path class="st28" d="M289.5,301.6c-0.4,0.6-3.2,0.5-3.8,0.4c-1.9-0.3-3.8-1.1-5.4-2.1c-1.7-1.1-3.1-2.4-4.3-4
				c-0.6-0.9-1.6-3.1-1.3-4.3c0.3-0.9,2.1-0.8,3-0.8c1.7,0,3,0.5,2.9,2.7c-0.1,3.2,1.7,4.9,6.2,6.3C287.6,300,290,300.7,289.5,301.6
				z"/>
			<ellipse class="st29" cx="289.7" cy="294.6" rx="3.4" ry="3.4"/>
			<ellipse class="st30" cx="288.9" cy="293.9" rx="1.6" ry="1.6"/>
			<path class="st31" d="M310.7,277.2l-1.7,10.5h-1.2c0,1.1-0.9,1.9-1.9,1.9c0,0,0,0,0,0h0.2c-1.2,8.4-8.5,14.7-17,14.7
				c-0.8,0-1.5-0.1-2.3-0.2c10.6-2,13.6-7,14.6-14.6h-0.3c1.1,0,1.9-0.9,1.9-1.9h1.2l0.8-10.5L310.7,277.2L310.7,277.2z"/>
			<rect x="216.3" y="336.1" class="st32" width="6.9" height="253.8"/>
			<circle class="st33" cx="233.4" cy="557" r="3.8"/>
			<path class="st34" d="M278.1,313.5c0,0,3.9,4.7,12.4,4.7s12.5-4.7,12.5-4.7"/>
			<path class="st34" d="M271,331.7c0,0,6.2,7.6,19.5,7.6s19.6-7.6,19.6-7.6"/>
			<path class="st34" d="M258.5,347.2c0,0,10.1,13.8,32,13.8s32-13.8,32-13.8"/>
			<path class="st34" d="M244,364c0,0,14.8,18.9,46.5,18.9s46.6-18.9,46.6-18.9"/>
			<polyline class="st35" points="223,399.4 233.4,417.3 223,438.2 223,470.1 233.4,456 233.4,488 223,507.1 232.4,525 222.1,539.8 
				233.4,560.7 			"/>
			<circle class="st36" cx="223" cy="399.4" r="3.8"/>
			<circle class="st36" cx="233.4" cy="417.3" r="3.8"/>
			<circle class="st36" cx="223" cy="438.2" r="3.8"/>
			<circle class="st36" cx="233.4" cy="456" r="3.8"/>
			<circle class="st36" cx="223" cy="470.1" r="3.8"/>
			<circle class="st36" cx="233.4" cy="488" r="3.8"/>
			<circle class="st36" cx="223" cy="507.1" r="3.8"/>
			<circle class="st36" cx="233.4" cy="525" r="3.8"/>
			<circle class="st36" cx="223" cy="539" r="3.8"/>
			<path class="st37" d="M209.8,574.7c10.8-8.2,23.8-18.8,19.9-34.7c-2.5-9.9-12.1-10.6-18.9-4.1c6.8-8.4,13.9-22.8,10.9-33.8
				c-1.4-5-2.7-7.1-8.3-6.3c-1.2,0.2-2.4,0.5-3.6,1c1.7-8.2-0.6-20.1-2.5-26c-4.3-13-13.1-16.8-25.9-9.5
				c-14.8,8.5-18.7,25.1-22.1,40.8c-2.5,11.5-1.8,20.2,2.4,30.8c-8.6-4.9-20.5-5.7-23.1,6.8c-1.9,9.2-0.3,19.8,3.2,28.8
				c-3.7,0.6-6.8,3-8.4,6.4c-2.2,4.1,0,11.8,1,16.5c2.1,8.9,7.4,16.6,15,21.7c14.4,9.7,35.6,7.1,51.6,3.7c14-3,28-13.8,25.9-29.9
				C225.3,575.4,220.4,573.8,209.8,574.7z M151.9,606.2l0.1,0.1C151.9,606.3,151.9,606.3,151.9,606.2L151.9,606.2z"/>
			<path class="st38" d="M141.9,596.3c-1-4.7-3.2-12.5-1-16.5c1.6-3.4,4.7-5.8,8.4-6.4c-3.4-9-5.1-19.6-3.2-28.8
				c2.6-12.6,14.6-11.7,23.1-6.8c-4.2-10.6-5-19.3-2.4-30.8c3.4-15.7,7.3-32.3,22.1-40.8c5.5-3.1,10.3-4.2,14.3-3.4
				c-4.9-6.1-12.3-6.9-21.8-1.4c-14.8,8.5-18.7,25.1-22.1,40.8c-2.5,11.5-1.8,20.2,2.4,30.8c-8.6-4.9-20.5-5.7-23.1,6.8
				c-1.9,9.2-0.2,19.8,3.2,28.8c-3.7,0.6-6.8,3-8.4,6.4c-2.2,4.1,0,11.8,1,16.5c2.1,8.9,7.4,16.6,15,21.7c1.4,0.9,2.9,1.8,4.5,2.5
				C147.8,610.7,143.6,603.9,141.9,596.3z"/>
			<path class="st39" d="M169.6,619.7c0,0,4.5-12.6,2.7-25.8s-13.2-36.2-13.2-36.2s8.7,9.2,12.2,19.9s3.7,13.8,3.7,13.8
				s7.6-12.2,6.3-31.5s-3.7-35.2,2.3-53.1l5.9-17.9c0,0-6.1,21-6.4,28c-0.3,7,0,17.1,0,17.1s2-3.6,4.6-7.4c1.8-2.8,4-5.4,6.5-7.7
				l4.7-3.8c-4.2,4.1-7.5,9.1-9.7,14.6c-3.7,9.2-5.2,12.4-5.2,12.4s2.1,5.7,1.9,19l-0.3,13.3c0,0,6.6-2,11.7-10.5
				c2.8-4.7,5.9-9.2,9.4-13.4c0,0-5.9,13.2-11.8,20.6c-3.5,4.4-7.6,8.2-12.3,11.3l-4.4,15.8c0,0-1.3,20-4.3,21.7
				S169.6,619.7,169.6,619.7z"/>
			<path class="st40" d="M243,615.8c10.2-1.2,22.7-3.3,25.5-14.7c1.8-7.2-4.5-11.1-11.4-9.4c7.5-2.9,17.4-9.3,19.1-17.3
				c0.8-3.7,0.6-5.5-3.4-7c-0.9-0.3-1.8-0.6-2.8-0.7c4-4.6,6.6-12.9,7.3-17.3c1.7-9.7-3.1-15.4-14.3-15.4c-13,0-21.4,9-29.1,17.7
				c-5.3,5.5-8.5,12.7-9.1,20.3c-4.1-6.2-11.9-11.1-18.1-4.1c-4.5,5.1-7.1,12.4-7.8,19.3c-2.7-1-5.6-0.6-8,1
				c-2.9,1.8-4.1,7.5-5,10.8c-1.7,6.5-0.7,13.4,2.6,19.2c6.4,11.3,21.7,17.4,33.7,21.1c10.6,3.2,23.8,1.4,28-9.4
				C253.3,621.9,250.4,619.1,243,615.8z M192.7,614.7L192.7,614.7L192.7,614.7L192.7,614.7z"/>
			<path class="st41" d="M189.4,604.8c0.9-3.3,2.2-9,5-10.8c2.4-1.6,5.3-2,8-1c0.8-6.9,3.3-14.2,7.8-19.3c6.2-7,13.9-2.1,18.1,4.1
				c0.5-7.6,3.7-14.8,9.1-20.3c7.8-8.7,16.2-17.7,29.1-17.7c4.8,0,8.4,1.1,10.9,3c-1.1-5.6-5.9-8.8-14.3-8.8c-13,0-21.4,9-29.2,17.7
				c-5.3,5.5-8.5,12.7-9.1,20.4c-4.1-6.2-11.9-11.1-18.1-4.1c-4.5,5.1-7.1,12.4-7.8,19.3c-2.7-1-5.6-0.6-8,1
				c-2.9,1.8-4.1,7.5-5,10.8c-1.7,6.5-0.7,13.4,2.6,19.1c0.6,1.1,1.4,2.2,2.2,3.2C188.4,616.2,187.9,610.3,189.4,604.8z"/>
			<path class="st39" d="M200.1,629.7c0,0,7.5-6.3,10.8-15.3s3.6-27.6,3.6-27.6s2.7,9,1.4,17s-2.3,10-2.3,10s9.4-5,15.2-17.7
				s9.7-23.5,20-32.7l10.3-9.1c0,0-11.5,11-14.1,15.4s-6,10.8-6,10.8s2.6-1.5,5.7-3c2.2-1.1,4.6-2,7.1-2.5l4.5-0.7
				c-4.2,1.1-8.2,3-11.6,5.8c-5.7,4.5-7.9,5.9-7.9,5.9s-0.5,4.4-5.3,12.6l-4.8,8.3c0,0,5.1,1.2,11.6-2.3c3.5-2,7.2-3.7,11.1-5.1
				c0,0-8.6,6.2-15.1,8.7c-3.9,1.5-8,2.3-12.2,2.6l-8.5,8.4c0,0-7.8,12.2-10.5,12.1S200.1,629.7,200.1,629.7z"/>
			<path class="st42" d="M1137.7,594.4c-10.2-7.3-22.5-16.9-19.8-32.5c1.7-9.8,10.3-11,16.8-5.1c-6.6-7.8-13.8-21.3-11.7-32.2
				c1-5,2-7.1,7.2-6.6c1.1,0.1,2.2,0.4,3.3,0.8c-2-7.9-0.6-19.5,0.8-25.5c3.1-12.9,10.9-17.1,22.8-10.8
				c13.8,7.3,18.2,23.2,22.2,38.3c2.9,11,2.7,19.5-0.5,30.1c7.4-5.2,18.2-6.8,21.2,5.3c2.3,8.8,1.3,19.3-1.3,28.2
				c3.1,0.4,5.9,2,8,5.8s0.7,11.5,0,16.1c-1.3,8.6-5.7,16.4-12.3,22c-12.4,10.3-31.7,9.1-46.3,6.7c-12.8-2.1-26-11.8-25.1-27.5
				C1123.7,596,1128.1,594.2,1137.7,594.4z M1191.7,621.6L1191.7,621.6C1191.7,621.6,1191.7,621.6,1191.7,621.6L1191.7,621.6z"/>
			<path class="st43" d="M1200.2,611.3c0.7-4.6,2.2-12.3,0-16.1s-4.9-5.3-8-5.7c2.6-8.9,3.5-19.4,1.3-28.2
				c-3.1-12.1-13.8-10.5-21.2-5.3c3.2-10.6,3.4-19.1,0.5-30.1c-4-15-8.4-31-22.2-38.3c-5.1-2.7-9.5-3.5-13-2.4
				c4.1-6.3,10.7-7.4,19.5-2.7c13.8,7.3,18.2,23.2,22.2,38.3c2.9,11,2.7,19.5-0.5,30.1c7.4-5.2,18.2-6.8,21.2,5.3
				c2.3,8.8,1.3,19.3-1.3,28.2c3.1,0.4,5.9,2,8,5.8s0.7,11.5,0,16.1c-1.3,8.6-5.7,16.4-12.3,22c-1.2,1-2.5,1.9-3.9,2.7
				C1195.7,625.6,1199.1,618.7,1200.2,611.3z"/>
			<path class="st39" d="M1176.5,635.7c0,0-4.8-12-3.8-24.9s9.9-36,9.9-36s-7.3,9.5-9.9,20.1s-2.6,13.6-2.6,13.6s-7.5-11.3-7.4-30.3
				s1.4-34.5-5-51.5l-6.4-17c0,0,6.7,20.1,7.3,26.9s1,16.6,1,16.6s-2-3.3-4.6-6.9c-1.8-2.6-3.9-5-6.3-7.1l-4.5-3.5
				c4.1,3.8,7.3,8.5,9.6,13.6c3.8,8.7,5.4,11.7,5.4,11.7s-1.6,5.7-0.6,18.5l1,12.9c0,0-6-1.5-11.1-9.5c-2.7-4.4-5.8-8.6-9.2-12.5
				c0,0,6,12.5,11.8,19.3c3.3,4,7.3,7.4,11.7,10.2l4.9,15.1c0,0,2.3,19.4,5.1,20.8S1176.5,635.7,1176.5,635.7z"/>
			<g>
				<g class="st44">
					<defs>
						<rect id="SVGID_5_" x="216.3" y="336.1" class="st44" width="22.3" height="17.5"/>
					</defs>
					<clipPath id="SVGID_6_">
						<use xlink:href="#SVGID_5_"  style="overflow:visible;"/>
					</clipPath>
				</g>
			</g>
		</g>
	</g>
	<g>
		<path class="st45" d="M1047,433.5l-13.2-4c-1.2-0.4-1.9-1.7-1.5-2.9l6.6-22c0.4-1.2,1.7-1.9,2.9-1.5l13.2,4
			c1.2,0.4,1.9,1.7,1.5,2.9l-6.6,22C1049.5,433.1,1048.2,433.8,1047,433.5z"/>
		<g>
			
				<linearGradient id="SVGID_7_" gradientUnits="userSpaceOnUse" x1="1040.9111" y1="403.8064" x2="1042.407" y2="403.8064" gradientTransform="matrix(0.9575 0.2884 -0.2884 0.9575 164.6363 -276.2665)">
				<stop  offset="0.11" style="stop-color:#566386"/>
				<stop  offset="0.27" style="stop-color:#566386"/>
			</linearGradient>
			<polygon class="st46" points="1047,408.6 1045.6,408.1 1044.1,413.1 1045.5,413.5 			"/>
			
				<linearGradient id="SVGID_8_" gradientUnits="userSpaceOnUse" x1="1042.8112" y1="403.8064" x2="1043.2559" y2="403.8064" gradientTransform="matrix(0.9575 0.2884 -0.2884 0.9575 164.6363 -276.2665)">
				<stop  offset="0.11" style="stop-color:#566386"/>
				<stop  offset="0.27" style="stop-color:#566386"/>
			</linearGradient>
			<polygon class="st47" points="1047.8,408.8 1047.4,408.7 1045.9,413.6 1046.3,413.8 			"/>
			
				<linearGradient id="SVGID_9_" gradientUnits="userSpaceOnUse" x1="1044.6708" y1="403.8064" x2="1045.7623" y2="403.8064" gradientTransform="matrix(0.9575 0.2884 -0.2884 0.9575 164.6363 -276.2665)">
				<stop  offset="0.11" style="stop-color:#566386"/>
				<stop  offset="0.27" style="stop-color:#566386"/>
			</linearGradient>
			<polygon class="st48" points="1050.2,409.5 1049.2,409.2 1047.7,414.2 1048.7,414.5 			"/>
			
				<linearGradient id="SVGID_10_" gradientUnits="userSpaceOnUse" x1="1039.2941" y1="403.8064" x2="1040.5068" y2="403.8064" gradientTransform="matrix(0.9575 0.2884 -0.2884 0.9575 164.6363 -276.2665)">
				<stop  offset="0.11" style="stop-color:#566386"/>
				<stop  offset="0.27" style="stop-color:#566386"/>
			</linearGradient>
			<polygon class="st49" points="1045.2,408 1044,407.7 1042.5,412.6 1043.7,413 			"/>
			
				<linearGradient id="SVGID_11_" gradientUnits="userSpaceOnUse" x1="1038.3239" y1="403.8064" x2="1038.8898" y2="403.8064" gradientTransform="matrix(0.9575 0.2884 -0.2884 0.9575 164.6363 -276.2665)">
				<stop  offset="0.11" style="stop-color:#566386"/>
				<stop  offset="0.27" style="stop-color:#566386"/>
			</linearGradient>
			<polygon class="st50" points="1041.6,412.3 1042.2,412.5 1043.7,407.5 1043.1,407.4 			"/>
			
				<linearGradient id="SVGID_12_" gradientUnits="userSpaceOnUse" x1="1043.6602" y1="403.8064" x2="1044.2666" y2="403.8064" gradientTransform="matrix(0.9575 0.2884 -0.2884 0.9575 164.6363 -276.2665)">
				<stop  offset="0.11" style="stop-color:#566386"/>
				<stop  offset="0.27" style="stop-color:#566386"/>
			</linearGradient>
			<polygon class="st51" points="1048.8,409.1 1048.2,408.9 1046.7,413.9 1047.3,414.1 			"/>
			
				<linearGradient id="SVGID_13_" gradientUnits="userSpaceOnUse" x1="1036.7876" y1="403.8064" x2="1037.9196" y2="403.8064" gradientTransform="matrix(0.9575 0.2884 -0.2884 0.9575 164.6363 -276.2665)">
				<stop  offset="0.11" style="stop-color:#566386"/>
				<stop  offset="0.27" style="stop-color:#566386"/>
			</linearGradient>
			<polygon class="st52" points="1042.7,407.3 1041.6,406.9 1040.1,411.9 1041.2,412.2 			"/>
			
				<linearGradient id="SVGID_14_" gradientUnits="userSpaceOnUse" x1="1048.4305" y1="403.8064" x2="1048.8348" y2="403.8064" gradientTransform="matrix(0.9575 0.2884 -0.2884 0.9575 164.6363 -276.2665)">
				<stop  offset="0.11" style="stop-color:#566386"/>
				<stop  offset="0.27" style="stop-color:#566386"/>
			</linearGradient>
			<polygon class="st53" points="1052.8,410.3 1051.3,415.3 1051.7,415.4 1053.2,410.4 			"/>
			
				<linearGradient id="SVGID_15_" gradientUnits="userSpaceOnUse" x1="1046.8943" y1="403.8064" x2="1047.1302" y2="403.8064" gradientTransform="matrix(0.9575 0.2884 -0.2884 0.9575 164.6363 -276.2665)">
				<stop  offset="0.11" style="stop-color:#566386"/>
				<stop  offset="0.27" style="stop-color:#566386"/>
			</linearGradient>
			<polygon class="st54" points="1051.5,409.9 1051.3,409.8 1049.8,414.8 1050.1,414.9 			"/>
			
				<linearGradient id="SVGID_16_" gradientUnits="userSpaceOnUse" x1="1047.5345" y1="403.8064" x2="1048.0262" y2="403.8064" gradientTransform="matrix(0.9575 0.2884 -0.2884 0.9575 164.6363 -276.2665)">
				<stop  offset="0.11" style="stop-color:#566386"/>
				<stop  offset="0.27" style="stop-color:#566386"/>
			</linearGradient>
			<polygon class="st55" points="1052.4,410.2 1051.9,410 1050.4,415 1050.9,415.1 			"/>
			
				<linearGradient id="SVGID_17_" gradientUnits="userSpaceOnUse" x1="1046.1666" y1="403.8064" x2="1046.49" y2="403.8064" gradientTransform="matrix(0.9575 0.2884 -0.2884 0.9575 164.6363 -276.2665)">
				<stop  offset="0.11" style="stop-color:#566386"/>
				<stop  offset="0.27" style="stop-color:#566386"/>
			</linearGradient>
			<polygon class="st56" points="1050.9,409.7 1050.6,409.6 1049.1,414.6 1049.4,414.7 			"/>
		</g>
		
			<linearGradient id="SVGID_18_" gradientUnits="userSpaceOnUse" x1="1037.2561" y1="416.3415" x2="1048.3662" y2="416.3415" gradientTransform="matrix(0.9575 0.2884 -0.2884 0.9575 164.6363 -276.2665)">
			<stop  offset="0.11" style="stop-color:#566386"/>
			<stop  offset="0.27" style="stop-color:#566386"/>
		</linearGradient>
		<path class="st57" d="M1047.9,423.5l0.2,0.1c0.2,0.1,0.3,0,0.4-0.2l0.1-0.2c0.1-0.2,0-0.3-0.2-0.4l-0.5-0.1l0-1.1
			c0-1.1-0.7-2.1-1.8-2.4l-3.4-1c-1.1-0.3-2.2,0.1-2.8,1l-0.6,0.9l-0.5-0.2c-0.2-0.1-0.3,0-0.4,0.2l-0.1,0.2c-0.1,0.2,0,0.3,0.2,0.4
			l0.2,0.1c-0.6,0.2-1.1,0.7-1.3,1.3l-0.6,2.1c-0.1,0.3,0.1,0.5,0.3,0.6l0.6,0.2l-0.3,0.9c-0.1,0.3,0.1,0.5,0.3,0.6l0.4,0.1
			c0.3,0.1,0.5-0.1,0.6-0.3l0.3-0.9l5.7,1.7l-0.3,0.9c-0.1,0.3,0.1,0.5,0.3,0.6l0.4,0.1c0.3,0.1,0.5-0.1,0.6-0.3l0.3-0.9l0.6,0.2
			c0.3,0.1,0.5-0.1,0.6-0.3l0.6-2.1C1048.4,424.6,1048.3,424,1047.9,423.5z M1040.5,419.5c0.4-0.7,1.3-1,2-0.7l3.4,1
			c0.8,0.2,1.3,0.9,1.3,1.7l0,1.4l-7.4-2.2L1040.5,419.5z M1040.3,423.4c-0.1,0.2-0.2,0.3-0.4,0.2l-1.1-0.3
			c-0.2-0.1-0.3-0.2-0.2-0.4l0.1-0.2c0.1-0.2,0.2-0.3,0.4-0.2l1.1,0.3c0.2,0.1,0.3,0.2,0.2,0.4L1040.3,423.4z M1046.9,425.4
			c-0.1,0.2-0.2,0.3-0.4,0.2l-1.1-0.3c-0.2-0.1-0.3-0.2-0.2-0.4l0.1-0.2c0.1-0.2,0.2-0.3,0.4-0.2l1.1,0.3c0.2,0.1,0.3,0.2,0.2,0.4
			L1046.9,425.4z"/>
	</g>
	<path class="st11" d="M1041.1,431.7c-2.3,1-4.4,1.4-6.8,1.9h-0.3c-2.3,2.8-4.7-1.6-4.7-1.6c-0.1-0.1-0.2-0.2-0.2-0.4
		c-0.6-1.2-0.7-2.6-0.4-3.9c0.9-1.3,2.1-2.3,3.5-3c1.3-0.8,1.5-1.4,2.3-1.6c0.4-0.2,1.7,0.2,0.8,1.4c-1,1.2-4,2.9-3.9,3.6
		C1031.7,429.5,1041.1,431.7,1041.1,431.7z"/>
</g>
<title>Mesa de trabajo 1</title>
<g>
	<path class="st45" d="M222.8,380.1v-0.9l10.1-2.9l-10.1-3.1v-1l10.1-3.1l-10.1-2.9v-0.9l11.2,3.3v1l-10.1,3.1l10.1,3.2v1
		L222.8,380.1z"/>
	<path class="st45" d="M222.8,361.7H234v0.8h-11.2V361.7z"/>
	<path class="st45" d="M223.6,357.2h4.5v-5.2h0.8v5.2h5.1v0.8h-11.2v-6.2h0.8V357.2z"/>
	<path class="st45" d="M222.8,348.1H234v0.8h-11.2V348.1z"/>
</g>
<path class="st11" d="M1041.4,431.4"/>
</svg>
