<svg id="Capa_3" data-name="Capa 3" xmlns="http://www.w3.org/2000/svg" xmlns:xlink="http://www.w3.org/1999/xlink" width="1353.9" height="712" viewBox="0 0 1353.9 712">
  <defs>
    <clipPath id="clip-path">
      <path d="M69.41,261.32c-24.4,35.4-21,62-21,62,2.9,22.5,18,52,18,52s-24,32-24,56c0,115,326,276,678,276,306.4,0,575.2-119,575.2-182,0-37.6-76.2-55-76.2-99,0-50.8,76.3-64.4,90-124,13.8-59.8-44.6-120.6-68-145-48.4-50.5-153-129.8-410-145C352.51-16,95.91,222.92,69.41,261.32Z" style="fill: none"/>
    </clipPath>
    <linearGradient id="Degradado_sin_nombre_24" data-name="Degradado sin nombre 24" x1="1032.32" y1="300.72" x2="1095.69" y2="300.72" gradientTransform="matrix(1, 0, 0, -1, 0, 712)" gradientUnits="userSpaceOnUse">
      <stop offset="0.11" stop-color="#566386"/>
      <stop offset="0.27" stop-color="#566386"/>
    </linearGradient>
    <linearGradient id="Degradado_sin_nombre_24-2" x1="-840.17" y1="417.36" x2="-814.23" y2="417.36" gradientTransform="translate(1826.01 123.84)" xlink:href="#Degradado_sin_nombre_24"/>
    <clipPath id="clip-path-2">
      <rect x="216.28" y="336.14" width="22.26" height="17.5" style="fill: none"/>
    </clipPath>
  </defs>
  <title>Mesa de trabajo 1</title>
  <g style="clip-path: url(#clip-path)">
    <rect x="1022.31" y="339.27" width="81.25" height="206.5" rx="6.51" style="fill: #92a37f"/>
    <path d="M1096,545.75h-63.75v61.57H1096Z" style="fill: #323a56"/>
    <path d="M1096.12,606.1h-63.75v5.63h63.75Z" style="fill: #191d2b"/>
    <path d="M1038.88,570.26c0,6.08,2.19,10.94,4.93,10.94h40.56c2.75,0,4.93-4.87,4.93-10.94V567H1039v3.24Z" style="fill: #41516e"/>
    <path d="M1093.36,485.3a1.83,1.83,0,0,1-1.83,1.83h-18.2a2,2,0,0,1-1.94-1.83V464.21a2,2,0,0,1,1.94-2h18.08a2,2,0,0,1,1.95,2h0V485.3Z" style="fill: #323a56"/>
    <path d="M1079,466.65a1.35,1.35,0,0,1-1.28,1.42h-2.24a1.35,1.35,0,0,1-1.36-1.35v-.07h0a1.36,1.36,0,0,1,1.25-1.46h2.24a1.35,1.35,0,0,1,1.36,1.35v.07h0Z" style="fill: #cfd1d2"/>
    <path d="M1084.8,466.65a1.36,1.36,0,0,1-1.3,1.41h-2.2a1.36,1.36,0,0,1-1.35-1.35v-.08h0a1.35,1.35,0,0,1,1.26-1.44h2.28a1.34,1.34,0,0,1,1.35,1.35v.07h0Z" style="fill: #cfd1d2"/>
    <path d="M1090.63,466.65a1.35,1.35,0,0,1-1.29,1.41h-2.25a1.36,1.36,0,0,1-1.35-1.35v-.08h0a1.36,1.36,0,0,1,1.28-1.42h2.21a1.36,1.36,0,0,1,1.36,1.35v.07h0Z" style="fill: #cfd1d2"/>
    <path d="M1079,470.93a1.34,1.34,0,0,1-1.28,1.42h-2.24a1.36,1.36,0,0,1-1.36-1.36v-.07h0a1.35,1.35,0,0,1,1.29-1.42h2.2a1.35,1.35,0,0,1,1.36,1.35v.07h0Z" style="fill: #cfd1d2"/>
    <path d="M1084.8,470.93a1.35,1.35,0,0,1-1.29,1.42h-2.21A1.36,1.36,0,0,1,1080,471v-.07h0a1.35,1.35,0,0,1,1.28-1.42h2.26a1.34,1.34,0,0,1,1.35,1.35v.07h0Z" style="fill: #cfd1d2"/>
    <path d="M1090.63,470.93a1.34,1.34,0,0,1-1.28,1.42h-2.21a1.36,1.36,0,0,1-1.36-1.36.17.17,0,0,1,0-.07h0a1.35,1.35,0,0,1,1.28-1.42h2.16a1.35,1.35,0,0,1,1.36,1.35v.07h0Z" style="fill: #cfd1d2"/>
    <path d="M1079,475.16a1.35,1.35,0,0,1-1.28,1.42h-2.24a1.35,1.35,0,0,1-1.36-1.35v-.07h0a1.35,1.35,0,0,1,1.29-1.42h2.2a1.27,1.27,0,0,1,1.37,1.13c0,.1,0,.2,0,.3h0Z" style="fill: #cfd1d2"/>
    <path d="M1084.8,475.16a1.35,1.35,0,0,1-1.29,1.42h-2.21a1.35,1.35,0,0,1-1.35-1.35v-.07h0a1.35,1.35,0,0,1,1.28-1.42h2.26a1.25,1.25,0,0,1,1.36,1.13,1,1,0,0,1,0,.3h0Z" style="fill: #cfd1d2"/>
    <path d="M1090.63,475.16a1.35,1.35,0,0,1-1.28,1.42h-2.21a1.35,1.35,0,0,1-1.36-1.35.17.17,0,0,1,0-.07h0a1.34,1.34,0,0,1,1.28-1.42h2.16a1.25,1.25,0,0,1,1.36,1.13,1.5,1.5,0,0,1,0,.3h0Z" style="fill: #cfd1d2"/>
    <path d="M1079,479.21a1.36,1.36,0,0,1-1.28,1.43h-2.24a1.36,1.36,0,0,1-1.36-1.36v-.07h0a1.36,1.36,0,0,1,1.32-1.39h2.17a1.36,1.36,0,0,1,1.36,1.36v.07h0Z" style="fill: #cfd1d2"/>
    <path d="M1084.8,479.21a1.36,1.36,0,0,1-1.29,1.43h-2.21a1.36,1.36,0,0,1-1.35-1.36v-.07h0a1.36,1.36,0,0,1,1.32-1.39h2.22a1.35,1.35,0,0,1,1.35,1.36v.07h0Z" style="fill: #cfd1d2"/>
    <path d="M1090.63,479.21a1.36,1.36,0,0,1-1.28,1.43h-2.21a1.36,1.36,0,0,1-1.36-1.36.2.2,0,0,1,0-.07h0a1.35,1.35,0,0,1,1.28-1.42h2.16a1.35,1.35,0,0,1,1.36,1.35v.07h0Z" style="fill: #cfd1d2"/>
    <path d="M1079,484.08a1.36,1.36,0,0,1-1.28,1.43h-2.24a1.36,1.36,0,0,1-1.36-1.35v-.08h0a1.36,1.36,0,0,1,1.29-1.42h2.2a1.26,1.26,0,0,1,1.37,1.13,2.71,2.71,0,0,1,0,.29h0Z" style="fill: #de594f"/>
    <path d="M1084.8,484.08a1.36,1.36,0,0,1-1.29,1.43h-2.21a1.36,1.36,0,0,1-1.35-1.35v-.08h0a1.36,1.36,0,0,1,1.28-1.42h2.26a1.25,1.25,0,0,1,1.36,1.13.93.93,0,0,1,0,.29h0Z" style="fill: #daca41"/>
    <path d="M1090.63,484.08a1.36,1.36,0,0,1-1.28,1.43h-2.21a1.36,1.36,0,0,1-1.36-1.35.22.22,0,0,1,0-.08h0a1.35,1.35,0,0,1,1.28-1.42h2.16a1.25,1.25,0,0,1,1.36,1.13,1.4,1.4,0,0,1,0,.29h0Z" style="fill: #85b3b3"/>
    <rect x="1032.32" y="373.35" width="63.37" height="75.85" style="fill: url(#Degradado_sin_nombre_24)"/>
    <rect x="1036.2" y="377.61" width="55.39" height="67.14" style="fill: #323a56"/>
    <rect x="1034.07" y="473.54" width="21.38" height="7.92" style="fill: #cfd1d2"/>
    <path d="M1051.76,477.59a.94.94,0,0,1-.87,1h-12.35a1,1,0,0,1-1-.91v-.11h0a.93.93,0,0,1,.87-1h12.35a1,1,0,0,1,1,.91v.1Z" style="fill: #999"/>
    <rect x="1034.07" y="462.38" width="21.38" height="7.92" style="fill: #cfd1d2"/>
    <path d="M1051.76,466.44a.94.94,0,0,1-.87,1h-12.35a.94.94,0,0,1-1-.9v-.11h0a.94.94,0,0,1,.87-1h12.35a.94.94,0,0,1,1,.9v.11Z" style="fill: #999"/>
    <ellipse cx="1044.76" cy="466.44" rx="1.75" ry="1.83" style="fill: #999"/>
    <rect x="1031.93" y="496.26" width="64.34" height="3.24" style="fill: #323a56"/>
    <path d="M1063.81,348a21.48,21.48,0,0,1,15.36,6.49l1.74-1.83a24,24,0,0,0-17-7.11,23.65,23.65,0,0,0-16.91,7.1l1.55,1.83A21,21,0,0,1,1063.81,348Z" style="fill: #323a56"/>
    <path d="M1063.81,353.06a16.7,16.7,0,0,1,11.85,4.88l1.75-1.83a19.55,19.55,0,0,0-13.6-5.68,19.8,19.8,0,0,0-13.42,5.48l1.75,1.83A17.37,17.37,0,0,1,1063.81,353.06Z" style="fill: #323a56"/>
    <path d="M1063.81,358.75a13.7,13.7,0,0,1,8.36,3.05l1.75-1.83a16,16,0,0,0-9.92-3.85,15.78,15.78,0,0,0-9.91,3.65l1.75,1.83A11.68,11.68,0,0,1,1063.81,358.75Z" style="fill: #323a56"/>
    <path d="M1063.81,364.22a8.86,8.86,0,0,1,4.66,1.22l1.75-1.83a12.2,12.2,0,0,0-12.83,0l1.74,1.83A9,9,0,0,1,1063.81,364.22Z" style="fill: #323a56"/>
    <path d="M999.56,605.09l.2,5.88,7.51,4s1.87.41,3.33.82c.84.4,1.46.61,1.46,1a1.51,1.51,0,0,1-1.26.82,23.23,23.23,0,0,1-4,1l-6.66-.82a6.63,6.63,0,0,0-1.26.21c-1.25,0-2.91.21-3.33-.4a5.91,5.91,0,0,1-.62-2.44,23.29,23.29,0,0,1,.21-2.64l-.21-7.5h4.59Z" style="fill: #b78677"/>
    <path d="M993.09,618.26l.41-.2.84-5.07s0-.21,1,.21a1.47,1.47,0,0,1,.83,1.42l.42.21a3.24,3.24,0,0,0,2.71.4,2.16,2.16,0,0,0,1.67-1.42l-.25-.43a1.91,1.91,0,0,1-.2-1.22,2.35,2.35,0,0,1,.84-1.62l1.25,1.22a1.08,1.08,0,0,1,.62.21c0,.21,5.2,2.84,5.42,3l1.67.41a14.38,14.38,0,0,1,3.33.4,2.28,2.28,0,0,1,1.66,1.82l.21.21a7.74,7.74,0,0,1,.21,2s0,.41-2.71,1.43c-.62.21-8.76.4-8.76.4-3.54.21-7.09.21-8.33.21a9.69,9.69,0,0,1-2.91-.61v-3Z" style="fill: #fff"/>
    <path d="M1006.63,616a.7.7,0,0,0,.84.2.64.64,0,0,0,.21-.81.69.69,0,0,0-.84-.21C1006.63,615.23,1006.63,615.68,1006.63,616Z" style="fill: #c577ce"/>
    <path d="M1004.76,615.23a.7.7,0,0,0,.84.21.67.67,0,0,0,.21-.82.7.7,0,0,0-.84-.2A1.11,1.11,0,0,0,1004.76,615.23Z" style="fill: #c577ce"/>
    <path d="M1002.89,614.42a.69.69,0,0,0,.84.2.65.65,0,0,0,.2-.81.68.68,0,0,0-.84-.21C1002.89,613.6,1002.89,614,1002.89,614.42Z" style="fill: #c577ce"/>
    <path d="M1008.3,614.21l-.63,1.62a.21.21,0,0,1-.19.21h-.23c-.2,0-.2-.21-.2-.41l.62-1.62c0-.2.2-.2.41-.2S1008.3,614,1008.3,614.21Z" style="fill: #dfe7f0"/>
    <path d="M1006.43,613.6l-.62,1.62a.21.21,0,0,1-.19.21h-.25c-.21,0-.21-.21-.21-.41l.62-1.62c0-.2.21-.2.42-.2S1006.43,613.38,1006.43,613.6Z" style="fill: #dfe7f0"/>
    <path d="M1004.55,612.59l-.62,1.62a.19.19,0,0,1-.18.21h-.23c-.21,0-.21-.21-.21-.41l.62-1.62c0-.2.21-.2.42-.2S1004.55,612.38,1004.55,612.59Z" style="fill: #dfe7f0"/>
    <path d="M1006,619.13c7.3,0,9.38-1.43,9.38-1.43l-.21-.4h0s-2.08,1.42-9.19,1.42a110.81,110.81,0,0,1-11.67-.4.8.8,0,0,1-.84-.4.8.8,0,0,0-.41.4,1.12,1.12,0,0,0,.83.4C995.39,619.13,998.92,619.13,1006,619.13Z" style="fill: #c577ce"/>
    <path d="M985.84,479.75s2.92,38.53,4.6,67.33,3.44,59,3.44,59H1001s2.71-21.7,3.33-26.77c1.87-12.37,2.51-18.05,4-38.53,1.88-25.55,3.34-64.49,3.34-64.49l-12.09,2.43Z" style="fill: url(#Degradado_sin_nombre_24-2)"/>
    <polygon points="1001.64 604.88 1001.64 607.32 993.72 607.32 993.72 605.29 1001.64 604.88" style="fill: #6191c8"/>
    <path d="M986.84,387.26a20.13,20.13,0,0,1-4.17-8.11c-.62-2.64-.84-5.48.21-7.7.41-.82,1-1.22,1.46-2,.62-1.22.2-2.64.83-3.85a11.57,11.57,0,0,1,2.08-2.23c1.88-1.82,5-2.22,7.5-2.83,1.67-.4,6.67,0,5-3.05a10.52,10.52,0,0,1,4.38.61,10.88,10.88,0,0,1,5,5.07,6,6,0,0,1,.2,4.66,11.17,11.17,0,0,1-1.46,1.83,1.74,1.74,0,0,0-.83,1.83,35.65,35.65,0,0,1-.42,6.69,14.36,14.36,0,0,1-2.71,5.68,8.19,8.19,0,0,1-2.92,3,23.07,23.07,0,0,1-3.12,1.62c-2.71,1-6.46,2.44-9.19.82C988.14,388.48,987.47,388.08,986.84,387.26Z" style="fill: #283a56"/>
    <path d="M1011.22,421.34l5.83,24.32c5.84-4.46,12.5-13.59,12.5-13.59a.65.65,0,0,1-.21-.4,5.94,5.94,0,0,1-.41-3.85,10.2,10.2,0,0,1,3.54-3.05c1.25-.81,1.46-1.42,2.3-1.62.41-.2,1.66.21.84,1.43-1,1.21-3.34,2-3.54,2.83-.21.61,1,1,3.33.21a29.94,29.94,0,0,0,5.83-2.84c1.26-1,2.3-2.43,3.13-2s0,1.43-.41,2a3.61,3.61,0,0,1-1,1,.71.71,0,0,1,1,.23.75.75,0,0,1,.08.18c.41,1-1,1.42-1,1.42a.81.81,0,0,1,.84.77v.05a1,1,0,0,1-.84.81s.21,0,.41.82c.21.61-1.87,1.42-1.87,1.42a40,40,0,0,1-7.09,2.23h-.26c-2.3,2.84-12.29,27-21.25,27-4.6,0-17.09-31.44-17.09-31.44Z" style="fill: #b78677"/>
    <path d="M1000.18,480c-10,56.38-10,56.58-16.09,74.83C980,567.57,960.57,602,960.57,602l-7.71-2.64s10.21-35.69,13.34-47.86c7.7-28.59,6.66-50.1,6.66-50.1a48.18,48.18,0,0,1-3.33-10.75,31.64,31.64,0,0,1,0-11.15l15,1.21Z" style="fill: #41516e"/>
    <path d="M959.76,602.65l-1.49,5.48,4.79,6.89a17.1,17.1,0,0,1,2.5,2.23c.62.61,1.05,1.22.84,1.62a1.62,1.62,0,0,1-1.46.21,35.67,35.67,0,0,1-4-.82l-5.63-3.65a10.12,10.12,0,0,0-1-.4,7.81,7.81,0,0,1-2.92-1.83A4.1,4.1,0,0,1,952,610l.84-1.62,2.29-7.1Z" style="fill: #b78677"/>
    <path d="M949.34,613.81h.42l2.71-4.46.84.61a1.41,1.41,0,0,1,.41,1.62l.21.4a3,3,0,0,0,2.5,1.42c1.67.21,2.08-.6,2.08-.6l-.24-.57s-.21-.2.41-1.21a2.62,2.62,0,0,1,1.46-1.22l.62,1.62a.78.78,0,0,1,.42.4c0,.21,3.74,4.66,4,4.87l1.46,1a33.3,33.3,0,0,1,2.92,1.62,2,2,0,0,1,.83,2.23v.4a11.17,11.17,0,0,1-.62,2s-.2.4-2.91.2c-.84,0-8.13-2.84-8.13-2.84-3.33-1.21-6.66-2.43-7.91-3a4.69,4.69,0,0,1-2.51-1.62Z" style="fill: #fff"/>
    <ellipse cx="963.54" cy="616.79" rx="0.62" ry="0.61" transform="translate(-59.64 104.99) rotate(-6.05)" style="fill: #c577ce"/>
    <ellipse cx="962.23" cy="615.37" rx="0.62" ry="0.61" transform="translate(-59.41 104.66) rotate(-6.04)" style="fill: #c577ce"/>
    <ellipse cx="960.73" cy="613.8" rx="0.62" ry="0.61" transform="translate(-59.43 104.85) rotate(-6.06)" style="fill: #c577ce"/>
    <path d="M965,615.68l-1.26,1.15h-.2a.21.21,0,0,1-.21-.21c-.21-.21-.21-.4,0-.4l1.25-1.22c.21-.21.42-.21.42,0C965.17,615.45,965.17,615.68,965,615.68Z" style="fill: #dfe7f0"/>
    <path d="M963.51,614.42l-1.25,1.26h-.21a.21.21,0,0,1-.21-.21c-.21-.2-.21-.4,0-.4l1.25-1.22c.21-.2.42-.2.42,0a.38.38,0,0,1,0,.54Z" style="fill: #dfe7f0"/>
    <path d="M962.05,612.8,960.8,614h-.23a.2.2,0,0,1-.21-.2c-.21-.21-.21-.41,0-.41l1.25-1.21c.21-.21.42-.21.42,0C962.25,612.59,962.26,612.8,962.05,612.8Z" style="fill: #dfe7f0"/>
    <path d="M961,619.48c6.67,2.64,9.19,2,9.19,2v-.61h0s-2.5.61-9-2a73.7,73.7,0,0,1-10.62-4.66,1.46,1.46,0,0,1-.62-.61s-.62,0-.42.21a1.81,1.81,0,0,0,.62.61C951.22,615.43,954.55,616.83,961,619.48Z" style="fill: #c577ce"/>
    <polygon points="960.81 601.64 960.18 604.08 952.26 601.24 952.67 598.6 960.81 601.64" style="fill: #6191c8"/>
    <path d="M966.22,428.23c0,3.24.21,51.11.21,53.55,0,6.28,7.08,7.5,22.71,7.5,2.91,0,5.42-.21,7.91-.4.62-30-.62-59.83-17.29-86.6C970.39,405.73,966.22,419.72,966.22,428.23Z" style="fill: #a570c4"/>
    <path d="M1011.22,421.34c0-7.5-5.21-14.6-12.92-18a27.17,27.17,0,0,0-10.83-2.44,26.24,26.24,0,0,0-7.91,1.43c16.67,26.77,17.92,56.58,17.29,86.6a39.35,39.35,0,0,0,9.58-2c5.2-1.82,8.12-4.46,8.12-7.71C1014.56,476.3,1011.22,423,1011.22,421.34Z" style="fill: #a570c4"/>
    <path d="M995.18,488.47c-7.92,0-13.13-.61-16.46-8.51a37.16,37.16,0,0,1-2.3-18.46q.45-3.58,1.25-7.1c1.25-5.48,3.13-10.34,5-16,.62-2,2.3-13,2.3-13s-14.59-5.27-13.55-8.31c2.3-7.51,8.55-14,16.09-16h-.21c-7.09,0-12.5,3.65-16.46,8.51-4.38,5.48-5.84,17-5.84,22.11,0,3.23,1.25,47.85,1.25,50.29,0,6.28,7.09,7.5,22.71,7.5a62.37,62.37,0,0,0,13.14-1.22C999.76,488.27,997.67,488.47,995.18,488.47Z" style="fill: #9960ba"/>
    <path d="M998.3,403.29a27.17,27.17,0,0,0-10.83-2.44,26.24,26.24,0,0,0-7.91,1.43c16.67,26.77,17.92,56.58,17.29,86.6a39.35,39.35,0,0,0,9.58-2C1008.3,459.06,1008.72,431.08,998.3,403.29Z" style="fill: #fff"/>
    <path d="M986,402.47l1.46-20.08,9.19,10.34s-.62,9.54-.84,10.95a4.88,4.88,0,0,1,0,3.45,3,3,0,0,1-2.71,1.82,9.31,9.31,0,0,1-4.17-1.42c-1.66-1-3.12-2.64-3.12-4.26C985.84,402.68,985.84,402.68,986,402.47Z" style="fill: #a6786c"/>
    <path d="M988.51,375.31c.83.6.62,1,.62,1,2.29-5.07,6.45-8.32,10.42-7.51,3.12.61,5,2,5.83,3.85,1.67,2.84,1.25,6.9.21,11.36a26.76,26.76,0,0,1-4.17,9.13c-1.46,2.43-2.3,3.65-4.79,3a10.76,10.76,0,0,1-4.79-2.84,14.77,14.77,0,0,1-4.38-11.15h0a2.79,2.79,0,0,1-2.18-3.29,3.1,3.1,0,0,1,.1-.36,9.29,9.29,0,0,1,.84-3.24A2.29,2.29,0,0,1,988.51,375.31Z" style="fill: #b78677"/>
    <path d="M971.42,417.08l-8.12,35.69c-1.25,5.88-2.08,44.8-1.87,48.25l-.21.2a35.44,35.44,0,0,0-3.33,5.07s-.84,1.62-.41,2c.62.61.83.41.83.41a1.15,1.15,0,0,0,0,1.21.76.76,0,0,0,1,.22h0a1.23,1.23,0,0,0,.21,1.62.5.5,0,0,0,.71,0,.57.57,0,0,0,.13-.21,2.86,2.86,0,0,0-.21,1.22c0,.82.21,2,1,1.83.84,0,.62-1.83.84-3.05a13.15,13.15,0,0,1,2.3-5.06c1-1.62,2.08-1.83,2.3-1.22s-.84,2.44-.62,3.85,1.25,1.22,1.46.81c.41-.4.2-1,.62-2.22.41-1.43,1-2.65.62-4.27s-2.71-3-2.71-3a.43.43,0,0,0-.42-.21c.42-3.65,7.5-42,9.38-46.44,1.25-2.84,10-28.6,10-28.6Z" style="fill: #b78677"/>
    <polygon points="233.34 306.56 223.15 306.56 223.15 501.03 233.37 501.03 233.37 306.56 233.34 306.56" style="fill: #b1bfbf"/>
    <rect x="216.3" y="336.15" width="22.26" height="262.27" style="fill: #b4545e"/>
    <path d="M173.73,231.49l-2.36,9.88a67.07,67.07,0,0,1,51.77,65.19h10.24A77.26,77.26,0,0,0,173.73,231.49Z" style="fill: #b1bfbf"/>
    <polygon points="173.62 242.09 113.53 226.64 116.14 216.51 176.25 231.96 173.62 242.09" style="fill: #636363"/>
    <polygon points="170.99 252.22 110.89 236.77 113.56 226.5 173.65 241.97 170.99 252.22" style="fill: #eac753"/>
    <path d="M282.78,231.49l2.35,9.88a67.08,67.08,0,0,0-51.75,65.19H223.15A77.27,77.27,0,0,1,282.78,231.49Z" style="fill: #b1bfbf"/>
    <rect x="282.66" y="231.13" width="10.51" height="61.82" transform="translate(-4.62 5.17) rotate(-1.02)" style="fill: #b1bfbf"/>
    <polygon points="310.74 277.22 309.06 287.73 269.36 287.73 267.41 277.22 310.74 277.22" style="fill: #e5e5e5"/>
    <path d="M306.05,289.66a17.15,17.15,0,0,1-34,0Z" style="fill: #117086"/>
    <path d="M307.83,287.73a1.93,1.93,0,0,1-1.94,1.93H272.52a1.93,1.93,0,0,1-1.94-1.93Z" style="fill: #0b4452"/>
    <polygon points="277.49 287.73 272.67 287.73 270.59 277.22 276.72 277.22 277.49 287.73" style="fill: #fff"/>
    <path d="M289.5,301.61c-.35.65-3.16.51-3.78.39a15.28,15.28,0,0,1-5.42-2.11,14.81,14.81,0,0,1-4.26-4.05c-.6-.85-1.64-3.13-1.27-4.3.34-.94,2.08-.79,3-.76,1.68,0,3,.55,2.89,2.72-.08,3.18,1.66,4.94,6.2,6.27C287.57,300,290,300.7,289.5,301.61Z" style="fill: #fff;opacity: 0.189999997615814;isolation: isolate"/>
    <ellipse cx="289.73" cy="294.57" rx="3.42" ry="3.41" style="fill: #1793b1"/>
    <ellipse cx="288.92" cy="293.87" rx="1.61" ry="1.6" style="fill: #f2f2f2;opacity: 0.479999989271164;isolation: isolate"/>
    <path d="M310.73,277.22l-1.68,10.51h-1.22a1.93,1.93,0,0,1-1.94,1.93h.16a17.14,17.14,0,0,1-17,14.7,17.67,17.67,0,0,1-2.3-.17c10.63-2,13.62-7,14.65-14.58h-.25a2,2,0,0,0,1.94-1.93h1.22l.84-10.52h5.51Z" style="fill: gray;opacity: 0.430000007152557;isolation: isolate"/>
    <rect x="216.3" y="336.15" width="6.87" height="253.81" style="fill: #803f47;opacity: 0.5;isolation: isolate"/>
    <circle cx="233.37" cy="556.95" r="3.79" style="fill: #e4eaf4"/>
    <path d="M278.11,313.47s3.94,4.67,12.41,4.67S303,313.47,303,313.47" style="fill: none;stroke: #84b0e4;stroke-linecap: round;stroke-miterlimit: 10;stroke-width: 4.59518354853458px"/>
    <path d="M271,331.72s6.21,7.62,19.53,7.62,19.61-7.62,19.61-7.62" style="fill: none;stroke: #84b0e4;stroke-linecap: round;stroke-miterlimit: 10;stroke-width: 4.59518354853458px"/>
    <path d="M258.54,347.23s10.14,13.78,32,13.78,32-13.78,32-13.78" style="fill: none;stroke: #84b0e4;stroke-linecap: round;stroke-miterlimit: 10;stroke-width: 4.59518354853458px"/>
    <path d="M244,364s14.75,18.91,46.47,18.91S337.07,364,337.07,364" style="fill: none;stroke: #84b0e4;stroke-linecap: round;stroke-miterlimit: 10;stroke-width: 4.59518354853458px"/>
    <polyline points="232.41 352.36 233.37 361.01 233.37 385.35 223.03 372.5 223.03 399.37 233.37 417.27 223.03 438.16 223.03 470.07 233.37 456.05 233.37 487.97 223.03 507.14 232.41 525.03 222.13 539.78 233.37 560.74" style="fill: none;stroke: #fff;stroke-miterlimit: 10;stroke-width: 1.14879588713364px;opacity: 0.600000023841858;isolation: isolate"/>
    <circle cx="223.03" cy="372.5" r="3.79" style="fill: #b4545e;stroke: #d8b6bf;stroke-miterlimit: 10;stroke-width: 1.14879588713364px"/>
    <circle cx="233.37" cy="385.35" r="3.79" style="fill: #b4545e;stroke: #d8b6bf;stroke-miterlimit: 10;stroke-width: 1.14879588713364px"/>
    <circle cx="233.02" cy="362.89" r="3.79" style="fill: #b4545e;stroke: #d8b6bf;stroke-miterlimit: 10;stroke-width: 1.14879588713364px"/>
    <circle cx="223.03" cy="399.37" r="3.79" style="fill: #b4545e;stroke: #d8b6bf;stroke-miterlimit: 10;stroke-width: 1.14879588713364px"/>
    <circle cx="233.37" cy="417.27" r="3.79" style="fill: #b4545e;stroke: #d8b6bf;stroke-miterlimit: 10;stroke-width: 1.14879588713364px"/>
    <circle cx="223.03" cy="438.16" r="3.79" style="fill: #b4545e;stroke: #d8b6bf;stroke-miterlimit: 10;stroke-width: 1.14879588713364px"/>
    <circle cx="233.37" cy="456.05" r="3.79" style="fill: #b4545e;stroke: #d8b6bf;stroke-miterlimit: 10;stroke-width: 1.14879588713364px"/>
    <circle cx="223.03" cy="470.07" r="3.79" style="fill: #b4545e;stroke: #d8b6bf;stroke-miterlimit: 10;stroke-width: 1.14879588713364px"/>
    <circle cx="233.37" cy="487.97" r="3.79" style="fill: #b4545e;stroke: #d8b6bf;stroke-miterlimit: 10;stroke-width: 1.14879588713364px"/>
    <circle cx="223.03" cy="507.13" r="3.79" style="fill: #b4545e;stroke: #d8b6bf;stroke-miterlimit: 10;stroke-width: 1.14879588713364px"/>
    <circle cx="233.37" cy="525.04" r="3.79" style="fill: #b4545e;stroke: #d8b6bf;stroke-miterlimit: 10;stroke-width: 1.14879588713364px"/>
    <circle cx="223.03" cy="539.05" r="3.79" style="fill: #b4545e;stroke: #d8b6bf;stroke-miterlimit: 10;stroke-width: 1.14879588713364px"/>
    <path d="M209.81,574.66c10.78-8.16,23.78-18.83,19.85-34.65-2.47-9.92-12.1-10.61-18.88-4.1,6.76-8.44,13.94-22.77,10.94-33.78-1.37-5-2.71-7.14-8.34-6.29a13.19,13.19,0,0,0-3.59,1c1.72-8.18-.56-20.06-2.52-26-4.25-13-13.13-16.8-25.9-9.49-14.81,8.47-18.68,25.07-22.11,40.77-2.52,11.49-1.79,20.2,2.42,30.82-8.58-4.86-20.49-5.74-23.13,6.84-1.93,9.19-.25,19.84,3.2,28.81a11.39,11.39,0,0,0-8.43,6.4c-2.16,4.07,0,11.84,1,16.53a35.81,35.81,0,0,0,15,21.69c14.35,9.67,35.61,7.12,51.56,3.72,14-3,28-13.85,25.95-29.87C225.34,575.37,220.36,573.81,209.81,574.66Zm-57.92,31.58.1.07a.12.12,0,0,1-.1-.06Z" style="fill: #c660ac"/>
    <path d="M141.85,596.32c-1-4.68-3.18-12.45-1-16.53a11.39,11.39,0,0,1,8.43-6.4c-3.44-9-5.13-19.6-3.2-28.81,2.64-12.64,14.55-11.68,23.14-6.83-4.22-10.63-5-19.32-2.43-30.83,3.45-15.69,7.32-32.3,22.12-40.77,5.49-3.13,10.25-4.21,14.25-3.44-4.89-6.13-12.26-6.9-21.82-1.43-14.81,8.47-18.68,25.07-22.12,40.77-2.52,11.49-1.79,20.2,2.42,30.82-8.58-4.86-20.49-5.74-23.13,6.84-1.93,9.19-.24,19.84,3.2,28.81a11.39,11.39,0,0,0-8.43,6.4c-2.16,4.07,0,11.84,1,16.53a35.86,35.86,0,0,0,15,21.69,33.2,33.2,0,0,0,4.48,2.49A35.39,35.39,0,0,1,141.85,596.32Z" style="fill: #cc87c2"/>
    <path d="M169.59,619.68s4.53-12.64,2.66-25.78-13.18-36.17-13.18-36.17,8.68,9.19,12.17,19.88,3.69,13.78,3.69,13.78,7.58-12.15,6.27-31.53-3.7-35.2,2.3-53.09l5.95-17.88s-6.11,21-6.39,28,0,17.13,0,17.13,2-3.57,4.6-7.36a39.19,39.19,0,0,1,6.46-7.73l4.71-3.79a42.79,42.79,0,0,0-9.68,14.61c-3.66,9.19-5.24,12.4-5.24,12.4s2.12,5.74,1.89,19l-.25,13.25s6.59-2,11.71-10.45a104.37,104.37,0,0,1,9.41-13.43s-5.89,13.21-11.79,20.58a53.34,53.34,0,0,1-12.28,11.28l-4.42,15.85s-1.25,20-4.31,21.72S169.59,619.68,169.59,619.68Z" style="fill: #57103c"/>
    <path d="M243,615.84c10.16-1.23,22.68-3.25,25.5-14.66,1.76-7.16-4.53-11.08-11.39-9.44,7.5-2.87,17.36-9.31,19.15-17.35.82-3.66.64-5.49-3.44-7a10.76,10.76,0,0,0-2.8-.65c4-4.6,6.59-12.87,7.33-17.35C279,539.65,274.26,534,263.06,534c-13,0-21.38,9-29.15,17.69A32.61,32.61,0,0,0,224.85,572c-4.13-6.18-11.91-11.07-18.07-4.09-4.51,5.12-7.05,12.43-7.82,19.35a8.84,8.84,0,0,0-8,1c-2.88,1.78-4.1,7.47-5,10.8a25.4,25.4,0,0,0,2.61,19.15c6.37,11.31,21.66,17.41,33.69,21.06,10.58,3.22,23.79,1.42,28-9.42C253.31,621.94,250.45,619.13,243,615.84Zm-50.26-1.15v.08s0,0,0,0Z" style="fill: #e29179"/>
    <path d="M189.37,604.83c.94-3.32,2.16-9,5-10.79a8.87,8.87,0,0,1,8-1c.78-6.89,3.32-14.23,7.82-19.35,6.16-7,13.94-2.09,18.07,4.09a32.61,32.61,0,0,1,9.06-20.33c7.77-8.66,16.17-17.73,29.15-17.69,4.82,0,8.42,1.07,10.85,3-1.15-5.64-5.93-8.79-14.28-8.81-13,0-21.38,9-29.16,17.69A32.6,32.6,0,0,0,224.82,572c-4.14-6.19-11.91-11.08-18.07-4.09-4.52,5.11-7.05,12.43-7.82,19.34a8.9,8.9,0,0,0-8,1c-2.89,1.78-4.1,7.48-5,10.8a25.42,25.42,0,0,0,2.65,19.14,24.65,24.65,0,0,0,2.17,3.2A24.94,24.94,0,0,1,189.37,604.83Z" style="fill: #efdcc5"/>
    <path d="M200.06,629.65s7.47-6.34,10.77-15.29,3.62-27.57,3.62-27.57,2.68,9,1.35,17-2.3,10-2.3,10,9.38-5,15.21-17.65,9.71-23.55,20-32.68l10.25-9.12s-11.49,11-14.06,15.37-6,10.81-6,10.81,2.6-1.52,5.68-3a29.61,29.61,0,0,1,7.08-2.53l4.51-.69a31.33,31.33,0,0,0-11.65,5.75c-5.67,4.46-7.86,5.91-7.86,5.91s-.54,4.38-5.3,12.64l-4.77,8.27s5.15,1.15,11.58-2.29a76.49,76.49,0,0,1,11.05-5.06s-8.58,6.2-15.14,8.71a41.06,41.06,0,0,1-12.19,2.56l-8.5,8.4s-7.8,12.17-10.47,12.14S200.06,629.65,200.06,629.65Z" style="fill: #57103c"/>
    <path d="M1137.71,594.38c-10.19-7.28-22.49-16.88-19.83-32.48,1.67-9.78,10.34-11,16.79-5.12-6.56-7.79-13.79-21.3-11.74-32.17,1-5,2-7.11,7.16-6.62a11,11,0,0,1,3.29.78c-2-7.85-.61-19.53.82-25.46,3.1-12.87,10.9-17.12,22.81-10.79,13.79,7.34,18.24,23.24,22.22,38.29,2.92,11,2.73,19.53-.47,30.11,7.45-5.24,18.15-6.82,21.23,5.25,2.29,8.84,1.32,19.27-1.28,28.19,3.09.36,5.87,2,8,5.75s.66,11.49,0,16.08a35.44,35.44,0,0,1-12.32,22c-12.4,10.26-31.68,9.06-46.27,6.72-12.83-2.07-26-11.78-25.06-27.46C1123.7,596,1128.14,594.19,1137.71,594.38Zm54,27.22-.08.06a.1.1,0,0,0,.06-.06Z" style="fill: #fc609c"/>
    <path d="M1200.17,611.34c.66-4.6,2.17-12.31,0-16.09s-4.87-5.35-8-5.74c2.61-8.93,3.54-19.36,1.27-28.19-3.07-12.08-13.78-10.49-21.22-5.25,3.2-10.59,3.37-19.07.47-30.11-4-15.05-8.4-31-22.22-38.29-5.13-2.72-9.49-3.45-13-2.44,4.07-6.25,10.66-7.42,19.53-2.7,13.78,7.34,18.24,23.24,22.22,38.29,2.91,11,2.73,19.53-.47,30.11,7.45-5.24,18.15-6.82,21.23,5.25,2.29,8.84,1.32,19.27-1.28,28.19,3.09.36,5.87,2,8,5.75s.66,11.49,0,16.08a35.38,35.38,0,0,1-12.33,22,30,30,0,0,1-3.89,2.7A35.41,35.41,0,0,0,1200.17,611.34Z" style="fill: #ff8fc5"/>
    <path d="M1176.48,635.71s-4.79-12-3.85-24.89,9.86-36,9.86-36-7.31,9.46-9.86,20.06-2.55,13.63-2.55,13.63-7.51-11.35-7.42-30.27,1.37-34.47-5-51.47l-6.4-17s6.68,20.06,7.31,26.88,1,16.64,1,16.64-2-3.34-4.6-6.89a36.93,36.93,0,0,0-6.26-7.12l-4.46-3.45a41.07,41.07,0,0,1,9.55,13.62c3.81,8.71,5.41,11.73,5.41,11.73s-1.6,5.68-.63,18.55l1,12.86s-6-1.51-11.14-9.45a101.09,101.09,0,0,0-9.19-12.49s6,12.49,11.77,19.3a49.14,49.14,0,0,0,11.69,10.21l4.87,15.14s2.3,19.38,5.1,20.85S1176.48,635.71,1176.48,635.71Z" style="fill: #57103c"/>
    <g style="opacity: 0.699999988079071">
      <g style="clip-path: url(#clip-path-2)">
        <ellipse cx="232.41" cy="339.58" rx="15.1" ry="12.79" style="fill: #e4eaf4"/>
      </g>
    </g>
  </g>
</svg>
