<?xml version="1.0" encoding="utf-8"?>
<!-- Generator: Adobe Illustrator 19.2.0, SVG Export Plug-In . SVG Version: 6.00 Build 0)  -->
<svg version="1.1" id="Capa_1" xmlns="http://www.w3.org/2000/svg" xmlns:xlink="http://www.w3.org/1999/xlink" x="0px" y="0px"
	 width="162.5px" height="217px" viewBox="0 0 162.5 217" style="enable-background:new 0 0 162.5 217;" xml:space="preserve">
<g>
	<ellipse style="fill:#0078B3;" cx="81.5" cy="209" rx="79" ry="4.8"/>
	<g>
		<g>
			<path style="fill:#ECB089;" d="M45.8,84.8c-1.2-0.4-2.9-0.1-3.9,0.6c-0.9,0.6-2.4,2.1-2.4,3.4c0,0.5,0.2,1.4,0.7,1.6
				c0.9,0.4,0.8-0.5,1.1-1.1c0.6-1,2.2-1.7,3.3-1.8c1.6,0,1.8,0.7,2.4,2c0.5,1.2,1.6,2.9,3.3,2.7c0.4-0.1,1.4-0.2,1.6-0.6
				c0.5-1-1.6-5.2-2.4-5.2C48.3,86.4,47.4,85.4,45.8,84.8z"/>
			<path style="fill:#6E5FA1;" d="M76.8,42.1c0,0-3.6-0.7-6.1,3.7L67,70c0,0-7.7,10-18.3,15.5c0,0-2.2,3,1.4,6.8
				c0,0,15.5-5.6,26.2-18.6l5.5-20C81.7,53.7,82.7,46.1,76.8,42.1z"/>
		</g>
		<g>
			
				<rect x="11.7" y="166.2" transform="matrix(0.1303 -0.9915 0.9915 0.1303 -139.9824 180.514)" style="fill:#FF6189;" width="42.5" height="7.6"/>
			<polygon style="fill:#303941;" points="37.6,149.2 33.8,148.7 41.2,92 45,92.5 			"/>
		</g>
		<g>
			<polygon style="fill:#006999;" points="73.7,85.4 71.1,141.9 77.9,188.8 84.4,188.8 86.4,142 96.2,85.4 			"/>
			<path style="fill:#442200;" d="M116.2,184.2l-6.9,9.1c0,0-0.8,1.2,0.4,2.8l14.9-11.7l-3.5-3.9L116.2,184.2z"/>
			<polygon style="fill:#007BB4;" points="74.9,89.4 85,111.5 93,144.8 116.2,184.2 121.8,180.2 102.9,139.9 102.5,87.8 			"/>
			<g>
				<rect x="85" y="29.2" style="fill:#F3BD91;" width="7.6" height="10.2"/>
			</g>
			<path style="fill:#F3BD91;" d="M106.2,43.8c-2.1-3.3-5.5-4.2-5.5-4.2l-8-3H85l-8,3c0,0-3.3,0.9-5.5,4.2H106.2z"/>
			<path style="fill:#939ECC;" d="M105.5,100.9l0.6-41.2l1.6-11.6c-1-6.8-7-8.4-7-8.4l-6.1-2.3C94,40,88.9,40,88.9,40
				c-6.4,0-5.9-2.5-5.9-2.5l-6,2.1c0,0-6,1.6-7,8.4l3.1,8.5l-1.5,44.3L105.5,100.9L105.5,100.9z"/>
			<path style="fill:#442200;" d="M77.9,188.8l-11,2.8c0,0-1.4,0.4-1.4,2.4h18.9l-0.3-5.2H77.9z"/>
			<g>
				<path style="fill:#F3BD91;" d="M83.9,6.5c-3.4,0.6-7,2-9.1,4.9c-0.9,1.2-1.5,2.7-1.8,4.2c-0.2,1.4-0.1,4.3,0.4,7.5
					c0.2,1.2-0.2,2.5-1,3.5l0,0c-0.2,0.2-0.3,0.5-0.2,0.7c0,0.3,0.2,0.5,0.4,0.6c0.3,0.2,0.8,0.4,1.3,0.6c0.3,0.1,0.5,0.4,0.6,0.7
					c0.6,2.3,1.2,4.3,1.9,5.6c1.8,3.2,6.1,2.2,12.4-2.2c6.2-4.4,11.4-10.7,10.3-17.3C98,8.7,91.9,5.1,83.9,6.5z"/>
				<path style="fill:#FF8989;" d="M87.1,19.3C86,19.3,85,19.9,85,21c0,1.3,1,1.2,1,2.3c0,0.7-0.3,1-0.3,1.7c0,0.6,0.3,1.3,1.1,1.3
					c1.2,0,2.5-1.8,2.7-3.4C89.6,21.1,89,19.3,87.1,19.3z"/>
				<path style="fill:#B64426;" d="M83.9,6.5c-3.4,0.6-7,2-9.1,4.9c-0.9,1.2-1.5,2.7-1.8,4.2c-0.1,0.4-0.1,1-0.1,1.8
					c2.5,1.7,4.3,0.9,5.1,2.1c0.1-0.7-0.5-1.5-1.2-2.2c0.9,0.8,1.6,1.7,2.7,2.2c3.5,1.9,5.1,4.5,4,6.5c1.3-0.8,2.3-3.1,0.9-6.4
					c1.1,1.2,1.7,2.5,1.4,3.9c0.6-0.7,1.6-2.8,1.6-5.2c0.1,0.1,0.1,0.1,0.2,0.2c1.6,1.7,4.3,3.3,4.3,7.4c0,0,0.8-0.8,1.2-2.2
					c0.2,0.7,0.4,1.4,0.6,1.9c0.2,0.9,0.2,2,0.3,2.9c3.7-3.8,6.1-8.4,5.3-13.1C98,8.7,91.9,5.1,83.9,6.5z"/>
				<g>
					<path style="fill:#64354D;" d="M86.6,30.9l-1.9-5.7c-0.7-0.3-1.4-0.7-1.8-1l0,0l2.7,8.1c0.1-0.1,0.1-0.1,0.2-0.1l1.3,0.1
						c0.1,0,0.2,0.1,0.2,0.1l3.4-5.7c-0.5-0.1-1-0.1-1.5-0.2L86.6,30.9z"/>
					<path style="fill:#DCD2DA;" d="M87.1,32.3l-1.3-0.1c-0.1,0-0.2,0-0.2,0.1c0,0-0.1,0.1-0.1,0.2L85.4,34c0,0.1,0.1,0.3,0.2,0.3
						l1.3,0.1c0.1,0,0.3-0.1,0.3-0.2l0.2-1.6c0-0.1,0-0.1,0-0.2C87.3,32.4,87.2,32.3,87.1,32.3z"/>
					<path style="fill:#EAE6EC;" d="M96,24.6c-7.2,1.3-11.4-1.9-11.9-2.2c-0.1-0.1-0.2-0.2-0.2-0.3c-0.3-1-0.7-2.5-1-3.6
						c-0.6-2.1-2.4-3.7-4.6-4c-2.4-0.3-5.4-0.6-7.8-0.7l0,0c-0.6,0.3-1.2,1.1-1.5,1.6c-0.1,0.2,0,0.4,0.2,0.4
						c2.6,0.2,6.4,0.6,8.8,0.8c1.3,0.1,2.4,1.1,2.7,2.4c0.3,1.2,0.7,2.7,1,3.7c0.2,0.6,0.6,1.1,1.1,1.5l0,0c0.5,0.3,1.1,0.6,1.8,1
						c1.2,0.5,2.7,1.1,4.4,1.4c0.5,0.1,1,0.2,1.5,0.2c2.6,0.3,5.7,0.1,9-1.1c0.4-0.1,0.7-0.4,0.9-0.7c0.3-0.6,0.6-1.3,0.9-2
						C100.1,23.6,98.3,24.2,96,24.6z"/>
					<g>
						<path style="fill:#FFB066;" d="M70.5,13.7c0.4-1.4,1.1-2.7,1.9-3.9c2.1-3.1,6.1-5.6,11-6.5c9.6-1.7,17.4,3.3,18.9,11.6
							c0.5,2.6,0.1,5.4-0.9,8.1l0,0c-1.4,0.6-3.1,1.2-5.4,1.6c-7.2,1.3-11.4-1.9-11.9-2.2c-0.1-0.1-0.2-0.2-0.2-0.3
							c-0.3-1-0.7-2.5-1-3.6c-0.6-2.1-2.4-3.7-4.6-4C75.9,14.2,72.9,13.9,70.5,13.7z M86.6,21.4c0.2,1,1.1,1.7,2.2,1.5
							c1-0.2,1.7-1.1,1.5-2.2c-0.2-1-1.1-1.7-2.2-1.5C87.1,19.4,86.4,20.4,86.6,21.4z"/>
					</g>
				</g>
			</g>
		</g>
		<path style="fill:#FF6189;" d="M142.7,197c0,1.6-1.3,2.9-2.9,2.9H36c-1.6,0-2.9-1.3-2.9-2.9l0,0c0-1.6,1.3-2.9,2.9-2.9h103.8
			C141.4,194.1,142.7,195.4,142.7,197L142.7,197z"/>
		<g>
			<circle style="fill:#303941;" cx="29.5" cy="196.2" r="13"/>
			<circle style="fill:#7F9BC0;" cx="29.5" cy="196.2" r="7.7"/>
			<path style="fill:#EBEDEF;" d="M37.2,195.5c-2.3-0.9-2.8-2-1.7-4.2c-0.3-0.4-0.6-0.7-1-1c-2.2,1-3.3,0.6-4.2-1.7
				c-0.2,0-0.5,0-0.8,0s-0.5,0-0.8,0c-0.9,2.3-2,2.8-4.2,1.7c-0.4,0.3-0.7,0.6-1,1c1,2.2,0.6,3.3-1.7,4.2c0,0.3,0,0.5,0,0.8
				s0,0.5,0,0.8c2.3,0.9,2.8,2,1.7,4.2c0.3,0.4,0.6,0.7,1,1c2.2-1,3.3-0.6,4.2,1.7c0.3,0,0.5,0,0.8,0s0.5,0,0.8,0
				c0.9-2.3,2-2.8,4.2-1.7c0.4-0.3,0.7-0.6,1-1c-1-2.2-0.6-3.3,1.7-4.2c0-0.2,0-0.5,0-0.8S37.2,195.7,37.2,195.5z M29.5,199.6
				c-1.8,0-3.3-1.5-3.3-3.3s1.5-3.3,3.3-3.3s3.3,1.5,3.3,3.3S31.3,199.6,29.5,199.6z"/>
		</g>
		<g>
			<circle style="fill:#303941;" cx="137.6" cy="200.4" r="8.9"/>
			<circle style="fill:#7F9BC0;" cx="137.6" cy="200.4" r="5.3"/>
			<path style="fill:#EBEDEF;" d="M142.8,199.8c-1.6-0.6-1.9-1.3-1.2-2.8c-0.2-0.3-0.4-0.5-0.7-0.7c-1.5,0.7-2.3,0.4-2.8-1.2
				c-0.2,0-0.3,0-0.5,0s-0.3,0-0.5,0c-0.6,1.6-1.3,1.9-2.8,1.2c-0.3,0.2-0.5,0.4-0.7,0.7c0.7,1.5,0.4,2.3-1.2,2.8c0,0.2,0,0.3,0,0.5
				s0,0.3,0,0.5c1.6,0.6,1.9,1.3,1.2,2.8c0.2,0.3,0.4,0.5,0.7,0.7c1.5-0.7,2.3-0.4,2.8,1.2c0.2,0,0.3,0,0.5,0s0.3,0,0.5,0
				c0.6-1.6,1.3-1.9,2.8-1.2c0.3-0.2,0.5-0.4,0.7-0.7c-0.7-1.5-0.4-2.3,1.2-2.8c0-0.2,0-0.3,0-0.5
				C142.9,200.2,142.8,200,142.8,199.8z M137.6,202.6c-1.3,0-2.3-1-2.3-2.3s1-2.3,2.3-2.3s2.3,1,2.3,2.3
				C139.9,201.6,138.8,202.6,137.6,202.6z"/>
		</g>
		<circle style="fill:#303941;" cx="44.9" cy="90.7" r="3.8"/>
		<path style="fill:#F3BD91;" d="M45.8,86.8c-1.2-0.4-2.9-0.1-3.9,0.6c-0.9,0.6-2.4,2.1-2.4,3.4c0,0.5,0.2,1.4,0.7,1.6
			c0.9,0.4,0.8-0.5,1.1-1.1c0.6-1,2.2-1.7,3.3-1.8c1.6,0,1.8,0.7,2.4,2c0.5,1.2,1.6,2.9,3.3,2.7c0.4-0.1,1.4-0.2,1.6-0.6
			c0.5-1-1.6-5.2-2.4-5.2C48.3,88.3,47.4,87.3,45.8,86.8z"/>
		<path style="fill:#6C6EAC;" d="M101.7,44c0,0-5.7-3.6-9.6,4.5L71.4,75.9c0,0-17.2,7.4-22.8,11.6c0,0,0.7,5.3,2.3,7
			c0,0,38.9-9.4,52.3-39.2C103.2,55.2,107.3,46.3,101.7,44z"/>
	</g>
</g>
</svg>
