<?xml version="1.0" encoding="utf-8"?>
<!-- Generator: Adobe Illustrator 19.0.0, SVG Export Plug-In . SVG Version: 6.00 Build 0)  -->
<svg version="1.1" id="Modo_de_aislamiento" xmlns="http://www.w3.org/2000/svg" xmlns:xlink="http://www.w3.org/1999/xlink"
	 x="0px" y="0px" viewBox="0 0 160 160" style="enable-background:new 0 0 160 160;" xml:space="preserve">
<style type="text/css">
	.st0{fill:#FFFFFF;}
</style>
<g>
	<g>
		<g>
			<g>
				<g>
					<g>
						<path class="st0" d="M80,116.5v16.3h4.1c7.1,0,12.9-5.8,12.9-12.9v-3.4H80z"/>
					</g>
				</g>
			</g>
		</g>
		<g>
			<g>
				<g>
					<g>
						<path class="st0" d="M98.4,104.6H61.6V103c0-4.4-1.8-8.7-5.1-12.1c-6.7-6.8-10.1-16.3-9.4-25.9c1.3-16,14.4-29,30.5-30.1
							c9.2-0.6,18.1,2.5,24.8,8.8c6.7,6.2,10.5,15,10.5,24.1c0,8.9-3.5,17.2-9.8,23.4c-3.1,3-4.8,7.3-4.8,11.8V104.6z M64.6,101.6
							h30.8c0.3-4.7,2.4-9.3,5.7-12.5c5.7-5.7,8.9-13.2,8.9-21.3c0-8.3-3.5-16.3-9.5-21.9c-6.1-5.7-14.2-8.6-22.6-8
							c-14.6,1-26.5,12.8-27.7,27.3c-0.7,8.7,2.4,17.3,8.5,23.5C62.2,92.4,64.3,96.9,64.6,101.6z"/>
					</g>
				</g>
			</g>
		</g>
		<g>
			<g>
				<g>
					<g>
						<path class="st0" d="M58.9,67.5c0,0-0.1,0-0.1,0c-0.8-0.1-1.4-0.8-1.4-1.6c0.9-11.2,10.1-20.3,21.4-21.1
							c6.2-0.4,12.3,1.6,16.9,5.7c0.6,0.5,0.7,1.5,0.1,2.1c-0.5,0.6-1.5,0.7-2.1,0.1c-4-3.5-9.3-5.3-14.7-5
							c-9.8,0.7-17.8,8.6-18.6,18.3C60.3,66.9,59.7,67.5,58.9,67.5z"/>
					</g>
				</g>
			</g>
		</g>
		<g>
			<g>
				<g>
					<g>
						<path class="st0" d="M97.1,111.2H62.9c-0.8,0-1.5-0.7-1.5-1.5s0.7-1.5,1.5-1.5h34.1c0.8,0,1.5,0.7,1.5,1.5
							S97.9,111.2,97.1,111.2z"/>
					</g>
				</g>
			</g>
		</g>
		<g>
			<g>
				<g>
					<g>
						<path class="st0" d="M81.8,134.3h-3.6c-9.2,0-16.8-7.5-16.8-16.8V115h37.1v2.6C98.6,126.8,91,134.3,81.8,134.3z M64.5,118
							c0.2,7.4,6.3,13.3,13.8,13.3h3.6c7.4,0,13.5-5.9,13.8-13.3H64.5z"/>
					</g>
				</g>
			</g>
		</g>
		<g>
			<g>
				<g>
					<g>
						<path class="st0" d="M80,141.4c-3.6,0-6.5-2.9-6.5-6.5v-1.8c0-0.8,0.7-1.5,1.5-1.5c0.8,0,1.5,0.7,1.5,1.5v1.8
							c0,2,1.6,3.5,3.5,3.5c2,0,3.5-1.6,3.5-3.5v-1.8c0-0.8,0.7-1.5,1.5-1.5c0.8,0,1.5,0.7,1.5,1.5v1.8
							C86.5,138.5,83.6,141.4,80,141.4z"/>
					</g>
				</g>
			</g>
		</g>
	</g>
	<g>
		<g>
			<g>
				<g>
					<path class="st0" d="M80,29.7c-0.8,0-1.5-0.7-1.5-1.5v-8.1c0-0.8,0.7-1.5,1.5-1.5c0.8,0,1.5,0.7,1.5,1.5v8.1
						C81.5,29,80.8,29.7,80,29.7z"/>
				</g>
			</g>
		</g>
	</g>
	<g>
		<g>
			<g>
				<g>
					<path class="st0" d="M66.5,32.1c-0.6,0-1.2-0.4-1.4-1l-2.8-7.6c-0.3-0.8,0.1-1.6,0.9-1.9c0.8-0.3,1.6,0.1,1.9,0.9l2.8,7.6
						c0.3,0.8-0.1,1.6-0.9,1.9C66.8,32.1,66.6,32.1,66.5,32.1z"/>
				</g>
			</g>
		</g>
	</g>
	<g>
		<g>
			<g>
				<g>
					<path class="st0" d="M54.6,39c-0.4,0-0.9-0.2-1.2-0.5l-5.2-6.2c-0.5-0.6-0.4-1.6,0.2-2.1c0.6-0.5,1.6-0.4,2.1,0.2l5.2,6.2
						c0.5,0.6,0.4,1.6-0.2,2.1C55.3,38.8,54.9,39,54.6,39z"/>
				</g>
			</g>
		</g>
	</g>
	<g>
		<g>
			<g>
				<g>
					<path class="st0" d="M45.7,49.5c-0.3,0-0.5-0.1-0.7-0.2l-7-4.1c-0.7-0.4-1-1.3-0.5-2c0.4-0.7,1.3-1,2-0.5l7,4.1
						c0.7,0.4,1,1.3,0.5,2C46.8,49.2,46.3,49.5,45.7,49.5z"/>
				</g>
			</g>
		</g>
	</g>
	<g>
		<g>
			<g>
				<g>
					<path class="st0" d="M41,62.4c-0.1,0-0.2,0-0.3,0l-8-1.4c-0.8-0.1-1.4-0.9-1.2-1.7c0.1-0.8,0.9-1.4,1.7-1.2l8,1.4
						c0.8,0.1,1.4,0.9,1.2,1.7C42.4,61.9,41.8,62.4,41,62.4z"/>
				</g>
			</g>
		</g>
	</g>
	<g>
		<g>
			<g>
				<g>
					<path class="st0" d="M33,77.5c-0.7,0-1.3-0.5-1.5-1.2c-0.1-0.8,0.4-1.6,1.2-1.7l8-1.4c0.8-0.1,1.6,0.4,1.7,1.2
						c0.1,0.8-0.4,1.6-1.2,1.7l-8,1.4C33.2,77.5,33.1,77.5,33,77.5z"/>
				</g>
			</g>
		</g>
	</g>
	<g>
		<g>
			<g>
				<g>
					<path class="st0" d="M127,77.5c-0.1,0-0.2,0-0.3,0l-8-1.4c-0.8-0.1-1.4-0.9-1.2-1.7c0.1-0.8,0.9-1.4,1.7-1.2l8,1.4
						c0.8,0.1,1.4,0.9,1.2,1.7C128.3,77,127.7,77.5,127,77.5z"/>
				</g>
			</g>
		</g>
	</g>
	<g>
		<g>
			<g>
				<g>
					<path class="st0" d="M119,62.4c-0.7,0-1.3-0.5-1.5-1.2c-0.1-0.8,0.4-1.6,1.2-1.7l8-1.4c0.8-0.1,1.6,0.4,1.7,1.2
						c0.1,0.8-0.4,1.6-1.2,1.7l-8,1.4C119.1,62.4,119,62.4,119,62.4z"/>
				</g>
			</g>
		</g>
	</g>
	<g>
		<g>
			<g>
				<g>
					<path class="st0" d="M114.3,49.5c-0.5,0-1-0.3-1.3-0.8c-0.4-0.7-0.2-1.6,0.5-2l7-4.1c0.7-0.4,1.6-0.2,2,0.5
						c0.4,0.7,0.2,1.6-0.5,2l-7,4.1C114.8,49.4,114.5,49.5,114.3,49.5z"/>
				</g>
			</g>
		</g>
	</g>
	<g>
		<g>
			<g>
				<g>
					<path class="st0" d="M105.4,39c-0.3,0-0.7-0.1-1-0.4c-0.6-0.5-0.7-1.5-0.2-2.1l5.2-6.2c0.5-0.6,1.5-0.7,2.1-0.2
						c0.6,0.5,0.7,1.5,0.2,2.1l-5.2,6.2C106.3,38.8,105.9,39,105.4,39z"/>
				</g>
			</g>
		</g>
	</g>
	<g>
		<g>
			<g>
				<g>
					<path class="st0" d="M93.5,32.1c-0.2,0-0.3,0-0.5-0.1c-0.8-0.3-1.2-1.1-0.9-1.9l2.8-7.6c0.3-0.8,1.1-1.2,1.9-0.9
						c0.8,0.3,1.2,1.1,0.9,1.9l-2.8,7.6C94.7,31.7,94.1,32.1,93.5,32.1z"/>
				</g>
			</g>
		</g>
	</g>
</g>
</svg>
