<?xml version="1.0" encoding="utf-8"?>
<!-- Generator: Adobe Illustrator 19.0.0, SVG Export Plug-In . SVG Version: 6.00 Build 0)  -->
<svg version="1.1" id="Capa_1" xmlns="http://www.w3.org/2000/svg" xmlns:xlink="http://www.w3.org/1999/xlink" x="0px" y="0px"
	 viewBox="-361 317 160 160" style="enable-background:new -361 317 160 160;" xml:space="preserve">
<style type="text/css">
	.st0{fill:#FFFFFF;}
</style>
<g>
	<g>
		<g>
			<path class="st0" d="M-228.5,437h-105c-4.1,0-7.5-3.4-7.5-7.5v-65c0-4.1,3.4-7.5,7.5-7.5h105c4.1,0,7.5,3.4,7.5,7.5v65
				C-221,433.6-224.4,437-228.5,437z M-333.5,362c-1.4,0-2.5,1.1-2.5,2.5v65c0,1.4,1.1,2.5,2.5,2.5h105c1.4,0,2.5-1.1,2.5-2.5v-65
				c0-1.4-1.1-2.5-2.5-2.5H-333.5z"/>
		</g>
		<g>
			<path class="st0" d="M-281,402c-2.6,0-5.2-0.8-7.4-2.4l-50.3-36.4c-1.1-0.8-1.4-2.4-0.6-3.5s2.4-1.4,3.5-0.6l50.3,36.4
				c2.6,1.9,6.2,1.9,8.8,0l50.4-36.4c1.1-0.8,2.7-0.6,3.5,0.6s0.6,2.7-0.6,3.5l-50.4,36.4C-275.9,401.2-278.4,402-281,402z"/>
		</g>
		<g>
			<path class="st0" d="M-337.2,435.4c-0.8,0-1.5-0.4-2-1c-0.8-1.1-0.6-2.7,0.6-3.5l49.5-35.9c1.1-0.8,2.7-0.6,3.5,0.6
				c0.8,1.1,0.6,2.7-0.6,3.5l-49.5,35.9C-336.1,435.2-336.6,435.4-337.2,435.4z"/>
		</g>
		<g>
			<path class="st0" d="M-224.9,435.4c-0.5,0-1-0.2-1.5-0.5l-49.5-35.9c-1.1-0.8-1.4-2.4-0.6-3.5s2.4-1.4,3.5-0.6l49.5,35.9
				c1.1,0.8,1.4,2.4,0.6,3.5C-223.3,435-224.1,435.4-224.9,435.4z"/>
		</g>
	</g>
</g>
</svg>
