<?xml version="1.0" encoding="utf-8"?>
<!-- Generator: Adobe Illustrator 19.0.0, SVG Export Plug-In . SVG Version: 6.00 Build 0)  -->
<svg version="1.1" id="Modo_de_aislamiento" xmlns="http://www.w3.org/2000/svg" xmlns:xlink="http://www.w3.org/1999/xlink"
	 x="0px" y="0px" viewBox="0 0 160 160" style="enable-background:new 0 0 160 160;" xml:space="preserve">
<style type="text/css">
	.st0{fill:none;stroke:#FFFFFF;stroke-width:3;stroke-linecap:round;stroke-linejoin:round;stroke-miterlimit:10;}
	.st1{fill:none;stroke:#FFFFFF;stroke-width:3;stroke-linecap:round;stroke-miterlimit:10;}
	.st2{fill:#FFFFFF;}
</style>
<g>
	<line class="st0" x1="58.5" y1="86.7" x2="65.7" y2="86.7"/>
	<line class="st0" x1="58.5" y1="74" x2="65.7" y2="74"/>
	<line class="st0" x1="58.5" y1="61.4" x2="65.7" y2="61.4"/>
	<line class="st0" x1="72.6" y1="35.6" x2="72.6" y2="116"/>
	<path id="XMLID_58_" class="st1" d="M72.6,20L72.6,20c-7.8,0-14.1,6.3-14.1,14.1v62.3c-6,4.4-10,11.5-10,19.5
		c0,13.3,10.8,24.1,24.1,24.1c13.3,0,24.1-10.8,24.1-24.1c0-8-3.9-15.1-10-19.5V34"/>
	<path id="XMLID_57_" class="st1" d="M72.6,20L72.6,20c7.8,0,14.1,6.3,14.1,14.1"/>
	<circle class="st0" cx="105.8" cy="89.2" r="5.7"/>
	<path class="st2" d="M72.6,134.5c10.2,0,18.5-8.3,18.6-18.5h-7.6c0,6.1-4.9,11-11,11c-6.1,0-11-4.9-11-11H54
		C54.1,126.2,62.4,134.5,72.6,134.5z"/>
</g>
</svg>
