<?xml version="1.0" encoding="utf-8"?>
<!-- Generator: Adobe Illustrator 19.0.0, SVG Export Plug-In . SVG Version: 6.00 Build 0)  -->
<svg version="1.1" id="Layer_2" xmlns="http://www.w3.org/2000/svg" xmlns:xlink="http://www.w3.org/1999/xlink" x="0px" y="0px"
	 viewBox="30 -30 160 160" style="enable-background:new 30 -30 160 160;" xml:space="preserve">
<style type="text/css">
	.st0{fill:none;stroke:#FFFFFF;stroke-width:2.6;stroke-linecap:round;stroke-linejoin:round;stroke-miterlimit:10;}
	.st1{fill:#FFFFFF;}
	.st2{font-family:'MyanmarSangamMN-Bold';}
	.st3{font-size:24.9796px;}
</style>
<path class="st0" d="M63.4,81.5c-8.2-0.3-12.2-5.6-13-13.3c-1.3-12.1,1-7.7,10.6-11.3c16.9-6.5,27.5-15,47-11.6
	c13.6,2.4,25,10.5,37.8,14.6c6.2,2,18.7,1.9,22.6,8.5c5.4,9.2-2.9,12.6-10.8,13.3"/>
<line class="st0" x1="91.3" y1="82.3" x2="129.7" y2="82.3"/>
<path class="st0" d="M163.3,70.6c-0.5,0-1.1,0-1.7-0.1c-4.7-0.4-5.7-1.4-6.9-3.6"/>
<circle class="st0" cx="77.4" cy="79.9" r="9.1"/>
<circle class="st0" cx="143.6" cy="79.9" r="9.1"/>
<path class="st0" d="M59.8,68.5c-3.2,1.4-4.6-0.6-4-4.4c0-0.3,0.3-0.6,0.7-0.6h6.3c0.4,0,0.7,0.4,0.6,0.8c0,0.1-0.1,0.2-0.1,0.4
	C62.7,66.2,61.2,67.9,59.8,68.5z"/>
<path class="st0" d="M101.2,59.8l29,1.9c0.9,0.1,1.2-1.2,0.4-1.6c-1.7-0.8-3.5-1.7-4.8-2.3c-6-3-10.8-4.9-18.1-6.6
	c-2.4-0.6-7.6-0.9-8-0.9L101.2,59.8z"/>
<path class="st0" d="M94,50.7c-3.9,0.6-7.7,1.8-11.5,3.3c-0.5,0.2-2.2,1-4,1.8c-1.3,0.6-0.9,2.5,0.5,2.6l16.4,1L94,50.7z"/>
<circle class="st0" cx="77.4" cy="79.9" r="2.8"/>
<circle class="st0" cx="143.6" cy="79.9" r="2.8"/>
<path class="st0" d="M132.6,38.2c-2.5,0-4.5-2-4.5-4.5V12.9c0-2.5,2-4.5,4.5-4.5h20.7c2.5,0,4.5,2,4.5,4.5v20.7c0,2.5-2,4.5-4.5,4.5
	L132.6,38.2L132.6,38.2z"/>
<line class="st0" x1="143" y1="38.2" x2="143" y2="52.6"/>
<line class="st0" x1="55.2" y1="91.6" x2="163.2" y2="91.6"/>
<text transform="matrix(1 0 0 1 135.9714 32.804)" class="st1 st2 st3">E</text>
</svg>
