<?xml version="1.0" encoding="utf-8"?>
<!-- Generator: Adobe Illustrator 19.0.0, SVG Export Plug-In . SVG Version: 6.00 Build 0)  -->
<svg version="1.1" id="Capa_1" xmlns="http://www.w3.org/2000/svg" xmlns:xlink="http://www.w3.org/1999/xlink" x="0px" y="0px"
	 viewBox="0 0 160 160" style="enable-background:new 0 0 160 160;" xml:space="preserve">
<style type="text/css">
	.st0{fill:#FFFFFF;}
</style>
<g>
	<path class="st0" d="M122.7,38.4l-2.1-2.1c-0.8-0.8-2.2-0.8-3,0c-0.8,0.8-0.8,2.2,0,3l2.1,2.1c10.7,10.7,16.4,24.9,16,40
		c-0.4,15.1-6.8,29-18,39.2c-0.9,0.8-0.9,2.1-0.2,3c0.4,0.5,1,0.7,1.6,0.7c0.5,0,1-0.2,1.4-0.6c6.1-5.5,10.9-12.1,14.2-19.5
		c3.2-7.2,5-14.8,5.1-22.7c0.2-7.9-1.2-15.6-4-22.9C133,51,128.6,44.2,122.7,38.4L122.7,38.4z"/>
	<path class="st0" d="M122.5,81.1c0.1-5.9-0.9-11.7-3-17.2c-2.2-5.7-5.6-10.8-10-15.2l-1.5-1.5c-0.8-0.8-2.2-0.8-3,0
		c-0.8,0.8-0.8,2.2,0,3l1.5,1.5c7.8,7.8,12,18.2,11.7,29.3c-0.3,11.1-5,21.3-13.2,28.7c-0.9,0.8-0.9,2.1-0.2,3
		c0.4,0.5,1,0.7,1.6,0.7c0.5,0,1-0.2,1.4-0.6c4.6-4.2,8.2-9.1,10.7-14.7C121.1,92.8,122.4,87.1,122.5,81.1L122.5,81.1z"/>
	<path class="st0" d="M39.4,123.8c0.4,0.4,0.9,0.6,1.4,0.6c0.6,0,1.2-0.2,1.6-0.7c0.8-0.9,0.7-2.2-0.2-3
		c-11.2-10.1-17.6-24.1-18-39.2c-0.4-15.1,5.3-29.3,16-40l2.1-2.1c0.8-0.8,0.8-2.2,0-3c-0.8-0.8-2.2-0.8-3,0l-2.1,2.1
		C31.4,44.2,27,51,24,58.6c-2.9,7.3-4.2,15-4,22.9c0.2,7.9,1.9,15.5,5.1,22.7C28.5,111.7,33.3,118.2,39.4,123.8L39.4,123.8z"/>
	<path class="st0" d="M55,50.2c0.8-0.8,0.8-2.2,0-3c-0.8-0.8-2.2-0.8-3,0l-1.5,1.5c-4.4,4.4-7.7,9.5-10,15.2
		c-2.1,5.5-3.2,11.3-3,17.2c0.1,5.9,1.5,11.7,3.9,17.1c2.5,5.6,6.1,10.5,10.7,14.7c0.4,0.4,0.9,0.6,1.4,0.6c0.6,0,1.2-0.2,1.6-0.7
		c0.8-0.9,0.7-2.2-0.2-3C46.7,102.3,42,92.1,41.8,81C41.5,70,45.6,59.6,53.5,51.7L55,50.2L55,50.2z"/>
	<path class="st0" d="M79.7,71.4c5.5,0,9.9,4.5,9.9,9.9c0,5.5-4.5,9.9-9.9,9.9c-5.5,0-9.9-4.5-9.9-9.9
		C69.7,75.9,74.2,71.4,79.7,71.4L79.7,71.4z M58.9,81.3c0,11.5,9.3,20.8,20.8,20.8c11.5,0,20.8-9.3,20.8-20.8
		c0-11.5-9.3-20.8-20.8-20.8C68.2,60.6,58.9,69.9,58.9,81.3L58.9,81.3z"/>
	<path class="st0" d="M79.5,86c2.7,0,5-2.2,5-5c0-2.7-2.2-5-5-5c-2.7,0-5,2.2-5,5C74.5,83.8,76.7,86,79.5,86L79.5,86z"/>
</g>
</svg>
