<?xml version="1.0" encoding="utf-8"?>
<!-- Generator: Adobe Illustrator 19.0.0, SVG Export Plug-In . SVG Version: 6.00 Build 0)  -->
<svg version="1.1" id="Modo_de_aislamiento" xmlns="http://www.w3.org/2000/svg" xmlns:xlink="http://www.w3.org/1999/xlink"
	 x="0px" y="0px" viewBox="0 0 160 160" style="enable-background:new 0 0 160 160;" xml:space="preserve">
<style type="text/css">
	.st0{fill:none;stroke:#FFFFFF;stroke-width:3;stroke-linecap:round;stroke-linejoin:round;stroke-miterlimit:10;}
	.st1{fill:#FFFFFF;}
</style>
<g>
	<path class="st0" d="M60.7,101l-4.9,0l-8.5,0h-2.6C33.8,101,25,92.2,25,81.4c0-10.9,8.8-19.7,19.7-19.7c0.3,0,0.5,0,0.8,0
		c-0.4-1.9-0.6-3.9-0.6-5.9c0-15.1,12.3-27.4,27.4-27.4c12.3,0,22.7,8.1,26.2,19.3c2.9-1,6-1.6,9.2-1.6c15.1,0,27.4,12.3,27.4,27.4
		c0,14.6-11.4,26.5-25.7,27.4l-5.1,0l-5.4,0"/>
	<line class="st0" x1="80.1" y1="70.5" x2="80.1" y2="131.5"/>
	<line class="st0" x1="93.1" y1="82.9" x2="93.1" y2="120.2"/>
	<line class="st0" x1="66.9" y1="81" x2="66.9" y2="118.4"/>
	<path class="st1" d="M107.6,51.3c-2.6,0-5.1,0.4-7.5,1.3l0,0c-2.7,1-5.7-0.5-6.6-3.3l0,0C90.6,39.9,82,33.6,72.2,33.6
		c-12.3,0-22.3,10-22.3,22.3c0,0.7,0,1.4,0.1,2.1c0.3-0.7,0.6-1.3,1-2c2.2-4,5.3-7.7,9.4-9.8c6.1-3.2,13.8-2.4,19.7,1.2
		c3.6,2.3,6.6,5.5,8.7,9.3c1.8,3.1,5.5,4.5,8.9,3.4c3.1-0.9,6.5-1.1,9.7-0.9c7.3,0.4,14.5,2.5,20.9,6
		C124.9,57,116.9,51.3,107.6,51.3z"/>
</g>
</svg>
