<?xml version="1.0" encoding="utf-8"?>
<!-- Generator: Adobe Illustrator 19.0.0, SVG Export Plug-In . SVG Version: 6.00 Build 0)  -->
<svg version="1.1" id="Modo_de_aislamiento" xmlns="http://www.w3.org/2000/svg" xmlns:xlink="http://www.w3.org/1999/xlink"
	 x="0px" y="0px" viewBox="30 -30 160 160" style="enable-background:new 30 -30 160 160;" xml:space="preserve">
<style type="text/css">
	.st0{fill:none;stroke:#FFFFFF;stroke-width:2.6;stroke-miterlimit:22.9256;}
	.st1{fill:none;stroke:#FFFFFF;stroke-width:2.6;stroke-miterlimit:22.9256;stroke-dasharray:1.4173,1.4173;}
</style>
<g>
	<path class="st0" d="M66.8,38.9c-1.5,1.8-1.6,2.6-1.6,3.8c0,1.4,1,2.1,2.4,2.3c9.6,0.5,19,0.5,28.6,0c1.2-0.1,2.4-0.9,2.4-2.3
		c0-1.1-0.1-2-1.6-3.8 M101.5,50.4l-6.8,0.9 M62.1,50.4l6.8,0.9 M95.1,61.6v2.6c0,0.5,0.5,1,1,1h7.6c0.6,0,1-0.5,1-1
		c0-3.9,0-5.1,0-13.6c0-1.4-0.4-2.6-1-3.4c-0.5-0.6-4.6-5.5-8.9-10.8c-0.2-0.2-0.8-0.7-1.6-0.9c-9.2-0.6-13.8-0.6-23,0
		c-0.9,0.1-1.4,0.6-1.6,0.9c-4.4,5.2-8.4,10-8.9,10.8c-0.8,0.9-1,2-1,3.4c0,8.5,0,9.8,0,13.6c0,0.5,0.5,1,1,1h7.6c0.6,0,1-0.5,1-1
		v-2.6C77.5,62.1,86.4,62.1,95.1,61.6L95.1,61.6z M101.4,41.5h4.9 M57.4,41.5h4.9"/>
	<line class="st1" x1="109.8" y1="86.3" x2="109.8" y2="62.1"/>
	<path class="st0" d="M122.9,38.9c-1.5,1.8-1.6,2.6-1.6,3.8c0,1.4,1,2.1,2.4,2.3c9.6,0.5,19,0.5,28.6,0c1.2-0.1,2.4-0.9,2.4-2.3
		c0-1.1-0.1-2-1.6-3.8 M157.6,50.4l-6.8,0.9 M118.2,50.4l6.8,0.9 M151.2,61.6v2.6c0,0.5,0.5,1,1,1h7.6c0.6,0,1-0.5,1-1
		c0-3.9,0-5.1,0-13.6c0-1.4-0.4-2.6-1-3.4c-0.5-0.6-4.6-5.5-8.9-10.8c-0.2-0.2-0.8-0.7-1.6-0.9c-9.2-0.6-13.8-0.6-23,0
		c-0.9,0.1-1.4,0.6-1.6,0.9c-4.4,5.2-8.4,10-8.9,10.8c-0.8,0.9-1,2-1,3.4c0,8.5,0,9.8,0,13.6c0,0.5,0.5,1,1,1h7.6c0.6,0,1-0.5,1-1
		v-2.6C133.6,62.1,142.5,62.1,151.2,61.6L151.2,61.6z M157.6,41.5h4.9 M113.5,41.5h4.9"/>
	<path class="st0" d="M185,86.1l-19.5-22 M35,86.1l19.5-22"/>
	<path class="st0" d="M65.9,18.8h3.9 M100.5,18.8h3.9 M103.2,31.5c0-1.4,0-3,0-5.6c0-1.1-0.2-2-0.8-2.8c-0.4-0.5-3.6-4.3-7-8.4
		c-0.1-0.3-0.6-0.6-1.2-0.7c-7.2-0.5-10.8-0.5-18,0c-0.8,0.1-1.1,0.5-1.2,0.7c-3.4,4.1-6.6,7.9-7,8.4c-0.5,0.6-0.9,1.6-0.8,2.8
		c0,2.4,0,4.1,0,5.4 M69.6,25.6l5.4,0.6 M100.5,25.6l-5.2,0.6 M73.2,16.6c-1.1,1.4-1.2,2.1-1.2,3c0,1.1,0.9,1.6,1.9,1.8
		c7.6,0.4,15,0.4,22.5,0c1,0,1.9-0.6,1.9-1.8c0-0.9-0.1-1.5-1.2-3 M114.9,18.8h3.9 M149.5,18.8h3.9 M152.2,31.5c0-1.4,0-3,0-5.6
		c0-1.1-0.2-2-0.8-2.8c-0.4-0.5-3.6-4.3-7-8.4c-0.1-0.3-0.6-0.6-1.2-0.7c-7.2-0.5-10.7-0.5-18,0c-0.8,0.1-1.1,0.5-1.2,0.7
		c-3.4,4.1-6.6,7.9-7,8.4c-0.5,0.6-0.9,1.6-0.8,2.8c0,2.4,0,4.1,0,5.4 M118.6,25.6l5.4,0.6 M149.6,25.6l-5.4,0.6 M122.2,16.6
		c-1.1,1.4-1.2,2.1-1.2,3c0,1.1,0.9,1.6,1.9,1.8c7.6,0.4,15,0.4,22.5,0c1,0,1.9-0.6,1.9-1.8c0-0.9-0.1-1.5-1.2-3"/>
</g>
</svg>
