<?xml version="1.0" encoding="utf-8"?>
<!-- Generator: Adobe Illustrator 19.0.0, SVG Export Plug-In . SVG Version: 6.00 Build 0)  -->
<svg version="1.1" id="Capa_1" xmlns="http://www.w3.org/2000/svg" xmlns:xlink="http://www.w3.org/1999/xlink" x="0px" y="0px"
	 viewBox="0 0 160 160" style="enable-background:new 0 0 160 160;" xml:space="preserve">
<style type="text/css">
	.st0{fill:#2EBED2;}
	.st1{fill:#FFFFFF;}
</style>
<path class="st0" d="M135.7,61.5c0,42.6-56.1,97.5-56.1,97.5s-56.1-54.9-56.1-97.5c0-30.8,25.1-55.8,56.1-55.8
	S135.7,30.6,135.7,61.5z"/>
<g>
	<path class="st1" d="M110.6,32.9l-1.5-1.5c-0.6-0.6-1.6-0.6-2.2,0c-0.6,0.6-0.6,1.6,0,2.2l1.5,1.5c7.7,7.7,11.8,18,11.6,28.9
		c-0.3,10.9-4.9,21-13,28.3c-0.6,0.6-0.7,1.5-0.1,2.2c0.3,0.3,0.7,0.5,1.1,0.5c0.4,0,0.7-0.1,1-0.4c4.4-4,7.9-8.7,10.3-14.1
		c2.3-5.2,3.6-10.7,3.7-16.4c0.1-5.7-0.8-11.3-2.9-16.6C118,42.1,114.8,37.1,110.6,32.9L110.6,32.9z"/>
	<path class="st1" d="M110.4,63.9c0.1-4.3-0.6-8.5-2.2-12.5c-1.6-4.1-4-7.8-7.2-11l-1.1-1.1c-0.6-0.6-1.6-0.6-2.2,0
		c-0.6,0.6-0.6,1.6,0,2.2l1.1,1.1c5.7,5.7,8.7,13.2,8.5,21.2c-0.2,8-3.6,15.4-9.5,20.7c-0.6,0.6-0.7,1.5-0.1,2.2
		c0.3,0.3,0.7,0.5,1.1,0.5c0.4,0,0.7-0.1,1-0.4c3.3-3,5.9-6.6,7.7-10.6C109.4,72.3,110.3,68.1,110.4,63.9L110.4,63.9z"/>
	<path class="st1" d="M50.3,94.7c0.3,0.3,0.7,0.4,1,0.4c0.4,0,0.8-0.2,1.1-0.5c0.6-0.6,0.5-1.6-0.1-2.2C44.3,85,39.7,75,39.4,64.1
		C39.1,53.1,43.2,42.8,51,35.1l1.5-1.5c0.6-0.6,0.6-1.6,0-2.2c-0.6-0.6-1.6-0.6-2.2,0l-1.5,1.5c-4.2,4.2-7.4,9.1-9.6,14.6
		c-2.1,5.3-3,10.9-2.9,16.6c0.1,5.7,1.4,11.2,3.7,16.4C42.5,85.9,45.9,90.7,50.3,94.7L50.3,94.7z"/>
	<path class="st1" d="M61.6,41.5c0.6-0.6,0.6-1.6,0-2.2c-0.6-0.6-1.6-0.6-2.2,0l-1.1,1.1c-3.2,3.2-5.6,6.9-7.2,11
		c-1.6,4-2.3,8.2-2.2,12.5c0.1,4.3,1,8.4,2.8,12.3c1.8,4,4.4,7.6,7.7,10.6c0.3,0.3,0.7,0.4,1,0.4c0.4,0,0.8-0.2,1.1-0.5
		c0.6-0.6,0.5-1.6-0.1-2.2c-5.9-5.4-9.3-12.7-9.5-20.7c-0.2-8,2.8-15.5,8.5-21.2L61.6,41.5L61.6,41.5z"/>
	<path class="st1" d="M79.4,56.8c4,0,7.2,3.2,7.2,7.2c0,4-3.2,7.2-7.2,7.2c-4,0-7.2-3.2-7.2-7.2C72.3,60,75.5,56.8,79.4,56.8
		L79.4,56.8z M64.4,64c0,8.3,6.7,15,15,15c8.3,0,15-6.7,15-15c0-8.3-6.7-15-15-15C71.1,49,64.4,55.7,64.4,64L64.4,64z"/>
	<path class="st1" d="M79.3,67.4c2,0,3.6-1.6,3.6-3.6c0-2-1.6-3.6-3.6-3.6c-2,0-3.6,1.6-3.6,3.6C75.7,65.7,77.3,67.4,79.3,67.4
		L79.3,67.4z"/>
</g>
</svg>
