<?xml version="1.0" encoding="utf-8"?>
<!-- Generator: Adobe Illustrator 19.0.0, SVG Export Plug-In . SVG Version: 6.00 Build 0)  -->
<svg version="1.1" id="Modo_de_aislamiento" xmlns="http://www.w3.org/2000/svg" xmlns:xlink="http://www.w3.org/1999/xlink"
	 x="0px" y="0px" viewBox="0 0 1353.9 712" style="enable-background:new 0 0 1353.9 712;" xml:space="preserve">
<style type="text/css">
	.st0{opacity:0.2;}
	.st1{fill:#33B1DD;}
	.st2{fill:#B0E0F7;}
	.st3{display:none;opacity:0.2;fill:#A4C2FF;}
</style>
<image style="display:none;overflow:visible;" width="1566" height="838" xlink:href="Objeto inteligente vectorial.png"  transform="matrix(0.867 0 0 0.867 -19.8636 -14.6236)">
</image>
<g class="st0">
	<path class="st1" d="M1225.5,494.4h57.2c-2.8-3.1-5.9-6.1-9.3-9h-47.9V494.4z"/>
	<path class="st1" d="M1225.5,504.3h64.2c-1.6-3.1-3.8-6.1-6.3-9h-57.9V504.3z"/>
	<path class="st1" d="M1225.5,474.7h34.5c-3.9-3-7.9-6-11.8-9h-22.8V474.7z"/>
	<path class="st1" d="M1225.5,514.1h67.5c-0.5-3.1-1.5-6.1-2.9-9h-64.6V514.1z"/>
	<path class="st1" d="M718.1,700.2c306.4,0,575.2-119,575.2-182c0-1.1-0.1-2.2-0.2-3.2h-70.3v-0.4h-0.2v-59.7v-5.7h2.8h4.5
		c-7.7-8.7-12.9-18.4-12.9-29.9c0-32.5,31.1-49.8,57.2-73.6v-9.2c0-2.4,1.5-4.4,3.5-4.4c1.9,0,3.5,2,3.5,4.4v2.6
		c6.4-6.5,12.2-13.5,16.9-21.5h-0.3v-18c0-2.4,1.5-4.4,3.5-4.4c1.9,0,3.5,2,3.5,4.4v3.9c0.9-2.6,1.7-5.4,2.4-8.2
		c2-8.5,2.5-17,1.8-25.5v3.5h-0.2h-12.6h-0.2v-19.5h-23v19.5h-17.7v87.7H1219v-30.2h-13.1v-77h-11.7v-25.4h-2.7v25.4h-10.7v-10.9
		h-20.2v10.9h-19.9v54.6h-14.1v-10.7h-43.3v10.7h-11.9v-22.9h-4v22.9h-11.9v78.8h-35.1V273.2h-3.5l-9.9-9.1v-21.3l-7.3-6.1
		c0-6.6-3.7-12.1-8.5-13.3v-30.5c0-1.4-0.9-2.5-1.9-2.5s-1.9,1.1-1.9,2.5v30.5c-4.9,1.2-8.5,6.6-8.5,13.3l-7.3,6.1v21.3l-9.9,9.1
		h-4.1v113.9h-7.7v1.6H816.5v16.3h133.4v0.4H816.5v15.1h133.4v0.4H816.5v14.7h133.4v0.4H816.5v89h-1.7v-89v-0.4v-14.7v-0.4v-15.1
		v-0.4v-16.3v-1.6v-1v-0.4V332c-17.8-16.7-36.3-32.8-53.8-49.8v-24.4h-16.3v-7.5h-66.6v7.5h-16.3v39.8h-16v10.7h-14.1v-54.6h-16.2
		v-87.6l-3.4-11.5l-0.5,31.4v9.8l-54.3,34.8l-0.4,100.1h-3.5v30.2h-1.9v-4.8h-12.5v-66.3l-5.7-8.1h-5.6v-6.7l-18.2-36.5v36.7
		l-19.4-0.1v6.7h-5.6l-5.7,8.1v66.3h-12.8l-9.6,4.8v66.6h-25.7v-66.6h-7.9h-36.3v-30.2h-13.1V326h-65v-1.2h65V317h-65v-1.2h65v-7.8
		h-65v-1.2h65v-7.8h-65v-1.2h65v-7.8h-65v-1.2h65v-7.8h-65v-1.2h65v-7.8h-65v-1.2h65v-7.8h-65v-1.2h65v-8h-11.7v-25.4h-2.7v25.4
		h-10.7v-10.9h-20.2v10.9h-19.9v54.6h-14.1v-10.7h-43.3v10.7h-11.9v-22.9h-4v22.9h-11.9l-16.1,78.8h-19V273.2l-3.5-9.1h-9.9v-21.3
		l-7.3-6.1c0-6.6-3.7-12.1-8.5-13.3v-30.5c0-1.4-0.8-2.5-1.9-2.5c-1,0-1.9,1.1-1.9,2.5v30.5c-4.9,1.2-8.5,6.6-8.5,13.3l-7.3,6.1
		v21.3h-9.9l-4.1,9.1v113.9h-15.4v-35.8H97.5v-43H79.6v-18.9H76v18.9h-8.4v-16.6H51.7v16.6h-5.6c-0.4,5,0,7.9,0,7.9
		c2.9,22.5,18,52,18,52s-15.9,21.2-21.8,42v30.7C71.2,554.2,382.8,700.2,718.1,700.2z M975.7,244.7h27v0.9h-27V244.7z M975.7,249.8
		h27v0.9h-27V249.8z M975.7,254.8h27v0.9h-27V254.8z M975.7,259.9h27v0.9h-27V259.9z M975.7,265h27v0.9h-27V265z M962.4,280.4h13.4
		v-0.1h27v0.1h13.4v1.2h-53.7V280.4z M962.4,286.8h53.7v1.2h-53.7V286.8z M962.4,293.3h53.7v1.2h-53.7V293.3z M962.4,299.8h53.7v1.2
		h-53.7V299.8z M962.4,306.3h53.7v1.2h-53.7V306.3z M962.4,312.8h53.7v1.2h-53.7V312.8z M962.4,319.3h53.7v1.2h-53.7V319.3z
		 M962.4,325.8h53.7v1.2h-53.7V325.8z M962.4,332.3h53.7v1.2h-53.7V332.3z M962.4,338.8h53.7v1.2h-53.7V338.8z M872.8,456.6h1.1
		h110.3v0.9H873.8v10.6h110.1v0.9H873.8v10.6h109.8v0.9H873.8v10.6h109.6v0.9H873.8v10.6h109.3v0.9H873.8v10.6h109.1v0.9H872.8
		V456.6z M797.3,341.5h3.8V361h-3.8V341.5z M797.3,425.7h3.8v19.5h-3.8V425.7z M777.8,377.4h3.8v19.5h-3.8V377.4z M777.8,425.9h3.8
		v19.5h-3.8V425.9z M767,317.3h3.8v19.5H767V317.3z M669.9,268.6h81.5v4.3h-81.5V268.6z M669.9,278.3h81.5v4.3h-81.5V278.3z
		 M669.9,288h81.5v4.3h-81.5V288z M669.9,297.8h81.5v4.3h-81.5V297.8z M669.9,307.5h81.5v4.3h-81.5V307.5z M669.9,317.3h81.5v4.3
		h-81.5V317.3z M669.9,327h81.5v4.3h-81.5V327z M669.9,336.7h81.5v4.3h-81.5V336.7z M669.9,346.5h81.5v4.3h-81.5V346.5z
		 M669.9,356.2h81.5v4.3h-81.5V356.2z M669.9,365.9h81.5v4.3h-81.5V365.9z M669.9,375.7h81.5v4.3h-81.5V375.7z M669.9,385.4h81.5
		v4.3h-81.5V385.4z M669.9,395.1h81.5v4.3h-81.5V395.1z M669.9,404.9h81.5v4.3h-81.5V404.9z M669.9,414.6h81.5v4.3h-81.5V414.6z
		 M669.9,424.3h81.5v4.3h-81.5V424.3z M669.9,434.1h81.5v4.3h-81.5V434.1z M669.9,443.8h81.5v4.3h-81.5V443.8z M669.9,453.5h81.5
		v4.3h-81.5V453.5z M669.9,463.3h81.5v4.3h-81.5V463.3z M669.9,473h81.5v4.3h-81.5V473z M669.9,482.7h81.5v4.3h-81.5V482.7z
		 M669.9,492.5h81.5v4.3h-81.5V492.5z M562.5,233h45.7v3.5h-45.7V233z M562.5,244.4h45.7v3.5h-45.7V244.4z M562.5,255.8h45.7v3.5
		h-45.7V255.8z M562.5,267.1h45.7v3.5h-45.7V267.1z M562.5,278.5h45.7v3.5h-45.7V278.5z M562.5,289.9h45.7v3.5h-45.7V289.9z
		 M562.5,301.3h45.7v3.5h-45.7V301.3z M562.5,312.6h45.7v3.5h-45.7V312.6z M562.5,324h45.7v3.5h-45.7V324z M562.5,335.4h45.7v3.5
		h-45.7V335.4z M562.5,346.8h45.7v3.5h-45.7V346.8z M562.5,358.1h45.7v3.5h-45.7V358.1z M562.5,369.5h45.7v3.5h-45.7V369.5z
		 M562.5,380.9h45.7v3.5h-45.7V380.9z M562.5,392.3h45.7v3.5h-45.7V392.3z M562.5,403.6h45.7v3.5h-45.7V403.6z M562.5,415h45.7v3.5
		h-45.7V415z M562.5,426.4h45.7v3.5h-45.7V426.4z M562.5,437.7h45.7v3.5h-45.7V437.7z M562.5,449.1h45.7v3.5h-45.7V449.1z
		 M562.5,460.5h45.7v3.5h-45.7V460.5z M562.5,471.9h45.7v3.5h-45.7V471.9z M562.5,483.2h45.7v3.5h-45.7V483.2z M562.5,494.6h45.7
		v3.5h-45.7V494.6z M526,294.9h4.5v19.7H526V294.9z M526,324h4.5v19.7H526V324z M516,294.9h4.5v19.7H516V294.9z M516,324h4.5v19.7
		H516V324z M506,294.9h4.5v19.7H506V294.9z M506,324h4.5v19.7H506V324z M496,294.9h4.5v19.7H496V294.9z M496,324h4.5v19.7H496V324z
		 M486,294.9h4.5v19.7H486V294.9z M486,324h4.5v19.7H486V324z M308.4,333.8h65v1.2h-65V333.8z M308.4,342.8h65v1.2h-65V342.8z
		 M308.4,351.8h65v1.2h-65V351.8z M308.4,360.8h65v1.2h-65V360.8z M308.4,369.9h65v1.2h-65V369.9z M279.1,304.8h4.6v20.6h-4.6V304.8
		z M257.9,320.2h4.6v20.6h-4.6V320.2z M165.4,302.8h4.4v17.3h-4.4V302.8z M146.5,329.5h4.4v17.3h-4.4V329.5z M138.2,281.3h4.4v17.3
		h-4.4V281.3z"/>
	<polygon class="st1" points="866.7,238.5 869.7,238.5 869.7,385.7 872.8,385.7 872.8,244.3 875.7,244.3 875.7,385.7 878.8,385.7 
		878.8,250 881.7,250 881.7,385.7 884.8,385.7 884.8,255.8 887.7,255.8 887.7,385.7 890.8,385.7 890.8,261.5 893.8,261.5 
		893.8,385.7 896.9,385.7 896.9,267.3 899.8,267.3 899.8,385.7 942.1,385.7 942.1,351.3 930,351.3 930,308.3 912.7,308.3 
		912.7,277.5 902.3,264.4 902.3,249.8 884.9,232.5 877.5,226.1 866.3,226.1 866.3,199.2 864.2,199.2 864.2,226.1 862.4,226.1 
		862.4,232.5 857.1,232.5 857.1,308.3 842.4,308.3 842.4,351.3 834.4,351.3 830.2,351.3 830.2,385.7 866.7,385.7 	"/>
	<path class="st1" d="M1225.5,464.9h21.8c-4.1-3.3-8.1-6.6-11.7-10.1h-10V464.9z"/>
	<path class="st1" d="M1225.5,484.6h46.9c-3.6-3-7.4-6-11.3-9h-35.6V484.6z"/>
	<path class="st2" d="M1301.3,295.1c-1.9,0-3.5,2-3.5,4.4v18h0.3c2.6-4.4,4.8-9.1,6.6-14.1v-3.9
		C1304.7,297.1,1303.2,295.1,1301.3,295.1z"/>
	<path class="st2" d="M1277.8,332.1c-1.9,0-3.5,2-3.5,4.4v9.2c2.4-2.1,4.7-4.4,6.9-6.6v-2.6C1281.2,334,1279.7,332.1,1277.8,332.1z"
		/>
	<path class="st2" d="M1222.7,449.1v5.7v59.7h0.2v0.4h70.3c0-0.3-0.1-0.5-0.1-0.8h-67.5v-9h64.6c-0.1-0.3-0.3-0.5-0.4-0.8h-64.2v-9
		h57.9c-0.2-0.3-0.5-0.5-0.7-0.8h-57.2v-9h47.9c-0.3-0.3-0.6-0.5-0.9-0.8h-46.9v-9h35.6c-0.3-0.3-0.7-0.5-1-0.8h-34.5v-9h22.8
		c-0.3-0.3-0.7-0.5-1-0.8h-21.8v-10.1h10c-2-1.9-3.8-3.8-5.6-5.7h-4.5H1222.7z"/>
	<polygon class="st2" points="982.9,514.5 873.8,514.5 873.8,503.8 983.2,503.8 983.2,502.9 873.8,502.9 873.8,492.3 983.4,492.3 
		983.4,491.3 873.8,491.3 873.8,480.7 983.7,480.7 983.7,479.7 873.8,479.7 873.8,469.1 983.9,469.1 983.9,468.2 873.8,468.2 
		873.8,457.5 984.2,457.5 984.2,456.6 873.8,456.6 872.8,456.6 872.8,515.4 982.9,515.4 	"/>
	<rect x="562.5" y="233" class="st2" width="45.7" height="3.5"/>
	<rect x="562.5" y="244.4" class="st2" width="45.7" height="3.5"/>
	<rect x="562.5" y="255.8" class="st2" width="45.7" height="3.5"/>
	<rect x="562.5" y="267.1" class="st2" width="45.7" height="3.5"/>
	<rect x="562.5" y="278.5" class="st2" width="45.7" height="3.5"/>
	<rect x="562.5" y="289.9" class="st2" width="45.7" height="3.5"/>
	<rect x="562.5" y="301.3" class="st2" width="45.7" height="3.5"/>
	<rect x="562.5" y="312.6" class="st2" width="45.7" height="3.5"/>
	<rect x="562.5" y="324" class="st2" width="45.7" height="3.5"/>
	<rect x="562.5" y="335.4" class="st2" width="45.7" height="3.5"/>
	<rect x="562.5" y="346.8" class="st2" width="45.7" height="3.5"/>
	<rect x="562.5" y="358.1" class="st2" width="45.7" height="3.5"/>
	<rect x="562.5" y="369.5" class="st2" width="45.7" height="3.5"/>
	<rect x="562.5" y="380.9" class="st2" width="45.7" height="3.5"/>
	<rect x="562.5" y="392.3" class="st2" width="45.7" height="3.5"/>
	<rect x="562.5" y="403.6" class="st2" width="45.7" height="3.5"/>
	<rect x="562.5" y="415" class="st2" width="45.7" height="3.5"/>
	<rect x="562.5" y="426.4" class="st2" width="45.7" height="3.5"/>
	<rect x="562.5" y="437.7" class="st2" width="45.7" height="3.5"/>
	<rect x="562.5" y="449.1" class="st2" width="45.7" height="3.5"/>
	<rect x="562.5" y="460.5" class="st2" width="45.7" height="3.5"/>
	<rect x="562.5" y="471.9" class="st2" width="45.7" height="3.5"/>
	<rect x="562.5" y="483.2" class="st2" width="45.7" height="3.5"/>
	<rect x="562.5" y="494.6" class="st2" width="45.7" height="3.5"/>
	<rect x="669.9" y="268.6" class="st2" width="81.5" height="4.3"/>
	<rect x="669.9" y="278.3" class="st2" width="81.5" height="4.3"/>
	<rect x="669.9" y="288" class="st2" width="81.5" height="4.3"/>
	<rect x="669.9" y="297.8" class="st2" width="81.5" height="4.3"/>
	<rect x="669.9" y="307.5" class="st2" width="81.5" height="4.3"/>
	<rect x="669.9" y="317.3" class="st2" width="81.5" height="4.3"/>
	<rect x="669.9" y="327" class="st2" width="81.5" height="4.3"/>
	<rect x="669.9" y="336.7" class="st2" width="81.5" height="4.3"/>
	<rect x="669.9" y="346.5" class="st2" width="81.5" height="4.3"/>
	<rect x="669.9" y="356.2" class="st2" width="81.5" height="4.3"/>
	<rect x="669.9" y="365.9" class="st2" width="81.5" height="4.3"/>
	<rect x="669.9" y="375.7" class="st2" width="81.5" height="4.3"/>
	<rect x="669.9" y="385.4" class="st2" width="81.5" height="4.3"/>
	<rect x="669.9" y="395.1" class="st2" width="81.5" height="4.3"/>
	<rect x="669.9" y="404.9" class="st2" width="81.5" height="4.3"/>
	<rect x="669.9" y="414.6" class="st2" width="81.5" height="4.3"/>
	<rect x="669.9" y="424.3" class="st2" width="81.5" height="4.3"/>
	<rect x="669.9" y="434.1" class="st2" width="81.5" height="4.3"/>
	<rect x="669.9" y="443.8" class="st2" width="81.5" height="4.3"/>
	<rect x="669.9" y="453.5" class="st2" width="81.5" height="4.3"/>
	<rect x="669.9" y="463.3" class="st2" width="81.5" height="4.3"/>
	<rect x="669.9" y="473" class="st2" width="81.5" height="4.3"/>
	<rect x="669.9" y="482.7" class="st2" width="81.5" height="4.3"/>
	<rect x="669.9" y="492.5" class="st2" width="81.5" height="4.3"/>
	<rect x="890.8" y="261.5" class="st2" width="2.9" height="124.2"/>
	<rect x="896.9" y="267.3" class="st2" width="2.9" height="118.4"/>
	<rect x="884.8" y="255.8" class="st2" width="2.9" height="129.9"/>
	<rect x="866.7" y="238.5" class="st2" width="2.9" height="147.2"/>
	<rect x="878.8" y="250" class="st2" width="2.9" height="135.7"/>
	<rect x="872.8" y="244.3" class="st2" width="2.9" height="141.4"/>
	<polygon class="st2" points="814.8,404.9 814.8,405.3 814.8,420.4 814.8,420.8 814.8,435.5 814.8,435.9 814.8,525 816.5,525 
		816.5,435.9 949.9,435.9 949.9,435.5 816.5,435.5 816.5,420.8 949.9,420.8 949.9,420.4 816.5,420.4 816.5,405.3 949.9,405.3 
		949.9,404.9 816.5,404.9 816.5,388.6 814.8,388.6 	"/>
	<rect x="814.8" y="386.1" class="st2" width="1.7" height="1"/>
	<rect x="814.8" y="387.1" class="st2" width="1.7" height="1.6"/>
	<rect x="767" y="317.3" class="st2" width="3.8" height="19.5"/>
	<rect x="797.3" y="341.5" class="st2" width="3.8" height="19.5"/>
	<rect x="777.8" y="377.4" class="st2" width="3.8" height="19.5"/>
	<rect x="797.3" y="425.7" class="st2" width="3.8" height="19.5"/>
	<rect x="777.8" y="425.9" class="st2" width="3.8" height="19.5"/>
</g>
<path class="st3" d="M-55.9,312c-24.4,35.4-21,62-21,62c2.9,22.5,18,52,18,52s-24,32-24,56c0,115,326,276,678,276
	c306.4,0,575.2-119,575.2-182c0-37.6-76.2-55-76.2-99c0-50.8,76.3-64.4,90-124c13.8-59.8-44.6-120.6-68-145
	c-48.4-50.5-153-129.8-410-145C227.2,34.7-29.4,273.6-55.9,312z"/>
</svg>
