<?xml version="1.0" encoding="utf-8"?>
<!-- Generator: Adobe Illustrator 19.0.0, SVG Export Plug-In . SVG Version: 6.00 Build 0)  -->
<svg version="1.1" id="Layer_1" xmlns="http://www.w3.org/2000/svg" xmlns:xlink="http://www.w3.org/1999/xlink" x="0px" y="0px"
	 viewBox="5 9 170 143" style="enable-background:new 5 9 170 143;" xml:space="preserve">
<style type="text/css">
	.st0{fill:url(#SVGID_1_);}
</style>
<linearGradient id="SVGID_1_" gradientUnits="userSpaceOnUse" x1="41.232" y1="130.9729" x2="147.8692" y2="24.3356" gradientTransform="matrix(1 0 0 -1 0 162)">
	<stop  offset="0.1902" style="stop-color:#47BBD8"/>
	<stop  offset="1" style="stop-color:#008CD3"/>
</linearGradient>
<path class="st0" d="M166.9,90.9c-5.5-13.5-15.6-14-23.5-32c-6-13.5-2.1-24.4-16.6-35.7c-6.7-5.3-25.9-9.6-36.1-9.6
	s-26.1,1.5-40.8,11.2C28.3,38.8,0.8,76.2,16,98.9c10,14.9,30.2,9.6,43.1,19.6c15.4,11.9,13.9,21.7,36.3,26.3
	c5.9,1.2,11.5,1.5,16.9,1.1C150.5,149,176,113.5,166.9,90.9z"/>
</svg>
